<?xml version="1.0" encoding="UTF-8" standalone="no"?>
<!DOCTYPE svg PUBLIC "-//W3C//DTD SVG 1.1//EN"
 "http://www.w3.org/Graphics/SVG/1.1/DTD/svg11.dtd">
<!-- Generated by graphviz version 9.0.0 (20230911.1827)
 -->
<!-- Title: foo Pages: 1 -->
<svg width="865pt" height="340pt"
 viewBox="0.00 0.00 864.75 340.00" xmlns="http://www.w3.org/2000/svg" xmlns:xlink="http://www.w3.org/1999/xlink">
<g id="graph0" class="graph" transform="scale(1 1) rotate(0) translate(4 336)">
<title>foo</title>
<polygon fill="white" stroke="none" points="-4,4 -4,-336 860.75,-336 860.75,4 -4,4"/>
<g id="clust1" class="cluster">
<title>cluster_command_side</title>
<polygon fill="none" stroke="black" stroke-dasharray="1,5" points="337.75,-247 337.75,-324 848.75,-324 848.75,-247 337.75,-247"/>
<text text-anchor="middle" x="593.25" y="-306.7" font-family="Times,serif" font-size="14.00">Command side</text>
</g>
<g id="clust2" class="cluster">
<title>cluster_query_side</title>
<polygon fill="none" stroke="black" stroke-dasharray="1,5" points="352,-8 352,-139 834.5,-139 834.5,-8 352,-8"/>
<text text-anchor="middle" x="593.25" y="-121.7" font-family="Times,serif" font-size="14.00">Query side</text>
</g>
<g id="clust3" class="cluster">
<title>cluster_messaging</title>
<polygon fill="none" stroke="black" stroke-dasharray="1,5" points="155.75,-79 155.75,-264 248.75,-264 248.75,-79 155.75,-79"/>
<text text-anchor="middle" x="202.25" y="-246.7" font-family="Times,serif" font-size="14.00">Messaging</text>
</g>
<!-- Command Handling Component -->
<g id="node1" class="node">
<title>Command Handling Component</title>
<polygon fill="#fd8d3c" stroke="black" points="589.75,-291 345.75,-291 345.75,-255 589.75,-255 589.75,-291"/>
<text text-anchor="middle" x="467.75" y="-268.32" font-family="Times,serif" font-size="14.00">Command Handling Component</text>
</g>
<!-- Command model repository -->
<g id="node2" class="node">
<title>Command model repository</title>
<path fill="#fee6ce" stroke="black" d="M840.75,-287.73C840.75,-289.53 792.79,-291 733.75,-291 674.71,-291 626.75,-289.53 626.75,-287.73 626.75,-287.73 626.75,-258.27 626.75,-258.27 626.75,-256.47 674.71,-255 733.75,-255 792.79,-255 840.75,-256.47 840.75,-258.27 840.75,-258.27 840.75,-287.73 840.75,-287.73"/>
<path fill="none" stroke="black" d="M840.75,-287.73C840.75,-285.92 792.79,-284.45 733.75,-284.45 674.71,-284.45 626.75,-285.92 626.75,-287.73"/>
<text text-anchor="middle" x="733.75" y="-268.32" font-family="Times,serif" font-size="14.00">Command model repository</text>
</g>
<!-- Command Handling Component&#45;&gt;Command model repository -->
<g id="edge1" class="edge">
<title>Command Handling Component&#45;&gt;Command model repository</title>
<path fill="none" stroke="black" d="M601.39,-273C605.99,-273 610.59,-273 615.17,-273"/>
<polygon fill="black" stroke="black" points="601.45,-269.5 591.45,-273 601.45,-276.5 601.45,-269.5"/>
<polygon fill="black" stroke="black" points="614.97,-276.5 624.97,-273 614.97,-269.5 614.97,-276.5"/>
</g>
<!-- EventBus -->
<g id="node9" class="node">
<title>EventBus</title>
<polygon fill="none" stroke="black" points="189.75,-160.5 213.75,-160.5 213.75,-166.5 189.75,-166.5 189.75,-160.5"/>
<polygon fill="none" stroke="black" points="189.75,-151.5 213.75,-151.5 213.75,-157.5 189.75,-157.5 189.75,-151.5"/>
<polyline fill="none" stroke="black" points="213.75,-159 228.75,-159"/>
<polyline fill="none" stroke="black" points="174.75,-159 189.75,-159"/>
</g>
<!-- Command Handling Component&#45;&gt;EventBus -->
<g id="edge6" class="edge">
<title>Command Handling Component&#45;&gt;EventBus</title>
<path fill="none" stroke="black" d="M432.72,-254.63C404.9,-239.96 364.33,-219.35 327.75,-203.75 298.7,-191.36 264.94,-179.42 239.83,-170.99"/>
<polygon fill="black" stroke="black" points="240.98,-167.68 230.39,-167.85 238.77,-174.33 240.98,-167.68"/>
<text text-anchor="middle" x="293.25" y="-206.95" font-family="Times,serif" font-size="14.00">event</text>
</g>
<!-- c1 -->
<!-- c1&#45;&gt;Command Handling Component -->
<!-- Event Handling Component -->
<g id="node4" class="node">
<title>Event Handling Component</title>
<polygon fill="#fd8d3c" stroke="black" points="574.75,-106 360.75,-106 360.75,-70 574.75,-70 574.75,-106"/>
<text text-anchor="middle" x="467.75" y="-83.33" font-family="Times,serif" font-size="14.00">Event Handling Component</text>
</g>
<!-- Query model repository -->
<g id="node6" class="node">
<title>Query model repository</title>
<path fill="#fee6ce" stroke="black" d="M826.5,-62.73C826.5,-64.53 784.93,-66 733.75,-66 682.57,-66 641,-64.53 641,-62.73 641,-62.73 641,-33.27 641,-33.27 641,-31.47 682.57,-30 733.75,-30 784.93,-30 826.5,-31.47 826.5,-33.27 826.5,-33.27 826.5,-62.73 826.5,-62.73"/>
<path fill="none" stroke="black" d="M826.5,-62.73C826.5,-60.92 784.93,-59.45 733.75,-59.45 682.57,-59.45 641,-60.92 641,-62.73"/>
<text text-anchor="middle" x="733.75" y="-43.33" font-family="Times,serif" font-size="14.00">Query model repository</text>
</g>
<!-- Event Handling Component&#45;&gt;Query model repository -->
<g id="edge3" class="edge">
<title>Event Handling Component&#45;&gt;Query model repository</title>
<path fill="none" stroke="black" d="M574.99,-71.9C592.94,-69.18 611.55,-66.36 629.42,-63.66"/>
<polygon fill="black" stroke="black" points="629.89,-67.13 639.25,-62.17 628.84,-60.2 629.89,-67.13"/>
</g>
<!-- c2 -->
<!-- Event Handling Component&#45;&gt;c2 -->
<!-- Query Handling Component -->
<g id="node5" class="node">
<title>Query Handling Component</title>
<polygon fill="#fd8d3c" stroke="black" points="575.5,-52 360,-52 360,-16 575.5,-16 575.5,-52"/>
<text text-anchor="middle" x="467.75" y="-29.32" font-family="Times,serif" font-size="14.00">Query Handling Component</text>
</g>
<!-- Query Handling Component&#45;&gt;Query model repository -->
<g id="edge4" class="edge">
<title>Query Handling Component&#45;&gt;Query model repository</title>
<path fill="none" stroke="black" d="M587.2,-40.28C601.26,-41.03 615.53,-41.78 629.35,-42.52"/>
<polygon fill="black" stroke="black" points="587.43,-36.79 577.26,-39.75 587.06,-43.78 587.43,-36.79"/>
<polygon fill="black" stroke="black" points="629.17,-46.01 639.34,-43.05 629.54,-39.02 629.17,-46.01"/>
</g>
<!-- CommandBus -->
<g id="node8" class="node">
<title>CommandBus</title>
<polygon fill="none" stroke="black" points="189.75,-214.5 213.75,-214.5 213.75,-220.5 189.75,-220.5 189.75,-214.5"/>
<polygon fill="none" stroke="black" points="189.75,-205.5 213.75,-205.5 213.75,-211.5 189.75,-211.5 189.75,-205.5"/>
<polyline fill="none" stroke="black" points="213.75,-213 228.75,-213"/>
<polyline fill="none" stroke="black" points="174.75,-213 189.75,-213"/>
</g>
<!-- CommandBus&#45;&gt;Command Handling Component -->
<g id="edge9" class="edge">
<title>CommandBus&#45;&gt;Command Handling Component</title>
<path fill="none" stroke="black" d="M239.98,-221.46C274.83,-229.38 328.34,-241.54 374.62,-252.06"/>
<polygon fill="black" stroke="black" points="241.03,-218.11 230.5,-219.31 239.48,-224.94 241.03,-218.11"/>
<polygon fill="black" stroke="black" points="373.6,-255.42 384.13,-254.22 375.15,-248.59 373.6,-255.42"/>
<text text-anchor="middle" x="293.25" y="-244.95" font-family="Times,serif" font-size="14.00">command</text>
</g>
<!-- EventBus&#45;&gt;Event Handling Component -->
<g id="edge7" class="edge">
<title>EventBus&#45;&gt;Event Handling Component</title>
<path fill="none" stroke="black" d="M229.03,-151.93C265.57,-142.1 333.31,-123.89 387.16,-109.4"/>
<polygon fill="black" stroke="black" points="387.87,-112.84 396.62,-106.86 386.05,-106.08 387.87,-112.84"/>
<text text-anchor="middle" x="293.25" y="-146.95" font-family="Times,serif" font-size="14.00">event</text>
</g>
<!-- QueryBus -->
<g id="node10" class="node">
<title>QueryBus</title>
<polygon fill="none" stroke="black" points="189.75,-106.5 213.75,-106.5 213.75,-112.5 189.75,-112.5 189.75,-106.5"/>
<polygon fill="none" stroke="black" points="189.75,-97.5 213.75,-97.5 213.75,-103.5 189.75,-103.5 189.75,-97.5"/>
<polyline fill="none" stroke="black" points="213.75,-105 228.75,-105"/>
<polyline fill="none" stroke="black" points="174.75,-105 189.75,-105"/>
</g>
<!-- QueryBus&#45;&gt;Query Handling Component -->
<g id="edge11" class="edge">
<title>QueryBus&#45;&gt;Query Handling Component</title>
<path fill="none" stroke="black" d="M239.99,-91.65C266.92,-82.3 304.3,-69.92 337.75,-61 345.5,-58.93 353.55,-56.92 361.67,-55"/>
<polygon fill="black" stroke="black" points="238.84,-88.35 230.56,-94.96 241.16,-94.95 238.84,-88.35"/>
<polygon fill="black" stroke="black" points="362.33,-58.44 371.29,-52.77 360.75,-51.62 362.33,-58.44"/>
<text text-anchor="middle" x="279.4" y="-58.61" font-family="Times,serif" font-size="14.00">query</text>
</g>
<!-- Client -->
<g id="node11" class="node">
<title>Client</title>
<polygon fill="none" stroke="#7f2704" points="58.75,-231 0,-231 0,-227 -4,-227 -4,-223 0,-223 0,-95 -4,-95 -4,-91 0,-91 0,-87 58.75,-87 58.75,-231"/>
<polyline fill="none" stroke="#7f2704" points="0,-227 4,-227 4,-223 0,-223"/>
<polyline fill="none" stroke="#7f2704" points="0,-95 4,-95 4,-91 0,-91"/>
<text text-anchor="middle" x="29.38" y="-154.32" font-family="Times,serif" font-size="14.00">Client</text>
</g>
<!-- Client&#45;&gt;CommandBus -->
<g id="edge8" class="edge">
<title>Client&#45;&gt;CommandBus</title>
<path fill="none" stroke="black" d="M69.55,-177.28C71.97,-178.24 74.38,-179.16 76.75,-180 105.37,-190.21 138.69,-198.91 163.58,-204.81"/>
<polygon fill="black" stroke="black" points="70.99,-174.09 60.41,-173.44 68.28,-180.54 70.99,-174.09"/>
<polygon fill="black" stroke="black" points="162.72,-208.2 173.25,-207.05 164.3,-201.38 162.72,-208.2"/>
<text text-anchor="middle" x="111.25" y="-202.95" font-family="Times,serif" font-size="14.00">command</text>
</g>
<!-- Client&#45;&gt;EventBus -->
<g id="edge12" class="edge">
<title>Client&#45;&gt;EventBus</title>
<path fill="none" stroke="black" d="M58.89,-159C87.45,-159 131.56,-159 163.01,-159"/>
<polygon fill="black" stroke="black" points="162.87,-162.5 172.87,-159 162.87,-155.5 162.87,-162.5"/>
<text text-anchor="middle" x="111.25" y="-162.95" font-family="Times,serif" font-size="14.00">event</text>
</g>
<!-- Client&#45;&gt;QueryBus -->
<g id="edge10" class="edge">
<title>Client&#45;&gt;QueryBus</title>
<path fill="none" stroke="black" d="M69.7,-146.54C97.94,-137.58 135.78,-125.59 163.54,-116.79"/>
<polygon fill="black" stroke="black" points="68.81,-143.15 60.33,-149.5 70.92,-149.82 68.81,-143.15"/>
<polygon fill="black" stroke="black" points="164.46,-120.17 172.94,-113.81 162.35,-113.5 164.46,-120.17"/>
<text text-anchor="middle" x="96.56" y="-118.19" font-family="Times,serif" font-size="14.00">query</text>
</g>
</g>
</svg>
