<svg width="307" height="300" viewBox="0 0 307 300" fill="none" xmlns="http://www.w3.org/2000/svg"><path d="M90.107 0c8.29 0 15.799 3.361 21.236 8.79 5.436 5.432 8.8 12.932 8.8 21.21v39.998c0 16.311-13.029 29.58-29.26 29.99l-1.551.02c-16.231.41-29.26 13.679-29.26 29.99v40.004c0 16.57 13.446 30 30.035 30 8.29 0 15.799 3.356 21.236 8.789 5.436 5.428 8.8 12.928 8.8 21.211V270c0 16.57-13.446 30-30.036 30-16.59 0-30.036-13.43-30.036-30v-39.998c0-8.283-3.364-15.783-8.8-21.211a29.945 29.945 0 00-21.235-8.789c-16.59 0-30.036-13.43-30.036-30v-40.004c0-16.57 13.447-30 30.036-30 16.59 0 30.035-13.43 30.035-30V30c0-16.57 13.447-30 30.036-30zm126.144 0c8.29 0 15.798 3.361 21.234 8.79 5.437 5.432 8.801 12.932 8.801 21.21v39.998c0 16.57 13.447 30 30.036 30 8.29 0 15.799 3.361 21.236 8.794 5.436 5.428 8.799 12.928 8.799 21.206v40.004c0 16.311-13.028 29.579-29.259 29.99l-1.551.02c-16.231.41-29.261 13.679-29.261 29.99V270c0 16.57-13.445 30-30.035 30s-30.036-13.43-30.036-30v-39.998c0-16.312 13.029-29.58 29.261-29.99l1.55-.02c16.232-.411 29.26-13.679 29.26-29.99v-40.004c0-8.278-3.364-15.778-8.801-21.206-5.436-5.433-12.944-8.794-21.234-8.794-16.59 0-30.036-13.43-30.036-30V30c0-16.57 13.446-30 30.036-30zm-63.072 99.998c16.588 0 30.035 13.435 30.035 30v40.004c0 16.565-13.447 30-30.035 30s-30.036-13.435-30.036-30v-40.004c0-16.565 13.448-30 30.036-30z" fill="#3b82f6"/></svg>