<?xml version="1.0" encoding="UTF-8" standalone="no"?>
<!DOCTYPE svg PUBLIC "-//W3C//DTD SVG 1.1//EN"
 "http://www.w3.org/Graphics/SVG/1.1/DTD/svg11.dtd">
<!-- Generated by graphviz version 3.0.0 (20221109.1736)
 -->
<!-- Title: foo Pages: 1 -->
<svg width="950pt" height="336pt"
 viewBox="0.00 0.00 950.00 336.00" xmlns="http://www.w3.org/2000/svg" xmlns:xlink="http://www.w3.org/1999/xlink">
<g id="graph0" class="graph" transform="scale(1 1) rotate(0) translate(4 332)">
<title>foo</title>
<polygon fill="white" stroke="transparent" points="-4,4 -4,-332 946,-332 946,4 -4,4"/>
<g id="clust1" class="cluster">
<title>cluster_command_side</title>
<polygon fill="none" stroke="black" stroke-dasharray="1,5" points="372,-245 372,-320 934,-320 934,-245 372,-245"/>
<text text-anchor="middle" x="653" y="-304.8" font-family="Times,serif" font-size="14.00">Command side</text>
</g>
<g id="clust2" class="cluster">
<title>cluster_query_side</title>
<polygon fill="none" stroke="black" stroke-dasharray="1,5" points="386.5,-8 386.5,-137 919.5,-137 919.5,-8 386.5,-8"/>
<text text-anchor="middle" x="653" y="-121.8" font-family="Times,serif" font-size="14.00">Query side</text>
</g>
<g id="clust3" class="cluster">
<title>cluster_messaging</title>
<polygon fill="none" stroke="black" stroke-dasharray="1,5" points="157,-78 157,-261 282,-261 282,-78 157,-78"/>
<text text-anchor="middle" x="219.5" y="-245.8" font-family="Times,serif" font-size="14.00">Message buses</text>
</g>
<!-- Command Handling Component -->
<g id="node1" class="node">
<title>Command Handling Component</title>
<polygon fill="#fd8d3c" stroke="black" points="625,-289 380,-289 380,-253 625,-253 625,-289"/>
<text text-anchor="middle" x="502.5" y="-267.3" font-family="Times,serif" font-size="14.00">Command Handling Component</text>
</g>
<!-- Command model repository -->
<g id="node2" class="node">
<title>Command model repository</title>
<path fill="#fee6ce" stroke="black" d="M926,-285.73C926,-287.53 877.82,-289 818.5,-289 759.18,-289 711,-287.53 711,-285.73 711,-285.73 711,-256.27 711,-256.27 711,-254.47 759.18,-253 818.5,-253 877.82,-253 926,-254.47 926,-256.27 926,-256.27 926,-285.73 926,-285.73"/>
<path fill="none" stroke="black" d="M926,-285.73C926,-283.92 877.82,-282.45 818.5,-282.45 759.18,-282.45 711,-283.92 711,-285.73"/>
<text text-anchor="middle" x="818.5" y="-267.3" font-family="Times,serif" font-size="14.00">Command model repository</text>
</g>
<!-- Command Handling Component&#45;&gt;Command model repository -->
<g id="edge1" class="edge">
<title>Command Handling Component&#45;&gt;Command model repository</title>
<path fill="none" stroke="black" d="M635.65,-271C657.19,-271 679.37,-271 700.51,-271"/>
<polygon fill="black" stroke="black" points="635.35,-267.5 625.35,-271 635.35,-274.5 635.35,-267.5"/>
<polygon fill="black" stroke="black" points="700.79,-274.5 710.79,-271 700.79,-267.5 700.79,-274.5"/>
<text text-anchor="middle" x="668" y="-274.8" font-family="Times,serif" font-size="14.00">persist</text>
</g>
<!-- EventBus -->
<g id="node9" class="node">
<title>EventBus</title>
<polygon fill="none" stroke="black" points="207,-159.5 231,-159.5 231,-165.5 207,-165.5 207,-159.5"/>
<polygon fill="none" stroke="black" points="207,-150.5 231,-150.5 231,-156.5 207,-156.5 207,-150.5"/>
<polyline fill="none" stroke="black" points="231,-158 246,-158 "/>
<polyline fill="none" stroke="black" points="192,-158 207,-158 "/>
</g>
<!-- Command Handling Component&#45;&gt;EventBus -->
<g id="edge6" class="edge">
<title>Command Handling Component&#45;&gt;EventBus</title>
<path fill="none" stroke="black" d="M463.69,-252.86C435.84,-239.77 396.9,-222 362,-208 326.3,-193.69 284.73,-179.31 255.82,-169.67"/>
<polygon fill="black" stroke="black" points="256.75,-166.29 246.16,-166.46 254.55,-172.93 256.75,-166.29"/>
<text text-anchor="middle" x="327" y="-211.8" font-family="Times,serif" font-size="14.00">event</text>
</g>
<!-- c1 -->
<!-- c1&#45;&gt;Command Handling Component -->
<!-- Event Handling Component -->
<g id="node4" class="node">
<title>Event Handling Component</title>
<polygon fill="#fd8d3c" stroke="black" points="610,-106 395,-106 395,-70 610,-70 610,-106"/>
<text text-anchor="middle" x="502.5" y="-84.3" font-family="Times,serif" font-size="14.00">Event Handling Component</text>
</g>
<!-- Query model repository -->
<g id="node6" class="node">
<title>Query model repository</title>
<path fill="#fee6ce" stroke="black" d="M911.5,-52.73C911.5,-54.53 869.82,-56 818.5,-56 767.18,-56 725.5,-54.53 725.5,-52.73 725.5,-52.73 725.5,-23.27 725.5,-23.27 725.5,-21.47 767.18,-20 818.5,-20 869.82,-20 911.5,-21.47 911.5,-23.27 911.5,-23.27 911.5,-52.73 911.5,-52.73"/>
<path fill="none" stroke="black" d="M911.5,-52.73C911.5,-50.92 869.82,-49.45 818.5,-49.45 767.18,-49.45 725.5,-50.92 725.5,-52.73"/>
<text text-anchor="middle" x="818.5" y="-34.3" font-family="Times,serif" font-size="14.00">Query model repository</text>
</g>
<!-- Event Handling Component&#45;&gt;Query model repository -->
<g id="edge3" class="edge">
<title>Event Handling Component&#45;&gt;Query model repository</title>
<path fill="none" stroke="black" d="M610.24,-71C644.16,-65.6 681.58,-59.64 715.17,-54.29"/>
<polygon fill="black" stroke="black" points="716.14,-57.68 725.47,-52.65 715.04,-50.77 716.14,-57.68"/>
<text text-anchor="middle" x="668" y="-67.8" font-family="Times,serif" font-size="14.00">persist</text>
</g>
<!-- c2 -->
<!-- Event Handling Component&#45;&gt;c2 -->
<!-- Query Handling Component -->
<g id="node5" class="node">
<title>Query Handling Component</title>
<polygon fill="#fd8d3c" stroke="black" points="610.5,-52 394.5,-52 394.5,-16 610.5,-16 610.5,-52"/>
<text text-anchor="middle" x="502.5" y="-30.3" font-family="Times,serif" font-size="14.00">Query Handling Component</text>
</g>
<!-- Query Handling Component&#45;&gt;Query model repository -->
<g id="edge4" class="edge">
<title>Query Handling Component&#45;&gt;Query model repository</title>
<path fill="none" stroke="black" d="M620.83,-35.49C651.89,-35.89 685.17,-36.31 715.35,-36.7"/>
<polygon fill="black" stroke="black" points="620.73,-31.99 610.68,-35.37 620.64,-38.99 620.73,-31.99"/>
<polygon fill="black" stroke="black" points="715.42,-40.2 725.46,-36.83 715.51,-33.2 715.42,-40.2"/>
<text text-anchor="middle" x="668" y="-39.8" font-family="Times,serif" font-size="14.00">read</text>
</g>
<!-- CommandBus -->
<g id="node8" class="node">
<title>CommandBus</title>
<polygon fill="none" stroke="black" points="207,-213.5 231,-213.5 231,-219.5 207,-219.5 207,-213.5"/>
<polygon fill="none" stroke="black" points="207,-204.5 231,-204.5 231,-210.5 207,-210.5 207,-204.5"/>
<polyline fill="none" stroke="black" points="231,-212 246,-212 "/>
<polyline fill="none" stroke="black" points="192,-212 207,-212 "/>
</g>
<!-- CommandBus&#45;&gt;Command Handling Component -->
<g id="edge9" class="edge">
<title>CommandBus&#45;&gt;Command Handling Component</title>
<path fill="none" stroke="black" d="M256.07,-219.56C293.68,-227.44 354.22,-240.13 405.77,-250.94"/>
<polygon fill="black" stroke="black" points="256.74,-216.12 246.23,-217.5 255.3,-222.97 256.74,-216.12"/>
<polygon fill="black" stroke="black" points="405.11,-254.37 415.61,-253 406.54,-247.52 405.11,-254.37"/>
<text text-anchor="middle" x="327" y="-244.8" font-family="Times,serif" font-size="14.00">command</text>
</g>
<!-- EventBus&#45;&gt;Event Handling Component -->
<g id="edge7" class="edge">
<title>EventBus&#45;&gt;Event Handling Component</title>
<path fill="none" stroke="black" d="M246.23,-151.48C285.26,-141.77 360.32,-123.11 418.99,-108.52"/>
<polygon fill="black" stroke="black" points="420.14,-111.84 429,-106.03 418.45,-105.05 420.14,-111.84"/>
<text text-anchor="middle" x="327" y="-142.8" font-family="Times,serif" font-size="14.00">event</text>
</g>
<!-- QueryBus -->
<g id="node10" class="node">
<title>QueryBus</title>
<polygon fill="none" stroke="black" points="207,-105.5 231,-105.5 231,-111.5 207,-111.5 207,-105.5"/>
<polygon fill="none" stroke="black" points="207,-96.5 231,-96.5 231,-102.5 207,-102.5 207,-96.5"/>
<polyline fill="none" stroke="black" points="231,-104 246,-104 "/>
<polyline fill="none" stroke="black" points="192,-104 207,-104 "/>
</g>
<!-- QueryBus&#45;&gt;Query Handling Component -->
<g id="edge11" class="edge">
<title>QueryBus&#45;&gt;Query Handling Component</title>
<path fill="none" stroke="black" d="M256.03,-93.04C286.71,-83.89 332.04,-70.81 372,-61 381.45,-58.68 391.32,-56.39 401.21,-54.18"/>
<polygon fill="black" stroke="black" points="254.79,-89.76 246.21,-95.98 256.8,-96.46 254.79,-89.76"/>
<polygon fill="black" stroke="black" points="402.09,-57.57 411.1,-52 400.58,-50.74 402.09,-57.57"/>
<text text-anchor="middle" x="307.25" y="-61.18" font-family="Times,serif" font-size="14.00">query</text>
</g>
<!-- Client -->
<g id="node11" class="node">
<title>Client</title>
<polygon fill="none" stroke="#7f2704" points="59,-230 0,-230 0,-226 -4,-226 -4,-222 0,-222 0,-94 -4,-94 -4,-90 0,-90 0,-86 59,-86 59,-230"/>
<polyline fill="none" stroke="#7f2704" points="0,-226 4,-226 4,-222 0,-222 "/>
<polyline fill="none" stroke="#7f2704" points="0,-94 4,-94 4,-90 0,-90 "/>
<text text-anchor="middle" x="29.5" y="-154.3" font-family="Times,serif" font-size="14.00">Client</text>
</g>
<!-- Client&#45;&gt;CommandBus -->
<g id="edge8" class="edge">
<title>Client&#45;&gt;CommandBus</title>
<path fill="none" stroke="black" d="M68.7,-174.12C71.49,-175.14 74.28,-176.11 77,-177 112.13,-188.47 153.23,-198.27 181.96,-204.56"/>
<polygon fill="black" stroke="black" points="69.87,-170.82 59.28,-170.51 67.37,-177.36 69.87,-170.82"/>
<polygon fill="black" stroke="black" points="181.44,-208.03 191.95,-206.72 182.92,-201.19 181.44,-208.03"/>
<text text-anchor="middle" x="112" y="-199.8" font-family="Times,serif" font-size="14.00">command</text>
</g>
<!-- Client&#45;&gt;EventBus -->
<g id="edge12" class="edge">
<title>Client&#45;&gt;EventBus</title>
<path fill="none" stroke="black" d="M59.39,-158C92.16,-158 145.66,-158 181.35,-158"/>
<polygon fill="black" stroke="black" points="181.81,-161.5 191.81,-158 181.81,-154.5 181.81,-161.5"/>
<text text-anchor="middle" x="112" y="-161.8" font-family="Times,serif" font-size="14.00">event</text>
</g>
<!-- Client&#45;&gt;QueryBus -->
<g id="edge10" class="edge">
<title>Client&#45;&gt;QueryBus</title>
<path fill="none" stroke="black" d="M69.23,-146.84C102.32,-137.31 149.56,-123.71 181.87,-114.4"/>
<polygon fill="black" stroke="black" points="68.03,-143.55 59.39,-149.68 69.96,-150.28 68.03,-143.55"/>
<polygon fill="black" stroke="black" points="183.16,-117.67 191.81,-111.54 181.23,-110.95 183.16,-117.67"/>
<text text-anchor="middle" x="105.08" y="-119.27" font-family="Times,serif" font-size="14.00">query</text>
</g>
</g>
</svg>
