<?xml version="1.0" encoding="UTF-8" standalone="no"?>
<!DOCTYPE svg PUBLIC "-//W3C//DTD SVG 1.1//EN"
 "http://www.w3.org/Graphics/SVG/1.1/DTD/svg11.dtd">
<!-- Generated by graphviz version 7.0.5 (20221223.1930)
 -->
<!-- Title: foo Pages: 1 -->
<svg width="950pt" height="336pt"
 viewBox="0.00 0.00 950.00 336.00" xmlns="http://www.w3.org/2000/svg" xmlns:xlink="http://www.w3.org/1999/xlink">
<g id="graph0" class="graph" transform="scale(1 1) rotate(0) translate(4 332)">
<title>foo</title>
<polygon fill="white" stroke="none" points="-4,4 -4,-332 946,-332 946,4 -4,4"/>
<g id="clust1" class="cluster">
<title>cluster_command_side</title>
<polygon fill="none" stroke="black" stroke-dasharray="1,5" points="372,-245 372,-320 934,-320 934,-245 372,-245"/>
<text text-anchor="middle" x="653" y="-304.8" font-family="Times,serif" font-size="14.00">Command side</text>
</g>
<g id="clust2" class="cluster">
<title>cluster_query_side</title>
<polygon fill="none" stroke="black" stroke-dasharray="1,5" points="386.5,-8 386.5,-137 919.5,-137 919.5,-8 386.5,-8"/>
<text text-anchor="middle" x="653" y="-121.8" font-family="Times,serif" font-size="14.00">Query side</text>
</g>
<g id="clust3" class="cluster">
<title>cluster_messaging</title>
<polygon fill="none" stroke="black" stroke-dasharray="1,5" points="157,-78 157,-261 282,-261 282,-78 157,-78"/>
<text text-anchor="middle" x="219.5" y="-245.8" font-family="Times,serif" font-size="14.00">Message buses</text>
</g>
<!-- Command Handling Component -->
<g id="node1" class="node">
<title>Command Handling Component</title>
<polygon fill="#fd8d3c" stroke="black" points="625,-289 380,-289 380,-253 625,-253 625,-289"/>
<text text-anchor="middle" x="502.5" y="-267.3" font-family="Times,serif" font-size="14.00">Command Handling Component</text>
</g>
<!-- Command model repository -->
<g id="node2" class="node">
<title>Command model repository</title>
<path fill="#fee6ce" stroke="black" d="M926,-285.73C926,-287.53 877.82,-289 818.5,-289 759.18,-289 711,-287.53 711,-285.73 711,-285.73 711,-256.27 711,-256.27 711,-254.47 759.18,-253 818.5,-253 877.82,-253 926,-254.47 926,-256.27 926,-256.27 926,-285.73 926,-285.73"/>
<path fill="none" stroke="black" d="M926,-285.73C926,-283.92 877.82,-282.45 818.5,-282.45 759.18,-282.45 711,-283.92 711,-285.73"/>
<text text-anchor="middle" x="818.5" y="-267.3" font-family="Times,serif" font-size="14.00">Command model repository</text>
</g>
<!-- Command Handling Component&#45;&gt;Command model repository -->
<g id="edge1" class="edge">
<title>Command Handling Component&#45;&gt;Command model repository</title>
<path fill="none" stroke="black" d="M636.62,-271C657.44,-271 678.83,-271 699.28,-271"/>
<polygon fill="black" stroke="black" points="636.86,-267.5 626.86,-271 636.86,-274.5 636.86,-267.5"/>
<polygon fill="black" stroke="black" points="699.03,-274.5 709.03,-271 699.03,-267.5 699.03,-274.5"/>
<text text-anchor="middle" x="668" y="-274.8" font-family="Times,serif" font-size="14.00">persist</text>
</g>
<!-- EventBus -->
<g id="node9" class="node">
<title>EventBus</title>
<polygon fill="none" stroke="black" points="207,-159.5 231,-159.5 231,-165.5 207,-165.5 207,-159.5"/>
<polygon fill="none" stroke="black" points="207,-150.5 231,-150.5 231,-156.5 207,-156.5 207,-150.5"/>
<polyline fill="none" stroke="black" points="231,-158 246,-158"/>
<polyline fill="none" stroke="black" points="192,-158 207,-158"/>
</g>
<!-- Command Handling Component&#45;&gt;EventBus -->
<g id="edge6" class="edge">
<title>Command Handling Component&#45;&gt;EventBus</title>
<path fill="none" stroke="black" d="M463.1,-252.59C435.29,-239.52 396.65,-221.9 362,-208 326.88,-193.92 286.06,-179.77 257.23,-170.14"/>
<polygon fill="black" stroke="black" points="258.45,-166.85 247.86,-167.03 256.25,-173.5 258.45,-166.85"/>
<text text-anchor="middle" x="327" y="-211.8" font-family="Times,serif" font-size="14.00">event</text>
</g>
<!-- c1 -->
<!-- c1&#45;&gt;Command Handling Component -->
<!-- Event Handling Component -->
<g id="node4" class="node">
<title>Event Handling Component</title>
<polygon fill="#fd8d3c" stroke="black" points="610,-106 395,-106 395,-70 610,-70 610,-106"/>
<text text-anchor="middle" x="502.5" y="-84.3" font-family="Times,serif" font-size="14.00">Event Handling Component</text>
</g>
<!-- Query model repository -->
<g id="node6" class="node">
<title>Query model repository</title>
<path fill="#fee6ce" stroke="black" d="M911.5,-52.73C911.5,-54.53 869.82,-56 818.5,-56 767.18,-56 725.5,-54.53 725.5,-52.73 725.5,-52.73 725.5,-23.27 725.5,-23.27 725.5,-21.47 767.18,-20 818.5,-20 869.82,-20 911.5,-21.47 911.5,-23.27 911.5,-23.27 911.5,-52.73 911.5,-52.73"/>
<path fill="none" stroke="black" d="M911.5,-52.73C911.5,-50.92 869.82,-49.45 818.5,-49.45 767.18,-49.45 725.5,-50.92 725.5,-52.73"/>
<text text-anchor="middle" x="818.5" y="-34.3" font-family="Times,serif" font-size="14.00">Query model repository</text>
</g>
<!-- Event Handling Component&#45;&gt;Query model repository -->
<g id="edge3" class="edge">
<title>Event Handling Component&#45;&gt;Query model repository</title>
<path fill="none" stroke="black" d="M610.24,-71C643.79,-65.66 680.75,-59.77 714.06,-54.47"/>
<polygon fill="black" stroke="black" points="714.39,-57.96 723.72,-52.93 713.29,-51.05 714.39,-57.96"/>
<text text-anchor="middle" x="668" y="-67.8" font-family="Times,serif" font-size="14.00">persist</text>
</g>
<!-- c2 -->
<!-- Event Handling Component&#45;&gt;c2 -->
<!-- Query Handling Component -->
<g id="node5" class="node">
<title>Query Handling Component</title>
<polygon fill="#fd8d3c" stroke="black" points="610.5,-52 394.5,-52 394.5,-16 610.5,-16 610.5,-52"/>
<text text-anchor="middle" x="502.5" y="-30.3" font-family="Times,serif" font-size="14.00">Query Handling Component</text>
</g>
<!-- Query Handling Component&#45;&gt;Query model repository -->
<g id="edge4" class="edge">
<title>Query Handling Component&#45;&gt;Query model repository</title>
<path fill="none" stroke="black" d="M622.14,-35.51C652.39,-35.9 684.66,-36.31 714.08,-36.68"/>
<polygon fill="black" stroke="black" points="622.24,-32.01 612.2,-35.38 622.15,-39.01 622.24,-32.01"/>
<polygon fill="black" stroke="black" points="713.65,-40.18 723.69,-36.8 713.74,-33.18 713.65,-40.18"/>
<text text-anchor="middle" x="668" y="-39.8" font-family="Times,serif" font-size="14.00">read</text>
</g>
<!-- CommandBus -->
<g id="node8" class="node">
<title>CommandBus</title>
<polygon fill="none" stroke="black" points="207,-213.5 231,-213.5 231,-219.5 207,-219.5 207,-213.5"/>
<polygon fill="none" stroke="black" points="207,-204.5 231,-204.5 231,-210.5 207,-210.5 207,-204.5"/>
<polyline fill="none" stroke="black" points="231,-212 246,-212"/>
<polyline fill="none" stroke="black" points="192,-212 207,-212"/>
</g>
<!-- CommandBus&#45;&gt;Command Handling Component -->
<g id="edge9" class="edge">
<title>CommandBus&#45;&gt;Command Handling Component</title>
<path fill="none" stroke="black" d="M257.71,-219.9C294.52,-227.62 352.13,-239.69 402.1,-250.17"/>
<polygon fill="black" stroke="black" points="258.47,-216.49 247.96,-217.86 257.03,-223.34 258.47,-216.49"/>
<polygon fill="black" stroke="black" points="401.31,-253.58 411.81,-252.2 402.74,-246.73 401.31,-253.58"/>
<text text-anchor="middle" x="327" y="-244.8" font-family="Times,serif" font-size="14.00">command</text>
</g>
<!-- EventBus&#45;&gt;Event Handling Component -->
<g id="edge7" class="edge">
<title>EventBus&#45;&gt;Event Handling Component</title>
<path fill="none" stroke="black" d="M246.48,-151.41C284.99,-141.84 358.19,-123.64 416.32,-109.18"/>
<polygon fill="black" stroke="black" points="417.03,-112.61 425.89,-106.8 415.34,-105.82 417.03,-112.61"/>
<text text-anchor="middle" x="327" y="-142.8" font-family="Times,serif" font-size="14.00">event</text>
</g>
<!-- QueryBus -->
<g id="node10" class="node">
<title>QueryBus</title>
<polygon fill="none" stroke="black" points="207,-105.5 231,-105.5 231,-111.5 207,-111.5 207,-105.5"/>
<polygon fill="none" stroke="black" points="207,-96.5 231,-96.5 231,-102.5 207,-102.5 207,-96.5"/>
<polyline fill="none" stroke="black" points="231,-104 246,-104"/>
<polyline fill="none" stroke="black" points="192,-104 207,-104"/>
</g>
<!-- QueryBus&#45;&gt;Query Handling Component -->
<g id="edge11" class="edge">
<title>QueryBus&#45;&gt;Query Handling Component</title>
<path fill="none" stroke="black" d="M257.51,-92.6C288.16,-83.47 332.68,-70.65 372,-61 380.39,-58.94 389.11,-56.9 397.88,-54.93"/>
<polygon fill="black" stroke="black" points="256.51,-89.24 247.93,-95.46 258.52,-95.95 256.51,-89.24"/>
<polygon fill="black" stroke="black" points="398.52,-58.37 407.53,-52.79 397,-51.54 398.52,-58.37"/>
<text text-anchor="middle" x="306.53" y="-61.37" font-family="Times,serif" font-size="14.00">query</text>
</g>
<!-- Client -->
<g id="node11" class="node">
<title>Client</title>
<polygon fill="none" stroke="#7f2704" points="59,-230 0,-230 0,-226 -4,-226 -4,-222 0,-222 0,-94 -4,-94 -4,-90 0,-90 0,-86 59,-86 59,-230"/>
<polyline fill="none" stroke="#7f2704" points="0,-226 4,-226 4,-222 0,-222"/>
<polyline fill="none" stroke="#7f2704" points="0,-94 4,-94 4,-90 0,-90"/>
<text text-anchor="middle" x="29.5" y="-154.3" font-family="Times,serif" font-size="14.00">Client</text>
</g>
<!-- Client&#45;&gt;CommandBus -->
<g id="edge8" class="edge">
<title>Client&#45;&gt;CommandBus</title>
<path fill="none" stroke="black" d="M69.82,-174.52C72.23,-175.4 74.64,-176.23 77,-177 111.56,-188.28 151.9,-197.96 180.56,-204.26"/>
<polygon fill="black" stroke="black" points="71.29,-171.34 60.7,-171.05 68.8,-177.88 71.29,-171.34"/>
<polygon fill="black" stroke="black" points="179.7,-207.65 190.21,-206.34 181.18,-200.81 179.7,-207.65"/>
<text text-anchor="middle" x="112" y="-199.8" font-family="Times,serif" font-size="14.00">command</text>
</g>
<!-- Client&#45;&gt;EventBus -->
<g id="edge12" class="edge">
<title>Client&#45;&gt;EventBus</title>
<path fill="none" stroke="black" d="M59.39,-158C91.78,-158 144.44,-158 180.12,-158"/>
<polygon fill="black" stroke="black" points="179.99,-161.5 189.99,-158 179.99,-154.5 179.99,-161.5"/>
<text text-anchor="middle" x="112" y="-161.8" font-family="Times,serif" font-size="14.00">event</text>
</g>
<!-- Client&#45;&gt;QueryBus -->
<g id="edge10" class="edge">
<title>Client&#45;&gt;QueryBus</title>
<path fill="none" stroke="black" d="M70.15,-146.58C102.83,-137.17 148.84,-123.92 180.83,-114.71"/>
<polygon fill="black" stroke="black" points="69.48,-143.13 60.84,-149.26 71.42,-149.86 69.48,-143.13"/>
<polygon fill="black" stroke="black" points="181.41,-118.18 190.05,-112.05 179.48,-111.45 181.41,-118.18"/>
<text text-anchor="middle" x="104.29" y="-119.5" font-family="Times,serif" font-size="14.00">query</text>
</g>
</g>
</svg>
