<?xml version='1.0' encoding='UTF-8'?>
<!DOCTYPE svg PUBLIC "-//W3C//DTD SVG 1.0//EN" "http://www.w3.org/TR/2001/REC-SVG-20010904/DTD/svg10.dtd">
<svg viewBox="0 0 1216 200" xmlns="http://www.w3.org/2000/svg" xmlns:inkspace="http://www.inkscape.org/namespaces/inkscape" xmlns:xlink="http://www.w3.org/1999/xlink" width="1216px" height="200px">
  <defs id="defs_block">
    <filter height="1.504" id="filter_blur" inkspace:collect="always" width="1.1575" x="-0.07875" y="-0.252">
      <feGaussianBlur id="feGaussianBlur3780" inkspace:collect="always" stdDeviation="4.2" />
    </filter>
  </defs>
  <title>blockdiag</title>
  <desc>blockdiag admin {
    client[shape = actor]
    "Command Handling Component" [shape=roundedbox]
    "Repository" [shape=flowchart.database]
    event[shape = mail];
    "Event Handling Component" [shape=roundedbox]
    "Query Handling Component" [shape=roundedbox]
    "Storage" [shape=flowchart.database]

    client -&gt; "Command Handling Component"
    client -&gt; "Query Handling Component"

    "Command Handling Component" -&gt; "Repository"
    "Command Handling Component" -&gt; "event"

    event -&gt; "Event Handling Component"
    "Event Handling Component" -&gt; "Storage"
    "Query Handling Component" -&gt; "Storage"

   group command_side{
      label = "command side";
       "Command Handling Component";
       "Repository";
   }

   group query_side {
      label = "query side";
      color = "#77FF77";

    "Event Handling Component" [shape=roundedbox]
    "Query Handling Component" [shape=roundedbox]
    "Storage" [shape=flowchart.database]

   }

}</desc>
  <rect fill="rgb(243,152,0)" height="60" style="filter:url(#filter_blur)" width="336" x="248" y="30" />
  <rect fill="rgb(119,255,119)" height="140" style="filter:url(#filter_blur)" width="336" x="824" y="30" />
  <polygon fill="rgb(0,0,0)" points="133,60 133,63 143,63 143,66 133,66 133,69 141,78 137,78 131,72 125,78 121,78 129,69 129,66 119,66 119,63 129,63 129,60" style="filter:url(#filter_blur);opacity:0.7;fill-opacity:1" />
  <ellipse cx="131" cy="57" fill="rgb(0,0,0)" rx="4.0" ry="4.0" stroke="rgb(0,0,0)" style="filter:url(#filter_blur);opacity:0.7;fill-opacity:1" />
  <path d="M 267 46 L 379 46 A8,8 0 0 1 387 54 L 387 78 A8,8 0 0 1 379 86 L 267 86 A8,8 0 0 1 259 78 L 259 54 A8,8 0 0 1 267 46" fill="rgb(0,0,0)" stroke="rgb(0,0,0)" style="filter:url(#filter_blur);opacity:0.7;fill-opacity:1" />
  <path d="M 451 54 A64,8 0 0 1 579 54 L 579 78 A64,8 0 0 1 451 78 L 451 54" fill="rgb(0,0,0)" stroke="rgb(0,0,0)" style="filter:url(#filter_blur);opacity:0.7;fill-opacity:1" />
  <path d="M 843 46 L 955 46 A8,8 0 0 1 963 54 L 963 78 A8,8 0 0 1 955 86 L 843 86 A8,8 0 0 1 835 78 L 835 54 A8,8 0 0 1 843 46" fill="rgb(0,0,0)" stroke="rgb(0,0,0)" style="filter:url(#filter_blur);opacity:0.7;fill-opacity:1" />
  <path d="M 843 126 L 955 126 A8,8 0 0 1 963 134 L 963 158 A8,8 0 0 1 955 166 L 843 166 A8,8 0 0 1 835 158 L 835 134 A8,8 0 0 1 843 126" fill="rgb(0,0,0)" stroke="rgb(0,0,0)" style="filter:url(#filter_blur);opacity:0.7;fill-opacity:1" />
  <path d="M 1027 54 A64,8 0 0 1 1155 54 L 1155 78 A64,8 0 0 1 1027 78 L 1027 54" fill="rgb(0,0,0)" stroke="rgb(0,0,0)" style="filter:url(#filter_blur);opacity:0.7;fill-opacity:1" />
  <rect fill="rgb(0,0,0)" height="40" stroke="rgb(0,0,0)" style="filter:url(#filter_blur);opacity:0.7;fill-opacity:1" width="128" x="643" y="46" />
  <polygon fill="rgb(255,255,255)" points="130,54 130,57 140,57 140,60 130,60 130,63 138,72 134,72 128,66 122,72 118,72 126,63 126,60 116,60 116,57 126,57 126,54" stroke="rgb(0,0,0)" />
  <ellipse cx="128" cy="51" fill="rgb(255,255,255)" rx="4.0" ry="4.0" stroke="rgb(0,0,0)" />
  <text fill="rgb(0,0,0)" font-family="sans-serif" font-size="11" font-style="normal" font-weight="normal" text-anchor="middle" textLength="37" x="128.5" y="85">client</text>
  <path d="M 264 40 L 376 40 A8,8 0 0 1 384 48 L 384 72 A8,8 0 0 1 376 80 L 264 80 A8,8 0 0 1 256 72 L 256 48 A8,8 0 0 1 264 40" fill="rgb(255,255,255)" stroke="rgb(0,0,0)" />
  <text fill="rgb(0,0,0)" font-family="sans-serif" font-size="11" font-style="normal" font-weight="normal" text-anchor="middle" textLength="128" x="320.0" y="59">Command Handling Comp</text>
  <text fill="rgb(0,0,0)" font-family="sans-serif" font-size="11" font-style="normal" font-weight="normal" text-anchor="middle" textLength="31" x="320.5" y="72">onent</text>
  <path d="M 448 48 A64,8 0 0 1 576 48 L 576 72 A64,8 0 0 1 448 72 L 448 48" fill="rgb(255,255,255)" stroke="rgb(0,0,0)" />
  <path d="M 576 48 A64,8 0 0 1 448 48" fill="rgb(255,255,255)" stroke="rgb(0,0,0)" />
  <text fill="rgb(0,0,0)" font-family="sans-serif" font-size="11" font-style="normal" font-weight="normal" text-anchor="middle" textLength="61" x="512.5" y="70">Repository</text>
  <path d="M 840 40 L 952 40 A8,8 0 0 1 960 48 L 960 72 A8,8 0 0 1 952 80 L 840 80 A8,8 0 0 1 832 72 L 832 48 A8,8 0 0 1 840 40" fill="rgb(255,255,255)" stroke="rgb(0,0,0)" />
  <text fill="rgb(0,0,0)" font-family="sans-serif" font-size="11" font-style="normal" font-weight="normal" text-anchor="middle" textLength="128" x="896.0" y="59">Event Handling Compon</text>
  <text fill="rgb(0,0,0)" font-family="sans-serif" font-size="11" font-style="normal" font-weight="normal" text-anchor="middle" textLength="19" x="896.5" y="72">ent</text>
  <path d="M 840 120 L 952 120 A8,8 0 0 1 960 128 L 960 152 A8,8 0 0 1 952 160 L 840 160 A8,8 0 0 1 832 152 L 832 128 A8,8 0 0 1 840 120" fill="rgb(255,255,255)" stroke="rgb(0,0,0)" />
  <text fill="rgb(0,0,0)" font-family="sans-serif" font-size="11" font-style="normal" font-weight="normal" text-anchor="middle" textLength="128" x="896.0" y="139">Query Handling Compon</text>
  <text fill="rgb(0,0,0)" font-family="sans-serif" font-size="11" font-style="normal" font-weight="normal" text-anchor="middle" textLength="19" x="896.5" y="152">ent</text>
  <path d="M 1024 48 A64,8 0 0 1 1152 48 L 1152 72 A64,8 0 0 1 1024 72 L 1024 48" fill="rgb(255,255,255)" stroke="rgb(0,0,0)" />
  <path d="M 1152 48 A64,8 0 0 1 1024 48" fill="rgb(255,255,255)" stroke="rgb(0,0,0)" />
  <text fill="rgb(0,0,0)" font-family="sans-serif" font-size="11" font-style="normal" font-weight="normal" text-anchor="middle" textLength="43" x="1088.5" y="70">Storage</text>
  <rect fill="rgb(255,255,255)" height="40" stroke="rgb(0,0,0)" width="128" x="640" y="40" />
  <path d="M 640 40 L 704 56" fill="none" stroke="rgb(0,0,0)" />
  <path d="M 704 56 L 768 40" fill="none" stroke="rgb(0,0,0)" />
  <text fill="rgb(0,0,0)" font-family="sans-serif" font-size="11" font-style="normal" font-weight="normal" text-anchor="middle" textLength="31" x="704.5" y="74">event</text>
  <path d="M 140 60 L 248 60" fill="none" stroke="rgb(0,0,0)" />
  <polygon fill="rgb(0,0,0)" points="255,60 248,56 248,64 255,60" stroke="rgb(0,0,0)" />
  <path d="M 140 60 L 224 60" fill="none" stroke="rgb(0,0,0)" />
  <path d="M 224 60 L 224 140" fill="none" stroke="rgb(0,0,0)" />
  <path d="M 224 140 L 824 140" fill="none" stroke="rgb(0,0,0)" />
  <polygon fill="rgb(0,0,0)" points="831,140 824,136 824,144 831,140" stroke="rgb(0,0,0)" />
  <path d="M 768 60 L 824 60" fill="none" stroke="rgb(0,0,0)" />
  <polygon fill="rgb(0,0,0)" points="831,60 824,56 824,64 831,60" stroke="rgb(0,0,0)" />
  <path d="M 384 60 L 440 60" fill="none" stroke="rgb(0,0,0)" />
  <polygon fill="rgb(0,0,0)" points="447,60 440,56 440,64 447,60" stroke="rgb(0,0,0)" />
  <path d="M 384 60 L 416 60" fill="none" stroke="rgb(0,0,0)" />
  <path d="M 416 60 L 416 100" fill="none" stroke="rgb(0,0,0)" />
  <path d="M 416 100 L 624 100" fill="none" stroke="rgb(0,0,0)" />
  <path d="M 624 100 L 624 60" fill="none" stroke="rgb(0,0,0)" />
  <path d="M 624 60 L 632 60" fill="none" stroke="rgb(0,0,0)" />
  <polygon fill="rgb(0,0,0)" points="639,60 632,56 632,64 639,60" stroke="rgb(0,0,0)" />
  <path d="M 960 60 L 1016 60" fill="none" stroke="rgb(0,0,0)" />
  <polygon fill="rgb(0,0,0)" points="1023,60 1016,56 1016,64 1023,60" stroke="rgb(0,0,0)" />
  <path d="M 960 140 L 1008 140" fill="none" stroke="rgb(0,0,0)" />
  <path d="M 1008 140 L 1008 60" fill="none" stroke="rgb(0,0,0)" />
  <path d="M 1008 60 L 1016 60" fill="none" stroke="rgb(0,0,0)" />
  <polygon fill="rgb(0,0,0)" points="1023,60 1016,56 1016,64 1023,60" stroke="rgb(0,0,0)" />
  <text fill="rgb(0,0,0)" font-family="sans-serif" font-size="11" font-style="normal" font-weight="normal" text-anchor="middle" textLength="73" x="416.5" y="36">command side</text>
  <text fill="rgb(0,0,0)" font-family="sans-serif" font-size="11" font-style="normal" font-weight="normal" text-anchor="middle" textLength="61" x="992.5" y="36">query side</text>
</svg>