<?xml version="1.0" encoding="UTF-8" standalone="no"?>
<!DOCTYPE svg PUBLIC "-//W3C//DTD SVG 1.1//EN"
 "http://www.w3.org/Graphics/SVG/1.1/DTD/svg11.dtd">
<!-- Generated by graphviz version 2.49.3 (20211027.1534)
 -->
<!-- Title: foo Pages: 1 -->
<svg width="781pt" height="336pt"
 viewBox="0.00 0.00 781.00 336.00" xmlns="http://www.w3.org/2000/svg" xmlns:xlink="http://www.w3.org/1999/xlink">
<g id="graph0" class="graph" transform="scale(1 1) rotate(0) translate(4 332)">
<title>foo</title>
<polygon fill="white" stroke="transparent" points="-4,4 -4,-332 777,-332 777,4 -4,4"/>
<g id="clust1" class="cluster">
<title>cluster_command_side</title>
<polygon fill="none" stroke="black" stroke-dasharray="1,5" points="310,-245 310,-320 765,-320 765,-245 310,-245"/>
<text text-anchor="middle" x="537.5" y="-304.8" font-family="Times,serif" font-size="14.00">Command side</text>
</g>
<g id="clust2" class="cluster">
<title>cluster_query_side</title>
<polygon fill="none" stroke="black" stroke-dasharray="1,5" points="322,-8 322,-137 753,-137 753,-8 322,-8"/>
<text text-anchor="middle" x="537.5" y="-121.8" font-family="Times,serif" font-size="14.00">Query side</text>
</g>
<g id="clust3" class="cluster">
<title>cluster_messaging</title>
<polygon fill="none" stroke="black" stroke-dasharray="1,5" points="137,-78 137,-261 235,-261 235,-78 137,-78"/>
<text text-anchor="middle" x="186" y="-245.8" font-family="Times,serif" font-size="14.00">Message buses</text>
</g>
<!-- Command Handling Component -->
<g id="node1" class="node">
<title>Command Handling Component</title>
<polygon fill="#fd8d3c" stroke="black" points="515,-289 318,-289 318,-253 515,-253 515,-289"/>
<text text-anchor="middle" x="416.5" y="-267.3" font-family="Times,serif" font-size="14.00">Command Handling Component</text>
</g>
<!-- Command model repository -->
<g id="node2" class="node">
<title>Command model repository</title>
<path fill="#fee6ce" stroke="black" d="M757,-285.73C757,-287.53 718.9,-289 672,-289 625.1,-289 587,-287.53 587,-285.73 587,-285.73 587,-256.27 587,-256.27 587,-254.47 625.1,-253 672,-253 718.9,-253 757,-254.47 757,-256.27 757,-256.27 757,-285.73 757,-285.73"/>
<path fill="none" stroke="black" d="M757,-285.73C757,-283.92 718.9,-282.45 672,-282.45 625.1,-282.45 587,-283.92 587,-285.73"/>
<text text-anchor="middle" x="672" y="-267.3" font-family="Times,serif" font-size="14.00">Command model repository</text>
</g>
<!-- Command Handling Component&#45;&gt;Command model repository -->
<g id="edge1" class="edge">
<title>Command Handling Component&#45;&gt;Command model repository</title>
<path fill="none" stroke="black" d="M525.17,-271C542.18,-271 559.65,-271 576.34,-271"/>
<polygon fill="black" stroke="black" points="525.15,-267.5 515.15,-271 525.15,-274.5 525.15,-267.5"/>
<polygon fill="black" stroke="black" points="576.62,-274.5 586.62,-271 576.61,-267.5 576.62,-274.5"/>
<text text-anchor="middle" x="551" y="-274.8" font-family="Times,serif" font-size="14.00">persist</text>
</g>
<!-- EventBus -->
<g id="node9" class="node">
<title>EventBus</title>
<polygon fill="none" stroke="black" points="174,-159.5 198,-159.5 198,-165.5 174,-165.5 174,-159.5"/>
<polygon fill="none" stroke="black" points="174,-150.5 198,-150.5 198,-156.5 174,-156.5 174,-150.5"/>
<polyline fill="none" stroke="black" points="198,-158 213,-158 "/>
<polyline fill="none" stroke="black" points="159,-158 174,-158 "/>
</g>
<!-- Command Handling Component&#45;&gt;EventBus -->
<g id="edge6" class="edge">
<title>Command Handling Component&#45;&gt;EventBus</title>
<path fill="none" stroke="black" d="M384.01,-252.9C360.99,-239.9 328.89,-222.24 300,-208 274.52,-195.44 245.17,-182.5 222.77,-172.93"/>
<polygon fill="black" stroke="black" points="223.89,-169.6 213.31,-168.91 221.15,-176.04 223.89,-169.6"/>
<text text-anchor="middle" x="272.5" y="-211.8" font-family="Times,serif" font-size="14.00">event</text>
</g>
<!-- c1 -->
<!-- c1&#45;&gt;Command Handling Component -->
<!-- Event Handling Component -->
<g id="node4" class="node">
<title>Event Handling Component</title>
<polygon fill="#fd8d3c" stroke="black" points="501.5,-106 331.5,-106 331.5,-70 501.5,-70 501.5,-106"/>
<text text-anchor="middle" x="416.5" y="-84.3" font-family="Times,serif" font-size="14.00">Event Handling Component</text>
</g>
<!-- Query model repository -->
<g id="node6" class="node">
<title>Query model repository</title>
<path fill="#fee6ce" stroke="black" d="M745,-52.73C745,-54.53 712.28,-56 672,-56 631.72,-56 599,-54.53 599,-52.73 599,-52.73 599,-23.27 599,-23.27 599,-21.47 631.72,-20 672,-20 712.28,-20 745,-21.47 745,-23.27 745,-23.27 745,-52.73 745,-52.73"/>
<path fill="none" stroke="black" d="M745,-52.73C745,-50.92 712.28,-49.45 672,-49.45 631.72,-49.45 599,-50.92 599,-52.73"/>
<text text-anchor="middle" x="672" y="-34.3" font-family="Times,serif" font-size="14.00">Query model repository</text>
</g>
<!-- Event Handling Component&#45;&gt;Query model repository -->
<g id="edge3" class="edge">
<title>Event Handling Component&#45;&gt;Query model repository</title>
<path fill="none" stroke="black" d="M501.56,-71.42C529.54,-65.9 560.67,-59.76 588.53,-54.27"/>
<polygon fill="black" stroke="black" points="589.5,-57.64 598.63,-52.27 588.15,-50.77 589.5,-57.64"/>
<text text-anchor="middle" x="551" y="-67.8" font-family="Times,serif" font-size="14.00">persist</text>
</g>
<!-- c2 -->
<!-- Event Handling Component&#45;&gt;c2 -->
<!-- Query Handling Component -->
<g id="node5" class="node">
<title>Query Handling Component</title>
<polygon fill="#fd8d3c" stroke="black" points="503,-52 330,-52 330,-16 503,-16 503,-52"/>
<text text-anchor="middle" x="416.5" y="-30.3" font-family="Times,serif" font-size="14.00">Query Handling Component</text>
</g>
<!-- Query Handling Component&#45;&gt;Query model repository -->
<g id="edge4" class="edge">
<title>Query Handling Component&#45;&gt;Query model repository</title>
<path fill="none" stroke="black" d="M513.62,-35.52C538.35,-35.91 564.72,-36.32 588.68,-36.7"/>
<polygon fill="black" stroke="black" points="513.38,-32.01 503.32,-35.35 513.27,-39.01 513.38,-32.01"/>
<polygon fill="black" stroke="black" points="588.73,-40.2 598.78,-36.86 588.84,-33.2 588.73,-40.2"/>
<text text-anchor="middle" x="551" y="-39.8" font-family="Times,serif" font-size="14.00">read</text>
</g>
<!-- CommandBus -->
<g id="node8" class="node">
<title>CommandBus</title>
<polygon fill="none" stroke="black" points="174,-213.5 198,-213.5 198,-219.5 174,-219.5 174,-213.5"/>
<polygon fill="none" stroke="black" points="174,-204.5 198,-204.5 198,-210.5 174,-210.5 174,-204.5"/>
<polyline fill="none" stroke="black" points="198,-212 213,-212 "/>
<polyline fill="none" stroke="black" points="159,-212 174,-212 "/>
</g>
<!-- CommandBus&#45;&gt;Command Handling Component -->
<g id="edge9" class="edge">
<title>CommandBus&#45;&gt;Command Handling Component</title>
<path fill="none" stroke="black" d="M223.22,-221.35C253.25,-229.11 297.03,-240.41 335.24,-250.28"/>
<polygon fill="black" stroke="black" points="223.77,-217.88 213.21,-218.77 222.02,-224.66 223.77,-217.88"/>
<polygon fill="black" stroke="black" points="334.78,-253.77 345.34,-252.88 336.53,-246.99 334.78,-253.77"/>
<text text-anchor="middle" x="272.5" y="-242.8" font-family="Times,serif" font-size="14.00">command</text>
</g>
<!-- EventBus&#45;&gt;Event Handling Component -->
<g id="edge7" class="edge">
<title>EventBus&#45;&gt;Event Handling Component</title>
<path fill="none" stroke="black" d="M213.21,-149.97C245.54,-140.07 301.73,-122.85 346.69,-109.08"/>
<polygon fill="black" stroke="black" points="347.86,-112.38 356.4,-106.11 345.81,-105.69 347.86,-112.38"/>
<text text-anchor="middle" x="272.5" y="-142.8" font-family="Times,serif" font-size="14.00">event</text>
</g>
<!-- QueryBus -->
<g id="node10" class="node">
<title>QueryBus</title>
<polygon fill="none" stroke="black" points="174,-105.5 198,-105.5 198,-111.5 174,-111.5 174,-105.5"/>
<polygon fill="none" stroke="black" points="174,-96.5 198,-96.5 198,-102.5 174,-102.5 174,-96.5"/>
<polyline fill="none" stroke="black" points="198,-104 213,-104 "/>
<polyline fill="none" stroke="black" points="159,-104 174,-104 "/>
</g>
<!-- QueryBus&#45;&gt;Query Handling Component -->
<g id="edge11" class="edge">
<title>QueryBus&#45;&gt;Query Handling Component</title>
<path fill="none" stroke="black" d="M222.73,-90.6C247.14,-81.67 280.31,-69.97 310,-61 317.11,-58.85 324.52,-56.73 331.98,-54.67"/>
<polygon fill="black" stroke="black" points="221.35,-87.37 213.18,-94.11 223.77,-93.94 221.35,-87.37"/>
<polygon fill="black" stroke="black" points="333.05,-58.01 341.78,-52.01 331.21,-51.25 333.05,-58.01"/>
<text text-anchor="middle" x="261.35" y="-60.39" font-family="Times,serif" font-size="14.00">query</text>
</g>
<!-- Client -->
<g id="node11" class="node">
<title>Client</title>
<polygon fill="none" stroke="#7f2704" points="54,-230 0,-230 0,-226 -4,-226 -4,-222 0,-222 0,-94 -4,-94 -4,-90 0,-90 0,-86 54,-86 54,-230"/>
<polyline fill="none" stroke="#7f2704" points="0,-226 4,-226 4,-222 0,-222 "/>
<polyline fill="none" stroke="#7f2704" points="0,-94 4,-94 4,-90 0,-90 "/>
<text text-anchor="middle" x="27" y="-154.3" font-family="Times,serif" font-size="14.00">Client</text>
</g>
<!-- Client&#45;&gt;CommandBus -->
<g id="edge8" class="edge">
<title>Client&#45;&gt;CommandBus</title>
<path fill="none" stroke="black" d="M63.73,-173.8C66.51,-174.92 69.29,-176 72,-177 97.39,-186.38 126.59,-195.38 148.95,-201.91"/>
<polygon fill="black" stroke="black" points="64.92,-170.51 54.34,-169.92 62.24,-176.98 64.92,-170.51"/>
<polygon fill="black" stroke="black" points="148.12,-205.31 158.7,-204.72 150.07,-198.59 148.12,-205.31"/>
<text text-anchor="middle" x="99.5" y="-197.8" font-family="Times,serif" font-size="14.00">command</text>
</g>
<!-- Client&#45;&gt;EventBus -->
<g id="edge12" class="edge">
<title>Client&#45;&gt;EventBus</title>
<path fill="none" stroke="black" d="M54.28,-158C80.17,-158 119.93,-158 148.8,-158"/>
<polygon fill="black" stroke="black" points="148.9,-161.5 158.9,-158 148.9,-154.5 148.9,-161.5"/>
<text text-anchor="middle" x="99.5" y="-161.8" font-family="Times,serif" font-size="14.00">event</text>
</g>
<!-- Client&#45;&gt;QueryBus -->
<g id="edge10" class="edge">
<title>Client&#45;&gt;QueryBus</title>
<path fill="none" stroke="black" d="M64.02,-145.61C89.58,-136.82 123.74,-125.07 149.24,-116.3"/>
<polygon fill="black" stroke="black" points="62.6,-142.4 54.28,-148.96 64.87,-149.02 62.6,-142.4"/>
<polygon fill="black" stroke="black" points="150.58,-119.54 158.9,-112.98 148.3,-112.92 150.58,-119.54"/>
<text text-anchor="middle" x="90.8" y="-119.87" font-family="Times,serif" font-size="14.00">query</text>
</g>
</g>
</svg>
