<?xml version="1.0" encoding="UTF-8" standalone="no"?><svg xmlns="http://www.w3.org/2000/svg" xmlns:xlink="http://www.w3.org/1999/xlink" contentStyleType="text/css" height="647px" preserveAspectRatio="none" style="width:905px;height:647px;background:#FFFFFF;" version="1.1" viewBox="0 0 905 647" width="905px" zoomAndPan="magnify"><defs/><g><line style="stroke:#181818;stroke-width:0.5;stroke-dasharray:5.0,5.0;" x1="24" x2="24" y1="81.2969" y2="566.2891"/><line style="stroke:#181818;stroke-width:0.5;stroke-dasharray:5.0,5.0;" x1="144.5" x2="144.5" y1="81.2969" y2="566.2891"/><line style="stroke:#181818;stroke-width:0.5;stroke-dasharray:5.0,5.0;" x1="289" x2="289" y1="81.2969" y2="566.2891"/><line style="stroke:#181818;stroke-width:0.5;stroke-dasharray:5.0,5.0;" x1="389" x2="389" y1="81.2969" y2="566.2891"/><line style="stroke:#181818;stroke-width:0.5;stroke-dasharray:5.0,5.0;" x1="467" x2="467" y1="81.2969" y2="566.2891"/><line style="stroke:#181818;stroke-width:0.5;stroke-dasharray:5.0,5.0;" x1="599.5" x2="599.5" y1="81.2969" y2="566.2891"/><line style="stroke:#181818;stroke-width:0.5;stroke-dasharray:5.0,5.0;" x1="731.5" x2="731.5" y1="81.2969" y2="566.2891"/><line style="stroke:#181818;stroke-width:0.5;stroke-dasharray:5.0,5.0;" x1="863" x2="863" y1="81.2969" y2="566.2891"/><text fill="#000000" font-family="sans-serif" font-size="14" lengthAdjust="spacing" textLength="32" x="5" y="77.9951">User</text><ellipse cx="24" cy="13.5" fill="#E2E2F0" rx="8" ry="8" style="stroke:#181818;stroke-width:0.5;"/><path d="M24,21.5 L24,48.5 M11,29.5 L37,29.5 M24,48.5 L11,63.5 M24,48.5 L37,63.5 " fill="none" style="stroke:#181818;stroke-width:0.5;"/><text fill="#000000" font-family="sans-serif" font-size="14" lengthAdjust="spacing" textLength="32" x="5" y="578.2842">User</text><ellipse cx="24" cy="590.0859" fill="#E2E2F0" rx="8" ry="8" style="stroke:#181818;stroke-width:0.5;"/><path d="M24,598.0859 L24,625.0859 M11,606.0859 L37,606.0859 M24,625.0859 L11,640.0859 M24,625.0859 L37,640.0859 " fill="none" style="stroke:#181818;stroke-width:0.5;"/><path d="M126.5,55 L163.5,55 C168.5,55 168.5,68.1484 168.5,68.1484 C168.5,68.1484 168.5,81.2969 163.5,81.2969 L126.5,81.2969 C121.5,81.2969 121.5,68.1484 121.5,68.1484 C121.5,68.1484 121.5,55 126.5,55 " fill="#E2E2F0" style="stroke:#181818;stroke-width:0.5;"/><path d="M163.5,55 C158.5,55 158.5,68.1484 158.5,68.1484 C158.5,81.2969 163.5,81.2969 163.5,81.2969 " fill="none" style="stroke:#181818;stroke-width:0.5;"/><text fill="#000000" font-family="sans-serif" font-size="14" lengthAdjust="spacing" textLength="27" x="126.5" y="72.9951">Bus</text><path d="M126.5,565.2891 L163.5,565.2891 C168.5,565.2891 168.5,578.4375 168.5,578.4375 C168.5,578.4375 168.5,591.5859 163.5,591.5859 L126.5,591.5859 C121.5,591.5859 121.5,578.4375 121.5,578.4375 C121.5,578.4375 121.5,565.2891 126.5,565.2891 " fill="#E2E2F0" style="stroke:#181818;stroke-width:0.5;"/><path d="M163.5,565.2891 C158.5,565.2891 158.5,578.4375 158.5,578.4375 C158.5,591.5859 163.5,591.5859 163.5,591.5859 " fill="none" style="stroke:#181818;stroke-width:0.5;"/><text fill="#000000" font-family="sans-serif" font-size="14" lengthAdjust="spacing" textLength="27" x="126.5" y="583.2842">Bus</text><rect fill="#E2E2F0" height="30.2969" rx="2.5" ry="2.5" style="stroke:#181818;stroke-width:0.5;" width="90" x="244" y="50"/><text fill="#000000" font-family="sans-serif" font-size="14" lengthAdjust="spacing" textLength="76" x="251" y="69.9951">Interceptor</text><rect fill="#E2E2F0" height="30.2969" rx="2.5" ry="2.5" style="stroke:#181818;stroke-width:0.5;" width="90" x="244" y="565.2891"/><text fill="#000000" font-family="sans-serif" font-size="14" lengthAdjust="spacing" textLength="76" x="251" y="585.2842">Interceptor</text><rect fill="#E2E2F0" height="30.2969" rx="2.5" ry="2.5" style="stroke:#181818;stroke-width:0.5;" width="90" x="344" y="50"/><text fill="#000000" font-family="sans-serif" font-size="14" lengthAdjust="spacing" textLength="76" x="351" y="69.9951">Interceptor</text><rect fill="#E2E2F0" height="30.2969" rx="2.5" ry="2.5" style="stroke:#181818;stroke-width:0.5;" width="90" x="344" y="565.2891"/><text fill="#000000" font-family="sans-serif" font-size="14" lengthAdjust="spacing" textLength="76" x="351" y="585.2842">Interceptor</text><path d="M449,55 L486,55 C491,55 491,68.1484 491,68.1484 C491,68.1484 491,81.2969 486,81.2969 L449,81.2969 C444,81.2969 444,68.1484 444,68.1484 C444,68.1484 444,55 449,55 " fill="#E2E2F0" style="stroke:#181818;stroke-width:0.5;"/><path d="M486,55 C481,55 481,68.1484 481,68.1484 C481,81.2969 486,81.2969 486,81.2969 " fill="none" style="stroke:#181818;stroke-width:0.5;"/><text fill="#000000" font-family="sans-serif" font-size="14" lengthAdjust="spacing" textLength="27" x="449" y="72.9951">Bus</text><path d="M449,565.2891 L486,565.2891 C491,565.2891 491,578.4375 491,578.4375 C491,578.4375 491,591.5859 486,591.5859 L449,591.5859 C444,591.5859 444,578.4375 444,578.4375 C444,578.4375 444,565.2891 449,565.2891 " fill="#E2E2F0" style="stroke:#181818;stroke-width:0.5;"/><path d="M486,565.2891 C481,565.2891 481,578.4375 481,578.4375 C481,591.5859 486,591.5859 486,591.5859 " fill="none" style="stroke:#181818;stroke-width:0.5;"/><text fill="#000000" font-family="sans-serif" font-size="14" lengthAdjust="spacing" textLength="27" x="449" y="583.2842">Bus</text><rect fill="#E2E2F0" height="30.2969" rx="2.5" ry="2.5" style="stroke:#181818;stroke-width:0.5;" width="90" x="554.5" y="50"/><text fill="#000000" font-family="sans-serif" font-size="14" lengthAdjust="spacing" textLength="76" x="561.5" y="69.9951">Interceptor</text><rect fill="#E2E2F0" height="30.2969" rx="2.5" ry="2.5" style="stroke:#181818;stroke-width:0.5;" width="90" x="554.5" y="565.2891"/><text fill="#000000" font-family="sans-serif" font-size="14" lengthAdjust="spacing" textLength="76" x="561.5" y="585.2842">Interceptor</text><rect fill="#E2E2F0" height="30.2969" rx="2.5" ry="2.5" style="stroke:#181818;stroke-width:0.5;" width="90" x="686.5" y="50"/><text fill="#000000" font-family="sans-serif" font-size="14" lengthAdjust="spacing" textLength="76" x="693.5" y="69.9951">Interceptor</text><rect fill="#E2E2F0" height="30.2969" rx="2.5" ry="2.5" style="stroke:#181818;stroke-width:0.5;" width="90" x="686.5" y="565.2891"/><text fill="#000000" font-family="sans-serif" font-size="14" lengthAdjust="spacing" textLength="76" x="693.5" y="585.2842">Interceptor</text><text fill="#000000" font-family="sans-serif" font-size="14" lengthAdjust="spacing" textLength="53" x="834" y="77.9951">Handler</text><ellipse cx="863.5" cy="49" fill="#E2E2F0" rx="12" ry="12" style="stroke:#181818;stroke-width:0.5;"/><line style="stroke:#181818;stroke-width:0.5;" x1="851.5" x2="875.5" y1="63" y2="63"/><text fill="#000000" font-family="sans-serif" font-size="14" lengthAdjust="spacing" textLength="53" x="834" y="578.2842">Handler</text><ellipse cx="863.5" cy="597.5859" fill="#E2E2F0" rx="12" ry="12" style="stroke:#181818;stroke-width:0.5;"/><line style="stroke:#181818;stroke-width:0.5;" x1="851.5" x2="875.5" y1="611.5859" y2="611.5859"/><polygon fill="#181818" points="133,108.4297,143,112.4297,133,116.4297,137,112.4297" style="stroke:#181818;stroke-width:1.0;"/><line style="stroke:#181818;stroke-width:1.0;" x1="24" x2="139" y1="112.4297" y2="112.4297"/><text fill="#000000" font-family="sans-serif" font-size="13" lengthAdjust="spacing" textLength="96" x="31" y="107.3638">Send message</text><rect fill="#EEEEEE" height="3" style="stroke:#EEEEEE;stroke-width:1.0;" width="898" x="0" y="140.9961"/><line style="stroke:#000000;stroke-width:1.0;" x1="0" x2="898" y1="140.9961" y2="140.9961"/><line style="stroke:#000000;stroke-width:1.0;" x1="0" x2="898" y1="143.9961" y2="143.9961"/><rect fill="#EEEEEE" height="23.1328" style="stroke:#000000;stroke-width:2.0;" width="134" x="382" y="130.4297"/><text fill="#000000" font-family="sans-serif" font-size="13" font-weight="bold" lengthAdjust="spacing" textLength="115" x="388" y="146.4966">Dispatch phase</text><polygon fill="#181818" points="277,180.6953,287,184.6953,277,188.6953,281,184.6953" style="stroke:#181818;stroke-width:1.0;"/><line style="stroke:#181818;stroke-width:1.0;" x1="145" x2="283" y1="184.6953" y2="184.6953"/><text fill="#000000" font-family="sans-serif" font-size="13" lengthAdjust="spacing" textLength="120" x="152" y="179.6294">Intercept message</text><polygon fill="#181818" points="156,209.8281,146,213.8281,156,217.8281,152,213.8281" style="stroke:#181818;stroke-width:1.0;"/><line style="stroke:#181818;stroke-width:1.0;" x1="150" x2="388" y1="213.8281" y2="213.8281"/><text fill="#000000" font-family="sans-serif" font-size="13" lengthAdjust="spacing" textLength="116" x="162" y="208.7622">Modified message</text><polygon fill="#181818" points="377,238.9609,387,242.9609,377,246.9609,381,242.9609" style="stroke:#181818;stroke-width:1.0;"/><line style="stroke:#181818;stroke-width:1.0;" x1="145" x2="383" y1="242.9609" y2="242.9609"/><text fill="#000000" font-family="sans-serif" font-size="13" lengthAdjust="spacing" textLength="120" x="152" y="237.895">Intercept message</text><polygon fill="#181818" points="156,268.0938,146,272.0938,156,276.0938,152,272.0938" style="stroke:#181818;stroke-width:1.0;"/><line style="stroke:#181818;stroke-width:1.0;" x1="150" x2="288" y1="272.0938" y2="272.0938"/><text fill="#000000" font-family="sans-serif" font-size="13" lengthAdjust="spacing" textLength="116" x="162" y="267.0278">Modified message</text><polygon fill="#181818" points="455.5,297.2266,465.5,301.2266,455.5,305.2266,459.5,301.2266" style="stroke:#181818;stroke-width:1.0;"/><line style="stroke:#181818;stroke-width:1.0;" x1="145" x2="461.5" y1="301.2266" y2="301.2266"/><text fill="#000000" font-family="sans-serif" font-size="13" lengthAdjust="spacing" textLength="178" x="152" y="296.1606">Dispatch modified message</text><rect fill="#EEEEEE" height="3" style="stroke:#EEEEEE;stroke-width:1.0;" width="898" x="0" y="329.793"/><line style="stroke:#000000;stroke-width:1.0;" x1="0" x2="898" y1="329.793" y2="329.793"/><line style="stroke:#000000;stroke-width:1.0;" x1="0" x2="898" y1="332.793" y2="332.793"/><rect fill="#EEEEEE" height="23.1328" style="stroke:#000000;stroke-width:2.0;" width="135" x="381.5" y="319.2266"/><text fill="#000000" font-family="sans-serif" font-size="13" font-weight="bold" lengthAdjust="spacing" textLength="116" x="387.5" y="335.2935">Handling phase</text><polygon fill="#181818" points="587.5,369.4922,597.5,373.4922,587.5,377.4922,591.5,373.4922" style="stroke:#181818;stroke-width:1.0;"/><line style="stroke:#181818;stroke-width:1.0;" x1="467.5" x2="593.5" y1="373.4922" y2="373.4922"/><text fill="#000000" font-family="sans-serif" font-size="13" lengthAdjust="spacing" textLength="108" x="474.5" y="368.4263">Handle message</text><polygon fill="#181818" points="719.5,398.625,729.5,402.625,719.5,406.625,723.5,402.625" style="stroke:#181818;stroke-width:1.0;"/><line style="stroke:#181818;stroke-width:1.0;" x1="599.5" x2="725.5" y1="402.625" y2="402.625"/><text fill="#000000" font-family="sans-serif" font-size="13" lengthAdjust="spacing" textLength="108" x="606.5" y="397.5591">Handle message</text><polygon fill="#181818" points="851.5,427.7578,861.5,431.7578,851.5,435.7578,855.5,431.7578" style="stroke:#181818;stroke-width:1.0;"/><line style="stroke:#181818;stroke-width:1.0;" x1="731.5" x2="857.5" y1="431.7578" y2="431.7578"/><text fill="#000000" font-family="sans-serif" font-size="13" lengthAdjust="spacing" textLength="108" x="738.5" y="426.6919">Handle message</text><polygon fill="#181818" points="742.5,456.8906,732.5,460.8906,742.5,464.8906,738.5,460.8906" style="stroke:#181818;stroke-width:1.0;"/><line style="stroke:#181818;stroke-width:1.0;" x1="736.5" x2="862.5" y1="460.8906" y2="460.8906"/><text fill="#000000" font-family="sans-serif" font-size="13" lengthAdjust="spacing" textLength="97" x="748.5" y="455.8247">Message result</text><polygon fill="#181818" points="610.5,486.0234,600.5,490.0234,610.5,494.0234,606.5,490.0234" style="stroke:#181818;stroke-width:1.0;"/><line style="stroke:#181818;stroke-width:1.0;" x1="604.5" x2="730.5" y1="490.0234" y2="490.0234"/><text fill="#000000" font-family="sans-serif" font-size="13" lengthAdjust="spacing" textLength="97" x="616.5" y="484.9575">Message result</text><polygon fill="#181818" points="156,515.1563,146,519.1563,156,523.1563,152,519.1563" style="stroke:#181818;stroke-width:1.0;"/><line style="stroke:#181818;stroke-width:1.0;" x1="150" x2="598.5" y1="519.1563" y2="519.1563"/><text fill="#000000" font-family="sans-serif" font-size="13" lengthAdjust="spacing" textLength="97" x="162" y="514.0903">Message result</text><polygon fill="#181818" points="35,544.2891,25,548.2891,35,552.2891,31,548.2891" style="stroke:#181818;stroke-width:1.0;"/><line style="stroke:#181818;stroke-width:1.0;" x1="29" x2="144" y1="548.2891" y2="548.2891"/><text fill="#000000" font-family="sans-serif" font-size="13" lengthAdjust="spacing" textLength="97" x="41" y="543.2231">Message result</text><!--SRC=[XO-zRW8n48HxFyNeUefpUSgbG1H9GHNb0UppWYs1SVnJyFPuVT897G5AppSpdbLJlaHqlubY1vLGn5-XGjYMn4yjWehPJIuedz5z-qnneb0ppMtwDroALPzy7R1l2cqj99zTlk9BUNEYs5HlX105cq_e0J_a3SwKaZgI64ViN0egJnR1gaGOHw7PQVe1I_tYr_ZOrDa3zXVZ3exC7U6GV1xgduLq3IqZpciBJsotE7-ycoWvQMldVETYjtq3yX7C2M_-8tLV8_jPGgHKJfdBcCW7q2xYtrTwOLslvHi0]--></g></svg>