<?xml version="1.0" encoding="us-ascii" standalone="no"?><svg xmlns="http://www.w3.org/2000/svg" xmlns:xlink="http://www.w3.org/1999/xlink" contentStyleType="text/css" height="497px" preserveAspectRatio="none" style="width:1089px;height:497px;background:#FFFFFF;" version="1.1" viewBox="0 0 1089 497" width="1089px" zoomAndPan="magnify"><defs/><g><!--cluster command messages--><g id="cluster_command messages"><path d="M8.5,6 L170.5,6 A3.75,3.75 0 0 1 173,8.5 L180,28.2969 L591.5,28.2969 A2.5,2.5 0 0 1 594,30.7969 L594,201.5 A2.5,2.5 0 0 1 591.5,204 L8.5,204 A2.5,2.5 0 0 1 6,201.5 L6,8.5 A2.5,2.5 0 0 1 8.5,6 " fill="none" style="stroke:#000000;stroke-width:1.5;"/><line style="stroke:#000000;stroke-width:1.5;" x1="6" x2="180" y1="28.2969" y2="28.2969"/><text fill="#000000" font-family="sans-serif" font-size="14" font-weight="bold" lengthAdjust="spacing" textLength="161" x="10" y="20.9951">command messages</text></g><!--class CommandMessage--><g id="elem_CommandMessage"><rect codeLine="38" fill="#F1F1F1" height="64.2969" id="CommandMessage" rx="2.5" ry="2.5" style="stroke:#181818;stroke-width:0.5;" width="184" x="375.5" y="40.85"/><ellipse cx="393.65" cy="56.85" fill="#B4A7E5" rx="11" ry="11" style="stroke:#181818;stroke-width:1.0;"/><path d="M389.5719,52.6156 L389.5719,50.4594 L396.9625,50.4594 L396.9625,52.6156 L394.4938,52.6156 L394.4938,60.6938 L396.9625,60.6938 L396.9625,62.85 L389.5719,62.85 L389.5719,60.6938 L392.0406,60.6938 L392.0406,52.6156 L389.5719,52.6156 Z " fill="#000000"/><text fill="#000000" font-family="sans-serif" font-size="14" font-style="italic" lengthAdjust="spacing" textLength="134" x="408.35" y="61.6967">CommandMessage</text><rect fill="#FFFFFF" height="15.9688" style="stroke:#181818;stroke-width:1.0;stroke-dasharray:2.0,2.0;" width="9" x="553.5" y="37.85"/><text fill="#000000" font-family="sans-serif" font-size="12" font-style="italic" lengthAdjust="spacing" textLength="7" x="554.5" y="49.9887">T</text><line style="stroke:#181818;stroke-width:0.5;" x1="376.5" x2="558.5" y1="72.85" y2="72.85"/><rect fill="none" height="6" style="stroke:#C82930;stroke-width:1.0;" width="6" x="383.5" y="83.4984"/><text fill="#000000" font-family="sans-serif" font-size="14" lengthAdjust="spacing" textLength="158" x="395.5" y="89.8451">commandName: String</text><line style="stroke:#181818;stroke-width:0.5;" x1="376.5" x2="558.5" y1="97.1469" y2="97.1469"/></g><!--class GenericCommandMessage--><g id="elem_GenericCommandMessage"><rect codeLine="42" fill="#F1F1F1" height="48" id="GenericCommandMessage" rx="2.5" ry="2.5" style="stroke:#181818;stroke-width:0.5;" width="231" x="44" y="53"/><ellipse cx="59" cy="69" fill="#ADD1B2" rx="11" ry="11" style="stroke:#181818;stroke-width:1.0;"/><path d="M61.9688,74.6406 Q61.3906,74.9375 60.75,75.0781 Q60.1094,75.2344 59.4063,75.2344 Q56.9063,75.2344 55.5781,73.5938 Q54.2656,71.9375 54.2656,68.8125 Q54.2656,65.6875 55.5781,64.0313 Q56.9063,62.375 59.4063,62.375 Q60.1094,62.375 60.75,62.5313 Q61.4063,62.6875 61.9688,62.9844 L61.9688,65.7031 Q61.3438,65.125 60.75,64.8594 Q60.1563,64.5781 59.5313,64.5781 Q58.1875,64.5781 57.5,65.6563 Q56.8125,66.7188 56.8125,68.8125 Q56.8125,70.9063 57.5,71.9844 Q58.1875,73.0469 59.5313,73.0469 Q60.1563,73.0469 60.75,72.7813 Q61.3438,72.5 61.9688,71.9219 L61.9688,74.6406 Z " fill="#000000"/><text fill="#000000" font-family="sans-serif" font-size="14" lengthAdjust="spacing" textLength="188" x="73" y="73.8467">GenericCommandMessage</text><rect fill="#FFFFFF" height="15.9688" style="stroke:#181818;stroke-width:1.0;stroke-dasharray:2.0,2.0;" width="9" x="269" y="50"/><text fill="#000000" font-family="sans-serif" font-size="12" font-style="italic" lengthAdjust="spacing" textLength="7" x="270" y="62.1387">T</text><line style="stroke:#181818;stroke-width:0.5;" x1="45" x2="274" y1="85" y2="85"/><line style="stroke:#181818;stroke-width:0.5;" x1="45" x2="274" y1="93" y2="93"/></g><!--class GenericCommandResultMessage--><g id="elem_GenericCommandResultMessage"><rect codeLine="44" fill="#F1F1F1" height="48" id="GenericCommandResultMessage" rx="2.5" ry="2.5" style="stroke:#181818;stroke-width:0.5;" width="275" x="22" y="140"/><ellipse cx="37" cy="156" fill="#ADD1B2" rx="11" ry="11" style="stroke:#181818;stroke-width:1.0;"/><path d="M39.9688,161.6406 Q39.3906,161.9375 38.75,162.0781 Q38.1094,162.2344 37.4063,162.2344 Q34.9063,162.2344 33.5781,160.5938 Q32.2656,158.9375 32.2656,155.8125 Q32.2656,152.6875 33.5781,151.0313 Q34.9063,149.375 37.4063,149.375 Q38.1094,149.375 38.75,149.5313 Q39.4063,149.6875 39.9688,149.9844 L39.9688,152.7031 Q39.3438,152.125 38.75,151.8594 Q38.1563,151.5781 37.5313,151.5781 Q36.1875,151.5781 35.5,152.6563 Q34.8125,153.7188 34.8125,155.8125 Q34.8125,157.9063 35.5,158.9844 Q36.1875,160.0469 37.5313,160.0469 Q38.1563,160.0469 38.75,159.7813 Q39.3438,159.5 39.9688,158.9219 L39.9688,161.6406 Z " fill="#000000"/><text fill="#000000" font-family="sans-serif" font-size="14" lengthAdjust="spacing" textLength="232" x="51" y="160.8467">GenericCommandResultMessage</text><rect fill="#FFFFFF" height="15.9688" style="stroke:#181818;stroke-width:1.0;stroke-dasharray:2.0,2.0;" width="9" x="291" y="137"/><text fill="#000000" font-family="sans-serif" font-size="12" font-style="italic" lengthAdjust="spacing" textLength="7" x="292" y="149.1387">T</text><line style="stroke:#181818;stroke-width:0.5;" x1="23" x2="296" y1="172" y2="172"/><line style="stroke:#181818;stroke-width:0.5;" x1="23" x2="296" y1="180" y2="180"/></g><!--class CommandResultMessage--><g id="elem_CommandResultMessage"><rect codeLine="46" fill="#F1F1F1" height="48" id="CommandResultMessage" rx="2.5" ry="2.5" style="stroke:#181818;stroke-width:0.5;" width="221" x="357" y="140"/><ellipse cx="372" cy="156" fill="#B4A7E5" rx="11" ry="11" style="stroke:#181818;stroke-width:1.0;"/><path d="M367.9219,151.7656 L367.9219,149.6094 L375.3125,149.6094 L375.3125,151.7656 L372.8438,151.7656 L372.8438,159.8438 L375.3125,159.8438 L375.3125,162 L367.9219,162 L367.9219,159.8438 L370.3906,159.8438 L370.3906,151.7656 L367.9219,151.7656 Z " fill="#000000"/><text fill="#000000" font-family="sans-serif" font-size="14" font-style="italic" lengthAdjust="spacing" textLength="178" x="386" y="160.8467">CommandResultMessage</text><rect fill="#FFFFFF" height="15.9688" style="stroke:#181818;stroke-width:1.0;stroke-dasharray:2.0,2.0;" width="9" x="572" y="137"/><text fill="#000000" font-family="sans-serif" font-size="12" font-style="italic" lengthAdjust="spacing" textLength="7" x="573" y="149.1387">T</text><line style="stroke:#181818;stroke-width:0.5;" x1="358" x2="577" y1="172" y2="172"/><line style="stroke:#181818;stroke-width:0.5;" x1="358" x2="577" y1="180" y2="180"/></g><!--class Message--><g id="elem_Message"><rect codeLine="6" fill="#F1F1F1" height="113.1875" id="Message" rx="2.5" ry="2.5" style="stroke:#181818;stroke-width:0.5;" width="162" x="920" y="273.41"/><ellipse cx="965.25" cy="289.41" fill="#B4A7E5" rx="11" ry="11" style="stroke:#181818;stroke-width:1.0;"/><path d="M961.1719,285.1756 L961.1719,283.0194 L968.5625,283.0194 L968.5625,285.1756 L966.0938,285.1756 L966.0938,293.2537 L968.5625,293.2537 L968.5625,295.41 L961.1719,295.41 L961.1719,293.2537 L963.6406,293.2537 L963.6406,285.1756 L961.1719,285.1756 Z " fill="#000000"/><text fill="#000000" font-family="sans-serif" font-size="14" font-style="italic" lengthAdjust="spacing" textLength="63" x="985.75" y="294.2567">Message</text><line style="stroke:#181818;stroke-width:0.5;" x1="921" x2="1081" y1="305.41" y2="305.41"/><rect fill="none" height="6" style="stroke:#C82930;stroke-width:1.0;" width="6" x="928" y="316.0584"/><text fill="#000000" font-family="sans-serif" font-size="14" lengthAdjust="spacing" textLength="108" x="940" y="322.4051">identifier: String</text><rect fill="none" height="6" style="stroke:#C82930;stroke-width:1.0;" width="6" x="928" y="332.3553"/><text fill="#000000" font-family="sans-serif" font-size="14" lengthAdjust="spacing" textLength="133" x="940" y="338.702">payloadType: Class</text><rect fill="none" height="6" style="stroke:#C82930;stroke-width:1.0;" width="6" x="928" y="348.6522"/><text fill="#000000" font-family="sans-serif" font-size="14" lengthAdjust="spacing" textLength="107" x="940" y="354.9989">payload: Object</text><rect fill="none" height="6" style="stroke:#C82930;stroke-width:1.0;" width="6" x="928" y="364.9491"/><text fill="#000000" font-family="sans-serif" font-size="14" lengthAdjust="spacing" textLength="136" x="940" y="371.2957">metdata:  MetaData</text><line style="stroke:#181818;stroke-width:0.5;" x1="921" x2="1081" y1="378.5975" y2="378.5975"/></g><!--class ResultMessage--><g id="elem_ResultMessage"><rect codeLine="13" fill="#F1F1F1" height="80.5938" id="ResultMessage" rx="2.5" ry="2.5" style="stroke:#181818;stroke-width:0.5;" width="222" x="638" y="227.7"/><ellipse cx="685.25" cy="243.7" fill="#B4A7E5" rx="11" ry="11" style="stroke:#181818;stroke-width:1.0;"/><path d="M681.1719,239.4656 L681.1719,237.3094 L688.5625,237.3094 L688.5625,239.4656 L686.0938,239.4656 L686.0938,247.5438 L688.5625,247.5438 L688.5625,249.7 L681.1719,249.7 L681.1719,247.5438 L683.6406,247.5438 L683.6406,239.4656 L681.1719,239.4656 Z " fill="#000000"/><text fill="#000000" font-family="sans-serif" font-size="14" font-style="italic" lengthAdjust="spacing" textLength="107" x="705.75" y="248.5467">ResultMessage</text><rect fill="#FFFFFF" height="15.9688" style="stroke:#181818;stroke-width:1.0;stroke-dasharray:2.0,2.0;" width="10" x="853" y="224.7"/><text fill="#000000" font-family="sans-serif" font-size="12" font-style="italic" lengthAdjust="spacing" textLength="8" x="854" y="236.8387">R</text><line style="stroke:#181818;stroke-width:0.5;" x1="639" x2="859" y1="259.7" y2="259.7"/><rect fill="none" height="6" style="stroke:#C82930;stroke-width:1.0;" width="6" x="646" y="270.3484"/><text fill="#000000" font-family="sans-serif" font-size="14" lengthAdjust="spacing" textLength="144" x="658" y="276.6951">exceptional: boolean</text><rect fill="none" height="6" style="stroke:#C82930;stroke-width:1.0;" width="6" x="646" y="286.6453"/><text fill="#000000" font-family="sans-serif" font-size="14" lengthAdjust="spacing" textLength="196" x="658" y="292.992">exceptionDetails: Throwable</text><line style="stroke:#181818;stroke-width:0.5;" x1="639" x2="859" y1="300.2938" y2="300.2938"/></g><!--class AbstractMessage--><g id="elem_AbstractMessage"><rect codeLine="18" fill="#F1F1F1" height="48" id="AbstractMessage" rx="2.5" ry="2.5" style="stroke:#181818;stroke-width:0.5;" width="163" x="667.5" y="442"/><ellipse cx="682.5" cy="458" fill="#A9DCDF" rx="11" ry="11" style="stroke:#181818;stroke-width:1.0;"/><path d="M682.6094,453.3438 L681.4531,458.4219 L683.7813,458.4219 L682.6094,453.3438 Z M681.125,451.1094 L684.1094,451.1094 L687.4688,463.5 L685.0156,463.5 L684.25,460.4375 L680.9688,460.4375 L680.2188,463.5 L677.7813,463.5 L681.125,451.1094 Z " fill="#000000"/><text fill="#000000" font-family="sans-serif" font-size="14" font-style="italic" lengthAdjust="spacing" textLength="120" x="696.5" y="462.8467">AbstractMessage</text><rect fill="#FFFFFF" height="15.9688" style="stroke:#181818;stroke-width:1.0;stroke-dasharray:2.0,2.0;" width="9" x="824.5" y="439"/><text fill="#000000" font-family="sans-serif" font-size="12" font-style="italic" lengthAdjust="spacing" textLength="7" x="825.5" y="451.1387">T</text><line style="stroke:#181818;stroke-width:0.5;" x1="668.5" x2="829.5" y1="474" y2="474"/><line style="stroke:#181818;stroke-width:0.5;" x1="668.5" x2="829.5" y1="482" y2="482"/></g><!--class GenericMessage--><g id="elem_GenericMessage"><rect codeLine="19" fill="#F1F1F1" height="48" id="GenericMessage" rx="2.5" ry="2.5" style="stroke:#181818;stroke-width:0.5;" width="160" x="387.5" y="442"/><ellipse cx="402.5" cy="458" fill="#ADD1B2" rx="11" ry="11" style="stroke:#181818;stroke-width:1.0;"/><path d="M405.4688,463.6406 Q404.8906,463.9375 404.25,464.0781 Q403.6094,464.2344 402.9063,464.2344 Q400.4063,464.2344 399.0781,462.5938 Q397.7656,460.9375 397.7656,457.8125 Q397.7656,454.6875 399.0781,453.0313 Q400.4063,451.375 402.9063,451.375 Q403.6094,451.375 404.25,451.5313 Q404.9063,451.6875 405.4688,451.9844 L405.4688,454.7031 Q404.8438,454.125 404.25,453.8594 Q403.6563,453.5781 403.0313,453.5781 Q401.6875,453.5781 401,454.6563 Q400.3125,455.7188 400.3125,457.8125 Q400.3125,459.9063 401,460.9844 Q401.6875,462.0469 403.0313,462.0469 Q403.6563,462.0469 404.25,461.7813 Q404.8438,461.5 405.4688,460.9219 L405.4688,463.6406 Z " fill="#000000"/><text fill="#000000" font-family="sans-serif" font-size="14" lengthAdjust="spacing" textLength="117" x="416.5" y="462.8467">GenericMessage</text><rect fill="#FFFFFF" height="15.9688" style="stroke:#181818;stroke-width:1.0;stroke-dasharray:2.0,2.0;" width="9" x="541.5" y="439"/><text fill="#000000" font-family="sans-serif" font-size="12" font-style="italic" lengthAdjust="spacing" textLength="7" x="542.5" y="451.1387">T</text><line style="stroke:#181818;stroke-width:0.5;" x1="388.5" x2="546.5" y1="474" y2="474"/><line style="stroke:#181818;stroke-width:0.5;" x1="388.5" x2="546.5" y1="482" y2="482"/></g><!--class GenericResultMessage--><g id="elem_GenericResultMessage"><rect codeLine="20" fill="#F1F1F1" height="48" id="GenericResultMessage" rx="2.5" ry="2.5" style="stroke:#181818;stroke-width:0.5;" width="204" x="365.5" y="294"/><ellipse cx="380.5" cy="310" fill="#ADD1B2" rx="11" ry="11" style="stroke:#181818;stroke-width:1.0;"/><path d="M383.4688,315.6406 Q382.8906,315.9375 382.25,316.0781 Q381.6094,316.2344 380.9063,316.2344 Q378.4063,316.2344 377.0781,314.5938 Q375.7656,312.9375 375.7656,309.8125 Q375.7656,306.6875 377.0781,305.0313 Q378.4063,303.375 380.9063,303.375 Q381.6094,303.375 382.25,303.5313 Q382.9063,303.6875 383.4688,303.9844 L383.4688,306.7031 Q382.8438,306.125 382.25,305.8594 Q381.6563,305.5781 381.0313,305.5781 Q379.6875,305.5781 379,306.6563 Q378.3125,307.7188 378.3125,309.8125 Q378.3125,311.9063 379,312.9844 Q379.6875,314.0469 381.0313,314.0469 Q381.6563,314.0469 382.25,313.7813 Q382.8438,313.5 383.4688,312.9219 L383.4688,315.6406 Z " fill="#000000"/><text fill="#000000" font-family="sans-serif" font-size="14" lengthAdjust="spacing" textLength="161" x="394.5" y="314.8467">GenericResultMessage</text><rect fill="#FFFFFF" height="15.9688" style="stroke:#181818;stroke-width:1.0;stroke-dasharray:2.0,2.0;" width="9" x="563.5" y="291"/><text fill="#000000" font-family="sans-serif" font-size="12" font-style="italic" lengthAdjust="spacing" textLength="7" x="564.5" y="303.1387">T</text><line style="stroke:#181818;stroke-width:0.5;" x1="366.5" x2="568.5" y1="326" y2="326"/><line style="stroke:#181818;stroke-width:0.5;" x1="366.5" x2="568.5" y1="334" y2="334"/></g><!--class MessageDecorator--><g id="elem_MessageDecorator"><rect codeLine="22" fill="#F1F1F1" height="64.2969" id="MessageDecorator" rx="2.5" ry="2.5" style="stroke:#181818;stroke-width:0.5;" width="175" x="661.5" y="342.85"/><ellipse cx="676.5" cy="358.85" fill="#A9DCDF" rx="11" ry="11" style="stroke:#181818;stroke-width:1.0;"/><path d="M676.6094,354.1938 L675.4531,359.2719 L677.7813,359.2719 L676.6094,354.1938 Z M675.125,351.9594 L678.1094,351.9594 L681.4688,364.35 L679.0156,364.35 L678.25,361.2875 L674.9688,361.2875 L674.2188,364.35 L671.7813,364.35 L675.125,351.9594 Z " fill="#000000"/><text fill="#000000" font-family="sans-serif" font-size="14" font-style="italic" lengthAdjust="spacing" textLength="132" x="690.5" y="363.6967">MessageDecorator</text><rect fill="#FFFFFF" height="15.9688" style="stroke:#181818;stroke-width:1.0;stroke-dasharray:2.0,2.0;" width="9" x="830.5" y="339.85"/><text fill="#000000" font-family="sans-serif" font-size="12" font-style="italic" lengthAdjust="spacing" textLength="7" x="831.5" y="351.9887">T</text><line style="stroke:#181818;stroke-width:0.5;" x1="662.5" x2="835.5" y1="374.85" y2="374.85"/><rect fill="none" height="6" style="stroke:#C82930;stroke-width:1.0;" width="6" x="669.5" y="385.4984"/><text fill="#000000" font-family="sans-serif" font-size="14" lengthAdjust="spacing" textLength="133" x="681.5" y="391.8451">delegate: Message</text><line style="stroke:#181818;stroke-width:0.5;" x1="662.5" x2="835.5" y1="399.1469" y2="399.1469"/></g><!--link AbstractMessage to Message--><g id="link_AbstractMessage_Message"><path codeLine="28" d="M830.82,466 C904.4,466 1001,466 1001,466 C1001,466 1001,442.16 1001,404.89 " fill="none" id="AbstractMessage-to-Message" style="stroke:#181818;stroke-width:1.0;stroke-dasharray:7.0,7.0;"/><polygon fill="none" points="1001,386.89,995,404.89,1007,404.89,1001,386.89" style="stroke:#181818;stroke-width:1.0;"/></g><!--link MessageDecorator to Message--><g id="link_MessageDecorator_Message"><path codeLine="29" d="M836.78,364.72 C863.77,364.72 875.34,364.72 901.87,364.72 " fill="none" id="MessageDecorator-to-Message" style="stroke:#181818;stroke-width:1.0;stroke-dasharray:7.0,7.0;"/><polygon fill="none" points="919.87,364.72,901.87,358.72,901.87,370.72,919.87,364.72" style="stroke:#181818;stroke-width:1.0;"/></g><!--link ResultMessage to Message--><g id="link_ResultMessage_Message"><path codeLine="30" d="M860.26,290.85 C880.31,290.85 882.85,290.85 901.83,290.85 " fill="none" id="ResultMessage-to-Message" style="stroke:#181818;stroke-width:1.0;"/><polygon fill="none" points="919.83,290.85,901.83,284.85,901.83,296.85,919.83,290.85" style="stroke:#181818;stroke-width:1.0;"/></g><!--link GenericMessage to AbstractMessage--><g id="link_GenericMessage_AbstractMessage"><path codeLine="31" d="M547.79,466 C585.17,466 611.57,466 649.14,466 " fill="none" id="GenericMessage-to-AbstractMessage" style="stroke:#181818;stroke-width:1.0;"/><polygon fill="none" points="667.14,466,649.14,460,649.14,472,667.14,466" style="stroke:#181818;stroke-width:1.0;"/></g><!--link GenericResultMessage to ResultMessage--><g id="link_GenericResultMessage_ResultMessage"><path codeLine="32" d="M569.92,301.15 C591.93,301.15 597.29,301.15 619.62,301.15 " fill="none" id="GenericResultMessage-to-ResultMessage" style="stroke:#181818;stroke-width:1.0;stroke-dasharray:7.0,7.0;"/><polygon fill="none" points="637.62,301.15,619.62,295.15,619.62,307.15,637.62,301.15" style="stroke:#181818;stroke-width:1.0;"/></g><!--link CommandMessage to Message--><g id="link_CommandMessage_Message"><path codeLine="50" d="M559.82,73 C712.51,73 1001,73 1001,73 C1001,73 1001,179.25 1001,254.96 " fill="none" id="CommandMessage-to-Message" style="stroke:#181818;stroke-width:1.0;"/><polygon fill="none" points="1001,272.96,1007,254.96,995,254.96,1001,272.96" style="stroke:#181818;stroke-width:1.0;"/></g><!--link GenericCommandMessage to CommandMessage--><g id="link_GenericCommandMessage_CommandMessage"><path codeLine="51" d="M275.06,69 C308.18,69 325.83,69 357.33,69 " fill="none" id="GenericCommandMessage-to-CommandMessage" style="stroke:#181818;stroke-width:1.0;stroke-dasharray:7.0,7.0;"/><polygon fill="none" points="375.33,69,357.33,63,357.33,75,375.33,69" style="stroke:#181818;stroke-width:1.0;"/></g><!--link GenericCommandMessage to MessageDecorator--><g id="link_GenericCommandMessage_MessageDecorator"><path codeLine="52" d="M275.15,85 C304.55,85 328,85 328,85 C328,85 328,375 328,375 C328,375 519.58,375 643,375 " fill="none" id="GenericCommandMessage-to-MessageDecorator" style="stroke:#181818;stroke-width:1.0;"/><polygon fill="none" points="661,375,643,369,643,381,661,375" style="stroke:#181818;stroke-width:1.0;"/></g><!--link CommandResultMessage to ResultMessage--><g id="link_CommandResultMessage_ResultMessage"><path codeLine="53" d="M574,188.44 C574,217.13 574,260.85 574,260.85 C574,260.85 585.16,260.85 619.67,260.85 " fill="none" id="CommandResultMessage-to-ResultMessage" style="stroke:#181818;stroke-width:1.0;"/><polygon fill="none" points="637.67,260.85,619.67,254.85,619.67,266.85,637.67,260.85" style="stroke:#181818;stroke-width:1.0;"/></g><!--link GenericCommandResultMessage to CommandResultMessage--><g id="link_GenericCommandResultMessage_CommandResultMessage"><path codeLine="54" d="M297.28,164 C317.15,164 319.37,164 338.62,164 " fill="none" id="GenericCommandResultMessage-to-CommandResultMessage" style="stroke:#181818;stroke-width:1.0;stroke-dasharray:7.0,7.0;"/><polygon fill="none" points="356.62,164,338.62,158,338.62,170,356.62,164" style="stroke:#181818;stroke-width:1.0;"/></g><!--link GenericCommandResultMessage to GenericResultMessage--><g id="link_GenericCommandResultMessage_GenericResultMessage"><path codeLine="55" d="M160,188.4 C160,231.83 160,318 160,318 C160,318 257.65,318 347.11,318 " fill="none" id="GenericCommandResultMessage-to-GenericResultMessage" style="stroke:#181818;stroke-width:1.0;"/><polygon fill="none" points="365.11,318,347.11,312,347.11,324,365.11,318" style="stroke:#181818;stroke-width:1.0;"/></g><!--SRC=[ZLBBRjim4BppAnQvz6H_W60OA6AawA4jaFeUhAYLn8GFWLmZ2PpyUzQYufg271JWWTeTpGnt9pqPFs141zPuujU184JkWxBKCd20QBgUeJ6HD9lWbUBG4VSKuQWKWF5CiKLDy8jImewEKWHOcOOyczPGhE0lH-ExN1_mrGPizY9KmQt5b8fw1N_gHr7AHKVS86C5GiwuawlKtqlPUqe7ovFuvduBam5wqJIS7AEje0x14lfPPoUangOAzdqCprXR-gJ7Ed54pV1zkdpoxuN_NG3wv1n-aATez9VDqjz-Mz1FvHtf495372coouOiTSWofGaqUXDtQkO9rkktxHaqPooxXHbOhIvQvLjoRwQabfwK1OgIKjzaf2Q178GsOkSa311Q-MeCTf8sGVpaKz_9MiQSrGI7H0sSu_Lik8SkApwuaLbIz30Ebz9wE3Yhr83wwMJYHWVdq3UGWPHkOBEv2xQXkCqZ_PUOsmozt5eU-SJn6nrTX7OCHB7I1OAheFdwZxFuNe6DZ79AgSMDpI3ZEihQ5UGbsJalQibGXfOx_kAPXOV__siKMOhO1m00]--></g></svg>