<?xml version="1.0" encoding="UTF-8" standalone="no"?><svg xmlns="http://www.w3.org/2000/svg" xmlns:xlink="http://www.w3.org/1999/xlink" contentStyleType="text/css" height="534px" preserveAspectRatio="none" style="width:1095px;height:534px;background:#FFFFFF;" version="1.1" viewBox="0 0 1095 534" width="1095px" zoomAndPan="magnify"><defs/><g><!--cluster query messages--><g id="cluster_query messages"><rect fill="none" height="216" rx="2.5" ry="2.5" style="stroke:#181818;stroke-width:1.0;" width="593" x="7" y="7"/><text fill="#000000" font-family="sans-serif" font-size="14" font-weight="bold" lengthAdjust="spacing" textLength="131" x="238" y="21.9951">query messages</text></g><!--class Message--><g id="elem_Message"><rect codeLine="6" fill="#F1F1F1" height="113.1875" id="Message" rx="2.5" ry="2.5" style="stroke:#181818;stroke-width:0.5;" width="162" x="926" y="309.5"/><ellipse cx="972.25" cy="325.5" fill="#B4A7E5" rx="11" ry="11" style="stroke:#181818;stroke-width:1.0;"/><path d="M968.1719,321.2656 L968.1719,319.1094 L975.5625,319.1094 L975.5625,321.2656 L973.0938,321.2656 L973.0938,329.3438 L975.5625,329.3438 L975.5625,331.5 L968.1719,331.5 L968.1719,329.3438 L970.6406,329.3438 L970.6406,321.2656 L968.1719,321.2656 Z " fill="#000000"/><text fill="#000000" font-family="sans-serif" font-size="14" font-style="italic" lengthAdjust="spacing" textLength="61" x="992.75" y="330.3467">Message</text><line style="stroke:#181818;stroke-width:0.5;" x1="927" x2="1087" y1="341.5" y2="341.5"/><rect fill="none" height="6" style="stroke:#C82930;stroke-width:1.0;" width="6" x="934" y="352.1484"/><text fill="#000000" font-family="sans-serif" font-size="14" lengthAdjust="spacing" textLength="108" x="946" y="358.4951">identifier: String</text><rect fill="none" height="6" style="stroke:#C82930;stroke-width:1.0;" width="6" x="934" y="368.4453"/><text fill="#000000" font-family="sans-serif" font-size="14" lengthAdjust="spacing" textLength="133" x="946" y="374.792">payloadType: Class</text><rect fill="none" height="6" style="stroke:#C82930;stroke-width:1.0;" width="6" x="934" y="384.7422"/><text fill="#000000" font-family="sans-serif" font-size="14" lengthAdjust="spacing" textLength="107" x="946" y="391.0889">payload: Object</text><rect fill="none" height="6" style="stroke:#C82930;stroke-width:1.0;" width="6" x="934" y="401.0391"/><text fill="#000000" font-family="sans-serif" font-size="14" lengthAdjust="spacing" textLength="136" x="946" y="407.3857">metdata:  MetaData</text><line style="stroke:#181818;stroke-width:0.5;" x1="927" x2="1087" y1="414.6875" y2="414.6875"/></g><!--class ResultMessage--><g id="elem_ResultMessage"><rect codeLine="13" fill="#F1F1F1" height="80.5938" id="ResultMessage" rx="2.5" ry="2.5" style="stroke:#181818;stroke-width:0.5;" width="222" x="644" y="263.5"/><ellipse cx="692.75" cy="279.5" fill="#B4A7E5" rx="11" ry="11" style="stroke:#181818;stroke-width:1.0;"/><path d="M688.6719,275.2656 L688.6719,273.1094 L696.0625,273.1094 L696.0625,275.2656 L693.5938,275.2656 L693.5938,283.3438 L696.0625,283.3438 L696.0625,285.5 L688.6719,285.5 L688.6719,283.3438 L691.1406,283.3438 L691.1406,275.2656 L688.6719,275.2656 Z " fill="#000000"/><text fill="#000000" font-family="sans-serif" font-size="14" font-style="italic" lengthAdjust="spacing" textLength="104" x="713.25" y="284.3467">ResultMessage</text><rect fill="#FFFFFF" height="15.9688" style="stroke:#181818;stroke-width:1.0;stroke-dasharray:2.0,2.0;" width="10" x="859" y="260.5"/><text fill="#000000" font-family="sans-serif" font-size="12" font-style="italic" lengthAdjust="spacing" textLength="8" x="860" y="272.6387">R</text><line style="stroke:#181818;stroke-width:0.5;" x1="645" x2="865" y1="295.5" y2="295.5"/><rect fill="none" height="6" style="stroke:#C82930;stroke-width:1.0;" width="6" x="652" y="306.1484"/><text fill="#000000" font-family="sans-serif" font-size="14" lengthAdjust="spacing" textLength="144" x="664" y="312.4951">exceptional: boolean</text><rect fill="none" height="6" style="stroke:#C82930;stroke-width:1.0;" width="6" x="652" y="322.4453"/><text fill="#000000" font-family="sans-serif" font-size="14" lengthAdjust="spacing" textLength="196" x="664" y="328.792">exceptionDetails: Throwable</text><line style="stroke:#181818;stroke-width:0.5;" x1="645" x2="865" y1="336.0938" y2="336.0938"/></g><!--class AbstractMessage--><g id="elem_AbstractMessage"><rect codeLine="18" fill="#F1F1F1" height="48" id="AbstractMessage" rx="2.5" ry="2.5" style="stroke:#181818;stroke-width:0.5;" width="161" x="674.5" y="479"/><ellipse cx="689.5" cy="495" fill="#A9DCDF" rx="11" ry="11" style="stroke:#181818;stroke-width:1.0;"/><path d="M689.6094,490.3438 L688.4531,495.4219 L690.7813,495.4219 L689.6094,490.3438 Z M688.125,488.1094 L691.1094,488.1094 L694.4688,500.5 L692.0156,500.5 L691.25,497.4375 L687.9688,497.4375 L687.2188,500.5 L684.7813,500.5 L688.125,488.1094 Z " fill="#000000"/><text fill="#000000" font-family="sans-serif" font-size="14" font-style="italic" lengthAdjust="spacing" textLength="118" x="703.5" y="499.8467">AbstractMessage</text><rect fill="#FFFFFF" height="15.9688" style="stroke:#181818;stroke-width:1.0;stroke-dasharray:2.0,2.0;" width="9" x="829.5" y="476"/><text fill="#000000" font-family="sans-serif" font-size="12" font-style="italic" lengthAdjust="spacing" textLength="7" x="830.5" y="488.1387">T</text><line style="stroke:#181818;stroke-width:0.5;" x1="675.5" x2="834.5" y1="511" y2="511"/><line style="stroke:#181818;stroke-width:0.5;" x1="675.5" x2="834.5" y1="519" y2="519"/></g><!--class GenericMessage--><g id="elem_GenericMessage"><rect codeLine="19" fill="#F1F1F1" height="48" id="GenericMessage" rx="2.5" ry="2.5" style="stroke:#181818;stroke-width:0.5;" width="160" x="384" y="479"/><ellipse cx="399" cy="495" fill="#ADD1B2" rx="11" ry="11" style="stroke:#181818;stroke-width:1.0;"/><path d="M401.9688,500.6406 Q401.3906,500.9375 400.75,501.0781 Q400.1094,501.2344 399.4063,501.2344 Q396.9063,501.2344 395.5781,499.5938 Q394.2656,497.9375 394.2656,494.8125 Q394.2656,491.6875 395.5781,490.0313 Q396.9063,488.375 399.4063,488.375 Q400.1094,488.375 400.75,488.5313 Q401.4063,488.6875 401.9688,488.9844 L401.9688,491.7031 Q401.3438,491.125 400.75,490.8594 Q400.1563,490.5781 399.5313,490.5781 Q398.1875,490.5781 397.5,491.6563 Q396.8125,492.7188 396.8125,494.8125 Q396.8125,496.9063 397.5,497.9844 Q398.1875,499.0469 399.5313,499.0469 Q400.1563,499.0469 400.75,498.7813 Q401.3438,498.5 401.9688,497.9219 L401.9688,500.6406 Z " fill="#000000"/><text fill="#000000" font-family="sans-serif" font-size="14" lengthAdjust="spacing" textLength="117" x="413" y="499.8467">GenericMessage</text><rect fill="#FFFFFF" height="15.9688" style="stroke:#181818;stroke-width:1.0;stroke-dasharray:2.0,2.0;" width="9" x="538" y="476"/><text fill="#000000" font-family="sans-serif" font-size="12" font-style="italic" lengthAdjust="spacing" textLength="7" x="539" y="488.1387">T</text><line style="stroke:#181818;stroke-width:0.5;" x1="385" x2="543" y1="511" y2="511"/><line style="stroke:#181818;stroke-width:0.5;" x1="385" x2="543" y1="519" y2="519"/></g><!--class GenericResultMessage--><g id="elem_GenericResultMessage"><rect codeLine="20" fill="#F1F1F1" height="48" id="GenericResultMessage" rx="2.5" ry="2.5" style="stroke:#181818;stroke-width:0.5;" width="204" x="362" y="313"/><ellipse cx="377" cy="329" fill="#ADD1B2" rx="11" ry="11" style="stroke:#181818;stroke-width:1.0;"/><path d="M379.9688,334.6406 Q379.3906,334.9375 378.75,335.0781 Q378.1094,335.2344 377.4063,335.2344 Q374.9063,335.2344 373.5781,333.5938 Q372.2656,331.9375 372.2656,328.8125 Q372.2656,325.6875 373.5781,324.0313 Q374.9063,322.375 377.4063,322.375 Q378.1094,322.375 378.75,322.5313 Q379.4063,322.6875 379.9688,322.9844 L379.9688,325.7031 Q379.3438,325.125 378.75,324.8594 Q378.1563,324.5781 377.5313,324.5781 Q376.1875,324.5781 375.5,325.6563 Q374.8125,326.7188 374.8125,328.8125 Q374.8125,330.9063 375.5,331.9844 Q376.1875,333.0469 377.5313,333.0469 Q378.1563,333.0469 378.75,332.7813 Q379.3438,332.5 379.9688,331.9219 L379.9688,334.6406 Z " fill="#000000"/><text fill="#000000" font-family="sans-serif" font-size="14" lengthAdjust="spacing" textLength="161" x="391" y="333.8467">GenericResultMessage</text><rect fill="#FFFFFF" height="15.9688" style="stroke:#181818;stroke-width:1.0;stroke-dasharray:2.0,2.0;" width="9" x="560" y="310"/><text fill="#000000" font-family="sans-serif" font-size="12" font-style="italic" lengthAdjust="spacing" textLength="7" x="561" y="322.1387">T</text><line style="stroke:#181818;stroke-width:0.5;" x1="363" x2="565" y1="345" y2="345"/><line style="stroke:#181818;stroke-width:0.5;" x1="363" x2="565" y1="353" y2="353"/></g><!--class MessageDecorator--><g id="elem_MessageDecorator"><rect codeLine="22" fill="#F1F1F1" height="64.2969" id="MessageDecorator" rx="2.5" ry="2.5" style="stroke:#181818;stroke-width:0.5;" width="173" x="668.5" y="380"/><ellipse cx="683.5" cy="396" fill="#A9DCDF" rx="11" ry="11" style="stroke:#181818;stroke-width:1.0;"/><path d="M683.6094,391.3438 L682.4531,396.4219 L684.7813,396.4219 L683.6094,391.3438 Z M682.125,389.1094 L685.1094,389.1094 L688.4688,401.5 L686.0156,401.5 L685.25,398.4375 L681.9688,398.4375 L681.2188,401.5 L678.7813,401.5 L682.125,389.1094 Z " fill="#000000"/><text fill="#000000" font-family="sans-serif" font-size="14" font-style="italic" lengthAdjust="spacing" textLength="130" x="697.5" y="400.8467">MessageDecorator</text><rect fill="#FFFFFF" height="15.9688" style="stroke:#181818;stroke-width:1.0;stroke-dasharray:2.0,2.0;" width="9" x="835.5" y="377"/><text fill="#000000" font-family="sans-serif" font-size="12" font-style="italic" lengthAdjust="spacing" textLength="7" x="836.5" y="389.1387">T</text><line style="stroke:#181818;stroke-width:0.5;" x1="669.5" x2="840.5" y1="412" y2="412"/><rect fill="none" height="6" style="stroke:#C82930;stroke-width:1.0;" width="6" x="676.5" y="422.6484"/><text fill="#000000" font-family="sans-serif" font-size="14" lengthAdjust="spacing" textLength="133" x="688.5" y="428.9951">delegate: Message</text><line style="stroke:#181818;stroke-width:0.5;" x1="669.5" x2="840.5" y1="436.2969" y2="436.2969"/></g><!--class QueryMessage--><g id="elem_QueryMessage"><rect codeLine="39" fill="#F1F1F1" height="80.5938" id="QueryMessage" rx="2.5" ry="2.5" style="stroke:#181818;stroke-width:0.5;" width="240" x="344" y="42.5"/><ellipse cx="396.75" cy="58.5" fill="#B4A7E5" rx="11" ry="11" style="stroke:#181818;stroke-width:1.0;"/><path d="M392.6719,54.2656 L392.6719,52.1094 L400.0625,52.1094 L400.0625,54.2656 L397.5938,54.2656 L397.5938,62.3438 L400.0625,62.3438 L400.0625,64.5 L392.6719,64.5 L392.6719,62.3438 L395.1406,62.3438 L395.1406,54.2656 L392.6719,54.2656 Z " fill="#000000"/><text fill="#000000" font-family="sans-serif" font-size="14" font-style="italic" lengthAdjust="spacing" textLength="103" x="417.25" y="63.3467">QueryMessage</text><rect fill="#FFFFFF" height="15.9688" style="stroke:#181818;stroke-width:1.0;stroke-dasharray:2.0,2.0;" width="21" x="566" y="39.5"/><text fill="#000000" font-family="sans-serif" font-size="12" font-style="italic" lengthAdjust="spacing" textLength="19" x="567" y="51.6387">T,R</text><line style="stroke:#181818;stroke-width:0.5;" x1="345" x2="583" y1="74.5" y2="74.5"/><rect fill="none" height="6" style="stroke:#C82930;stroke-width:1.0;" width="6" x="352" y="85.1484"/><text fill="#000000" font-family="sans-serif" font-size="14" lengthAdjust="spacing" textLength="128" x="364" y="91.4951">queryName: String</text><rect fill="none" height="6" style="stroke:#C82930;stroke-width:1.0;" width="6" x="352" y="101.4453"/><text fill="#000000" font-family="sans-serif" font-size="14" lengthAdjust="spacing" textLength="214" x="364" y="107.792">responseType: ResponseType</text><line style="stroke:#181818;stroke-width:0.5;" x1="345" x2="583" y1="115.0938" y2="115.0938"/></g><!--class QueryResponseMessage--><g id="elem_QueryResponseMessage"><rect codeLine="44" fill="#F1F1F1" height="48" id="QueryResponseMessage" rx="2.5" ry="2.5" style="stroke:#181818;stroke-width:0.5;" width="215" x="356.5" y="159"/><ellipse cx="371.5" cy="175" fill="#B4A7E5" rx="11" ry="11" style="stroke:#181818;stroke-width:1.0;"/><path d="M367.4219,170.7656 L367.4219,168.6094 L374.8125,168.6094 L374.8125,170.7656 L372.3438,170.7656 L372.3438,178.8438 L374.8125,178.8438 L374.8125,181 L367.4219,181 L367.4219,178.8438 L369.8906,178.8438 L369.8906,170.7656 L367.4219,170.7656 Z " fill="#000000"/><text fill="#000000" font-family="sans-serif" font-size="14" font-style="italic" lengthAdjust="spacing" textLength="172" x="385.5" y="179.8467">QueryResponseMessage</text><rect fill="#FFFFFF" height="15.9688" style="stroke:#181818;stroke-width:1.0;stroke-dasharray:2.0,2.0;" width="9" x="565.5" y="156"/><text fill="#000000" font-family="sans-serif" font-size="12" font-style="italic" lengthAdjust="spacing" textLength="7" x="566.5" y="168.1387">T</text><line style="stroke:#181818;stroke-width:0.5;" x1="357.5" x2="570.5" y1="191" y2="191"/><line style="stroke:#181818;stroke-width:0.5;" x1="357.5" x2="570.5" y1="199" y2="199"/></g><!--class GenericQueryMessage--><g id="elem_GenericQueryMessage"><rect codeLine="46" fill="#F1F1F1" height="48" id="GenericQueryMessage" rx="2.5" ry="2.5" style="stroke:#181818;stroke-width:0.5;" width="213" x="47" y="68"/><ellipse cx="62" cy="84" fill="#ADD1B2" rx="11" ry="11" style="stroke:#181818;stroke-width:1.0;"/><path d="M64.9688,89.6406 Q64.3906,89.9375 63.75,90.0781 Q63.1094,90.2344 62.4063,90.2344 Q59.9063,90.2344 58.5781,88.5938 Q57.2656,86.9375 57.2656,83.8125 Q57.2656,80.6875 58.5781,79.0313 Q59.9063,77.375 62.4063,77.375 Q63.1094,77.375 63.75,77.5313 Q64.4063,77.6875 64.9688,77.9844 L64.9688,80.7031 Q64.3438,80.125 63.75,79.8594 Q63.1563,79.5781 62.5313,79.5781 Q61.1875,79.5781 60.5,80.6563 Q59.8125,81.7188 59.8125,83.8125 Q59.8125,85.9063 60.5,86.9844 Q61.1875,88.0469 62.5313,88.0469 Q63.1563,88.0469 63.75,87.7813 Q64.3438,87.5 64.9688,86.9219 L64.9688,89.6406 Z " fill="#000000"/><text fill="#000000" font-family="sans-serif" font-size="14" lengthAdjust="spacing" textLength="158" x="76" y="88.8467">GenericQueryMessage</text><rect fill="#FFFFFF" height="15.9688" style="stroke:#181818;stroke-width:1.0;stroke-dasharray:2.0,2.0;" width="21" x="242" y="65"/><text fill="#000000" font-family="sans-serif" font-size="12" font-style="italic" lengthAdjust="spacing" textLength="19" x="243" y="77.1387">T,R</text><line style="stroke:#181818;stroke-width:0.5;" x1="48" x2="259" y1="100" y2="100"/><line style="stroke:#181818;stroke-width:0.5;" x1="48" x2="259" y1="108" y2="108"/></g><!--class GenericQueryResponseMessage--><g id="elem_GenericQueryResponseMessage"><rect codeLine="48" fill="#F1F1F1" height="48" id="GenericQueryResponseMessage" rx="2.5" ry="2.5" style="stroke:#181818;stroke-width:0.5;" width="261" x="23" y="159"/><ellipse cx="38" cy="175" fill="#ADD1B2" rx="11" ry="11" style="stroke:#181818;stroke-width:1.0;"/><path d="M40.9688,180.6406 Q40.3906,180.9375 39.75,181.0781 Q39.1094,181.2344 38.4063,181.2344 Q35.9063,181.2344 34.5781,179.5938 Q33.2656,177.9375 33.2656,174.8125 Q33.2656,171.6875 34.5781,170.0313 Q35.9063,168.375 38.4063,168.375 Q39.1094,168.375 39.75,168.5313 Q40.4063,168.6875 40.9688,168.9844 L40.9688,171.7031 Q40.3438,171.125 39.75,170.8594 Q39.1563,170.5781 38.5313,170.5781 Q37.1875,170.5781 36.5,171.6563 Q35.8125,172.7188 35.8125,174.8125 Q35.8125,176.9063 36.5,177.9844 Q37.1875,179.0469 38.5313,179.0469 Q39.1563,179.0469 39.75,178.7813 Q40.3438,178.5 40.9688,177.9219 L40.9688,180.6406 Z " fill="#000000"/><text fill="#000000" font-family="sans-serif" font-size="14" lengthAdjust="spacing" textLength="229" x="52" y="179.8467">GenericQueryResponseMessage</text><line style="stroke:#181818;stroke-width:0.5;" x1="24" x2="283" y1="191" y2="191"/><line style="stroke:#181818;stroke-width:0.5;" x1="24" x2="283" y1="199" y2="199"/></g><!--link AbstractMessage to Message--><g id="link_AbstractMessage_Message"><path codeLine="28" d="M835.77,503 C909.48,503 1007,503 1007,503 C1007,503 1007,444.42 1007,444.42 " fill="none" id="AbstractMessage-to-Message" style="stroke:#181818;stroke-width:1.0;stroke-dasharray:7.0,7.0;"/><polygon fill="none" points="1000,444.42,1007,424.42,1014,444.42,1000,444.42" style="stroke:#181818;stroke-width:1.0;"/></g><!--link MessageDecorator to Message--><g id="link_MessageDecorator_Message"><path codeLine="29" d="M841.72,401.25 C841.72,401.25 904.12,401.25 904.12,401.25 " fill="none" id="MessageDecorator-to-Message" style="stroke:#181818;stroke-width:1.0;stroke-dasharray:7.0,7.0;"/><polygon fill="none" points="904.12,394.25,924.12,401.25,904.12,408.25,904.12,394.25" style="stroke:#181818;stroke-width:1.0;"/></g><!--link ResultMessage to Message--><g id="link_ResultMessage_Message"><path codeLine="30" d="M866.26,327 C866.26,327 904.32,327 904.32,327 " fill="none" id="ResultMessage-to-Message" style="stroke:#181818;stroke-width:1.0;"/><polygon fill="none" points="904.32,320,924.32,327,904.32,334,904.32,320" style="stroke:#181818;stroke-width:1.0;"/></g><!--link GenericMessage to AbstractMessage--><g id="link_GenericMessage_AbstractMessage"><path codeLine="31" d="M544.29,503 C544.29,503 652.7,503 652.7,503 " fill="none" id="GenericMessage-to-AbstractMessage" style="stroke:#181818;stroke-width:1.0;"/><polygon fill="none" points="652.7,496,672.7,503,652.7,510,652.7,496" style="stroke:#181818;stroke-width:1.0;"/></g><!--link GenericResultMessage to ResultMessage--><g id="link_GenericResultMessage_ResultMessage"><path codeLine="32" d="M566.19,328.75 C566.19,328.75 622.13,328.75 622.13,328.75 " fill="none" id="GenericResultMessage-to-ResultMessage" style="stroke:#181818;stroke-width:1.0;stroke-dasharray:7.0,7.0;"/><polygon fill="none" points="622.13,321.75,642.13,328.75,622.13,335.75,622.13,321.75" style="stroke:#181818;stroke-width:1.0;"/></g><!--link QueryMessage to Message--><g id="link_QueryMessage_Message"><path codeLine="52" d="M578,123.97 C578,199.43 578,352.75 578,352.75 C578,352.75 904.04,352.75 904.04,352.75 " fill="none" id="QueryMessage-to-Message" style="stroke:#181818;stroke-width:1.0;"/><polygon fill="none" points="904.04,345.75,924.04,352.75,904.04,359.75,904.04,345.75" style="stroke:#181818;stroke-width:1.0;"/></g><!--link GenericQueryMessage to QueryMessage--><g id="link_GenericQueryMessage_QueryMessage"><path codeLine="53" d="M260.36,84 C260.36,84 322.12,84 322.12,84 " fill="none" id="GenericQueryMessage-to-QueryMessage" style="stroke:#181818;stroke-width:1.0;stroke-dasharray:7.0,7.0;"/><polygon fill="none" points="322.12,77,342.12,84,322.12,91,322.12,77" style="stroke:#181818;stroke-width:1.0;"/></g><!--link GenericQueryMessage to MessageDecorator--><g id="link_GenericQueryMessage_MessageDecorator"><path codeLine="54" d="M260.11,100 C289.75,100 314,100 314,100 C314,100 314,412 314,412 C314,412 646.62,412 646.62,412 " fill="none" id="GenericQueryMessage-to-MessageDecorator" style="stroke:#181818;stroke-width:1.0;"/><polygon fill="none" points="646.62,405,666.62,412,646.62,419,646.62,405" style="stroke:#181818;stroke-width:1.0;"/></g><!--link QueryResponseMessage to ResultMessage--><g id="link_QueryResponseMessage_ResultMessage"><path codeLine="55" d="M464,207.41 C464,238.5 464,288.25 464,288.25 C464,288.25 622.23,288.25 622.23,288.25 " fill="none" id="QueryResponseMessage-to-ResultMessage" style="stroke:#181818;stroke-width:1.0;"/><polygon fill="none" points="622.23,281.25,642.23,288.25,622.23,295.25,622.23,281.25" style="stroke:#181818;stroke-width:1.0;"/></g><!--link GenericQueryResponseMessage to QueryResponseMessage--><g id="link_GenericQueryResponseMessage_QueryResponseMessage"><path codeLine="56" d="M284.28,183 C284.28,183 334.89,183 334.89,183 " fill="none" id="GenericQueryResponseMessage-to-QueryResponseMessage" style="stroke:#181818;stroke-width:1.0;stroke-dasharray:7.0,7.0;"/><polygon fill="none" points="334.89,176,354.89,183,334.89,190,334.89,176" style="stroke:#181818;stroke-width:1.0;"/></g><!--link GenericQueryResponseMessage to GenericResultMessage--><g id="link_GenericQueryResponseMessage_GenericResultMessage"><path codeLine="57" d="M154,207.4 C154,250.83 154,337 154,337 C154,337 340.12,337 340.12,337 " fill="none" id="GenericQueryResponseMessage-to-GenericResultMessage" style="stroke:#181818;stroke-width:1.0;"/><polygon fill="none" points="340.12,330,360.12,337,340.12,344,340.12,330" style="stroke:#181818;stroke-width:1.0;"/></g><!--SRC=[VLB1ZjCm43sllsAq5owa7n1LaH2L40T0bDvNasIIc7NiO4-rLCl-EnCdhU8GAlbWppo_z-nvuLdR0JtsOBGblWm4pdFdbA66WHrutNOCjVPKiNPMANOjSKSUNfK2q9R9DrWHVA4GiALNAG9akYRBkj7aS_Z1NjjsgWzuCGxhamZbyD5W24azXs_bJr6QYZrnZOmv23dZGRPIVqjbZnJEXcVn_R60sG3zhcWO7QF9eNJE4DfLvo2aseGSJfrtBrWQkj9Z6TXZnV1XtbpvJyB_9e1gT0wVo9BNrTrcwkzK9FHp-K2LyyZEHuh9PKs6McJvfHaKlOaxjV84kzsVuWPQCwRTn0nasQALlcNghPJKrfCcWQIar3lvKXr05aBZiUqb3E0QETKQMqcR83xpsEzbB35d9S4vK0stUBrexg2T59_wo2mfUegVIs4td7kZr83LysZYyTUP_0Kc68L7sE-F4YEqhQ6YM4Vr-mY-ZUJzDJGFMMJvYZqjG_kGUGg3iu6cr1uNft_p6Bcla3GPwsXisFWFQCKtmcGjxsyECm74EIqhcwWbpIr4Qil414q7VyVpGd_LkNihYcpbxYy0]--></g></svg>