<?xml version="1.0" encoding="us-ascii" standalone="no"?><svg xmlns="http://www.w3.org/2000/svg" xmlns:xlink="http://www.w3.org/1999/xlink" contentStyleType="text/css" height="417px" preserveAspectRatio="none" style="width:735px;height:417px;background:#FFFFFF;" version="1.1" viewBox="0 0 735 417" width="735px" zoomAndPan="magnify"><defs/><g><!--cluster event messages--><g id="cluster_event messages"><rect fill="none" height="115" rx="2.5" ry="2.5" style="stroke:#181818;stroke-width:1.0;" width="482" x="7" y="296"/><text fill="#000000" font-family="sans-serif" font-size="14" font-weight="bold" lengthAdjust="spacing" textLength="130" x="183" y="310.9951">event messages</text></g><!--class EventMessage--><g id="elem_EventMessage"><rect codeLine="39" fill="#F1F1F1" height="64.2969" id="EventMessage" rx="2.5" ry="2.5" style="stroke:#181818;stroke-width:0.5;" width="155" x="318" y="330.85"/><ellipse cx="337.5" cy="346.85" fill="#B4A7E5" rx="11" ry="11" style="stroke:#181818;stroke-width:1.0;"/><path d="M333.4219,342.6156 L333.4219,340.4594 L340.8125,340.4594 L340.8125,342.6156 L338.3438,342.6156 L338.3438,350.6938 L340.8125,350.6938 L340.8125,352.85 L333.4219,352.85 L333.4219,350.6938 L335.8906,350.6938 L335.8906,342.6156 L333.4219,342.6156 Z " fill="#000000"/><text fill="#000000" font-family="sans-serif" font-size="14" font-style="italic" lengthAdjust="spacing" textLength="102" x="352.5" y="351.6967">EventMessage</text><rect fill="#FFFFFF" height="15.9688" style="stroke:#181818;stroke-width:1.0;stroke-dasharray:2.0,2.0;" width="9" x="467" y="327.85"/><text fill="#000000" font-family="sans-serif" font-size="12" font-style="italic" lengthAdjust="spacing" textLength="7" x="468" y="339.9887">T</text><line style="stroke:#181818;stroke-width:0.5;" x1="319" x2="472" y1="362.85" y2="362.85"/><rect fill="none" height="6" style="stroke:#C82930;stroke-width:1.0;" width="6" x="326" y="373.4984"/><text fill="#000000" font-family="sans-serif" font-size="14" lengthAdjust="spacing" textLength="129" x="338" y="379.8451">timestamp: Instant</text><line style="stroke:#181818;stroke-width:0.5;" x1="319" x2="472" y1="387.1469" y2="387.1469"/></g><!--class GenericEventMessage--><g id="elem_GenericEventMessage"><rect codeLine="43" fill="#F1F1F1" height="48" id="GenericEventMessage" rx="2.5" ry="2.5" style="stroke:#181818;stroke-width:0.5;" width="199" x="23" y="335"/><ellipse cx="38" cy="351" fill="#ADD1B2" rx="11" ry="11" style="stroke:#181818;stroke-width:1.0;"/><path d="M40.9688,356.6406 Q40.3906,356.9375 39.75,357.0781 Q39.1094,357.2344 38.4063,357.2344 Q35.9063,357.2344 34.5781,355.5938 Q33.2656,353.9375 33.2656,350.8125 Q33.2656,347.6875 34.5781,346.0313 Q35.9063,344.375 38.4063,344.375 Q39.1094,344.375 39.75,344.5313 Q40.4063,344.6875 40.9688,344.9844 L40.9688,347.7031 Q40.3438,347.125 39.75,346.8594 Q39.1563,346.5781 38.5313,346.5781 Q37.1875,346.5781 36.5,347.6563 Q35.8125,348.7188 35.8125,350.8125 Q35.8125,352.9063 36.5,353.9844 Q37.1875,355.0469 38.5313,355.0469 Q39.1563,355.0469 39.75,354.7813 Q40.3438,354.5 40.9688,353.9219 L40.9688,356.6406 Z " fill="#000000"/><text fill="#000000" font-family="sans-serif" font-size="14" lengthAdjust="spacing" textLength="156" x="52" y="355.8467">GenericEventMessage</text><rect fill="#FFFFFF" height="15.9688" style="stroke:#181818;stroke-width:1.0;stroke-dasharray:2.0,2.0;" width="9" x="216" y="332"/><text fill="#000000" font-family="sans-serif" font-size="12" font-style="italic" lengthAdjust="spacing" textLength="7" x="217" y="344.1387">T</text><line style="stroke:#181818;stroke-width:0.5;" x1="24" x2="221" y1="367" y2="367"/><line style="stroke:#181818;stroke-width:0.5;" x1="24" x2="221" y1="375" y2="375"/></g><!--class Message--><g id="elem_Message"><rect codeLine="6" fill="#F1F1F1" height="113.1875" id="Message" rx="2.5" ry="2.5" style="stroke:#181818;stroke-width:0.5;" width="162" x="566.5" y="117.41"/><ellipse cx="611.75" cy="133.41" fill="#B4A7E5" rx="11" ry="11" style="stroke:#181818;stroke-width:1.0;"/><path d="M607.6719,129.1756 L607.6719,127.0194 L615.0625,127.0194 L615.0625,129.1756 L612.5938,129.1756 L612.5938,137.2538 L615.0625,137.2538 L615.0625,139.41 L607.6719,139.41 L607.6719,137.2538 L610.1406,137.2538 L610.1406,129.1756 L607.6719,129.1756 Z " fill="#000000"/><text fill="#000000" font-family="sans-serif" font-size="14" font-style="italic" lengthAdjust="spacing" textLength="63" x="632.25" y="138.2567">Message</text><line style="stroke:#181818;stroke-width:0.5;" x1="567.5" x2="727.5" y1="149.41" y2="149.41"/><rect fill="none" height="6" style="stroke:#C82930;stroke-width:1.0;" width="6" x="574.5" y="160.0584"/><text fill="#000000" font-family="sans-serif" font-size="14" lengthAdjust="spacing" textLength="108" x="586.5" y="166.4051">identifier: String</text><rect fill="none" height="6" style="stroke:#C82930;stroke-width:1.0;" width="6" x="574.5" y="176.3553"/><text fill="#000000" font-family="sans-serif" font-size="14" lengthAdjust="spacing" textLength="133" x="586.5" y="182.702">payloadType: Class</text><rect fill="none" height="6" style="stroke:#C82930;stroke-width:1.0;" width="6" x="574.5" y="192.6522"/><text fill="#000000" font-family="sans-serif" font-size="14" lengthAdjust="spacing" textLength="107" x="586.5" y="198.9989">payload: Object</text><rect fill="none" height="6" style="stroke:#C82930;stroke-width:1.0;" width="6" x="574.5" y="208.9491"/><text fill="#000000" font-family="sans-serif" font-size="14" lengthAdjust="spacing" textLength="136" x="586.5" y="215.2957">metdata:  MetaData</text><line style="stroke:#181818;stroke-width:0.5;" x1="567.5" x2="727.5" y1="222.5975" y2="222.5975"/></g><!--class ResultMessage--><g id="elem_ResultMessage"><rect codeLine="13" fill="#F1F1F1" height="80.5938" id="ResultMessage" rx="2.5" ry="2.5" style="stroke:#181818;stroke-width:0.5;" width="222" x="284.5" y="92.7"/><ellipse cx="331.75" cy="108.7" fill="#B4A7E5" rx="11" ry="11" style="stroke:#181818;stroke-width:1.0;"/><path d="M327.6719,104.4656 L327.6719,102.3094 L335.0625,102.3094 L335.0625,104.4656 L332.5938,104.4656 L332.5938,112.5437 L335.0625,112.5437 L335.0625,114.7 L327.6719,114.7 L327.6719,112.5437 L330.1406,112.5437 L330.1406,104.4656 L327.6719,104.4656 Z " fill="#000000"/><text fill="#000000" font-family="sans-serif" font-size="14" font-style="italic" lengthAdjust="spacing" textLength="107" x="352.25" y="113.5467">ResultMessage</text><rect fill="#FFFFFF" height="15.9688" style="stroke:#181818;stroke-width:1.0;stroke-dasharray:2.0,2.0;" width="10" x="499.5" y="89.7"/><text fill="#000000" font-family="sans-serif" font-size="12" font-style="italic" lengthAdjust="spacing" textLength="8" x="500.5" y="101.8387">R</text><line style="stroke:#181818;stroke-width:0.5;" x1="285.5" x2="505.5" y1="124.7" y2="124.7"/><rect fill="none" height="6" style="stroke:#C82930;stroke-width:1.0;" width="6" x="292.5" y="135.3484"/><text fill="#000000" font-family="sans-serif" font-size="14" lengthAdjust="spacing" textLength="144" x="304.5" y="141.6951">exceptional: boolean</text><rect fill="none" height="6" style="stroke:#C82930;stroke-width:1.0;" width="6" x="292.5" y="151.6453"/><text fill="#000000" font-family="sans-serif" font-size="14" lengthAdjust="spacing" textLength="196" x="304.5" y="157.992">exceptionDetails: Throwable</text><line style="stroke:#181818;stroke-width:0.5;" x1="285.5" x2="505.5" y1="165.2938" y2="165.2938"/></g><!--class AbstractMessage--><g id="elem_AbstractMessage"><rect codeLine="18" fill="#F1F1F1" height="48" id="AbstractMessage" rx="2.5" ry="2.5" style="stroke:#181818;stroke-width:0.5;" width="163" x="314" y="10"/><ellipse cx="329" cy="26" fill="#A9DCDF" rx="11" ry="11" style="stroke:#181818;stroke-width:1.0;"/><path d="M329.1094,21.3438 L327.9531,26.4219 L330.2813,26.4219 L329.1094,21.3438 Z M327.625,19.1094 L330.6094,19.1094 L333.9688,31.5 L331.5156,31.5 L330.75,28.4375 L327.4688,28.4375 L326.7188,31.5 L324.2813,31.5 L327.625,19.1094 Z " fill="#000000"/><text fill="#000000" font-family="sans-serif" font-size="14" font-style="italic" lengthAdjust="spacing" textLength="120" x="343" y="30.8467">AbstractMessage</text><rect fill="#FFFFFF" height="15.9688" style="stroke:#181818;stroke-width:1.0;stroke-dasharray:2.0,2.0;" width="9" x="471" y="7"/><text fill="#000000" font-family="sans-serif" font-size="12" font-style="italic" lengthAdjust="spacing" textLength="7" x="472" y="19.1387">T</text><line style="stroke:#181818;stroke-width:0.5;" x1="315" x2="476" y1="42" y2="42"/><line style="stroke:#181818;stroke-width:0.5;" x1="315" x2="476" y1="50" y2="50"/></g><!--class GenericMessage--><g id="elem_GenericMessage"><rect codeLine="19" fill="#F1F1F1" height="48" id="GenericMessage" rx="2.5" ry="2.5" style="stroke:#181818;stroke-width:0.5;" width="160" x="42.5" y="10"/><ellipse cx="57.5" cy="26" fill="#ADD1B2" rx="11" ry="11" style="stroke:#181818;stroke-width:1.0;"/><path d="M60.4688,31.6406 Q59.8906,31.9375 59.25,32.0781 Q58.6094,32.2344 57.9063,32.2344 Q55.4063,32.2344 54.0781,30.5938 Q52.7656,28.9375 52.7656,25.8125 Q52.7656,22.6875 54.0781,21.0313 Q55.4063,19.375 57.9063,19.375 Q58.6094,19.375 59.25,19.5313 Q59.9063,19.6875 60.4688,19.9844 L60.4688,22.7031 Q59.8438,22.125 59.25,21.8594 Q58.6563,21.5781 58.0313,21.5781 Q56.6875,21.5781 56,22.6563 Q55.3125,23.7188 55.3125,25.8125 Q55.3125,27.9063 56,28.9844 Q56.6875,30.0469 58.0313,30.0469 Q58.6563,30.0469 59.25,29.7813 Q59.8438,29.5 60.4688,28.9219 L60.4688,31.6406 Z " fill="#000000"/><text fill="#000000" font-family="sans-serif" font-size="14" lengthAdjust="spacing" textLength="117" x="71.5" y="30.8467">GenericMessage</text><rect fill="#FFFFFF" height="15.9688" style="stroke:#181818;stroke-width:1.0;stroke-dasharray:2.0,2.0;" width="9" x="196.5" y="7"/><text fill="#000000" font-family="sans-serif" font-size="12" font-style="italic" lengthAdjust="spacing" textLength="7" x="197.5" y="19.1387">T</text><line style="stroke:#181818;stroke-width:0.5;" x1="43.5" x2="201.5" y1="42" y2="42"/><line style="stroke:#181818;stroke-width:0.5;" x1="43.5" x2="201.5" y1="50" y2="50"/></g><!--class GenericResultMessage--><g id="elem_GenericResultMessage"><rect codeLine="20" fill="#F1F1F1" height="48" id="GenericResultMessage" rx="2.5" ry="2.5" style="stroke:#181818;stroke-width:0.5;" width="204" x="20.5" y="109"/><ellipse cx="35.5" cy="125" fill="#ADD1B2" rx="11" ry="11" style="stroke:#181818;stroke-width:1.0;"/><path d="M38.4688,130.6406 Q37.8906,130.9375 37.25,131.0781 Q36.6094,131.2344 35.9063,131.2344 Q33.4063,131.2344 32.0781,129.5938 Q30.7656,127.9375 30.7656,124.8125 Q30.7656,121.6875 32.0781,120.0313 Q33.4063,118.375 35.9063,118.375 Q36.6094,118.375 37.25,118.5313 Q37.9063,118.6875 38.4688,118.9844 L38.4688,121.7031 Q37.8438,121.125 37.25,120.8594 Q36.6563,120.5781 36.0313,120.5781 Q34.6875,120.5781 34,121.6563 Q33.3125,122.7188 33.3125,124.8125 Q33.3125,126.9063 34,127.9844 Q34.6875,129.0469 36.0313,129.0469 Q36.6563,129.0469 37.25,128.7813 Q37.8438,128.5 38.4688,127.9219 L38.4688,130.6406 Z " fill="#000000"/><text fill="#000000" font-family="sans-serif" font-size="14" lengthAdjust="spacing" textLength="161" x="49.5" y="129.8467">GenericResultMessage</text><rect fill="#FFFFFF" height="15.9688" style="stroke:#181818;stroke-width:1.0;stroke-dasharray:2.0,2.0;" width="9" x="218.5" y="106"/><text fill="#000000" font-family="sans-serif" font-size="12" font-style="italic" lengthAdjust="spacing" textLength="7" x="219.5" y="118.1387">T</text><line style="stroke:#181818;stroke-width:0.5;" x1="21.5" x2="223.5" y1="141" y2="141"/><line style="stroke:#181818;stroke-width:0.5;" x1="21.5" x2="223.5" y1="149" y2="149"/></g><!--class MessageDecorator--><g id="elem_MessageDecorator"><rect codeLine="22" fill="#F1F1F1" height="64.2969" id="MessageDecorator" rx="2.5" ry="2.5" style="stroke:#181818;stroke-width:0.5;" width="175" x="308" y="207.85"/><ellipse cx="323" cy="223.85" fill="#A9DCDF" rx="11" ry="11" style="stroke:#181818;stroke-width:1.0;"/><path d="M323.1094,219.1938 L321.9531,224.2719 L324.2813,224.2719 L323.1094,219.1938 Z M321.625,216.9594 L324.6094,216.9594 L327.9688,229.35 L325.5156,229.35 L324.75,226.2875 L321.4688,226.2875 L320.7188,229.35 L318.2813,229.35 L321.625,216.9594 Z " fill="#000000"/><text fill="#000000" font-family="sans-serif" font-size="14" font-style="italic" lengthAdjust="spacing" textLength="132" x="337" y="228.6967">MessageDecorator</text><rect fill="#FFFFFF" height="15.9688" style="stroke:#181818;stroke-width:1.0;stroke-dasharray:2.0,2.0;" width="9" x="477" y="204.85"/><text fill="#000000" font-family="sans-serif" font-size="12" font-style="italic" lengthAdjust="spacing" textLength="7" x="478" y="216.9887">T</text><line style="stroke:#181818;stroke-width:0.5;" x1="309" x2="482" y1="239.85" y2="239.85"/><rect fill="none" height="6" style="stroke:#C82930;stroke-width:1.0;" width="6" x="316" y="250.4984"/><text fill="#000000" font-family="sans-serif" font-size="14" lengthAdjust="spacing" textLength="133" x="328" y="256.8451">delegate: Message</text><line style="stroke:#181818;stroke-width:0.5;" x1="309" x2="482" y1="264.1469" y2="264.1469"/></g><!--link AbstractMessage to Message--><g id="link_AbstractMessage_Message"><path codeLine="28" d="M477.32,34 C550.9,34 647.5,34 647.5,34 C647.5,34 647.5,60.3 647.5,99.06 " fill="none" id="AbstractMessage-to-Message" style="stroke:#181818;stroke-width:1.0;stroke-dasharray:7.0,7.0;"/><polygon fill="none" points="647.5,117.06,653.5,99.06,641.5,99.06,647.5,117.06" style="stroke:#181818;stroke-width:1.0;"/></g><!--link MessageDecorator to Message--><g id="link_MessageDecorator_Message"><path codeLine="29" d="M483.28,219.22 C510.27,219.22 521.84,219.22 548.37,219.22 " fill="none" id="MessageDecorator-to-Message" style="stroke:#181818;stroke-width:1.0;stroke-dasharray:7.0,7.0;"/><polygon fill="none" points="566.37,219.22,548.37,213.22,548.37,225.22,566.37,219.22" style="stroke:#181818;stroke-width:1.0;"/></g><!--link ResultMessage to Message--><g id="link_ResultMessage_Message"><path codeLine="30" d="M506.76,145.35 C526.81,145.35 529.35,145.35 548.34,145.35 " fill="none" id="ResultMessage-to-Message" style="stroke:#181818;stroke-width:1.0;"/><polygon fill="none" points="566.34,145.35,548.34,139.35,548.34,151.35,566.34,145.35" style="stroke:#181818;stroke-width:1.0;"/></g><!--link GenericMessage to AbstractMessage--><g id="link_GenericMessage_AbstractMessage"><path codeLine="31" d="M202.93,34 C237.85,34 260.69,34 295.75,34 " fill="none" id="GenericMessage-to-AbstractMessage" style="stroke:#181818;stroke-width:1.0;"/><polygon fill="none" points="313.75,34,295.75,28,295.75,40,313.75,34" style="stroke:#181818;stroke-width:1.0;"/></g><!--link GenericResultMessage to ResultMessage--><g id="link_GenericResultMessage_ResultMessage"><path codeLine="32" d="M224.93,133 C244.3,133 246.64,133 266.26,133 " fill="none" id="GenericResultMessage-to-ResultMessage" style="stroke:#181818;stroke-width:1.0;stroke-dasharray:7.0,7.0;"/><polygon fill="none" points="284.26,133,266.26,127,266.26,139,284.26,133" style="stroke:#181818;stroke-width:1.0;"/></g><!--link EventMessage to Message--><g id="link_EventMessage_Message"><path codeLine="47" d="M473.16,363 C547.21,363 647.5,363 647.5,363 C647.5,363 647.5,304.61 647.5,248.96 " fill="none" id="EventMessage-to-Message" style="stroke:#181818;stroke-width:1.0;"/><polygon fill="none" points="647.5,230.96,641.5,248.96,653.5,248.96,647.5,230.96" style="stroke:#181818;stroke-width:1.0;"/></g><!--link GenericEventMessage to EventMessage--><g id="link_GenericEventMessage_EventMessage"><path codeLine="48" d="M222.22,367 C253.75,367 270.11,367 299.85,367 " fill="none" id="GenericEventMessage-to-EventMessage" style="stroke:#181818;stroke-width:1.0;stroke-dasharray:7.0,7.0;"/><polygon fill="none" points="317.85,367,299.85,361,299.85,373,317.85,367" style="stroke:#181818;stroke-width:1.0;"/></g><!--link GenericEventMessage to MessageDecorator--><g id="link_GenericEventMessage_MessageDecorator"><path codeLine="49" d="M222.48,351 C268.69,351 313.5,351 313.5,351 C313.5,351 313.5,323.17 313.5,290.4 " fill="none" id="GenericEventMessage-to-MessageDecorator" style="stroke:#181818;stroke-width:1.0;"/><polygon fill="none" points="313.5,272.4,307.5,290.4,319.5,290.4,313.5,272.4" style="stroke:#181818;stroke-width:1.0;"/></g><!--SRC=[VLBBJiCm4BpxArPSEBKV45MH44M80q8glQDDid5C7Jkojpm4_3kRHwiuL4WvEBFZcV7kneDn7GPimHf7_DaH-C2DLvPg1lOGZ6uOAXEePEETKkmrSKC1lfG2C8ufr5WIF5ACgEbBG82LgSYngGs539uv6AT7lCDFwx7QYr46jnPZJF0CdefNSHh1bhX2nWn4d74hHy5_KjiTnQFboNopos4AG1ybTNrYj1aKtbj2jwXiHTJOcC6-2VuT2qidUImY1omPRgR3INyl-Zz2AFlaS4-EWYd_BQRvzdaYFy5RAdr0zc6G65DMP4aZIvScqf1Dqgb59bYll_CpQQcOLfCmi5hDIkbRnjh2ILrwqcYGG4fTIqjD1FaGwe2wbMK0NyjVPL3BjWdZWVjwAsCPzgmWE4QguBnUxuORqAFZIpieonQz3CsbkEwEhLMgm_BGXxYYjzvYf56yWirc9sk4JblAy-MgtlNa-TJ6bhEH-unjby63auFZqpua4_rpMoZopU6BhKq8GzVco4NMNEOyqby0]--></g></svg>