<?xml version="1.0" encoding="us-ascii" standalone="no"?><svg xmlns="http://www.w3.org/2000/svg" xmlns:xlink="http://www.w3.org/1999/xlink" contentStyleType="text/css" height="279px" preserveAspectRatio="none" style="width:722px;height:279px;background:#FFFFFF;" version="1.1" viewBox="0 0 722 279" width="722px" zoomAndPan="magnify"><defs/><g><!--class Message--><g id="elem_Message"><rect codeLine="6" fill="#F1F1F1" height="113.1875" id="Message" rx="2.5" ry="2.5" style="stroke:#181818;stroke-width:0.5;" width="162" x="553" y="76.41"/><ellipse cx="598.25" cy="92.41" fill="#B4A7E5" rx="11" ry="11" style="stroke:#181818;stroke-width:1.0;"/><path d="M594.1719,88.1756 L594.1719,86.0194 L601.5625,86.0194 L601.5625,88.1756 L599.0938,88.1756 L599.0938,96.2538 L601.5625,96.2538 L601.5625,98.41 L594.1719,98.41 L594.1719,96.2538 L596.6406,96.2538 L596.6406,88.1756 L594.1719,88.1756 Z " fill="#000000"/><text fill="#000000" font-family="sans-serif" font-size="14" font-style="italic" lengthAdjust="spacing" textLength="63" x="618.75" y="97.2567">Message</text><line style="stroke:#181818;stroke-width:0.5;" x1="554" x2="714" y1="108.41" y2="108.41"/><rect fill="none" height="6" style="stroke:#C82930;stroke-width:1.0;" width="6" x="561" y="119.0584"/><text fill="#000000" font-family="sans-serif" font-size="14" lengthAdjust="spacing" textLength="108" x="573" y="125.4051">identifier: String</text><rect fill="none" height="6" style="stroke:#C82930;stroke-width:1.0;" width="6" x="561" y="135.3553"/><text fill="#000000" font-family="sans-serif" font-size="14" lengthAdjust="spacing" textLength="133" x="573" y="141.702">payloadType: Class</text><rect fill="none" height="6" style="stroke:#C82930;stroke-width:1.0;" width="6" x="561" y="151.6522"/><text fill="#000000" font-family="sans-serif" font-size="14" lengthAdjust="spacing" textLength="107" x="573" y="157.9989">payload: Object</text><rect fill="none" height="6" style="stroke:#C82930;stroke-width:1.0;" width="6" x="561" y="167.9491"/><text fill="#000000" font-family="sans-serif" font-size="14" lengthAdjust="spacing" textLength="136" x="573" y="174.2957">metdata:  MetaData</text><line style="stroke:#181818;stroke-width:0.5;" x1="554" x2="714" y1="181.5975" y2="181.5975"/></g><!--class ResultMessage--><g id="elem_ResultMessage"><rect codeLine="13" fill="#F1F1F1" height="80.5938" id="ResultMessage" rx="2.5" ry="2.5" style="stroke:#181818;stroke-width:0.5;" width="222" x="271" y="92.7"/><ellipse cx="318.25" cy="108.7" fill="#B4A7E5" rx="11" ry="11" style="stroke:#181818;stroke-width:1.0;"/><path d="M314.1719,104.4656 L314.1719,102.3094 L321.5625,102.3094 L321.5625,104.4656 L319.0938,104.4656 L319.0938,112.5437 L321.5625,112.5437 L321.5625,114.7 L314.1719,114.7 L314.1719,112.5437 L316.6406,112.5437 L316.6406,104.4656 L314.1719,104.4656 Z " fill="#000000"/><text fill="#000000" font-family="sans-serif" font-size="14" font-style="italic" lengthAdjust="spacing" textLength="107" x="338.75" y="113.5467">ResultMessage</text><rect fill="#FFFFFF" height="15.9688" style="stroke:#181818;stroke-width:1.0;stroke-dasharray:2.0,2.0;" width="10" x="486" y="89.7"/><text fill="#000000" font-family="sans-serif" font-size="12" font-style="italic" lengthAdjust="spacing" textLength="8" x="487" y="101.8387">R</text><line style="stroke:#181818;stroke-width:0.5;" x1="272" x2="492" y1="124.7" y2="124.7"/><rect fill="none" height="6" style="stroke:#C82930;stroke-width:1.0;" width="6" x="279" y="135.3484"/><text fill="#000000" font-family="sans-serif" font-size="14" lengthAdjust="spacing" textLength="144" x="291" y="141.6951">exceptional: boolean</text><rect fill="none" height="6" style="stroke:#C82930;stroke-width:1.0;" width="6" x="279" y="151.6453"/><text fill="#000000" font-family="sans-serif" font-size="14" lengthAdjust="spacing" textLength="196" x="291" y="157.992">exceptionDetails: Throwable</text><line style="stroke:#181818;stroke-width:0.5;" x1="272" x2="492" y1="165.2938" y2="165.2938"/></g><!--class AbstractMessage--><g id="elem_AbstractMessage"><rect codeLine="18" fill="#F1F1F1" height="48" id="AbstractMessage" rx="2.5" ry="2.5" style="stroke:#181818;stroke-width:0.5;" width="163" x="300.5" y="10"/><ellipse cx="315.5" cy="26" fill="#A9DCDF" rx="11" ry="11" style="stroke:#181818;stroke-width:1.0;"/><path d="M315.6094,21.3438 L314.4531,26.4219 L316.7813,26.4219 L315.6094,21.3438 Z M314.125,19.1094 L317.1094,19.1094 L320.4688,31.5 L318.0156,31.5 L317.25,28.4375 L313.9688,28.4375 L313.2188,31.5 L310.7813,31.5 L314.125,19.1094 Z " fill="#000000"/><text fill="#000000" font-family="sans-serif" font-size="14" font-style="italic" lengthAdjust="spacing" textLength="120" x="329.5" y="30.8467">AbstractMessage</text><rect fill="#FFFFFF" height="15.9688" style="stroke:#181818;stroke-width:1.0;stroke-dasharray:2.0,2.0;" width="9" x="457.5" y="7"/><text fill="#000000" font-family="sans-serif" font-size="12" font-style="italic" lengthAdjust="spacing" textLength="7" x="458.5" y="19.1387">T</text><line style="stroke:#181818;stroke-width:0.5;" x1="301.5" x2="462.5" y1="42" y2="42"/><line style="stroke:#181818;stroke-width:0.5;" x1="301.5" x2="462.5" y1="50" y2="50"/></g><!--class GenericMessage--><g id="elem_GenericMessage"><rect codeLine="19" fill="#F1F1F1" height="48" id="GenericMessage" rx="2.5" ry="2.5" style="stroke:#181818;stroke-width:0.5;" width="160" x="29" y="10"/><ellipse cx="44" cy="26" fill="#ADD1B2" rx="11" ry="11" style="stroke:#181818;stroke-width:1.0;"/><path d="M46.9688,31.6406 Q46.3906,31.9375 45.75,32.0781 Q45.1094,32.2344 44.4063,32.2344 Q41.9063,32.2344 40.5781,30.5938 Q39.2656,28.9375 39.2656,25.8125 Q39.2656,22.6875 40.5781,21.0313 Q41.9063,19.375 44.4063,19.375 Q45.1094,19.375 45.75,19.5313 Q46.4063,19.6875 46.9688,19.9844 L46.9688,22.7031 Q46.3438,22.125 45.75,21.8594 Q45.1563,21.5781 44.5313,21.5781 Q43.1875,21.5781 42.5,22.6563 Q41.8125,23.7188 41.8125,25.8125 Q41.8125,27.9063 42.5,28.9844 Q43.1875,30.0469 44.5313,30.0469 Q45.1563,30.0469 45.75,29.7813 Q46.3438,29.5 46.9688,28.9219 L46.9688,31.6406 Z " fill="#000000"/><text fill="#000000" font-family="sans-serif" font-size="14" lengthAdjust="spacing" textLength="117" x="58" y="30.8467">GenericMessage</text><rect fill="#FFFFFF" height="15.9688" style="stroke:#181818;stroke-width:1.0;stroke-dasharray:2.0,2.0;" width="9" x="183" y="7"/><text fill="#000000" font-family="sans-serif" font-size="12" font-style="italic" lengthAdjust="spacing" textLength="7" x="184" y="19.1387">T</text><line style="stroke:#181818;stroke-width:0.5;" x1="30" x2="188" y1="42" y2="42"/><line style="stroke:#181818;stroke-width:0.5;" x1="30" x2="188" y1="50" y2="50"/></g><!--class GenericResultMessage--><g id="elem_GenericResultMessage"><rect codeLine="20" fill="#F1F1F1" height="48" id="GenericResultMessage" rx="2.5" ry="2.5" style="stroke:#181818;stroke-width:0.5;" width="204" x="7" y="109"/><ellipse cx="22" cy="125" fill="#ADD1B2" rx="11" ry="11" style="stroke:#181818;stroke-width:1.0;"/><path d="M24.9688,130.6406 Q24.3906,130.9375 23.75,131.0781 Q23.1094,131.2344 22.4063,131.2344 Q19.9063,131.2344 18.5781,129.5938 Q17.2656,127.9375 17.2656,124.8125 Q17.2656,121.6875 18.5781,120.0313 Q19.9063,118.375 22.4063,118.375 Q23.1094,118.375 23.75,118.5313 Q24.4063,118.6875 24.9688,118.9844 L24.9688,121.7031 Q24.3438,121.125 23.75,120.8594 Q23.1563,120.5781 22.5313,120.5781 Q21.1875,120.5781 20.5,121.6563 Q19.8125,122.7188 19.8125,124.8125 Q19.8125,126.9063 20.5,127.9844 Q21.1875,129.0469 22.5313,129.0469 Q23.1563,129.0469 23.75,128.7813 Q24.3438,128.5 24.9688,127.9219 L24.9688,130.6406 Z " fill="#000000"/><text fill="#000000" font-family="sans-serif" font-size="14" lengthAdjust="spacing" textLength="161" x="36" y="129.8467">GenericResultMessage</text><rect fill="#FFFFFF" height="15.9688" style="stroke:#181818;stroke-width:1.0;stroke-dasharray:2.0,2.0;" width="9" x="205" y="106"/><text fill="#000000" font-family="sans-serif" font-size="12" font-style="italic" lengthAdjust="spacing" textLength="7" x="206" y="118.1387">T</text><line style="stroke:#181818;stroke-width:0.5;" x1="8" x2="210" y1="141" y2="141"/><line style="stroke:#181818;stroke-width:0.5;" x1="8" x2="210" y1="149" y2="149"/></g><!--class MessageDecorator--><g id="elem_MessageDecorator"><rect codeLine="22" fill="#F1F1F1" height="64.2969" id="MessageDecorator" rx="2.5" ry="2.5" style="stroke:#181818;stroke-width:0.5;" width="175" x="294.5" y="207.85"/><ellipse cx="309.5" cy="223.85" fill="#A9DCDF" rx="11" ry="11" style="stroke:#181818;stroke-width:1.0;"/><path d="M309.6094,219.1938 L308.4531,224.2719 L310.7813,224.2719 L309.6094,219.1938 Z M308.125,216.9594 L311.1094,216.9594 L314.4688,229.35 L312.0156,229.35 L311.25,226.2875 L307.9688,226.2875 L307.2188,229.35 L304.7813,229.35 L308.125,216.9594 Z " fill="#000000"/><text fill="#000000" font-family="sans-serif" font-size="14" font-style="italic" lengthAdjust="spacing" textLength="132" x="323.5" y="228.6967">MessageDecorator</text><rect fill="#FFFFFF" height="15.9688" style="stroke:#181818;stroke-width:1.0;stroke-dasharray:2.0,2.0;" width="9" x="463.5" y="204.85"/><text fill="#000000" font-family="sans-serif" font-size="12" font-style="italic" lengthAdjust="spacing" textLength="7" x="464.5" y="216.9887">T</text><line style="stroke:#181818;stroke-width:0.5;" x1="295.5" x2="468.5" y1="239.85" y2="239.85"/><rect fill="none" height="6" style="stroke:#C82930;stroke-width:1.0;" width="6" x="302.5" y="250.4984"/><text fill="#000000" font-family="sans-serif" font-size="14" lengthAdjust="spacing" textLength="133" x="314.5" y="256.8451">delegate: Message</text><line style="stroke:#181818;stroke-width:0.5;" x1="295.5" x2="468.5" y1="264.1469" y2="264.1469"/></g><!--link AbstractMessage to Message--><g id="link_AbstractMessage_Message"><path codeLine="28" d="M383,58.39 C383,71.32 383,84.55 383,84.55 C383,84.55 461.22,84.55 534.51,84.55 " fill="none" id="AbstractMessage-to-Message" style="stroke:#181818;stroke-width:1.0;stroke-dasharray:7.0,7.0;"/><polygon fill="none" points="552.51,84.55,534.51,78.55,534.51,90.55,552.51,84.55" style="stroke:#181818;stroke-width:1.0;"/></g><!--link MessageDecorator to Message--><g id="link_MessageDecorator_Message"><path codeLine="29" d="M383,207.64 C383,194.1 383,181.45 383,181.45 C383,181.45 461.22,181.45 534.51,181.45 " fill="none" id="MessageDecorator-to-Message" style="stroke:#181818;stroke-width:1.0;stroke-dasharray:7.0,7.0;"/><polygon fill="none" points="552.51,181.45,534.51,175.45,534.51,187.45,552.51,181.45" style="stroke:#181818;stroke-width:1.0;"/></g><!--link ResultMessage to Message--><g id="link_ResultMessage_Message"><path codeLine="30" d="M493.26,133 C513.31,133 515.85,133 534.84,133 " fill="none" id="ResultMessage-to-Message" style="stroke:#181818;stroke-width:1.0;"/><polygon fill="none" points="552.84,133,534.84,127,534.84,139,552.84,133" style="stroke:#181818;stroke-width:1.0;"/></g><!--link GenericMessage to AbstractMessage--><g id="link_GenericMessage_AbstractMessage"><path codeLine="31" d="M189.43,34 C224.35,34 247.19,34 282.25,34 " fill="none" id="GenericMessage-to-AbstractMessage" style="stroke:#181818;stroke-width:1.0;"/><polygon fill="none" points="300.25,34,282.25,28,282.25,40,300.25,34" style="stroke:#181818;stroke-width:1.0;"/></g><!--link GenericResultMessage to ResultMessage--><g id="link_GenericResultMessage_ResultMessage"><path codeLine="32" d="M211.43,133 C230.8,133 233.14,133 252.76,133 " fill="none" id="GenericResultMessage-to-ResultMessage" style="stroke:#181818;stroke-width:1.0;stroke-dasharray:7.0,7.0;"/><polygon fill="none" points="270.76,133,252.76,127,252.76,139,270.76,133" style="stroke:#181818;stroke-width:1.0;"/></g><!--SRC=[VP1XQiCm38N_-nIwG7e0Cm9ZWVqQWouNK1mbqURQGTROIjUxpstICOUnV-8zyTudfJSECmeUm7CWFSu4KNIAnjEWe164nqcXPo6d78Cn6aVIYGHEnW1mK9817S4JfOGZdR88K75FGNbW4WilAXp6HP_nw2FsRIwoyE0nfKAtyDozvgP5F93sg6WXXoisUSpwkQpTKthtkfRVxMjO0UZJqNmXHc-XYz4JXetJv53soK8xIVp0pjCj7hkaWaxXVXrk-MtEF-S5To67HmeaxFurIxwsBk9NkI4N1JNADMAXxCdJY9g_j2vTsJATsJ31RlTL_onj4qktW86g-cMLjopUfidyTT9IK4ZV]--></g></svg>