<?xml version="1.0" encoding="us-ascii" standalone="no"?><svg xmlns="http://www.w3.org/2000/svg" xmlns:xlink="http://www.w3.org/1999/xlink" contentStyleType="text/css" height="514px" preserveAspectRatio="none" style="width:1095px;height:514px;background:#FFFFFF;" version="1.1" viewBox="0 0 1095 514" width="1095px" zoomAndPan="magnify"><defs/><g><!--cluster query messages--><g id="cluster_query messages"><rect fill="none" height="214" rx="2.5" ry="2.5" style="stroke:#181818;stroke-width:1.0;" width="593" x="7" y="7"/><text fill="#000000" font-family="sans-serif" font-size="14" font-weight="bold" lengthAdjust="spacing" textLength="131" x="238" y="21.9951">query messages</text></g><!--class QueryMessage--><g id="elem_QueryMessage"><rect codeLine="39" fill="#F1F1F1" height="80.5938" id="QueryMessage" rx="2.5" ry="2.5" style="stroke:#181818;stroke-width:0.5;" width="240" x="344" y="41.7"/><ellipse cx="396.25" cy="57.7" fill="#B4A7E5" rx="11" ry="11" style="stroke:#181818;stroke-width:1.0;"/><path d="M392.1719,53.4656 L392.1719,51.3094 L399.5625,51.3094 L399.5625,53.4656 L397.0938,53.4656 L397.0938,61.5437 L399.5625,61.5437 L399.5625,63.7 L392.1719,63.7 L392.1719,61.5437 L394.6406,61.5437 L394.6406,53.4656 L392.1719,53.4656 Z " fill="#000000"/><text fill="#000000" font-family="sans-serif" font-size="14" font-style="italic" lengthAdjust="spacing" textLength="104" x="416.75" y="62.5467">QueryMessage</text><rect fill="#FFFFFF" height="15.9688" style="stroke:#181818;stroke-width:1.0;stroke-dasharray:2.0,2.0;" width="21" x="566" y="38.7"/><text fill="#000000" font-family="sans-serif" font-size="12" font-style="italic" lengthAdjust="spacing" textLength="19" x="567" y="50.8387">T,R</text><line style="stroke:#181818;stroke-width:0.5;" x1="345" x2="583" y1="73.7" y2="73.7"/><rect fill="none" height="6" style="stroke:#C82930;stroke-width:1.0;" width="6" x="352" y="84.3484"/><text fill="#000000" font-family="sans-serif" font-size="14" lengthAdjust="spacing" textLength="128" x="364" y="90.6951">queryName: String</text><rect fill="none" height="6" style="stroke:#C82930;stroke-width:1.0;" width="6" x="352" y="100.6453"/><text fill="#000000" font-family="sans-serif" font-size="14" lengthAdjust="spacing" textLength="214" x="364" y="106.992">responseType: ResponseType</text><line style="stroke:#181818;stroke-width:0.5;" x1="345" x2="583" y1="114.2937" y2="114.2937"/></g><!--class QueryResponseMessage--><g id="elem_QueryResponseMessage"><rect codeLine="44" fill="#F1F1F1" height="48" id="QueryResponseMessage" rx="2.5" ry="2.5" style="stroke:#181818;stroke-width:0.5;" width="218" x="355" y="157"/><ellipse cx="370" cy="173" fill="#B4A7E5" rx="11" ry="11" style="stroke:#181818;stroke-width:1.0;"/><path d="M365.9219,168.7656 L365.9219,166.6094 L373.3125,166.6094 L373.3125,168.7656 L370.8438,168.7656 L370.8438,176.8438 L373.3125,176.8438 L373.3125,179 L365.9219,179 L365.9219,176.8438 L368.3906,176.8438 L368.3906,168.7656 L365.9219,168.7656 Z " fill="#000000"/><text fill="#000000" font-family="sans-serif" font-size="14" font-style="italic" lengthAdjust="spacing" textLength="175" x="384" y="177.8467">QueryResponseMessage</text><rect fill="#FFFFFF" height="15.9688" style="stroke:#181818;stroke-width:1.0;stroke-dasharray:2.0,2.0;" width="9" x="567" y="154"/><text fill="#000000" font-family="sans-serif" font-size="12" font-style="italic" lengthAdjust="spacing" textLength="7" x="568" y="166.1387">T</text><line style="stroke:#181818;stroke-width:0.5;" x1="356" x2="572" y1="189" y2="189"/><line style="stroke:#181818;stroke-width:0.5;" x1="356" x2="572" y1="197" y2="197"/></g><!--class GenericQueryMessage--><g id="elem_GenericQueryMessage"><rect codeLine="46" fill="#F1F1F1" height="48" id="GenericQueryMessage" rx="2.5" ry="2.5" style="stroke:#181818;stroke-width:0.5;" width="213" x="47" y="66"/><ellipse cx="62" cy="82" fill="#ADD1B2" rx="11" ry="11" style="stroke:#181818;stroke-width:1.0;"/><path d="M64.9688,87.6406 Q64.3906,87.9375 63.75,88.0781 Q63.1094,88.2344 62.4063,88.2344 Q59.9063,88.2344 58.5781,86.5938 Q57.2656,84.9375 57.2656,81.8125 Q57.2656,78.6875 58.5781,77.0313 Q59.9063,75.375 62.4063,75.375 Q63.1094,75.375 63.75,75.5313 Q64.4063,75.6875 64.9688,75.9844 L64.9688,78.7031 Q64.3438,78.125 63.75,77.8594 Q63.1563,77.5781 62.5313,77.5781 Q61.1875,77.5781 60.5,78.6563 Q59.8125,79.7188 59.8125,81.8125 Q59.8125,83.9063 60.5,84.9844 Q61.1875,86.0469 62.5313,86.0469 Q63.1563,86.0469 63.75,85.7813 Q64.3438,85.5 64.9688,84.9219 L64.9688,87.6406 Z " fill="#000000"/><text fill="#000000" font-family="sans-serif" font-size="14" lengthAdjust="spacing" textLength="158" x="76" y="86.8467">GenericQueryMessage</text><rect fill="#FFFFFF" height="15.9688" style="stroke:#181818;stroke-width:1.0;stroke-dasharray:2.0,2.0;" width="21" x="242" y="63"/><text fill="#000000" font-family="sans-serif" font-size="12" font-style="italic" lengthAdjust="spacing" textLength="19" x="243" y="75.1387">T,R</text><line style="stroke:#181818;stroke-width:0.5;" x1="48" x2="259" y1="98" y2="98"/><line style="stroke:#181818;stroke-width:0.5;" x1="48" x2="259" y1="106" y2="106"/></g><!--class GenericQueryResponseMessage--><g id="elem_GenericQueryResponseMessage"><rect codeLine="48" fill="#F1F1F1" height="48" id="GenericQueryResponseMessage" rx="2.5" ry="2.5" style="stroke:#181818;stroke-width:0.5;" width="261" x="23" y="157"/><ellipse cx="38" cy="173" fill="#ADD1B2" rx="11" ry="11" style="stroke:#181818;stroke-width:1.0;"/><path d="M40.9688,178.6406 Q40.3906,178.9375 39.75,179.0781 Q39.1094,179.2344 38.4063,179.2344 Q35.9063,179.2344 34.5781,177.5938 Q33.2656,175.9375 33.2656,172.8125 Q33.2656,169.6875 34.5781,168.0313 Q35.9063,166.375 38.4063,166.375 Q39.1094,166.375 39.75,166.5313 Q40.4063,166.6875 40.9688,166.9844 L40.9688,169.7031 Q40.3438,169.125 39.75,168.8594 Q39.1563,168.5781 38.5313,168.5781 Q37.1875,168.5781 36.5,169.6563 Q35.8125,170.7188 35.8125,172.8125 Q35.8125,174.9063 36.5,175.9844 Q37.1875,177.0469 38.5313,177.0469 Q39.1563,177.0469 39.75,176.7813 Q40.3438,176.5 40.9688,175.9219 L40.9688,178.6406 Z " fill="#000000"/><text fill="#000000" font-family="sans-serif" font-size="14" lengthAdjust="spacing" textLength="229" x="52" y="177.8467">GenericQueryResponseMessage</text><line style="stroke:#181818;stroke-width:0.5;" x1="24" x2="283" y1="189" y2="189"/><line style="stroke:#181818;stroke-width:0.5;" x1="24" x2="283" y1="197" y2="197"/></g><!--class Message--><g id="elem_Message"><rect codeLine="6" fill="#F1F1F1" height="113.1875" id="Message" rx="2.5" ry="2.5" style="stroke:#181818;stroke-width:0.5;" width="162" x="926" y="290.41"/><ellipse cx="971.25" cy="306.41" fill="#B4A7E5" rx="11" ry="11" style="stroke:#181818;stroke-width:1.0;"/><path d="M967.1719,302.1756 L967.1719,300.0194 L974.5625,300.0194 L974.5625,302.1756 L972.0938,302.1756 L972.0938,310.2537 L974.5625,310.2537 L974.5625,312.41 L967.1719,312.41 L967.1719,310.2537 L969.6406,310.2537 L969.6406,302.1756 L967.1719,302.1756 Z " fill="#000000"/><text fill="#000000" font-family="sans-serif" font-size="14" font-style="italic" lengthAdjust="spacing" textLength="63" x="991.75" y="311.2567">Message</text><line style="stroke:#181818;stroke-width:0.5;" x1="927" x2="1087" y1="322.41" y2="322.41"/><rect fill="none" height="6" style="stroke:#C82930;stroke-width:1.0;" width="6" x="934" y="333.0584"/><text fill="#000000" font-family="sans-serif" font-size="14" lengthAdjust="spacing" textLength="108" x="946" y="339.4051">identifier: String</text><rect fill="none" height="6" style="stroke:#C82930;stroke-width:1.0;" width="6" x="934" y="349.3553"/><text fill="#000000" font-family="sans-serif" font-size="14" lengthAdjust="spacing" textLength="133" x="946" y="355.702">payloadType: Class</text><rect fill="none" height="6" style="stroke:#C82930;stroke-width:1.0;" width="6" x="934" y="365.6522"/><text fill="#000000" font-family="sans-serif" font-size="14" lengthAdjust="spacing" textLength="107" x="946" y="371.9989">payload: Object</text><rect fill="none" height="6" style="stroke:#C82930;stroke-width:1.0;" width="6" x="934" y="381.9491"/><text fill="#000000" font-family="sans-serif" font-size="14" lengthAdjust="spacing" textLength="136" x="946" y="388.2957">metdata:  MetaData</text><line style="stroke:#181818;stroke-width:0.5;" x1="927" x2="1087" y1="395.5975" y2="395.5975"/></g><!--class ResultMessage--><g id="elem_ResultMessage"><rect codeLine="13" fill="#F1F1F1" height="80.5938" id="ResultMessage" rx="2.5" ry="2.5" style="stroke:#181818;stroke-width:0.5;" width="222" x="644" y="244.7"/><ellipse cx="691.25" cy="260.7" fill="#B4A7E5" rx="11" ry="11" style="stroke:#181818;stroke-width:1.0;"/><path d="M687.1719,256.4656 L687.1719,254.3094 L694.5625,254.3094 L694.5625,256.4656 L692.0938,256.4656 L692.0938,264.5438 L694.5625,264.5438 L694.5625,266.7 L687.1719,266.7 L687.1719,264.5438 L689.6406,264.5438 L689.6406,256.4656 L687.1719,256.4656 Z " fill="#000000"/><text fill="#000000" font-family="sans-serif" font-size="14" font-style="italic" lengthAdjust="spacing" textLength="107" x="711.75" y="265.5467">ResultMessage</text><rect fill="#FFFFFF" height="15.9688" style="stroke:#181818;stroke-width:1.0;stroke-dasharray:2.0,2.0;" width="10" x="859" y="241.7"/><text fill="#000000" font-family="sans-serif" font-size="12" font-style="italic" lengthAdjust="spacing" textLength="8" x="860" y="253.8387">R</text><line style="stroke:#181818;stroke-width:0.5;" x1="645" x2="865" y1="276.7" y2="276.7"/><rect fill="none" height="6" style="stroke:#C82930;stroke-width:1.0;" width="6" x="652" y="287.3484"/><text fill="#000000" font-family="sans-serif" font-size="14" lengthAdjust="spacing" textLength="144" x="664" y="293.6951">exceptional: boolean</text><rect fill="none" height="6" style="stroke:#C82930;stroke-width:1.0;" width="6" x="652" y="303.6453"/><text fill="#000000" font-family="sans-serif" font-size="14" lengthAdjust="spacing" textLength="196" x="664" y="309.992">exceptionDetails: Throwable</text><line style="stroke:#181818;stroke-width:0.5;" x1="645" x2="865" y1="317.2938" y2="317.2938"/></g><!--class AbstractMessage--><g id="elem_AbstractMessage"><rect codeLine="18" fill="#F1F1F1" height="48" id="AbstractMessage" rx="2.5" ry="2.5" style="stroke:#181818;stroke-width:0.5;" width="163" x="673.5" y="459"/><ellipse cx="688.5" cy="475" fill="#A9DCDF" rx="11" ry="11" style="stroke:#181818;stroke-width:1.0;"/><path d="M688.6094,470.3438 L687.4531,475.4219 L689.7813,475.4219 L688.6094,470.3438 Z M687.125,468.1094 L690.1094,468.1094 L693.4688,480.5 L691.0156,480.5 L690.25,477.4375 L686.9688,477.4375 L686.2188,480.5 L683.7813,480.5 L687.125,468.1094 Z " fill="#000000"/><text fill="#000000" font-family="sans-serif" font-size="14" font-style="italic" lengthAdjust="spacing" textLength="120" x="702.5" y="479.8467">AbstractMessage</text><rect fill="#FFFFFF" height="15.9688" style="stroke:#181818;stroke-width:1.0;stroke-dasharray:2.0,2.0;" width="9" x="830.5" y="456"/><text fill="#000000" font-family="sans-serif" font-size="12" font-style="italic" lengthAdjust="spacing" textLength="7" x="831.5" y="468.1387">T</text><line style="stroke:#181818;stroke-width:0.5;" x1="674.5" x2="835.5" y1="491" y2="491"/><line style="stroke:#181818;stroke-width:0.5;" x1="674.5" x2="835.5" y1="499" y2="499"/></g><!--class GenericMessage--><g id="elem_GenericMessage"><rect codeLine="19" fill="#F1F1F1" height="48" id="GenericMessage" rx="2.5" ry="2.5" style="stroke:#181818;stroke-width:0.5;" width="160" x="384" y="459"/><ellipse cx="399" cy="475" fill="#ADD1B2" rx="11" ry="11" style="stroke:#181818;stroke-width:1.0;"/><path d="M401.9688,480.6406 Q401.3906,480.9375 400.75,481.0781 Q400.1094,481.2344 399.4063,481.2344 Q396.9063,481.2344 395.5781,479.5938 Q394.2656,477.9375 394.2656,474.8125 Q394.2656,471.6875 395.5781,470.0313 Q396.9063,468.375 399.4063,468.375 Q400.1094,468.375 400.75,468.5313 Q401.4063,468.6875 401.9688,468.9844 L401.9688,471.7031 Q401.3438,471.125 400.75,470.8594 Q400.1563,470.5781 399.5313,470.5781 Q398.1875,470.5781 397.5,471.6563 Q396.8125,472.7188 396.8125,474.8125 Q396.8125,476.9063 397.5,477.9844 Q398.1875,479.0469 399.5313,479.0469 Q400.1563,479.0469 400.75,478.7813 Q401.3438,478.5 401.9688,477.9219 L401.9688,480.6406 Z " fill="#000000"/><text fill="#000000" font-family="sans-serif" font-size="14" lengthAdjust="spacing" textLength="117" x="413" y="479.8467">GenericMessage</text><rect fill="#FFFFFF" height="15.9688" style="stroke:#181818;stroke-width:1.0;stroke-dasharray:2.0,2.0;" width="9" x="538" y="456"/><text fill="#000000" font-family="sans-serif" font-size="12" font-style="italic" lengthAdjust="spacing" textLength="7" x="539" y="468.1387">T</text><line style="stroke:#181818;stroke-width:0.5;" x1="385" x2="543" y1="491" y2="491"/><line style="stroke:#181818;stroke-width:0.5;" x1="385" x2="543" y1="499" y2="499"/></g><!--class GenericResultMessage--><g id="elem_GenericResultMessage"><rect codeLine="20" fill="#F1F1F1" height="48" id="GenericResultMessage" rx="2.5" ry="2.5" style="stroke:#181818;stroke-width:0.5;" width="204" x="362" y="311"/><ellipse cx="377" cy="327" fill="#ADD1B2" rx="11" ry="11" style="stroke:#181818;stroke-width:1.0;"/><path d="M379.9688,332.6406 Q379.3906,332.9375 378.75,333.0781 Q378.1094,333.2344 377.4063,333.2344 Q374.9063,333.2344 373.5781,331.5938 Q372.2656,329.9375 372.2656,326.8125 Q372.2656,323.6875 373.5781,322.0313 Q374.9063,320.375 377.4063,320.375 Q378.1094,320.375 378.75,320.5313 Q379.4063,320.6875 379.9688,320.9844 L379.9688,323.7031 Q379.3438,323.125 378.75,322.8594 Q378.1563,322.5781 377.5313,322.5781 Q376.1875,322.5781 375.5,323.6563 Q374.8125,324.7188 374.8125,326.8125 Q374.8125,328.9063 375.5,329.9844 Q376.1875,331.0469 377.5313,331.0469 Q378.1563,331.0469 378.75,330.7813 Q379.3438,330.5 379.9688,329.9219 L379.9688,332.6406 Z " fill="#000000"/><text fill="#000000" font-family="sans-serif" font-size="14" lengthAdjust="spacing" textLength="161" x="391" y="331.8467">GenericResultMessage</text><rect fill="#FFFFFF" height="15.9688" style="stroke:#181818;stroke-width:1.0;stroke-dasharray:2.0,2.0;" width="9" x="560" y="308"/><text fill="#000000" font-family="sans-serif" font-size="12" font-style="italic" lengthAdjust="spacing" textLength="7" x="561" y="320.1387">T</text><line style="stroke:#181818;stroke-width:0.5;" x1="363" x2="565" y1="343" y2="343"/><line style="stroke:#181818;stroke-width:0.5;" x1="363" x2="565" y1="351" y2="351"/></g><!--class MessageDecorator--><g id="elem_MessageDecorator"><rect codeLine="22" fill="#F1F1F1" height="64.2969" id="MessageDecorator" rx="2.5" ry="2.5" style="stroke:#181818;stroke-width:0.5;" width="175" x="667.5" y="359.85"/><ellipse cx="682.5" cy="375.85" fill="#A9DCDF" rx="11" ry="11" style="stroke:#181818;stroke-width:1.0;"/><path d="M682.6094,371.1938 L681.4531,376.2719 L683.7813,376.2719 L682.6094,371.1938 Z M681.125,368.9594 L684.1094,368.9594 L687.4688,381.35 L685.0156,381.35 L684.25,378.2875 L680.9688,378.2875 L680.2188,381.35 L677.7813,381.35 L681.125,368.9594 Z " fill="#000000"/><text fill="#000000" font-family="sans-serif" font-size="14" font-style="italic" lengthAdjust="spacing" textLength="132" x="696.5" y="380.6967">MessageDecorator</text><rect fill="#FFFFFF" height="15.9688" style="stroke:#181818;stroke-width:1.0;stroke-dasharray:2.0,2.0;" width="9" x="836.5" y="356.85"/><text fill="#000000" font-family="sans-serif" font-size="12" font-style="italic" lengthAdjust="spacing" textLength="7" x="837.5" y="368.9887">T</text><line style="stroke:#181818;stroke-width:0.5;" x1="668.5" x2="841.5" y1="391.85" y2="391.85"/><rect fill="none" height="6" style="stroke:#C82930;stroke-width:1.0;" width="6" x="675.5" y="402.4984"/><text fill="#000000" font-family="sans-serif" font-size="14" lengthAdjust="spacing" textLength="133" x="687.5" y="408.8451">delegate: Message</text><line style="stroke:#181818;stroke-width:0.5;" x1="668.5" x2="841.5" y1="416.1469" y2="416.1469"/></g><!--link AbstractMessage to Message--><g id="link_AbstractMessage_Message"><path codeLine="28" d="M836.82,483 C910.4,483 1007,483 1007,483 C1007,483 1007,459.16 1007,421.89 " fill="none" id="AbstractMessage-to-Message" style="stroke:#181818;stroke-width:1.0;stroke-dasharray:7.0,7.0;"/><polygon fill="none" points="1007,403.89,1001,421.89,1013,421.89,1007,403.89" style="stroke:#181818;stroke-width:1.0;"/></g><!--link MessageDecorator to Message--><g id="link_MessageDecorator_Message"><path codeLine="29" d="M842.78,381.72 C869.77,381.72 881.34,381.72 907.87,381.72 " fill="none" id="MessageDecorator-to-Message" style="stroke:#181818;stroke-width:1.0;stroke-dasharray:7.0,7.0;"/><polygon fill="none" points="925.87,381.72,907.87,375.72,907.87,387.72,925.87,381.72" style="stroke:#181818;stroke-width:1.0;"/></g><!--link ResultMessage to Message--><g id="link_ResultMessage_Message"><path codeLine="30" d="M866.26,307.85 C886.31,307.85 888.85,307.85 907.84,307.85 " fill="none" id="ResultMessage-to-Message" style="stroke:#181818;stroke-width:1.0;"/><polygon fill="none" points="925.84,307.85,907.84,301.85,907.84,313.85,925.84,307.85" style="stroke:#181818;stroke-width:1.0;"/></g><!--link GenericMessage to AbstractMessage--><g id="link_GenericMessage_AbstractMessage"><path codeLine="31" d="M544.29,483 C584.41,483 614.88,483 655.2,483 " fill="none" id="GenericMessage-to-AbstractMessage" style="stroke:#181818;stroke-width:1.0;"/><polygon fill="none" points="673.2,483,655.2,477,655.2,489,673.2,483" style="stroke:#181818;stroke-width:1.0;"/></g><!--link GenericResultMessage to ResultMessage--><g id="link_GenericResultMessage_ResultMessage"><path codeLine="32" d="M566.19,318.15 C591.24,318.15 600.18,318.15 625.65,318.15 " fill="none" id="GenericResultMessage-to-ResultMessage" style="stroke:#181818;stroke-width:1.0;stroke-dasharray:7.0,7.0;"/><polygon fill="none" points="643.65,318.15,625.65,312.15,625.65,324.15,643.65,318.15" style="stroke:#181818;stroke-width:1.0;"/></g><!--link QueryMessage to Message--><g id="link_QueryMessage_Message"><path codeLine="52" d="M579,122.65 C579,195.81 579,342.15 579,342.15 C579,342.15 783.61,342.15 907.74,342.15 " fill="none" id="QueryMessage-to-Message" style="stroke:#181818;stroke-width:1.0;"/><polygon fill="none" points="925.74,342.15,907.74,336.15,907.74,348.15,925.74,342.15" style="stroke:#181818;stroke-width:1.0;"/></g><!--link GenericQueryMessage to QueryMessage--><g id="link_GenericQueryMessage_QueryMessage"><path codeLine="53" d="M260.36,82 C287.2,82 298.18,82 325.63,82 " fill="none" id="GenericQueryMessage-to-QueryMessage" style="stroke:#181818;stroke-width:1.0;stroke-dasharray:7.0,7.0;"/><polygon fill="none" points="343.63,82,325.63,76,325.63,88,343.63,82" style="stroke:#181818;stroke-width:1.0;"/></g><!--link GenericQueryMessage to MessageDecorator--><g id="link_GenericQueryMessage_MessageDecorator"><path codeLine="54" d="M260.32,98 C290.36,98 315,98 315,98 C315,98 315,392 315,392 C315,392 520.61,392 649.02,392 " fill="none" id="GenericQueryMessage-to-MessageDecorator" style="stroke:#181818;stroke-width:1.0;"/><polygon fill="none" points="667.02,392,649.02,386,649.02,398,667.02,392" style="stroke:#181818;stroke-width:1.0;"/></g><!--link QueryResponseMessage to ResultMessage--><g id="link_QueryResponseMessage_ResultMessage"><path codeLine="55" d="M570,205.44 C570,234.13 570,277.85 570,277.85 C570,277.85 586.47,277.85 625.65,277.85 " fill="none" id="QueryResponseMessage-to-ResultMessage" style="stroke:#181818;stroke-width:1.0;"/><polygon fill="none" points="643.65,277.85,625.65,271.85,625.65,283.85,643.65,277.85" style="stroke:#181818;stroke-width:1.0;"/></g><!--link GenericQueryResponseMessage to QueryResponseMessage--><g id="link_GenericQueryResponseMessage_QueryResponseMessage"><path codeLine="56" d="M284.28,181 C307.81,181 314.12,181 336.96,181 " fill="none" id="GenericQueryResponseMessage-to-QueryResponseMessage" style="stroke:#181818;stroke-width:1.0;stroke-dasharray:7.0,7.0;"/><polygon fill="none" points="354.96,181,336.96,175,336.96,187,354.96,181" style="stroke:#181818;stroke-width:1.0;"/></g><!--link GenericQueryResponseMessage to GenericResultMessage--><g id="link_GenericQueryResponseMessage_GenericResultMessage"><path codeLine="57" d="M154,205.4 C154,248.83 154,335 154,335 C154,335 253.34,335 343.64,335 " fill="none" id="GenericQueryResponseMessage-to-GenericResultMessage" style="stroke:#181818;stroke-width:1.0;"/><polygon fill="none" points="361.64,335,343.64,329,343.64,341,361.64,335" style="stroke:#181818;stroke-width:1.0;"/></g><!--SRC=[VLB1ZjCm43sllsAq5owa7n1LaH2L40T0bDvNasIIc7NiO4-rLCl-EnCdhU8GAlbWppo_z-nvuLdR0JtsOBGblWm4pdFdbA66WHrutNOCjVPKiNPMANOjSKSUNfK2q9R9DrWHVA4GiALNAG9akYRBkj7aS_Z1NjjsgWzuCGxhamZbyD5W24azXs_bJr6QYZrnZOmv23dZGRPIVqjbZnJEXcVn_R60sG3zhcWO7QF9eNJE4DfLvo2aseGSJfrtBrWQkj9Z6TXZnV1XtbpvJyB_9e1gT0wVo9BNrTrcwkzK9FHp-K2LyyZEHuh9PKs6McJvfHaKlOaxjV84kzsVuWPQCwRTn0nasQALlcNghPJKrfCcWQIar3lvKXr05aBZiUqb3E0QETKQMqcR83xpsEzbB35d9S4vK0stUBrexg2T59_wo2mfUegVIs4td7kZr83LysZYyTUP_0Kc68L7sE-F4YEqhQ6YM4Vr-mY-ZUJzDJGFMMJvYZqjG_kGUGg3iu6cr1uNft_p6Bcla3GPwsXisFWFQCKtmcGjxsyECm74EIqhcwWbpIr4Qil414q7VyVpGd_LkNihYcpbxYy0]--></g></svg>