<?xml version="1.0" encoding="UTF-8" standalone="no"?>
<!DOCTYPE svg PUBLIC "-//W3C//DTD SVG 1.1//EN"
 "http://www.w3.org/Graphics/SVG/1.1/DTD/svg11.dtd">
<!-- Generated by graphviz version 7.0.5 (20221223.1930)
 -->
<!-- Title: foo Pages: 1 -->
<svg width="870pt" height="336pt"
 viewBox="0.00 0.00 870.00 336.00" xmlns="http://www.w3.org/2000/svg" xmlns:xlink="http://www.w3.org/1999/xlink">
<g id="graph0" class="graph" transform="scale(1 1) rotate(0) translate(4 332)">
<title>foo</title>
<polygon fill="white" stroke="none" points="-4,4 -4,-332 866,-332 866,4 -4,4"/>
<g id="clust1" class="cluster">
<title>cluster_command_side</title>
<polygon fill="none" stroke="black" stroke-dasharray="1,5" points="341,-245 341,-320 854,-320 854,-245 341,-245"/>
<text text-anchor="middle" x="597.5" y="-304.8" font-family="Times,serif" font-size="14.00">Command side</text>
</g>
<g id="clust2" class="cluster">
<title>cluster_query_side</title>
<polygon fill="none" stroke="black" stroke-dasharray="1,5" points="355.5,-8 355.5,-137 839.5,-137 839.5,-8 355.5,-8"/>
<text text-anchor="middle" x="597.5" y="-121.8" font-family="Times,serif" font-size="14.00">Query side</text>
</g>
<g id="clust3" class="cluster">
<title>cluster_messaging</title>
<polygon fill="lightyellow" stroke="orange" stroke-width="2" points="157,-78 157,-261 251,-261 251,-78 157,-78"/>
<text text-anchor="middle" x="204" y="-245.8" font-family="Times,serif" font-size="14.00">Messaging</text>
</g>
<!-- Command Handling Component -->
<g id="node1" class="node">
<title>Command Handling Component</title>
<polygon fill="white" stroke="black" points="594,-289 349,-289 349,-253 594,-253 594,-289"/>
<text text-anchor="middle" x="471.5" y="-267.3" font-family="Times,serif" font-size="14.00">Command Handling Component</text>
</g>
<!-- Command model repository -->
<g id="node2" class="node">
<title>Command model repository</title>
<path fill="white" stroke="black" d="M846,-285.73C846,-287.53 797.82,-289 738.5,-289 679.18,-289 631,-287.53 631,-285.73 631,-285.73 631,-256.27 631,-256.27 631,-254.47 679.18,-253 738.5,-253 797.82,-253 846,-254.47 846,-256.27 846,-256.27 846,-285.73 846,-285.73"/>
<path fill="none" stroke="black" d="M846,-285.73C846,-283.92 797.82,-282.45 738.5,-282.45 679.18,-282.45 631,-283.92 631,-285.73"/>
<text text-anchor="middle" x="738.5" y="-267.3" font-family="Times,serif" font-size="14.00">Command model repository</text>
</g>
<!-- Command Handling Component&#45;&gt;Command model repository -->
<g id="edge1" class="edge">
<title>Command Handling Component&#45;&gt;Command model repository</title>
<path fill="none" stroke="black" d="M605.65,-271C610.26,-271 614.88,-271 619.47,-271"/>
<polygon fill="black" stroke="black" points="605.66,-267.5 595.66,-271 605.66,-274.5 605.66,-267.5"/>
<polygon fill="black" stroke="black" points="619.32,-274.5 629.32,-271 619.32,-267.5 619.32,-274.5"/>
</g>
<!-- EventBus -->
<g id="node9" class="node">
<title>EventBus</title>
<polygon fill="none" stroke="black" points="192,-159.5 216,-159.5 216,-165.5 192,-165.5 192,-159.5"/>
<polygon fill="none" stroke="black" points="192,-150.5 216,-150.5 216,-156.5 192,-156.5 192,-150.5"/>
<polyline fill="none" stroke="black" points="216,-158 231,-158"/>
<polyline fill="none" stroke="black" points="177,-158 192,-158"/>
</g>
<!-- Command Handling Component&#45;&gt;EventBus -->
<g id="edge6" class="edge">
<title>Command Handling Component&#45;&gt;EventBus</title>
<path fill="none" stroke="black" d="M433.88,-252.63C405.96,-238.88 366.42,-219.95 331,-205 301.4,-192.5 267.2,-179.86 241.92,-170.84"/>
<polygon fill="black" stroke="black" points="243.34,-167.63 232.74,-167.59 241,-174.23 243.34,-167.63"/>
<text text-anchor="middle" x="296" y="-208.8" font-family="Times,serif" font-size="14.00">event</text>
</g>
<!-- c1 -->
<!-- c1&#45;&gt;Command Handling Component -->
<!-- Event Handling Component -->
<g id="node4" class="node">
<title>Event Handling Component</title>
<polygon fill="white" stroke="black" points="579,-106 364,-106 364,-70 579,-70 579,-106"/>
<text text-anchor="middle" x="471.5" y="-84.3" font-family="Times,serif" font-size="14.00">Event Handling Component</text>
</g>
<!-- Query model repository -->
<g id="node6" class="node">
<title>Query model repository</title>
<path fill="white" stroke="black" d="M831.5,-62.73C831.5,-64.53 789.82,-66 738.5,-66 687.18,-66 645.5,-64.53 645.5,-62.73 645.5,-62.73 645.5,-33.27 645.5,-33.27 645.5,-31.47 687.18,-30 738.5,-30 789.82,-30 831.5,-31.47 831.5,-33.27 831.5,-33.27 831.5,-62.73 831.5,-62.73"/>
<path fill="none" stroke="black" d="M831.5,-62.73C831.5,-60.92 789.82,-59.45 738.5,-59.45 687.18,-59.45 645.5,-60.92 645.5,-62.73"/>
<text text-anchor="middle" x="738.5" y="-44.3" font-family="Times,serif" font-size="14.00">Query model repository</text>
</g>
<!-- Event Handling Component&#45;&gt;Query model repository -->
<g id="edge3" class="edge">
<title>Event Handling Component&#45;&gt;Query model repository</title>
<path fill="none" stroke="black" d="M579.14,-71.9C597.16,-69.18 615.84,-66.36 633.78,-63.66"/>
<polygon fill="black" stroke="black" points="634.29,-67.12 643.65,-62.17 633.24,-60.2 634.29,-67.12"/>
</g>
<!-- c2 -->
<!-- Event Handling Component&#45;&gt;c2 -->
<!-- Query Handling Component -->
<g id="node5" class="node">
<title>Query Handling Component</title>
<polygon fill="white" stroke="black" points="579.5,-52 363.5,-52 363.5,-16 579.5,-16 579.5,-52"/>
<text text-anchor="middle" x="471.5" y="-30.3" font-family="Times,serif" font-size="14.00">Query Handling Component</text>
</g>
<!-- Query Handling Component&#45;&gt;Query model repository -->
<g id="edge4" class="edge">
<title>Query Handling Component&#45;&gt;Query model repository</title>
<path fill="none" stroke="black" d="M591.4,-40.28C605.65,-41.03 620.12,-41.8 634.13,-42.54"/>
<polygon fill="black" stroke="black" points="591.59,-36.79 581.42,-39.75 591.22,-43.78 591.59,-36.79"/>
<polygon fill="black" stroke="black" points="633.57,-46.01 643.74,-43.05 633.94,-39.02 633.57,-46.01"/>
</g>
<!-- CommandBus -->
<g id="node8" class="node">
<title>CommandBus</title>
<polygon fill="none" stroke="black" points="192,-213.5 216,-213.5 216,-219.5 192,-219.5 192,-213.5"/>
<polygon fill="none" stroke="black" points="192,-204.5 216,-204.5 216,-210.5 192,-210.5 192,-204.5"/>
<polyline fill="none" stroke="black" points="216,-212 231,-212"/>
<polyline fill="none" stroke="black" points="177,-212 192,-212"/>
</g>
<!-- CommandBus&#45;&gt;Command Handling Component -->
<g id="edge9" class="edge">
<title>CommandBus&#45;&gt;Command Handling Component</title>
<path fill="none" stroke="black" d="M242.33,-220.3C277.03,-228.01 330.18,-239.82 376.45,-250.1"/>
<polygon fill="black" stroke="black" points="243.43,-216.95 232.91,-218.2 241.91,-223.79 243.43,-216.95"/>
<polygon fill="black" stroke="black" points="375.43,-253.46 385.96,-252.21 376.95,-246.63 375.43,-253.46"/>
<text text-anchor="middle" x="296" y="-242.8" font-family="Times,serif" font-size="14.00">command</text>
</g>
<!-- EventBus&#45;&gt;Event Handling Component -->
<g id="edge7" class="edge">
<title>EventBus&#45;&gt;Event Handling Component</title>
<path fill="none" stroke="black" d="M231.43,-151.03C267.99,-141.39 335.62,-123.56 389.65,-109.32"/>
<polygon fill="black" stroke="black" points="390.36,-112.75 399.14,-106.81 388.58,-105.98 390.36,-112.75"/>
<text text-anchor="middle" x="296" y="-145.8" font-family="Times,serif" font-size="14.00">event</text>
</g>
<!-- QueryBus -->
<g id="node10" class="node">
<title>QueryBus</title>
<polygon fill="none" stroke="black" points="192,-105.5 216,-105.5 216,-111.5 192,-111.5 192,-105.5"/>
<polygon fill="none" stroke="black" points="192,-96.5 216,-96.5 216,-102.5 192,-102.5 192,-96.5"/>
<polyline fill="none" stroke="black" points="216,-104 231,-104"/>
<polyline fill="none" stroke="black" points="177,-104 192,-104"/>
</g>
<!-- QueryBus&#45;&gt;Query Handling Component -->
<g id="edge11" class="edge">
<title>QueryBus&#45;&gt;Query Handling Component</title>
<path fill="none" stroke="black" d="M241.94,-91.21C269.12,-82.07 307.1,-69.87 341,-61 348.96,-58.92 357.22,-56.89 365.55,-54.94"/>
<polygon fill="black" stroke="black" points="241.13,-87.79 232.78,-94.31 243.38,-94.42 241.13,-87.79"/>
<polygon fill="black" stroke="black" points="366.08,-58.41 375.04,-52.77 364.51,-51.59 366.08,-58.41"/>
<text text-anchor="middle" x="282.15" y="-60.48" font-family="Times,serif" font-size="14.00">query</text>
</g>
<!-- Client -->
<g id="node11" class="node">
<title>Client</title>
<polygon fill="none" stroke="#7f2704" points="59,-230 0,-230 0,-226 -4,-226 -4,-222 0,-222 0,-94 -4,-94 -4,-90 0,-90 0,-86 59,-86 59,-230"/>
<polyline fill="none" stroke="#7f2704" points="0,-226 4,-226 4,-222 0,-222"/>
<polyline fill="none" stroke="#7f2704" points="0,-94 4,-94 4,-90 0,-90"/>
<text text-anchor="middle" x="29.5" y="-154.3" font-family="Times,serif" font-size="14.00">Client</text>
</g>
<!-- Client&#45;&gt;CommandBus -->
<g id="edge8" class="edge">
<title>Client&#45;&gt;CommandBus</title>
<path fill="none" stroke="black" d="M69.84,-174.45C72.25,-175.34 74.65,-176.2 77,-177 106.43,-187.06 140.45,-196.38 165.72,-202.87"/>
<polygon fill="black" stroke="black" points="71.32,-171.27 60.74,-170.93 68.8,-177.8 71.32,-171.27"/>
<polygon fill="black" stroke="black" points="164.64,-206.21 175.2,-205.27 166.36,-199.42 164.64,-206.21"/>
<text text-anchor="middle" x="112" y="-200.8" font-family="Times,serif" font-size="14.00">command</text>
</g>
<!-- Client&#45;&gt;EventBus -->
<g id="edge12" class="edge">
<title>Client&#45;&gt;EventBus</title>
<path fill="none" stroke="black" d="M59.37,-158C88.37,-158 133.21,-158 165.07,-158"/>
<polygon fill="black" stroke="black" points="165.07,-161.5 175.07,-158 165.07,-154.5 165.07,-161.5"/>
<text text-anchor="middle" x="112" y="-161.8" font-family="Times,serif" font-size="14.00">event</text>
</g>
<!-- Client&#45;&gt;QueryBus -->
<g id="edge10" class="edge">
<title>Client&#45;&gt;QueryBus</title>
<path fill="none" stroke="black" d="M70.34,-145.53C99.04,-136.54 137.49,-124.51 165.6,-115.71"/>
<polygon fill="black" stroke="black" points="69.31,-142.18 60.82,-148.51 71.41,-148.86 69.31,-142.18"/>
<polygon fill="black" stroke="black" points="166.64,-119.05 175.14,-112.72 164.55,-112.37 166.64,-119.05"/>
<text text-anchor="middle" x="97.19" y="-119.35" font-family="Times,serif" font-size="14.00">query</text>
</g>
</g>
</svg>
