<?xml version="1.0" encoding="UTF-8" standalone="no"?>
<!DOCTYPE svg PUBLIC "-//W3C//DTD SVG 1.1//EN"
 "http://www.w3.org/Graphics/SVG/1.1/DTD/svg11.dtd">
<!-- Generated by graphviz version 3.0.0 (20221109.1736)
 -->
<!-- Title: foo Pages: 1 -->
<svg width="870pt" height="336pt"
 viewBox="0.00 0.00 870.00 336.00" xmlns="http://www.w3.org/2000/svg" xmlns:xlink="http://www.w3.org/1999/xlink">
<g id="graph0" class="graph" transform="scale(1 1) rotate(0) translate(4 332)">
<title>foo</title>
<polygon fill="white" stroke="transparent" points="-4,4 -4,-332 866,-332 866,4 -4,4"/>
<g id="clust1" class="cluster">
<title>cluster_command_side</title>
<polygon fill="none" stroke="black" stroke-dasharray="1,5" points="341,-245 341,-320 854,-320 854,-245 341,-245"/>
<text text-anchor="middle" x="597.5" y="-304.8" font-family="Times,serif" font-size="14.00">Command side</text>
</g>
<g id="clust2" class="cluster">
<title>cluster_query_side</title>
<polygon fill="none" stroke="black" stroke-dasharray="1,5" points="355.5,-8 355.5,-137 839.5,-137 839.5,-8 355.5,-8"/>
<text text-anchor="middle" x="597.5" y="-121.8" font-family="Times,serif" font-size="14.00">Query side</text>
</g>
<g id="clust3" class="cluster">
<title>cluster_messaging</title>
<polygon fill="lightyellow" stroke="orange" stroke-width="2" points="157,-78 157,-261 251,-261 251,-78 157,-78"/>
<text text-anchor="middle" x="204" y="-245.8" font-family="Times,serif" font-size="14.00">Messaging</text>
</g>
<!-- Command Handling Component -->
<g id="node1" class="node">
<title>Command Handling Component</title>
<polygon fill="white" stroke="black" points="594,-289 349,-289 349,-253 594,-253 594,-289"/>
<text text-anchor="middle" x="471.5" y="-267.3" font-family="Times,serif" font-size="14.00">Command Handling Component</text>
</g>
<!-- Command model repository -->
<g id="node2" class="node">
<title>Command model repository</title>
<path fill="white" stroke="black" d="M846,-285.73C846,-287.53 797.82,-289 738.5,-289 679.18,-289 631,-287.53 631,-285.73 631,-285.73 631,-256.27 631,-256.27 631,-254.47 679.18,-253 738.5,-253 797.82,-253 846,-254.47 846,-256.27 846,-256.27 846,-285.73 846,-285.73"/>
<path fill="none" stroke="black" d="M846,-285.73C846,-283.92 797.82,-282.45 738.5,-282.45 679.18,-282.45 631,-283.92 631,-285.73"/>
<text text-anchor="middle" x="738.5" y="-267.3" font-family="Times,serif" font-size="14.00">Command model repository</text>
</g>
<!-- Command Handling Component&#45;&gt;Command model repository -->
<g id="edge1" class="edge">
<title>Command Handling Component&#45;&gt;Command model repository</title>
<path fill="none" stroke="black" d="M604.21,-271C609.64,-271 615.08,-271 620.49,-271"/>
<polygon fill="black" stroke="black" points="604.14,-267.5 594.14,-271 604.14,-274.5 604.14,-267.5"/>
<polygon fill="black" stroke="black" points="620.83,-274.5 630.83,-271 620.83,-267.5 620.83,-274.5"/>
</g>
<!-- EventBus -->
<g id="node9" class="node">
<title>EventBus</title>
<polygon fill="none" stroke="black" points="192,-159.5 216,-159.5 216,-165.5 192,-165.5 192,-159.5"/>
<polygon fill="none" stroke="black" points="192,-150.5 216,-150.5 216,-156.5 192,-156.5 192,-150.5"/>
<polyline fill="none" stroke="black" points="216,-158 231,-158 "/>
<polyline fill="none" stroke="black" points="177,-158 192,-158 "/>
</g>
<!-- Command Handling Component&#45;&gt;EventBus -->
<g id="edge6" class="edge">
<title>Command Handling Component&#45;&gt;EventBus</title>
<path fill="none" stroke="black" d="M434.46,-252.91C406.52,-239.14 366.67,-220.06 331,-205 301,-192.33 266.28,-179.52 240.9,-170.47"/>
<polygon fill="black" stroke="black" points="241.91,-167.12 231.32,-167.08 239.58,-173.72 241.91,-167.12"/>
<text text-anchor="middle" x="296" y="-208.8" font-family="Times,serif" font-size="14.00">event</text>
</g>
<!-- c1 -->
<!-- c1&#45;&gt;Command Handling Component -->
<!-- Event Handling Component -->
<g id="node4" class="node">
<title>Event Handling Component</title>
<polygon fill="white" stroke="black" points="579,-106 364,-106 364,-70 579,-70 579,-106"/>
<text text-anchor="middle" x="471.5" y="-84.3" font-family="Times,serif" font-size="14.00">Event Handling Component</text>
</g>
<!-- Query model repository -->
<g id="node6" class="node">
<title>Query model repository</title>
<path fill="white" stroke="black" d="M831.5,-62.73C831.5,-64.53 789.82,-66 738.5,-66 687.18,-66 645.5,-64.53 645.5,-62.73 645.5,-62.73 645.5,-33.27 645.5,-33.27 645.5,-31.47 687.18,-30 738.5,-30 789.82,-30 831.5,-31.47 831.5,-33.27 831.5,-33.27 831.5,-62.73 831.5,-62.73"/>
<path fill="none" stroke="black" d="M831.5,-62.73C831.5,-60.92 789.82,-59.45 738.5,-59.45 687.18,-59.45 645.5,-60.92 645.5,-62.73"/>
<text text-anchor="middle" x="738.5" y="-44.3" font-family="Times,serif" font-size="14.00">Query model repository</text>
</g>
<!-- Event Handling Component&#45;&gt;Query model repository -->
<g id="edge3" class="edge">
<title>Event Handling Component&#45;&gt;Query model repository</title>
<path fill="none" stroke="black" d="M579.14,-71.9C597.59,-69.12 616.73,-66.23 635.06,-63.46"/>
<polygon fill="black" stroke="black" points="635.78,-66.89 645.15,-61.94 634.74,-59.97 635.78,-66.89"/>
</g>
<!-- c2 -->
<!-- Event Handling Component&#45;&gt;c2 -->
<!-- Query Handling Component -->
<g id="node5" class="node">
<title>Query Handling Component</title>
<polygon fill="white" stroke="black" points="579.5,-52 363.5,-52 363.5,-16 579.5,-16 579.5,-52"/>
<text text-anchor="middle" x="471.5" y="-30.3" font-family="Times,serif" font-size="14.00">Query Handling Component</text>
</g>
<!-- Query Handling Component&#45;&gt;Query model repository -->
<g id="edge4" class="edge">
<title>Query Handling Component&#45;&gt;Query model repository</title>
<path fill="none" stroke="black" d="M589.56,-40.18C604.76,-40.99 620.23,-41.8 635.17,-42.59"/>
<polygon fill="black" stroke="black" points="589.69,-36.69 579.52,-39.65 589.32,-43.68 589.69,-36.69"/>
<polygon fill="black" stroke="black" points="635.24,-46.1 645.41,-43.13 635.61,-39.11 635.24,-46.1"/>
</g>
<!-- CommandBus -->
<g id="node8" class="node">
<title>CommandBus</title>
<polygon fill="none" stroke="black" points="192,-213.5 216,-213.5 216,-219.5 192,-219.5 192,-213.5"/>
<polygon fill="none" stroke="black" points="192,-204.5 216,-204.5 216,-210.5 192,-210.5 192,-204.5"/>
<polyline fill="none" stroke="black" points="216,-212 231,-212 "/>
<polyline fill="none" stroke="black" points="177,-212 192,-212 "/>
</g>
<!-- CommandBus&#45;&gt;Command Handling Component -->
<g id="edge9" class="edge">
<title>CommandBus&#45;&gt;Command Handling Component</title>
<path fill="none" stroke="black" d="M241.5,-220.11C276.94,-227.99 332.17,-240.26 379.5,-250.78"/>
<polygon fill="black" stroke="black" points="241.95,-216.63 231.43,-217.87 240.43,-223.46 241.95,-216.63"/>
<polygon fill="black" stroke="black" points="378.95,-254.24 389.47,-252.99 380.47,-247.41 378.95,-254.24"/>
<text text-anchor="middle" x="296" y="-242.8" font-family="Times,serif" font-size="14.00">command</text>
</g>
<!-- EventBus&#45;&gt;Event Handling Component -->
<g id="edge7" class="edge">
<title>EventBus&#45;&gt;Event Handling Component</title>
<path fill="none" stroke="black" d="M231.43,-151.03C268.53,-141.25 337.62,-123.03 392.02,-108.69"/>
<polygon fill="black" stroke="black" points="393.22,-112 402,-106.06 391.43,-105.23 393.22,-112"/>
<text text-anchor="middle" x="296" y="-145.8" font-family="Times,serif" font-size="14.00">event</text>
</g>
<!-- QueryBus -->
<g id="node10" class="node">
<title>QueryBus</title>
<polygon fill="none" stroke="black" points="192,-105.5 216,-105.5 216,-111.5 192,-111.5 192,-105.5"/>
<polygon fill="none" stroke="black" points="192,-96.5 216,-96.5 216,-102.5 192,-102.5 192,-96.5"/>
<polyline fill="none" stroke="black" points="216,-104 231,-104 "/>
<polyline fill="none" stroke="black" points="177,-104 192,-104 "/>
</g>
<!-- QueryBus&#45;&gt;Query Handling Component -->
<g id="edge11" class="edge">
<title>QueryBus&#45;&gt;Query Handling Component</title>
<path fill="none" stroke="black" d="M240.6,-91.66C267.87,-82.47 306.54,-70.02 341,-61 349.81,-58.69 359,-56.46 368.24,-54.32"/>
<polygon fill="black" stroke="black" points="239.44,-88.36 231.1,-94.89 241.69,-94.99 239.44,-88.36"/>
<polygon fill="black" stroke="black" points="369.29,-57.67 378.27,-52.04 367.74,-50.84 369.29,-57.67"/>
<text text-anchor="middle" x="283.19" y="-60.17" font-family="Times,serif" font-size="14.00">query</text>
</g>
<!-- Client -->
<g id="node11" class="node">
<title>Client</title>
<polygon fill="none" stroke="#7f2704" points="59,-230 0,-230 0,-226 -4,-226 -4,-222 0,-222 0,-94 -4,-94 -4,-90 0,-90 0,-86 59,-86 59,-230"/>
<polyline fill="none" stroke="#7f2704" points="0,-226 4,-226 4,-222 0,-222 "/>
<polyline fill="none" stroke="#7f2704" points="0,-94 4,-94 4,-90 0,-90 "/>
<text text-anchor="middle" x="29.5" y="-154.3" font-family="Times,serif" font-size="14.00">Client</text>
</g>
<!-- Client&#45;&gt;CommandBus -->
<g id="edge8" class="edge">
<title>Client&#45;&gt;CommandBus</title>
<path fill="none" stroke="black" d="M68.73,-174.03C71.51,-175.07 74.29,-176.07 77,-177 106.83,-187.2 141.38,-196.63 166.74,-203.13"/>
<polygon fill="black" stroke="black" points="69.91,-170.74 59.32,-170.39 67.38,-177.26 69.91,-170.74"/>
<polygon fill="black" stroke="black" points="166.11,-206.58 176.67,-205.64 167.83,-199.79 166.11,-206.58"/>
<text text-anchor="middle" x="112" y="-200.8" font-family="Times,serif" font-size="14.00">command</text>
</g>
<!-- Client&#45;&gt;EventBus -->
<g id="edge12" class="edge">
<title>Client&#45;&gt;EventBus</title>
<path fill="none" stroke="black" d="M59.37,-158C88.84,-158 134.67,-158 166.61,-158"/>
<polygon fill="black" stroke="black" points="166.86,-161.5 176.86,-158 166.86,-154.5 166.86,-161.5"/>
<text text-anchor="middle" x="112" y="-161.8" font-family="Times,serif" font-size="14.00">event</text>
</g>
<!-- Client&#45;&gt;QueryBus -->
<g id="edge10" class="edge">
<title>Client&#45;&gt;QueryBus</title>
<path fill="none" stroke="black" d="M69.1,-145.92C98.47,-136.72 138.59,-124.16 167.24,-115.19"/>
<polygon fill="black" stroke="black" points="67.87,-142.63 59.37,-148.96 69.96,-149.31 67.87,-142.63"/>
<polygon fill="black" stroke="black" points="168.36,-118.51 176.86,-112.18 166.27,-111.83 168.36,-118.51"/>
<text text-anchor="middle" x="97.04" y="-119.4" font-family="Times,serif" font-size="14.00">query</text>
</g>
</g>
</svg>
