<?xml version="1.0" encoding="UTF-8" standalone="no"?>
<!DOCTYPE svg PUBLIC "-//W3C//DTD SVG 1.1//EN"
 "http://www.w3.org/Graphics/SVG/1.1/DTD/svg11.dtd">
<!-- Generated by graphviz version 2.49.3 (20211027.1534)
 -->
<!-- Title: foo Pages: 1 -->
<svg width="723pt" height="336pt"
 viewBox="0.00 0.00 723.00 336.00" xmlns="http://www.w3.org/2000/svg" xmlns:xlink="http://www.w3.org/1999/xlink">
<g id="graph0" class="graph" transform="scale(1 1) rotate(0) translate(4 332)">
<title>foo</title>
<polygon fill="white" stroke="transparent" points="-4,4 -4,-332 719,-332 719,4 -4,4"/>
<g id="clust1" class="cluster">
<title>cluster_command_side</title>
<polygon fill="none" stroke="black" stroke-dasharray="1,5" points="287,-245 287,-320 707,-320 707,-245 287,-245"/>
<text text-anchor="middle" x="497" y="-304.8" font-family="Times,serif" font-size="14.00">Command side</text>
</g>
<g id="clust2" class="cluster">
<title>cluster_query_side</title>
<polygon fill="none" stroke="black" stroke-dasharray="1,5" points="299,-8 299,-137 695,-137 695,-8 299,-8"/>
<text text-anchor="middle" x="497" y="-121.8" font-family="Times,serif" font-size="14.00">Query side</text>
</g>
<g id="clust3" class="cluster">
<title>cluster_messaging</title>
<polygon fill="lightyellow" stroke="orange" stroke-width="2" points="137,-78 137,-261 212,-261 212,-78 137,-78"/>
<text text-anchor="middle" x="174.5" y="-245.8" font-family="Times,serif" font-size="14.00">Messaging</text>
</g>
<!-- Command Handling Component -->
<g id="node1" class="node">
<title>Command Handling Component</title>
<polygon fill="white" stroke="black" points="492,-289 295,-289 295,-253 492,-253 492,-289"/>
<text text-anchor="middle" x="393.5" y="-267.3" font-family="Times,serif" font-size="14.00">Command Handling Component</text>
</g>
<!-- Command model repository -->
<g id="node2" class="node">
<title>Command model repository</title>
<path fill="white" stroke="black" d="M699,-285.73C699,-287.53 660.9,-289 614,-289 567.1,-289 529,-287.53 529,-285.73 529,-285.73 529,-256.27 529,-256.27 529,-254.47 567.1,-253 614,-253 660.9,-253 699,-254.47 699,-256.27 699,-256.27 699,-285.73 699,-285.73"/>
<path fill="none" stroke="black" d="M699,-285.73C699,-283.92 660.9,-282.45 614,-282.45 567.1,-282.45 529,-283.92 529,-285.73"/>
<text text-anchor="middle" x="614" y="-267.3" font-family="Times,serif" font-size="14.00">Command model repository</text>
</g>
<!-- Command Handling Component&#45;&gt;Command model repository -->
<g id="edge1" class="edge">
<title>Command Handling Component&#45;&gt;Command model repository</title>
<path fill="none" stroke="black" d="M502.25,-271C507.66,-271 513.07,-271 518.44,-271"/>
<polygon fill="black" stroke="black" points="502.25,-267.5 492.25,-271 502.25,-274.5 502.25,-267.5"/>
<polygon fill="black" stroke="black" points="518.69,-274.5 528.69,-271 518.69,-267.5 518.69,-274.5"/>
</g>
<!-- EventBus -->
<g id="node9" class="node">
<title>EventBus</title>
<polygon fill="none" stroke="black" points="162,-159.5 186,-159.5 186,-165.5 162,-165.5 162,-159.5"/>
<polygon fill="none" stroke="black" points="162,-150.5 186,-150.5 186,-156.5 162,-156.5 162,-150.5"/>
<polyline fill="none" stroke="black" points="186,-158 201,-158 "/>
<polyline fill="none" stroke="black" points="147,-158 162,-158 "/>
</g>
<!-- Command Handling Component&#45;&gt;EventBus -->
<g id="edge6" class="edge">
<title>Command Handling Component&#45;&gt;EventBus</title>
<path fill="none" stroke="black" d="M360.9,-252.84C337.84,-239.75 305.72,-221.84 277,-207 255.1,-195.68 230.17,-183.69 210.43,-174.4"/>
<polygon fill="black" stroke="black" points="211.74,-171.15 201.2,-170.07 208.77,-177.49 211.74,-171.15"/>
<text text-anchor="middle" x="249.5" y="-210.8" font-family="Times,serif" font-size="14.00">event</text>
</g>
<!-- c1 -->
<!-- c1&#45;&gt;Command Handling Component -->
<!-- Event Handling Component -->
<g id="node4" class="node">
<title>Event Handling Component</title>
<polygon fill="white" stroke="black" points="478.5,-106 308.5,-106 308.5,-70 478.5,-70 478.5,-106"/>
<text text-anchor="middle" x="393.5" y="-84.3" font-family="Times,serif" font-size="14.00">Event Handling Component</text>
</g>
<!-- Query model repository -->
<g id="node6" class="node">
<title>Query model repository</title>
<path fill="white" stroke="black" d="M687,-62.73C687,-64.53 654.28,-66 614,-66 573.72,-66 541,-64.53 541,-62.73 541,-62.73 541,-33.27 541,-33.27 541,-31.47 573.72,-30 614,-30 654.28,-30 687,-31.47 687,-33.27 687,-33.27 687,-62.73 687,-62.73"/>
<path fill="none" stroke="black" d="M687,-62.73C687,-60.92 654.28,-59.45 614,-59.45 573.72,-59.45 541,-60.92 541,-62.73"/>
<text text-anchor="middle" x="614" y="-44.3" font-family="Times,serif" font-size="14.00">Query model repository</text>
</g>
<!-- Event Handling Component&#45;&gt;Query model repository -->
<g id="edge3" class="edge">
<title>Event Handling Component&#45;&gt;Query model repository</title>
<path fill="none" stroke="black" d="M478.67,-72.59C495.85,-69.45 513.91,-66.14 531.02,-63.01"/>
<polygon fill="black" stroke="black" points="531.76,-66.43 540.97,-61.19 530.5,-59.55 531.76,-66.43"/>
</g>
<!-- c2 -->
<!-- Event Handling Component&#45;&gt;c2 -->
<!-- Query Handling Component -->
<g id="node5" class="node">
<title>Query Handling Component</title>
<polygon fill="white" stroke="black" points="480,-52 307,-52 307,-16 480,-16 480,-52"/>
<text text-anchor="middle" x="393.5" y="-30.3" font-family="Times,serif" font-size="14.00">Query Handling Component</text>
</g>
<!-- Query Handling Component&#45;&gt;Query model repository -->
<g id="edge4" class="edge">
<title>Query Handling Component&#45;&gt;Query model repository</title>
<path fill="none" stroke="black" d="M490.67,-40.16C503.99,-41.02 517.57,-41.89 530.61,-42.72"/>
<polygon fill="black" stroke="black" points="490.43,-36.64 480.23,-39.49 489.99,-43.63 490.43,-36.64"/>
<polygon fill="black" stroke="black" points="530.73,-46.24 540.93,-43.38 531.18,-39.25 530.73,-46.24"/>
</g>
<!-- CommandBus -->
<g id="node8" class="node">
<title>CommandBus</title>
<polygon fill="none" stroke="black" points="162,-213.5 186,-213.5 186,-219.5 162,-219.5 162,-213.5"/>
<polygon fill="none" stroke="black" points="162,-204.5 186,-204.5 186,-210.5 162,-210.5 162,-204.5"/>
<polyline fill="none" stroke="black" points="186,-212 201,-212 "/>
<polyline fill="none" stroke="black" points="147,-212 162,-212 "/>
</g>
<!-- CommandBus&#45;&gt;Command Handling Component -->
<g id="edge9" class="edge">
<title>CommandBus&#45;&gt;Command Handling Component</title>
<path fill="none" stroke="black" d="M211.23,-221.83C239.76,-229.57 280.52,-240.62 316.17,-250.3"/>
<polygon fill="black" stroke="black" points="211.8,-218.36 201.24,-219.12 209.97,-225.11 211.8,-218.36"/>
<polygon fill="black" stroke="black" points="315.51,-253.74 326.08,-252.98 317.34,-246.99 315.51,-253.74"/>
<text text-anchor="middle" x="249.5" y="-240.8" font-family="Times,serif" font-size="14.00">command</text>
</g>
<!-- EventBus&#45;&gt;Event Handling Component -->
<g id="edge7" class="edge">
<title>EventBus&#45;&gt;Event Handling Component</title>
<path fill="none" stroke="black" d="M201.24,-149.56C232.16,-139.6 284.67,-122.7 326.86,-109.13"/>
<polygon fill="black" stroke="black" points="328.07,-112.41 336.51,-106.02 325.92,-105.75 328.07,-112.41"/>
<text text-anchor="middle" x="249.5" y="-144.8" font-family="Times,serif" font-size="14.00">event</text>
</g>
<!-- QueryBus -->
<g id="node10" class="node">
<title>QueryBus</title>
<polygon fill="none" stroke="black" points="162,-105.5 186,-105.5 186,-111.5 162,-111.5 162,-105.5"/>
<polygon fill="none" stroke="black" points="162,-96.5 186,-96.5 186,-102.5 162,-102.5 162,-96.5"/>
<polyline fill="none" stroke="black" points="186,-104 201,-104 "/>
<polyline fill="none" stroke="black" points="147,-104 162,-104 "/>
</g>
<!-- QueryBus&#45;&gt;Query Handling Component -->
<g id="edge11" class="edge">
<title>QueryBus&#45;&gt;Query Handling Component</title>
<path fill="none" stroke="black" d="M210.9,-89C232.69,-80.2 261.19,-69.23 287,-61 293.75,-58.85 300.78,-56.75 307.87,-54.73"/>
<polygon fill="black" stroke="black" points="209.33,-85.85 201.39,-92.87 211.98,-92.34 209.33,-85.85"/>
<polygon fill="black" stroke="black" points="308.86,-58.09 317.56,-52.03 306.98,-51.35 308.86,-58.09"/>
<text text-anchor="middle" x="243.38" y="-59.39" font-family="Times,serif" font-size="14.00">query</text>
</g>
<!-- Client -->
<g id="node11" class="node">
<title>Client</title>
<polygon fill="none" stroke="#7f2704" points="54,-230 0,-230 0,-226 -4,-226 -4,-222 0,-222 0,-94 -4,-94 -4,-90 0,-90 0,-86 54,-86 54,-230"/>
<polyline fill="none" stroke="#7f2704" points="0,-226 4,-226 4,-222 0,-222 "/>
<polyline fill="none" stroke="#7f2704" points="0,-94 4,-94 4,-90 0,-90 "/>
<text text-anchor="middle" x="27" y="-154.3" font-family="Times,serif" font-size="14.00">Client</text>
</g>
<!-- Client&#45;&gt;CommandBus -->
<g id="edge8" class="edge">
<title>Client&#45;&gt;CommandBus</title>
<path fill="none" stroke="black" d="M63.76,-173.7C66.54,-174.84 69.31,-175.95 72,-177 93.36,-185.3 117.61,-193.73 137,-200.24"/>
<polygon fill="black" stroke="black" points="64.97,-170.41 54.39,-169.77 62.26,-176.87 64.97,-170.41"/>
<polygon fill="black" stroke="black" points="136.05,-203.62 146.65,-203.46 138.27,-196.98 136.05,-203.62"/>
<text text-anchor="middle" x="99.5" y="-199.8" font-family="Times,serif" font-size="14.00">command</text>
</g>
<!-- Client&#45;&gt;EventBus -->
<g id="edge12" class="edge">
<title>Client&#45;&gt;EventBus</title>
<path fill="none" stroke="black" d="M54.26,-158C77.36,-158 111.2,-158 136.85,-158"/>
<polygon fill="black" stroke="black" points="136.94,-161.5 146.94,-158 136.94,-154.5 136.94,-161.5"/>
<text text-anchor="middle" x="99.5" y="-161.8" font-family="Times,serif" font-size="14.00">event</text>
</g>
<!-- Client&#45;&gt;QueryBus -->
<g id="edge10" class="edge">
<title>Client&#45;&gt;QueryBus</title>
<path fill="none" stroke="black" d="M63.68,-144.71C86.14,-136.35 115.01,-125.6 137.44,-117.24"/>
<polygon fill="black" stroke="black" points="62.41,-141.45 54.26,-148.22 64.85,-148.01 62.41,-141.45"/>
<polygon fill="black" stroke="black" points="138.79,-120.48 146.94,-113.71 136.34,-113.92 138.79,-120.48"/>
<text text-anchor="middle" x="85.37" y="-119.66" font-family="Times,serif" font-size="14.00">query</text>
</g>
</g>
</svg>
