<?xml version="1.0" encoding="UTF-8" standalone="no"?><svg xmlns="http://www.w3.org/2000/svg" xmlns:xlink="http://www.w3.org/1999/xlink" contentStyleType="text/css" height="281px" preserveAspectRatio="none" style="width:722px;height:281px;background:#FFFFFF;" version="1.1" viewBox="0 0 722 281" width="722px" zoomAndPan="magnify"><defs/><g><!--class Message--><g id="elem_Message"><rect codeLine="6" fill="#F1F1F1" height="113.1875" id="Message" rx="2.5" ry="2.5" style="stroke:#181818;stroke-width:0.5;" width="162" x="553" y="77.5"/><ellipse cx="599.25" cy="93.5" fill="#B4A7E5" rx="11" ry="11" style="stroke:#181818;stroke-width:1.0;"/><path d="M595.1719,89.2656 L595.1719,87.1094 L602.5625,87.1094 L602.5625,89.2656 L600.0938,89.2656 L600.0938,97.3438 L602.5625,97.3438 L602.5625,99.5 L595.1719,99.5 L595.1719,97.3438 L597.6406,97.3438 L597.6406,89.2656 L595.1719,89.2656 Z " fill="#000000"/><text fill="#000000" font-family="sans-serif" font-size="14" font-style="italic" lengthAdjust="spacing" textLength="61" x="619.75" y="98.3467">Message</text><line style="stroke:#181818;stroke-width:0.5;" x1="554" x2="714" y1="109.5" y2="109.5"/><rect fill="none" height="6" style="stroke:#C82930;stroke-width:1.0;" width="6" x="561" y="120.1484"/><text fill="#000000" font-family="sans-serif" font-size="14" lengthAdjust="spacing" textLength="108" x="573" y="126.4951">identifier: String</text><rect fill="none" height="6" style="stroke:#C82930;stroke-width:1.0;" width="6" x="561" y="136.4453"/><text fill="#000000" font-family="sans-serif" font-size="14" lengthAdjust="spacing" textLength="133" x="573" y="142.792">payloadType: Class</text><rect fill="none" height="6" style="stroke:#C82930;stroke-width:1.0;" width="6" x="561" y="152.7422"/><text fill="#000000" font-family="sans-serif" font-size="14" lengthAdjust="spacing" textLength="107" x="573" y="159.0889">payload: Object</text><rect fill="none" height="6" style="stroke:#C82930;stroke-width:1.0;" width="6" x="561" y="169.0391"/><text fill="#000000" font-family="sans-serif" font-size="14" lengthAdjust="spacing" textLength="136" x="573" y="175.3857">metdata:  MetaData</text><line style="stroke:#181818;stroke-width:0.5;" x1="554" x2="714" y1="182.6875" y2="182.6875"/></g><!--class ResultMessage--><g id="elem_ResultMessage"><rect codeLine="13" fill="#F1F1F1" height="80.5938" id="ResultMessage" rx="2.5" ry="2.5" style="stroke:#181818;stroke-width:0.5;" width="222" x="271" y="93.5"/><ellipse cx="319.75" cy="109.5" fill="#B4A7E5" rx="11" ry="11" style="stroke:#181818;stroke-width:1.0;"/><path d="M315.6719,105.2656 L315.6719,103.1094 L323.0625,103.1094 L323.0625,105.2656 L320.5938,105.2656 L320.5938,113.3438 L323.0625,113.3438 L323.0625,115.5 L315.6719,115.5 L315.6719,113.3438 L318.1406,113.3438 L318.1406,105.2656 L315.6719,105.2656 Z " fill="#000000"/><text fill="#000000" font-family="sans-serif" font-size="14" font-style="italic" lengthAdjust="spacing" textLength="104" x="340.25" y="114.3467">ResultMessage</text><rect fill="#FFFFFF" height="15.9688" style="stroke:#181818;stroke-width:1.0;stroke-dasharray:2.0,2.0;" width="10" x="486" y="90.5"/><text fill="#000000" font-family="sans-serif" font-size="12" font-style="italic" lengthAdjust="spacing" textLength="8" x="487" y="102.6387">R</text><line style="stroke:#181818;stroke-width:0.5;" x1="272" x2="492" y1="125.5" y2="125.5"/><rect fill="none" height="6" style="stroke:#C82930;stroke-width:1.0;" width="6" x="279" y="136.1484"/><text fill="#000000" font-family="sans-serif" font-size="14" lengthAdjust="spacing" textLength="144" x="291" y="142.4951">exceptional: boolean</text><rect fill="none" height="6" style="stroke:#C82930;stroke-width:1.0;" width="6" x="279" y="152.4453"/><text fill="#000000" font-family="sans-serif" font-size="14" lengthAdjust="spacing" textLength="196" x="291" y="158.792">exceptionDetails: Throwable</text><line style="stroke:#181818;stroke-width:0.5;" x1="272" x2="492" y1="166.0938" y2="166.0938"/></g><!--class AbstractMessage--><g id="elem_AbstractMessage"><rect codeLine="18" fill="#F1F1F1" height="48" id="AbstractMessage" rx="2.5" ry="2.5" style="stroke:#181818;stroke-width:0.5;" width="161" x="301.5" y="10"/><ellipse cx="316.5" cy="26" fill="#A9DCDF" rx="11" ry="11" style="stroke:#181818;stroke-width:1.0;"/><path d="M316.6094,21.3438 L315.4531,26.4219 L317.7813,26.4219 L316.6094,21.3438 Z M315.125,19.1094 L318.1094,19.1094 L321.4688,31.5 L319.0156,31.5 L318.25,28.4375 L314.9688,28.4375 L314.2188,31.5 L311.7813,31.5 L315.125,19.1094 Z " fill="#000000"/><text fill="#000000" font-family="sans-serif" font-size="14" font-style="italic" lengthAdjust="spacing" textLength="118" x="330.5" y="30.8467">AbstractMessage</text><rect fill="#FFFFFF" height="15.9688" style="stroke:#181818;stroke-width:1.0;stroke-dasharray:2.0,2.0;" width="9" x="456.5" y="7"/><text fill="#000000" font-family="sans-serif" font-size="12" font-style="italic" lengthAdjust="spacing" textLength="7" x="457.5" y="19.1387">T</text><line style="stroke:#181818;stroke-width:0.5;" x1="302.5" x2="461.5" y1="42" y2="42"/><line style="stroke:#181818;stroke-width:0.5;" x1="302.5" x2="461.5" y1="50" y2="50"/></g><!--class GenericMessage--><g id="elem_GenericMessage"><rect codeLine="19" fill="#F1F1F1" height="48" id="GenericMessage" rx="2.5" ry="2.5" style="stroke:#181818;stroke-width:0.5;" width="160" x="29" y="10"/><ellipse cx="44" cy="26" fill="#ADD1B2" rx="11" ry="11" style="stroke:#181818;stroke-width:1.0;"/><path d="M46.9688,31.6406 Q46.3906,31.9375 45.75,32.0781 Q45.1094,32.2344 44.4063,32.2344 Q41.9063,32.2344 40.5781,30.5938 Q39.2656,28.9375 39.2656,25.8125 Q39.2656,22.6875 40.5781,21.0313 Q41.9063,19.375 44.4063,19.375 Q45.1094,19.375 45.75,19.5313 Q46.4063,19.6875 46.9688,19.9844 L46.9688,22.7031 Q46.3438,22.125 45.75,21.8594 Q45.1563,21.5781 44.5313,21.5781 Q43.1875,21.5781 42.5,22.6563 Q41.8125,23.7188 41.8125,25.8125 Q41.8125,27.9063 42.5,28.9844 Q43.1875,30.0469 44.5313,30.0469 Q45.1563,30.0469 45.75,29.7813 Q46.3438,29.5 46.9688,28.9219 L46.9688,31.6406 Z " fill="#000000"/><text fill="#000000" font-family="sans-serif" font-size="14" lengthAdjust="spacing" textLength="117" x="58" y="30.8467">GenericMessage</text><rect fill="#FFFFFF" height="15.9688" style="stroke:#181818;stroke-width:1.0;stroke-dasharray:2.0,2.0;" width="9" x="183" y="7"/><text fill="#000000" font-family="sans-serif" font-size="12" font-style="italic" lengthAdjust="spacing" textLength="7" x="184" y="19.1387">T</text><line style="stroke:#181818;stroke-width:0.5;" x1="30" x2="188" y1="42" y2="42"/><line style="stroke:#181818;stroke-width:0.5;" x1="30" x2="188" y1="50" y2="50"/></g><!--class GenericResultMessage--><g id="elem_GenericResultMessage"><rect codeLine="20" fill="#F1F1F1" height="48" id="GenericResultMessage" rx="2.5" ry="2.5" style="stroke:#181818;stroke-width:0.5;" width="204" x="7" y="110"/><ellipse cx="22" cy="126" fill="#ADD1B2" rx="11" ry="11" style="stroke:#181818;stroke-width:1.0;"/><path d="M24.9688,131.6406 Q24.3906,131.9375 23.75,132.0781 Q23.1094,132.2344 22.4063,132.2344 Q19.9063,132.2344 18.5781,130.5938 Q17.2656,128.9375 17.2656,125.8125 Q17.2656,122.6875 18.5781,121.0313 Q19.9063,119.375 22.4063,119.375 Q23.1094,119.375 23.75,119.5313 Q24.4063,119.6875 24.9688,119.9844 L24.9688,122.7031 Q24.3438,122.125 23.75,121.8594 Q23.1563,121.5781 22.5313,121.5781 Q21.1875,121.5781 20.5,122.6563 Q19.8125,123.7188 19.8125,125.8125 Q19.8125,127.9063 20.5,128.9844 Q21.1875,130.0469 22.5313,130.0469 Q23.1563,130.0469 23.75,129.7813 Q24.3438,129.5 24.9688,128.9219 L24.9688,131.6406 Z " fill="#000000"/><text fill="#000000" font-family="sans-serif" font-size="14" lengthAdjust="spacing" textLength="161" x="36" y="130.8467">GenericResultMessage</text><rect fill="#FFFFFF" height="15.9688" style="stroke:#181818;stroke-width:1.0;stroke-dasharray:2.0,2.0;" width="9" x="205" y="107"/><text fill="#000000" font-family="sans-serif" font-size="12" font-style="italic" lengthAdjust="spacing" textLength="7" x="206" y="119.1387">T</text><line style="stroke:#181818;stroke-width:0.5;" x1="8" x2="210" y1="142" y2="142"/><line style="stroke:#181818;stroke-width:0.5;" x1="8" x2="210" y1="150" y2="150"/></g><!--class MessageDecorator--><g id="elem_MessageDecorator"><rect codeLine="22" fill="#F1F1F1" height="64.2969" id="MessageDecorator" rx="2.5" ry="2.5" style="stroke:#181818;stroke-width:0.5;" width="173" x="295.5" y="210"/><ellipse cx="310.5" cy="226" fill="#A9DCDF" rx="11" ry="11" style="stroke:#181818;stroke-width:1.0;"/><path d="M310.6094,221.3438 L309.4531,226.4219 L311.7813,226.4219 L310.6094,221.3438 Z M309.125,219.1094 L312.1094,219.1094 L315.4688,231.5 L313.0156,231.5 L312.25,228.4375 L308.9688,228.4375 L308.2188,231.5 L305.7813,231.5 L309.125,219.1094 Z " fill="#000000"/><text fill="#000000" font-family="sans-serif" font-size="14" font-style="italic" lengthAdjust="spacing" textLength="130" x="324.5" y="230.8467">MessageDecorator</text><rect fill="#FFFFFF" height="15.9688" style="stroke:#181818;stroke-width:1.0;stroke-dasharray:2.0,2.0;" width="9" x="462.5" y="207"/><text fill="#000000" font-family="sans-serif" font-size="12" font-style="italic" lengthAdjust="spacing" textLength="7" x="463.5" y="219.1387">T</text><line style="stroke:#181818;stroke-width:0.5;" x1="296.5" x2="467.5" y1="242" y2="242"/><rect fill="none" height="6" style="stroke:#C82930;stroke-width:1.0;" width="6" x="303.5" y="252.6484"/><text fill="#000000" font-family="sans-serif" font-size="14" lengthAdjust="spacing" textLength="133" x="315.5" y="258.9951">delegate: Message</text><line style="stroke:#181818;stroke-width:0.5;" x1="296.5" x2="467.5" y1="266.2969" y2="266.2969"/></g><!--link AbstractMessage to Message--><g id="link_AbstractMessage_Message"><path codeLine="28" d="M382,58.24 C382,71.6 382,85.5 382,85.5 C382,85.5 531.02,85.5 531.02,85.5 " fill="none" id="AbstractMessage-to-Message" style="stroke:#181818;stroke-width:1.0;stroke-dasharray:7.0,7.0;"/><polygon fill="none" points="531.02,78.5,551.02,85.5,531.02,92.5,531.02,78.5" style="stroke:#181818;stroke-width:1.0;"/></g><!--link MessageDecorator to Message--><g id="link_MessageDecorator_Message"><path codeLine="29" d="M382,209.81 C382,195.79 382,182.5 382,182.5 C382,182.5 531.02,182.5 531.02,182.5 " fill="none" id="MessageDecorator-to-Message" style="stroke:#181818;stroke-width:1.0;stroke-dasharray:7.0,7.0;"/><polygon fill="none" points="531.02,175.5,551.02,182.5,531.02,189.5,531.02,175.5" style="stroke:#181818;stroke-width:1.0;"/></g><!--link ResultMessage to Message--><g id="link_ResultMessage_Message"><path codeLine="30" d="M493.26,134 C493.26,134 531.32,134 531.32,134 " fill="none" id="ResultMessage-to-Message" style="stroke:#181818;stroke-width:1.0;"/><polygon fill="none" points="531.32,127,551.32,134,531.32,141,531.32,127" style="stroke:#181818;stroke-width:1.0;"/></g><!--link GenericMessage to AbstractMessage--><g id="link_GenericMessage_AbstractMessage"><path codeLine="31" d="M189.43,34 C189.43,34 279.69,34 279.69,34 " fill="none" id="GenericMessage-to-AbstractMessage" style="stroke:#181818;stroke-width:1.0;"/><polygon fill="none" points="279.69,27,299.69,34,279.69,41,279.69,27" style="stroke:#181818;stroke-width:1.0;"/></g><!--link GenericResultMessage to ResultMessage--><g id="link_GenericResultMessage_ResultMessage"><path codeLine="32" d="M211.43,134 C211.43,134 249.25,134 249.25,134 " fill="none" id="GenericResultMessage-to-ResultMessage" style="stroke:#181818;stroke-width:1.0;stroke-dasharray:7.0,7.0;"/><polygon fill="none" points="249.25,127,269.25,134,249.25,141,249.25,127" style="stroke:#181818;stroke-width:1.0;"/></g><!--SRC=[VP1XQiCm38N_-nIwG7e0Cm9ZWVqQWouNK1mbqURQGTROIjUxpstICOUnV-8zyTudfJSECmeUm7CWFSu4KNIAnjEWe164nqcXPo6d78Cn6aVIYGHEnW1mK9817S4JfOGZdR88K75FGNbW4WilAXp6HP_nw2FsRIwoyE0nfKAtyDozvgP5F93sg6WXXoisUSpwkQpTKthtkfRVxMjO0UZJqNmXHc-XYz4JXetJv53soK8xIVp0pjCj7hkaWaxXVXrk-MtEF-S5To67HmeaxFurIxwsBk9NkI4N1JNADMAXxCdJY9g_j2vTsJATsJ31RlTL_onj4qktW86g-cMLjopUfidyTT9IK4ZV]--></g></svg>