<?xml version="1.0" encoding="UTF-8" standalone="no"?><svg xmlns="http://www.w3.org/2000/svg" xmlns:xlink="http://www.w3.org/1999/xlink" contentStyleType="text/css" height="282px" preserveAspectRatio="none" style="width:668px;height:282px;background:#FFFFFF;" version="1.1" viewBox="0 0 668 282" width="668px" zoomAndPan="magnify"><defs/><g><!--MD5=[bea5b0d46523efab5ea1c1d339f396f0]
class Message--><g id="elem_Message"><rect codeLine="6" fill="#F1F1F1" height="115.1997" id="Message" rx="2.5" ry="2.5" style="stroke:#181818;stroke-width:0.5;" width="149" x="512" y="76.5"/><ellipse cx="553.55" cy="92.5" fill="#B4A7E5" rx="11" ry="11" style="stroke:#181818;stroke-width:1.0;"/><path d="M556.2219,95.7969 Q556.7688,95.7969 557.05,95.9844 Q557.3313,96.1563 557.3313,96.6563 Q557.3313,97.5 556.2219,97.5 L551.0813,97.5 Q549.9563,97.5 549.9563,96.6563 Q549.9563,96.1563 550.2375,95.9844 Q550.5344,95.7969 551.0813,95.7969 L552.8,95.7969 L552.8,89.2813 L551.0813,89.2813 Q549.9563,89.2813 549.9563,88.4375 Q549.9563,87.9531 550.2375,87.7813 Q550.5344,87.5938 551.0813,87.5938 L556.2219,87.5938 Q556.7688,87.5938 557.05,87.7813 Q557.3313,87.9531 557.3313,88.4375 Q557.3313,89.2813 556.2219,89.2813 L554.5031,89.2813 L554.5031,95.7969 L556.2219,95.7969 Z " fill="#000000"/><text fill="#000000" font-family="sans-serif" font-size="14" font-style="italic" lengthAdjust="spacing" textLength="58" x="573.45" y="98.1">Message</text><line style="stroke:#181818;stroke-width:0.5;" x1="513" x2="660" y1="108.5" y2="108.5"/><rect fill="none" height="6" style="stroke:#C82930;stroke-width:1.0;" width="6" x="520" y="116.5"/><text fill="#000000" font-family="sans-serif" font-size="14" lengthAdjust="spacing" textLength="97" x="532" y="126.4999">identifier: String</text><rect fill="none" height="6" style="stroke:#C82930;stroke-width:1.0;" width="6" x="520" y="133.2999"/><text fill="#000000" font-family="sans-serif" font-size="14" lengthAdjust="spacing" textLength="123" x="532" y="143.2999">payloadType: Class</text><rect fill="none" height="6" style="stroke:#C82930;stroke-width:1.0;" width="6" x="520" y="150.0999"/><text fill="#000000" font-family="sans-serif" font-size="14" lengthAdjust="spacing" textLength="97" x="532" y="160.0998">payload: Object</text><rect fill="none" height="6" style="stroke:#C82930;stroke-width:1.0;" width="6" x="520" y="166.8998"/><text fill="#000000" font-family="sans-serif" font-size="14" lengthAdjust="spacing" textLength="123" x="532" y="176.8997">metdata:  MetaData</text><line style="stroke:#181818;stroke-width:0.5;" x1="513" x2="660" y1="183.6997" y2="183.6997"/></g><!--MD5=[323a98366024ad6e4b4b358bd0099e7a]
class ResultMessage--><g id="elem_ResultMessage"><rect codeLine="13" fill="#F1F1F1" height="81.5999" id="ResultMessage" rx="2.5" ry="2.5" style="stroke:#181818;stroke-width:0.5;" width="199" x="253" y="93"/><ellipse cx="293.2" cy="109" fill="#B4A7E5" rx="11" ry="11" style="stroke:#181818;stroke-width:1.0;"/><path d="M295.8719,112.2969 Q296.4188,112.2969 296.7,112.4844 Q296.9813,112.6563 296.9813,113.1563 Q296.9813,114 295.8719,114 L290.7313,114 Q289.6063,114 289.6063,113.1563 Q289.6063,112.6563 289.8875,112.4844 Q290.1844,112.2969 290.7313,112.2969 L292.45,112.2969 L292.45,105.7813 L290.7313,105.7813 Q289.6063,105.7813 289.6063,104.9375 Q289.6063,104.4531 289.8875,104.2813 Q290.1844,104.0938 290.7313,104.0938 L295.8719,104.0938 Q296.4188,104.0938 296.7,104.2813 Q296.9813,104.4531 296.9813,104.9375 Q296.9813,105.7813 295.8719,105.7813 L294.1531,105.7813 L294.1531,112.2969 L295.8719,112.2969 Z " fill="#000000"/><text fill="#000000" font-family="sans-serif" font-size="14" font-style="italic" lengthAdjust="spacing" textLength="98" x="312.8" y="114.6">ResultMessage</text><rect fill="#FFFFFF" height="16.4001" style="stroke:#000000;stroke-width:1.0;stroke-dasharray:2.0,2.0;" width="11" x="444" y="90"/><text fill="#000000" font-family="sans-serif" font-size="12" font-style="italic" lengthAdjust="spacing" textLength="9" x="445" y="103.0001">R</text><line style="stroke:#181818;stroke-width:0.5;" x1="254" x2="451" y1="125" y2="125"/><rect fill="none" height="6" style="stroke:#C82930;stroke-width:1.0;" width="6" x="261" y="133"/><text fill="#000000" font-family="sans-serif" font-size="14" lengthAdjust="spacing" textLength="125" x="273" y="142.9999">exceptional: boolean</text><rect fill="none" height="6" style="stroke:#C82930;stroke-width:1.0;" width="6" x="261" y="149.7999"/><text fill="#000000" font-family="sans-serif" font-size="14" lengthAdjust="spacing" textLength="173" x="273" y="159.7999">exceptionDetails: Throwable</text><line style="stroke:#181818;stroke-width:0.5;" x1="254" x2="451" y1="166.5999" y2="166.5999"/></g><!--MD5=[fc553d02c147fb34d8aff23066369596]
class AbstractMessage--><g id="elem_AbstractMessage"><rect codeLine="18" fill="#F1F1F1" height="48" id="AbstractMessage" rx="2.5" ry="2.5" style="stroke:#181818;stroke-width:0.5;" width="153" x="276" y="10"/><ellipse cx="291" cy="26" fill="#A9DCDF" rx="11" ry="11" style="stroke:#181818;stroke-width:1.0;"/><path d="M291.9531,29.6563 Q291.9531,29.1563 292.2344,28.9844 Q292.5313,28.7969 293.0781,28.7969 L293.4688,28.7969 L293.0781,27.8125 L289.0313,27.8125 L288.6406,28.7969 L289.0313,28.7969 Q290.1406,28.7969 290.1406,29.6563 Q290.1406,30.5 289.0313,30.5 L286.7656,30.5 Q285.6406,30.5 285.6406,29.6563 Q285.6406,29.1406 285.9375,28.9688 Q286.2344,28.7969 286.7813,28.7969 L289.4219,22.2813 L288.3438,22.2813 Q287.2031,22.2813 287.2031,21.4375 Q287.2031,20.9219 287.5,20.7656 Q287.7969,20.5938 288.3438,20.5938 L292.0156,20.5938 L295.4063,28.7969 Q296.5625,28.7969 296.5625,29.6563 Q296.5625,30.5 295.4375,30.5 L293.0781,30.5 Q291.9531,30.5 291.9531,29.6563 Z M292.375,26.1094 L291.0469,22.8438 L289.7031,26.1094 L292.375,26.1094 Z " fill="#000000"/><text fill="#000000" font-family="sans-serif" font-size="14" font-style="italic" lengthAdjust="spacing" textLength="110" x="305" y="31.6">AbstractMessage</text><rect fill="#FFFFFF" height="16.4001" style="stroke:#000000;stroke-width:1.0;stroke-dasharray:2.0,2.0;" width="9" x="423" y="7"/><text fill="#000000" font-family="sans-serif" font-size="12" font-style="italic" lengthAdjust="spacing" textLength="7" x="424" y="20.0001">T</text><line style="stroke:#181818;stroke-width:0.5;" x1="277" x2="428" y1="42" y2="42"/><line style="stroke:#181818;stroke-width:0.5;" x1="277" x2="428" y1="50" y2="50"/></g><!--MD5=[fadd0f832754c5c424dc290238afd56d]
class GenericMessage--><g id="elem_GenericMessage"><rect codeLine="19" fill="#F1F1F1" height="48" id="GenericMessage" rx="2.5" ry="2.5" style="stroke:#181818;stroke-width:0.5;" width="147" x="26.5" y="10"/><ellipse cx="41.5" cy="26" fill="#ADD1B2" rx="11" ry="11" style="stroke:#181818;stroke-width:1.0;"/><path d="M40.8594,29.7813 Q41.6563,29.7813 42.2188,29.5938 Q42.7969,29.3906 43.0313,29.1719 Q43.2813,28.9375 43.5156,28.75 Q43.7656,28.5469 43.9844,28.5469 Q44.3281,28.5469 44.5781,28.8125 Q44.8438,29.0625 44.8438,29.3906 Q44.8438,30.125 43.6719,30.8125 Q42.5156,31.4844 40.8125,31.4844 Q38.6563,31.4844 37.2344,30.2188 Q35.8125,28.9531 35.8125,27.0156 L35.8125,25.8906 Q35.8125,23.8594 37.1406,22.4844 Q38.4688,21.0938 40.4375,21.0938 Q41.625,21.0938 42.8438,21.6719 L43.0156,21.75 Q43.3125,21.3438 43.7344,21.3438 Q44.2188,21.3438 44.3906,21.6406 Q44.5781,21.9219 44.5781,22.4688 L44.5781,23.8906 Q44.5781,25.0156 43.7344,25.0156 Q43.4219,25.0156 43.2188,24.8438 Q43.0313,24.6719 42.9844,24.5313 Q42.9531,24.375 42.9063,24.1094 Q42.7969,23.5938 42.2813,23.2813 Q41.7656,22.9688 41.3125,22.8906 Q40.875,22.7969 40.5,22.7969 Q39.2188,22.7969 38.3594,23.6719 Q37.5156,24.5469 37.5156,25.8906 L37.5156,26.9844 Q37.5156,28.2656 38.4219,29.0313 Q39.3281,29.7813 40.8594,29.7813 Z " fill="#000000"/><text fill="#000000" font-family="sans-serif" font-size="14" lengthAdjust="spacing" textLength="104" x="55.5" y="31.6">GenericMessage</text><rect fill="#FFFFFF" height="16.4001" style="stroke:#000000;stroke-width:1.0;stroke-dasharray:2.0,2.0;" width="9" x="167.5" y="7"/><text fill="#000000" font-family="sans-serif" font-size="12" font-style="italic" lengthAdjust="spacing" textLength="7" x="168.5" y="20.0001">T</text><line style="stroke:#181818;stroke-width:0.5;" x1="27.5" x2="172.5" y1="42" y2="42"/><line style="stroke:#181818;stroke-width:0.5;" x1="27.5" x2="172.5" y1="50" y2="50"/></g><!--MD5=[968b2d173d43a39003603e0aa91254bc]
class GenericResultMessage--><g id="elem_GenericResultMessage"><rect codeLine="20" fill="#F1F1F1" height="48" id="GenericResultMessage" rx="2.5" ry="2.5" style="stroke:#181818;stroke-width:0.5;" width="186" x="7" y="110"/><ellipse cx="22" cy="126" fill="#ADD1B2" rx="11" ry="11" style="stroke:#181818;stroke-width:1.0;"/><path d="M21.3594,129.7813 Q22.1563,129.7813 22.7188,129.5938 Q23.2969,129.3906 23.5313,129.1719 Q23.7813,128.9375 24.0156,128.75 Q24.2656,128.5469 24.4844,128.5469 Q24.8281,128.5469 25.0781,128.8125 Q25.3438,129.0625 25.3438,129.3906 Q25.3438,130.125 24.1719,130.8125 Q23.0156,131.4844 21.3125,131.4844 Q19.1563,131.4844 17.7344,130.2188 Q16.3125,128.9531 16.3125,127.0156 L16.3125,125.8906 Q16.3125,123.8594 17.6406,122.4844 Q18.9688,121.0938 20.9375,121.0938 Q22.125,121.0938 23.3438,121.6719 L23.5156,121.75 Q23.8125,121.3438 24.2344,121.3438 Q24.7188,121.3438 24.8906,121.6406 Q25.0781,121.9219 25.0781,122.4688 L25.0781,123.8906 Q25.0781,125.0156 24.2344,125.0156 Q23.9219,125.0156 23.7188,124.8438 Q23.5313,124.6719 23.4844,124.5313 Q23.4531,124.375 23.4063,124.1094 Q23.2969,123.5938 22.7813,123.2813 Q22.2656,122.9688 21.8125,122.8906 Q21.375,122.7969 21,122.7969 Q19.7188,122.7969 18.8594,123.6719 Q18.0156,124.5469 18.0156,125.8906 L18.0156,126.9844 Q18.0156,128.2656 18.9219,129.0313 Q19.8281,129.7813 21.3594,129.7813 Z " fill="#000000"/><text fill="#000000" font-family="sans-serif" font-size="14" lengthAdjust="spacing" textLength="143" x="36" y="131.6">GenericResultMessage</text><rect fill="#FFFFFF" height="16.4001" style="stroke:#000000;stroke-width:1.0;stroke-dasharray:2.0,2.0;" width="9" x="187" y="107"/><text fill="#000000" font-family="sans-serif" font-size="12" font-style="italic" lengthAdjust="spacing" textLength="7" x="188" y="120.0001">T</text><line style="stroke:#181818;stroke-width:0.5;" x1="8" x2="192" y1="142" y2="142"/><line style="stroke:#181818;stroke-width:0.5;" x1="8" x2="192" y1="150" y2="150"/></g><!--MD5=[d827f8e687d7c88150fefea8cd54028a]
class MessageDecorator--><g id="elem_MessageDecorator"><rect codeLine="22" fill="#F1F1F1" height="64.7999" id="MessageDecorator" rx="2.5" ry="2.5" style="stroke:#181818;stroke-width:0.5;" width="164" x="270.5" y="210.5"/><ellipse cx="285.5" cy="226.5" fill="#A9DCDF" rx="11" ry="11" style="stroke:#181818;stroke-width:1.0;"/><path d="M286.4531,230.1563 Q286.4531,229.6563 286.7344,229.4844 Q287.0313,229.2969 287.5781,229.2969 L287.9688,229.2969 L287.5781,228.3125 L283.5313,228.3125 L283.1406,229.2969 L283.5313,229.2969 Q284.6406,229.2969 284.6406,230.1563 Q284.6406,231 283.5313,231 L281.2656,231 Q280.1406,231 280.1406,230.1563 Q280.1406,229.6406 280.4375,229.4688 Q280.7344,229.2969 281.2813,229.2969 L283.9219,222.7813 L282.8438,222.7813 Q281.7031,222.7813 281.7031,221.9375 Q281.7031,221.4219 282,221.2656 Q282.2969,221.0938 282.8438,221.0938 L286.5156,221.0938 L289.9063,229.2969 Q291.0625,229.2969 291.0625,230.1563 Q291.0625,231 289.9375,231 L287.5781,231 Q286.4531,231 286.4531,230.1563 Z M286.875,226.6094 L285.5469,223.3438 L284.2031,226.6094 L286.875,226.6094 Z " fill="#000000"/><text fill="#000000" font-family="sans-serif" font-size="14" font-style="italic" lengthAdjust="spacing" textLength="121" x="299.5" y="232.1">MessageDecorator</text><rect fill="#FFFFFF" height="16.4001" style="stroke:#000000;stroke-width:1.0;stroke-dasharray:2.0,2.0;" width="9" x="428.5" y="207.5"/><text fill="#000000" font-family="sans-serif" font-size="12" font-style="italic" lengthAdjust="spacing" textLength="7" x="429.5" y="220.5001">T</text><line style="stroke:#181818;stroke-width:0.5;" x1="271.5" x2="433.5" y1="242.5" y2="242.5"/><rect fill="none" height="6" style="stroke:#C82930;stroke-width:1.0;" width="6" x="278.5" y="250.5"/><text fill="#000000" font-family="sans-serif" font-size="14" lengthAdjust="spacing" textLength="116" x="290.5" y="260.4999">delegate: Message</text><line style="stroke:#181818;stroke-width:0.5;" x1="271.5" x2="433.5" y1="267.2999" y2="267.2999"/></g><!--MD5=[148f36b1e3a5da5da1a825f30cedd68c]
link AbstractMessage to Message--><g id="link_AbstractMessage_Message"><path codeLine="28" d="M353,58.19 C353,71.26 353,84.75 353,84.75 C353,84.75 491.98,84.75 491.98,84.75 " fill="none" id="AbstractMessage-to-Message" style="stroke:#181818;stroke-width:1.0;stroke-dasharray:7.0,7.0;"/><polygon fill="none" points="491.98,77.75,511.98,84.75,491.98,91.75,491.98,77.75" style="stroke:#181818;stroke-width:1.0;"/></g><!--MD5=[ab8081204e433a4199b6f3aa5410cdab]
link MessageDecorator to Message--><g id="link_MessageDecorator_Message"><path codeLine="29" d="M353,210.33 C353,196.38 353,183.25 353,183.25 C353,183.25 491.98,183.25 491.98,183.25 " fill="none" id="MessageDecorator-to-Message" style="stroke:#181818;stroke-width:1.0;stroke-dasharray:7.0,7.0;"/><polygon fill="none" points="491.98,176.25,511.98,183.25,491.98,190.25,491.98,176.25" style="stroke:#181818;stroke-width:1.0;"/></g><!--MD5=[a7ef1d70d087ca7624077f2a392b9422]
link ResultMessage to Message--><g id="link_ResultMessage_Message"><path codeLine="30" d="M452.08,134 C452.08,134 491.83,134 491.83,134 " fill="none" id="ResultMessage-to-Message" style="stroke:#181818;stroke-width:1.0;"/><polygon fill="none" points="491.83,127,511.83,134,491.83,141,491.83,127" style="stroke:#181818;stroke-width:1.0;"/></g><!--MD5=[8084e1e7fa83c586545729d93e06d069]
link GenericMessage to AbstractMessage--><g id="link_GenericMessage_AbstractMessage"><path codeLine="31" d="M173.71,34 C173.71,34 255.62,34 255.62,34 " fill="none" id="GenericMessage-to-AbstractMessage" style="stroke:#181818;stroke-width:1.0;"/><polygon fill="none" points="255.62,27,275.62,34,255.62,41,255.62,27" style="stroke:#181818;stroke-width:1.0;"/></g><!--MD5=[f0cfd282eaebdac430a27fa24c2e7e17]
link GenericResultMessage to ResultMessage--><g id="link_GenericResultMessage_ResultMessage"><path codeLine="32" d="M193.3,134 C193.3,134 232.8,134 232.8,134 " fill="none" id="GenericResultMessage-to-ResultMessage" style="stroke:#181818;stroke-width:1.0;stroke-dasharray:7.0,7.0;"/><polygon fill="none" points="232.8,127,252.8,134,232.8,141,232.8,127" style="stroke:#181818;stroke-width:1.0;"/></g><!--MD5=[1cb235d665a59bbc24dfdad2a3d910a5]
@startuml
skinparam linetype ortho
left to right direction

together {

  interface Message{
    -identifier: String
    -payloadType: Class
    -payload: Object
    -metdata:  MetaData
  }

  interface ResultMessage<R> {
    -exceptional: boolean
    -exceptionDetails: Throwable
  }

  abstract AbstractMessage<T> {}
  class GenericMessage<T> {}
  class GenericResultMessage<T>

  abstract MessageDecorator<T> {
    -delegate: Message
  }
}


AbstractMessage ..|> Message
MessageDecorator ..|> Message
ResultMessage - -|> Message
GenericMessage - -|> AbstractMessage
GenericResultMessage ..|> ResultMessage
@enduml

PlantUML version 1.2022.5(Sat Apr 30 10:55:52 GMT 2022)
(GPL source distribution)
Java Runtime: OpenJDK Runtime Environment
JVM: OpenJDK 64-Bit Server VM
Default Encoding: UTF-8
Language: en
Country: US
--></g></svg>