<?xml version="1.0" encoding="UTF-8" standalone="no"?><svg xmlns="http://www.w3.org/2000/svg" xmlns:xlink="http://www.w3.org/1999/xlink" contentStyleType="text/css" height="536px" preserveAspectRatio="none" style="width:1006px;height:536px;background:#FFFFFF;" version="1.1" viewBox="0 0 1006 536" width="1006px" zoomAndPan="magnify"><defs/><g><!--MD5=[a55fae88f2900897bf8793e2455c9b76]
cluster query messages--><g id="cluster_query messages"><rect height="216" rx="2.5" ry="2.5" style="stroke:#181818;stroke-width:1.0;fill:none;" width="540" x="7" y="7"/><text fill="#000000" font-family="sans-serif" font-size="14" font-weight="bold" lengthAdjust="spacing" textLength="113" x="220.5" y="22.9999">query messages</text></g><!--MD5=[bea5b0d46523efab5ea1c1d339f396f0]
class Message--><g id="elem_Message"><rect codeLine="6" fill="#F1F1F1" height="115.1997" id="Message" rx="2.5" ry="2.5" style="stroke:#181818;stroke-width:0.5;" width="149" x="850" y="309.5"/><ellipse cx="891.55" cy="325.5" fill="#B4A7E5" rx="11" ry="11" style="stroke:#181818;stroke-width:1.0;"/><path d="M894.2219,328.7969 Q894.7688,328.7969 895.05,328.9844 Q895.3313,329.1563 895.3313,329.6563 Q895.3313,330.5 894.2219,330.5 L889.0813,330.5 Q887.9563,330.5 887.9563,329.6563 Q887.9563,329.1563 888.2375,328.9844 Q888.5344,328.7969 889.0813,328.7969 L890.8,328.7969 L890.8,322.2813 L889.0813,322.2813 Q887.9563,322.2813 887.9563,321.4375 Q887.9563,320.9531 888.2375,320.7813 Q888.5344,320.5938 889.0813,320.5938 L894.2219,320.5938 Q894.7688,320.5938 895.05,320.7813 Q895.3313,320.9531 895.3313,321.4375 Q895.3313,322.2813 894.2219,322.2813 L892.5031,322.2813 L892.5031,328.7969 L894.2219,328.7969 Z " fill="#000000"/><text fill="#000000" font-family="sans-serif" font-size="14" font-style="italic" lengthAdjust="spacing" textLength="58" x="911.45" y="331.1">Message</text><line style="stroke:#181818;stroke-width:0.5;" x1="851" x2="998" y1="341.5" y2="341.5"/><rect fill="none" height="6" style="stroke:#C82930;stroke-width:1.0;" width="6" x="858" y="349.5"/><text fill="#000000" font-family="sans-serif" font-size="14" lengthAdjust="spacing" textLength="97" x="870" y="359.4999">identifier: String</text><rect fill="none" height="6" style="stroke:#C82930;stroke-width:1.0;" width="6" x="858" y="366.2999"/><text fill="#000000" font-family="sans-serif" font-size="14" lengthAdjust="spacing" textLength="123" x="870" y="376.2999">payloadType: Class</text><rect fill="none" height="6" style="stroke:#C82930;stroke-width:1.0;" width="6" x="858" y="383.0999"/><text fill="#000000" font-family="sans-serif" font-size="14" lengthAdjust="spacing" textLength="97" x="870" y="393.0998">payload: Object</text><rect fill="none" height="6" style="stroke:#C82930;stroke-width:1.0;" width="6" x="858" y="399.8998"/><text fill="#000000" font-family="sans-serif" font-size="14" lengthAdjust="spacing" textLength="123" x="870" y="409.8997">metdata:  MetaData</text><line style="stroke:#181818;stroke-width:0.5;" x1="851" x2="998" y1="416.6997" y2="416.6997"/></g><!--MD5=[323a98366024ad6e4b4b358bd0099e7a]
class ResultMessage--><g id="elem_ResultMessage"><rect codeLine="13" fill="#F1F1F1" height="81.5999" id="ResultMessage" rx="2.5" ry="2.5" style="stroke:#181818;stroke-width:0.5;" width="199" x="591" y="263"/><ellipse cx="631.2" cy="279" fill="#B4A7E5" rx="11" ry="11" style="stroke:#181818;stroke-width:1.0;"/><path d="M633.8719,282.2969 Q634.4188,282.2969 634.7,282.4844 Q634.9813,282.6563 634.9813,283.1563 Q634.9813,284 633.8719,284 L628.7313,284 Q627.6063,284 627.6063,283.1563 Q627.6063,282.6563 627.8875,282.4844 Q628.1844,282.2969 628.7313,282.2969 L630.45,282.2969 L630.45,275.7813 L628.7313,275.7813 Q627.6063,275.7813 627.6063,274.9375 Q627.6063,274.4531 627.8875,274.2813 Q628.1844,274.0938 628.7313,274.0938 L633.8719,274.0938 Q634.4188,274.0938 634.7,274.2813 Q634.9813,274.4531 634.9813,274.9375 Q634.9813,275.7813 633.8719,275.7813 L632.1531,275.7813 L632.1531,282.2969 L633.8719,282.2969 Z " fill="#000000"/><text fill="#000000" font-family="sans-serif" font-size="14" font-style="italic" lengthAdjust="spacing" textLength="98" x="650.8" y="284.6">ResultMessage</text><rect fill="#FFFFFF" height="16.4001" style="stroke:#000000;stroke-width:1.0;stroke-dasharray:2.0,2.0;" width="11" x="782" y="260"/><text fill="#000000" font-family="sans-serif" font-size="12" font-style="italic" lengthAdjust="spacing" textLength="9" x="783" y="273.0001">R</text><line style="stroke:#181818;stroke-width:0.5;" x1="592" x2="789" y1="295" y2="295"/><rect fill="none" height="6" style="stroke:#C82930;stroke-width:1.0;" width="6" x="599" y="303"/><text fill="#000000" font-family="sans-serif" font-size="14" lengthAdjust="spacing" textLength="125" x="611" y="312.9999">exceptional: boolean</text><rect fill="none" height="6" style="stroke:#C82930;stroke-width:1.0;" width="6" x="599" y="319.7999"/><text fill="#000000" font-family="sans-serif" font-size="14" lengthAdjust="spacing" textLength="173" x="611" y="329.7999">exceptionDetails: Throwable</text><line style="stroke:#181818;stroke-width:0.5;" x1="592" x2="789" y1="336.5999" y2="336.5999"/></g><!--MD5=[fc553d02c147fb34d8aff23066369596]
class AbstractMessage--><g id="elem_AbstractMessage"><rect codeLine="18" fill="#F1F1F1" height="48" id="AbstractMessage" rx="2.5" ry="2.5" style="stroke:#181818;stroke-width:0.5;" width="153" x="614" y="481"/><ellipse cx="629" cy="497" fill="#A9DCDF" rx="11" ry="11" style="stroke:#181818;stroke-width:1.0;"/><path d="M629.9531,500.6563 Q629.9531,500.1563 630.2344,499.9844 Q630.5313,499.7969 631.0781,499.7969 L631.4688,499.7969 L631.0781,498.8125 L627.0313,498.8125 L626.6406,499.7969 L627.0313,499.7969 Q628.1406,499.7969 628.1406,500.6563 Q628.1406,501.5 627.0313,501.5 L624.7656,501.5 Q623.6406,501.5 623.6406,500.6563 Q623.6406,500.1406 623.9375,499.9688 Q624.2344,499.7969 624.7813,499.7969 L627.4219,493.2813 L626.3438,493.2813 Q625.2031,493.2813 625.2031,492.4375 Q625.2031,491.9219 625.5,491.7656 Q625.7969,491.5938 626.3438,491.5938 L630.0156,491.5938 L633.4063,499.7969 Q634.5625,499.7969 634.5625,500.6563 Q634.5625,501.5 633.4375,501.5 L631.0781,501.5 Q629.9531,501.5 629.9531,500.6563 Z M630.375,497.1094 L629.0469,493.8438 L627.7031,497.1094 L630.375,497.1094 Z " fill="#000000"/><text fill="#000000" font-family="sans-serif" font-size="14" font-style="italic" lengthAdjust="spacing" textLength="110" x="643" y="502.6">AbstractMessage</text><rect fill="#FFFFFF" height="16.4001" style="stroke:#000000;stroke-width:1.0;stroke-dasharray:2.0,2.0;" width="9" x="761" y="478"/><text fill="#000000" font-family="sans-serif" font-size="12" font-style="italic" lengthAdjust="spacing" textLength="7" x="762" y="491.0001">T</text><line style="stroke:#181818;stroke-width:0.5;" x1="615" x2="766" y1="513" y2="513"/><line style="stroke:#181818;stroke-width:0.5;" x1="615" x2="766" y1="521" y2="521"/></g><!--MD5=[fadd0f832754c5c424dc290238afd56d]
class GenericMessage--><g id="elem_GenericMessage"><rect codeLine="19" fill="#F1F1F1" height="48" id="GenericMessage" rx="2.5" ry="2.5" style="stroke:#181818;stroke-width:0.5;" width="147" x="351" y="481"/><ellipse cx="366" cy="497" fill="#ADD1B2" rx="11" ry="11" style="stroke:#181818;stroke-width:1.0;"/><path d="M365.3594,500.7813 Q366.1563,500.7813 366.7188,500.5938 Q367.2969,500.3906 367.5313,500.1719 Q367.7813,499.9375 368.0156,499.75 Q368.2656,499.5469 368.4844,499.5469 Q368.8281,499.5469 369.0781,499.8125 Q369.3438,500.0625 369.3438,500.3906 Q369.3438,501.125 368.1719,501.8125 Q367.0156,502.4844 365.3125,502.4844 Q363.1563,502.4844 361.7344,501.2188 Q360.3125,499.9531 360.3125,498.0156 L360.3125,496.8906 Q360.3125,494.8594 361.6406,493.4844 Q362.9688,492.0938 364.9375,492.0938 Q366.125,492.0938 367.3438,492.6719 L367.5156,492.75 Q367.8125,492.3438 368.2344,492.3438 Q368.7188,492.3438 368.8906,492.6406 Q369.0781,492.9219 369.0781,493.4688 L369.0781,494.8906 Q369.0781,496.0156 368.2344,496.0156 Q367.9219,496.0156 367.7188,495.8438 Q367.5313,495.6719 367.4844,495.5313 Q367.4531,495.375 367.4063,495.1094 Q367.2969,494.5938 366.7813,494.2813 Q366.2656,493.9688 365.8125,493.8906 Q365.375,493.7969 365,493.7969 Q363.7188,493.7969 362.8594,494.6719 Q362.0156,495.5469 362.0156,496.8906 L362.0156,497.9844 Q362.0156,499.2656 362.9219,500.0313 Q363.8281,500.7813 365.3594,500.7813 Z " fill="#000000"/><text fill="#000000" font-family="sans-serif" font-size="14" lengthAdjust="spacing" textLength="104" x="380" y="502.6">GenericMessage</text><rect fill="#FFFFFF" height="16.4001" style="stroke:#000000;stroke-width:1.0;stroke-dasharray:2.0,2.0;" width="9" x="492" y="478"/><text fill="#000000" font-family="sans-serif" font-size="12" font-style="italic" lengthAdjust="spacing" textLength="7" x="493" y="491.0001">T</text><line style="stroke:#181818;stroke-width:0.5;" x1="352" x2="497" y1="513" y2="513"/><line style="stroke:#181818;stroke-width:0.5;" x1="352" x2="497" y1="521" y2="521"/></g><!--MD5=[968b2d173d43a39003603e0aa91254bc]
class GenericResultMessage--><g id="elem_GenericResultMessage"><rect codeLine="20" fill="#F1F1F1" height="48" id="GenericResultMessage" rx="2.5" ry="2.5" style="stroke:#181818;stroke-width:0.5;" width="186" x="331.5" y="313"/><ellipse cx="346.5" cy="329" fill="#ADD1B2" rx="11" ry="11" style="stroke:#181818;stroke-width:1.0;"/><path d="M345.8594,332.7813 Q346.6563,332.7813 347.2188,332.5938 Q347.7969,332.3906 348.0313,332.1719 Q348.2813,331.9375 348.5156,331.75 Q348.7656,331.5469 348.9844,331.5469 Q349.3281,331.5469 349.5781,331.8125 Q349.8438,332.0625 349.8438,332.3906 Q349.8438,333.125 348.6719,333.8125 Q347.5156,334.4844 345.8125,334.4844 Q343.6563,334.4844 342.2344,333.2188 Q340.8125,331.9531 340.8125,330.0156 L340.8125,328.8906 Q340.8125,326.8594 342.1406,325.4844 Q343.4688,324.0938 345.4375,324.0938 Q346.625,324.0938 347.8438,324.6719 L348.0156,324.75 Q348.3125,324.3438 348.7344,324.3438 Q349.2188,324.3438 349.3906,324.6406 Q349.5781,324.9219 349.5781,325.4688 L349.5781,326.8906 Q349.5781,328.0156 348.7344,328.0156 Q348.4219,328.0156 348.2188,327.8438 Q348.0313,327.6719 347.9844,327.5313 Q347.9531,327.375 347.9063,327.1094 Q347.7969,326.5938 347.2813,326.2813 Q346.7656,325.9688 346.3125,325.8906 Q345.875,325.7969 345.5,325.7969 Q344.2188,325.7969 343.3594,326.6719 Q342.5156,327.5469 342.5156,328.8906 L342.5156,329.9844 Q342.5156,331.2656 343.4219,332.0313 Q344.3281,332.7813 345.8594,332.7813 Z " fill="#000000"/><text fill="#000000" font-family="sans-serif" font-size="14" lengthAdjust="spacing" textLength="143" x="360.5" y="334.6">GenericResultMessage</text><rect fill="#FFFFFF" height="16.4001" style="stroke:#000000;stroke-width:1.0;stroke-dasharray:2.0,2.0;" width="9" x="511.5" y="310"/><text fill="#000000" font-family="sans-serif" font-size="12" font-style="italic" lengthAdjust="spacing" textLength="7" x="512.5" y="323.0001">T</text><line style="stroke:#181818;stroke-width:0.5;" x1="332.5" x2="516.5" y1="345" y2="345"/><line style="stroke:#181818;stroke-width:0.5;" x1="332.5" x2="516.5" y1="353" y2="353"/></g><!--MD5=[d827f8e687d7c88150fefea8cd54028a]
class MessageDecorator--><g id="elem_MessageDecorator"><rect codeLine="22" fill="#F1F1F1" height="64.7999" id="MessageDecorator" rx="2.5" ry="2.5" style="stroke:#181818;stroke-width:0.5;" width="164" x="608.5" y="380.5"/><ellipse cx="623.5" cy="396.5" fill="#A9DCDF" rx="11" ry="11" style="stroke:#181818;stroke-width:1.0;"/><path d="M624.4531,400.1563 Q624.4531,399.6563 624.7344,399.4844 Q625.0313,399.2969 625.5781,399.2969 L625.9688,399.2969 L625.5781,398.3125 L621.5313,398.3125 L621.1406,399.2969 L621.5313,399.2969 Q622.6406,399.2969 622.6406,400.1563 Q622.6406,401 621.5313,401 L619.2656,401 Q618.1406,401 618.1406,400.1563 Q618.1406,399.6406 618.4375,399.4688 Q618.7344,399.2969 619.2813,399.2969 L621.9219,392.7813 L620.8438,392.7813 Q619.7031,392.7813 619.7031,391.9375 Q619.7031,391.4219 620,391.2656 Q620.2969,391.0938 620.8438,391.0938 L624.5156,391.0938 L627.9063,399.2969 Q629.0625,399.2969 629.0625,400.1563 Q629.0625,401 627.9375,401 L625.5781,401 Q624.4531,401 624.4531,400.1563 Z M624.875,396.6094 L623.5469,393.3438 L622.2031,396.6094 L624.875,396.6094 Z " fill="#000000"/><text fill="#000000" font-family="sans-serif" font-size="14" font-style="italic" lengthAdjust="spacing" textLength="121" x="637.5" y="402.1">MessageDecorator</text><rect fill="#FFFFFF" height="16.4001" style="stroke:#000000;stroke-width:1.0;stroke-dasharray:2.0,2.0;" width="9" x="766.5" y="377.5"/><text fill="#000000" font-family="sans-serif" font-size="12" font-style="italic" lengthAdjust="spacing" textLength="7" x="767.5" y="390.5001">T</text><line style="stroke:#181818;stroke-width:0.5;" x1="609.5" x2="771.5" y1="412.5" y2="412.5"/><rect fill="none" height="6" style="stroke:#C82930;stroke-width:1.0;" width="6" x="616.5" y="420.5"/><text fill="#000000" font-family="sans-serif" font-size="14" lengthAdjust="spacing" textLength="116" x="628.5" y="430.4999">delegate: Message</text><line style="stroke:#181818;stroke-width:0.5;" x1="609.5" x2="771.5" y1="437.2999" y2="437.2999"/></g><!--MD5=[d8ce29de9acd98dd9560148665a01873]
class QueryMessage--><g id="elem_QueryMessage"><rect codeLine="39" fill="#F1F1F1" height="81.5999" id="QueryMessage" rx="2.5" ry="2.5" style="stroke:#181818;stroke-width:0.5;" width="213" x="318" y="42"/><ellipse cx="360.45" cy="58" fill="#B4A7E5" rx="11" ry="11" style="stroke:#181818;stroke-width:1.0;"/><path d="M363.1219,61.2969 Q363.6688,61.2969 363.95,61.4844 Q364.2313,61.6563 364.2313,62.1563 Q364.2313,63 363.1219,63 L357.9813,63 Q356.8563,63 356.8563,62.1563 Q356.8563,61.6563 357.1375,61.4844 Q357.4344,61.2969 357.9813,61.2969 L359.7,61.2969 L359.7,54.7813 L357.9813,54.7813 Q356.8563,54.7813 356.8563,53.9375 Q356.8563,53.4531 357.1375,53.2813 Q357.4344,53.0938 357.9813,53.0938 L363.1219,53.0938 Q363.6688,53.0938 363.95,53.2813 Q364.2313,53.4531 364.2313,53.9375 Q364.2313,54.7813 363.1219,54.7813 L361.4031,54.7813 L361.4031,61.2969 L363.1219,61.2969 Z " fill="#000000"/><text fill="#000000" font-family="sans-serif" font-size="14" font-style="italic" lengthAdjust="spacing" textLength="97" x="380.55" y="63.6">QueryMessage</text><rect fill="#FFFFFF" height="16.4001" style="stroke:#000000;stroke-width:1.0;stroke-dasharray:2.0,2.0;" width="21" x="513" y="39"/><text fill="#000000" font-family="sans-serif" font-size="12" font-style="italic" lengthAdjust="spacing" textLength="19" x="514" y="52.0001">T,R</text><line style="stroke:#181818;stroke-width:0.5;" x1="319" x2="530" y1="74" y2="74"/><rect fill="none" height="6" style="stroke:#C82930;stroke-width:1.0;" width="6" x="326" y="82"/><text fill="#000000" font-family="sans-serif" font-size="14" lengthAdjust="spacing" textLength="116" x="338" y="91.9999">queryName: String</text><rect fill="none" height="6" style="stroke:#C82930;stroke-width:1.0;" width="6" x="326" y="98.7999"/><text fill="#000000" font-family="sans-serif" font-size="14" lengthAdjust="spacing" textLength="187" x="338" y="108.7999">responseType: ResponseType</text><line style="stroke:#181818;stroke-width:0.5;" x1="319" x2="530" y1="115.5999" y2="115.5999"/></g><!--MD5=[1ffb6d1fdb646330b0210d9c2d1aefbd]
class QueryResponseMessage--><g id="elem_QueryResponseMessage"><rect codeLine="44" fill="#F1F1F1" height="48" id="QueryResponseMessage" rx="2.5" ry="2.5" style="stroke:#181818;stroke-width:0.5;" width="204" x="322.5" y="159"/><ellipse cx="337.5" cy="175" fill="#B4A7E5" rx="11" ry="11" style="stroke:#181818;stroke-width:1.0;"/><path d="M340.1719,178.2969 Q340.7188,178.2969 341,178.4844 Q341.2813,178.6563 341.2813,179.1563 Q341.2813,180 340.1719,180 L335.0313,180 Q333.9063,180 333.9063,179.1563 Q333.9063,178.6563 334.1875,178.4844 Q334.4844,178.2969 335.0313,178.2969 L336.75,178.2969 L336.75,171.7813 L335.0313,171.7813 Q333.9063,171.7813 333.9063,170.9375 Q333.9063,170.4531 334.1875,170.2813 Q334.4844,170.0938 335.0313,170.0938 L340.1719,170.0938 Q340.7188,170.0938 341,170.2813 Q341.2813,170.4531 341.2813,170.9375 Q341.2813,171.7813 340.1719,171.7813 L338.4531,171.7813 L338.4531,178.2969 L340.1719,178.2969 Z " fill="#000000"/><text fill="#000000" font-family="sans-serif" font-size="14" font-style="italic" lengthAdjust="spacing" textLength="161" x="351.5" y="180.6">QueryResponseMessage</text><rect fill="#FFFFFF" height="16.4001" style="stroke:#000000;stroke-width:1.0;stroke-dasharray:2.0,2.0;" width="9" x="520.5" y="156"/><text fill="#000000" font-family="sans-serif" font-size="12" font-style="italic" lengthAdjust="spacing" textLength="7" x="521.5" y="169.0001">T</text><line style="stroke:#181818;stroke-width:0.5;" x1="323.5" x2="525.5" y1="191" y2="191"/><line style="stroke:#181818;stroke-width:0.5;" x1="323.5" x2="525.5" y1="199" y2="199"/></g><!--MD5=[f2281559b1bc2cb6e732ecab78b45dd2]
class GenericQueryMessage--><g id="elem_GenericQueryMessage"><rect codeLine="46" fill="#F1F1F1" height="48" id="GenericQueryMessage" rx="2.5" ry="2.5" style="stroke:#181818;stroke-width:0.5;" width="197" x="42" y="68"/><ellipse cx="57" cy="84" fill="#ADD1B2" rx="11" ry="11" style="stroke:#181818;stroke-width:1.0;"/><path d="M56.3594,87.7813 Q57.1563,87.7813 57.7188,87.5938 Q58.2969,87.3906 58.5313,87.1719 Q58.7813,86.9375 59.0156,86.75 Q59.2656,86.5469 59.4844,86.5469 Q59.8281,86.5469 60.0781,86.8125 Q60.3438,87.0625 60.3438,87.3906 Q60.3438,88.125 59.1719,88.8125 Q58.0156,89.4844 56.3125,89.4844 Q54.1563,89.4844 52.7344,88.2188 Q51.3125,86.9531 51.3125,85.0156 L51.3125,83.8906 Q51.3125,81.8594 52.6406,80.4844 Q53.9688,79.0938 55.9375,79.0938 Q57.125,79.0938 58.3438,79.6719 L58.5156,79.75 Q58.8125,79.3438 59.2344,79.3438 Q59.7188,79.3438 59.8906,79.6406 Q60.0781,79.9219 60.0781,80.4688 L60.0781,81.8906 Q60.0781,83.0156 59.2344,83.0156 Q58.9219,83.0156 58.7188,82.8438 Q58.5313,82.6719 58.4844,82.5313 Q58.4531,82.375 58.4063,82.1094 Q58.2969,81.5938 57.7813,81.2813 Q57.2656,80.9688 56.8125,80.8906 Q56.375,80.7969 56,80.7969 Q54.7188,80.7969 53.8594,81.6719 Q53.0156,82.5469 53.0156,83.8906 L53.0156,84.9844 Q53.0156,86.2656 53.9219,87.0313 Q54.8281,87.7813 56.3594,87.7813 Z " fill="#000000"/><text fill="#000000" font-family="sans-serif" font-size="14" lengthAdjust="spacing" textLength="142" x="71" y="89.6">GenericQueryMessage</text><rect fill="#FFFFFF" height="16.4001" style="stroke:#000000;stroke-width:1.0;stroke-dasharray:2.0,2.0;" width="21" x="221" y="65"/><text fill="#000000" font-family="sans-serif" font-size="12" font-style="italic" lengthAdjust="spacing" textLength="19" x="222" y="78.0001">T,R</text><line style="stroke:#181818;stroke-width:0.5;" x1="43" x2="238" y1="100" y2="100"/><line style="stroke:#181818;stroke-width:0.5;" x1="43" x2="238" y1="108" y2="108"/></g><!--MD5=[d28f94966e52f4faf048527be72e3f26]
class GenericQueryResponseMessage--><g id="elem_GenericQueryResponseMessage"><rect codeLine="48" fill="#F1F1F1" height="48" id="GenericQueryResponseMessage" rx="2.5" ry="2.5" style="stroke:#181818;stroke-width:0.5;" width="235" x="23" y="159"/><ellipse cx="38" cy="175" fill="#ADD1B2" rx="11" ry="11" style="stroke:#181818;stroke-width:1.0;"/><path d="M37.3594,178.7813 Q38.1563,178.7813 38.7188,178.5938 Q39.2969,178.3906 39.5313,178.1719 Q39.7813,177.9375 40.0156,177.75 Q40.2656,177.5469 40.4844,177.5469 Q40.8281,177.5469 41.0781,177.8125 Q41.3438,178.0625 41.3438,178.3906 Q41.3438,179.125 40.1719,179.8125 Q39.0156,180.4844 37.3125,180.4844 Q35.1563,180.4844 33.7344,179.2188 Q32.3125,177.9531 32.3125,176.0156 L32.3125,174.8906 Q32.3125,172.8594 33.6406,171.4844 Q34.9688,170.0938 36.9375,170.0938 Q38.125,170.0938 39.3438,170.6719 L39.5156,170.75 Q39.8125,170.3438 40.2344,170.3438 Q40.7188,170.3438 40.8906,170.6406 Q41.0781,170.9219 41.0781,171.4688 L41.0781,172.8906 Q41.0781,174.0156 40.2344,174.0156 Q39.9219,174.0156 39.7188,173.8438 Q39.5313,173.6719 39.4844,173.5313 Q39.4531,173.375 39.4063,173.1094 Q39.2969,172.5938 38.7813,172.2813 Q38.2656,171.9688 37.8125,171.8906 Q37.375,171.7969 37,171.7969 Q35.7188,171.7969 34.8594,172.6719 Q34.0156,173.5469 34.0156,174.8906 L34.0156,175.9844 Q34.0156,177.2656 34.9219,178.0313 Q35.8281,178.7813 37.3594,178.7813 Z " fill="#000000"/><text fill="#000000" font-family="sans-serif" font-size="14" lengthAdjust="spacing" textLength="203" x="52" y="180.6">GenericQueryResponseMessage</text><line style="stroke:#181818;stroke-width:0.5;" x1="24" x2="257" y1="191" y2="191"/><line style="stroke:#181818;stroke-width:0.5;" x1="24" x2="257" y1="199" y2="199"/></g><!--MD5=[148f36b1e3a5da5da1a825f30cedd68c]
link AbstractMessage to Message--><g id="link_AbstractMessage_Message"><path codeLine="28" d="M767.28,505 C835.67,505 925,505 925,505 C925,505 925,444.72 925,444.72 " fill="none" id="AbstractMessage-to-Message" style="stroke:#181818;stroke-width:1.0;stroke-dasharray:7.0,7.0;"/><polygon fill="none" points="918,444.72,925,424.72,932,444.72,918,444.72" style="stroke:#181818;stroke-width:1.0;"/></g><!--MD5=[ab8081204e433a4199b6f3aa5410cdab]
link MessageDecorator to Message--><g id="link_MessageDecorator_Message"><path codeLine="29" d="M772.67,402.5 C772.67,402.5 829.95,402.5 829.95,402.5 " fill="none" id="MessageDecorator-to-Message" style="stroke:#181818;stroke-width:1.0;stroke-dasharray:7.0,7.0;"/><polygon fill="none" points="829.95,395.5,849.95,402.5,829.95,409.5,829.95,395.5" style="stroke:#181818;stroke-width:1.0;"/></g><!--MD5=[a7ef1d70d087ca7624077f2a392b9422]
link ResultMessage to Message--><g id="link_ResultMessage_Message"><path codeLine="30" d="M790.08,327.25 C790.08,327.25 829.83,327.25 829.83,327.25 " fill="none" id="ResultMessage-to-Message" style="stroke:#181818;stroke-width:1.0;"/><polygon fill="none" points="829.83,320.25,849.83,327.25,829.83,334.25,829.83,320.25" style="stroke:#181818;stroke-width:1.0;"/></g><!--MD5=[8084e1e7fa83c586545729d93e06d069]
link GenericMessage to AbstractMessage--><g id="link_GenericMessage_AbstractMessage"><path codeLine="31" d="M498.24,505 C498.24,505 593.83,505 593.83,505 " fill="none" id="GenericMessage-to-AbstractMessage" style="stroke:#181818;stroke-width:1.0;"/><polygon fill="none" points="593.83,498,613.83,505,593.83,512,593.83,498" style="stroke:#181818;stroke-width:1.0;"/></g><!--MD5=[f0cfd282eaebdac430a27fa24c2e7e17]
link GenericResultMessage to ResultMessage--><g id="link_GenericResultMessage_ResultMessage"><path codeLine="32" d="M517.53,329 C517.53,329 570.73,329 570.73,329 " fill="none" id="GenericResultMessage-to-ResultMessage" style="stroke:#181818;stroke-width:1.0;stroke-dasharray:7.0,7.0;"/><polygon fill="none" points="570.73,322,590.73,329,570.73,336,570.73,322" style="stroke:#181818;stroke-width:1.0;"/></g><!--MD5=[80928bf1c9262786d79074661bc8463f]
link QueryMessage to Message--><g id="link_QueryMessage_Message"><path codeLine="52" d="M531.26,83 C678.25,83 925,83 925,83 C925,83 925,289.19 925,289.19 " fill="none" id="QueryMessage-to-Message" style="stroke:#181818;stroke-width:1.0;"/><polygon fill="none" points="932,289.19,925,309.19,918,289.19,932,289.19" style="stroke:#181818;stroke-width:1.0;"/></g><!--MD5=[a90e02b31b5977bf0b1d447a72d1d76c]
link GenericQueryMessage to QueryMessage--><g id="link_GenericQueryMessage_QueryMessage"><path codeLine="53" d="M239.03,84 C239.03,84 297.91,84 297.91,84 " fill="none" id="GenericQueryMessage-to-QueryMessage" style="stroke:#181818;stroke-width:1.0;stroke-dasharray:7.0,7.0;"/><polygon fill="none" points="297.91,77,317.91,84,297.91,91,297.91,77" style="stroke:#181818;stroke-width:1.0;"/></g><!--MD5=[4eb6acf71e4ebdb0ddf102b9102085df]
link GenericQueryMessage to MessageDecorator--><g id="link_GenericQueryMessage_MessageDecorator"><path codeLine="54" d="M239.29,100 C266.16,100 288,100 288,100 C288,100 288,413 288,413 C288,413 588.08,413 588.08,413 " fill="none" id="GenericQueryMessage-to-MessageDecorator" style="stroke:#181818;stroke-width:1.0;"/><polygon fill="none" points="588.08,406,608.08,413,588.08,420,588.08,406" style="stroke:#181818;stroke-width:1.0;"/></g><!--MD5=[078e071c9a428b34a368b4379f2cf91a]
link QueryResponseMessage to ResultMessage--><g id="link_QueryResponseMessage_ResultMessage"><path codeLine="55" d="M522,207.09 C522,238.09 522,288 522,288 C522,288 570.54,288 570.54,288 " fill="none" id="QueryResponseMessage-to-ResultMessage" style="stroke:#181818;stroke-width:1.0;"/><polygon fill="none" points="570.54,281,590.54,288,570.54,295,570.54,281" style="stroke:#181818;stroke-width:1.0;"/></g><!--MD5=[439dc823a70ce58805555af08b81b207]
link GenericQueryResponseMessage to QueryResponseMessage--><g id="link_GenericQueryResponseMessage_QueryResponseMessage"><path codeLine="56" d="M258.06,183 C258.06,183 302.42,183 302.42,183 " fill="none" id="GenericQueryResponseMessage-to-QueryResponseMessage" style="stroke:#181818;stroke-width:1.0;stroke-dasharray:7.0,7.0;"/><polygon fill="none" points="302.42,176,322.42,183,302.42,190,302.42,176" style="stroke:#181818;stroke-width:1.0;"/></g><!--MD5=[b0e88f0991443deeaacfcfaa978f9851]
link GenericQueryResponseMessage to GenericResultMessage--><g id="link_GenericQueryResponseMessage_GenericResultMessage"><path codeLine="57" d="M141,207.06 C141,250.38 141,337 141,337 C141,337 311.28,337 311.28,337 " fill="none" id="GenericQueryResponseMessage-to-GenericResultMessage" style="stroke:#181818;stroke-width:1.0;"/><polygon fill="none" points="311.28,330,331.28,337,311.28,344,311.28,330" style="stroke:#181818;stroke-width:1.0;"/></g><!--MD5=[1000860f11f0016a04a8b5140581b9a3]
@startuml
skinparam linetype ortho
left to right direction

together {

  interface Message{
    -identifier: String
    -payloadType: Class
    -payload: Object
    -metdata:  MetaData
  }

  interface ResultMessage<R> {
    -exceptional: boolean
    -exceptionDetails: Throwable
  }

  abstract AbstractMessage<T> {}
  class GenericMessage<T> {}
  class GenericResultMessage<T>

  abstract MessageDecorator<T> {
    -delegate: Message
  }
}


AbstractMessage ..|> Message
MessageDecorator ..|> Message
ResultMessage - -|> Message
GenericMessage - -|> AbstractMessage
GenericResultMessage ..|> ResultMessage

' This is a fragment of a diagram
' It is meant to be used together with generic_messaging_classes.puml

package "query messages" <<Rectangle>> {

  interface QueryMessage<T,R> {
   	-queryName: String
   	-responseType: ResponseType
  }

  interface QueryResponseMessage<T> {}

  class GenericQueryMessage<T,R> {}

  class GenericQueryResponseMessage{}

}

QueryMessage - -|> Message
GenericQueryMessage ..|> QueryMessage
GenericQueryMessage - -|> MessageDecorator
QueryResponseMessage - -|> ResultMessage
GenericQueryResponseMessage ..|> QueryResponseMessage
GenericQueryResponseMessage - -|> GenericResultMessage
@enduml

@startuml
skinparam linetype ortho
left to right direction

together {

  interface Message{
    -identifier: String
    -payloadType: Class
    -payload: Object
    -metdata:  MetaData
  }

  interface ResultMessage<R> {
    -exceptional: boolean
    -exceptionDetails: Throwable
  }

  abstract AbstractMessage<T> {}
  class GenericMessage<T> {}
  class GenericResultMessage<T>

  abstract MessageDecorator<T> {
    -delegate: Message
  }
}


AbstractMessage ..|> Message
MessageDecorator ..|> Message
ResultMessage - -|> Message
GenericMessage - -|> AbstractMessage
GenericResultMessage ..|> ResultMessage


package "query messages" <<Rectangle>> {

  interface QueryMessage<T,R> {
   	-queryName: String
   	-responseType: ResponseType
  }

  interface QueryResponseMessage<T> {}

  class GenericQueryMessage<T,R> {}

  class GenericQueryResponseMessage{}

}

QueryMessage - -|> Message
GenericQueryMessage ..|> QueryMessage
GenericQueryMessage - -|> MessageDecorator
QueryResponseMessage - -|> ResultMessage
GenericQueryResponseMessage ..|> QueryResponseMessage
GenericQueryResponseMessage - -|> GenericResultMessage
@enduml

PlantUML version 1.2022.5(Sat Apr 30 10:55:52 GMT 2022)
(GPL source distribution)
Java Runtime: OpenJDK Runtime Environment
JVM: OpenJDK 64-Bit Server VM
Default Encoding: UTF-8
Language: en
Country: US
--></g></svg>