<?xml version="1.0" encoding="UTF-8" standalone="no"?><svg xmlns="http://www.w3.org/2000/svg" xmlns:xlink="http://www.w3.org/1999/xlink" contentStyleType="text/css" height="439px" preserveAspectRatio="none" style="width:682px;height:439px;background:#FFFFFF;" version="1.1" viewBox="0 0 682 439" width="682px" zoomAndPan="magnify"><defs/><g><!--MD5=[77eef1ee20c3140000349aa66956edb5]
cluster event messages--><g id="cluster_event messages"><rect height="117" rx="2.5" ry="2.5" style="stroke:#181818;stroke-width:1.0;fill:none;" width="445.5" x="7" y="316"/><text fill="#000000" font-family="sans-serif" font-size="14" font-weight="bold" lengthAdjust="spacing" textLength="112" x="173.75" y="331.9999">event messages</text></g><!--MD5=[bea5b0d46523efab5ea1c1d339f396f0]
class Message--><g id="elem_Message"><rect codeLine="6" fill="#F1F1F1" height="115.1997" id="Message" rx="2.5" ry="2.5" style="stroke:#181818;stroke-width:0.5;" width="149" x="526" y="118.5"/><ellipse cx="567.55" cy="134.5" fill="#B4A7E5" rx="11" ry="11" style="stroke:#181818;stroke-width:1.0;"/><path d="M570.2219,137.7969 Q570.7688,137.7969 571.05,137.9844 Q571.3313,138.1563 571.3313,138.6563 Q571.3313,139.5 570.2219,139.5 L565.0813,139.5 Q563.9563,139.5 563.9563,138.6563 Q563.9563,138.1563 564.2375,137.9844 Q564.5344,137.7969 565.0813,137.7969 L566.8,137.7969 L566.8,131.2813 L565.0813,131.2813 Q563.9563,131.2813 563.9563,130.4375 Q563.9563,129.9531 564.2375,129.7813 Q564.5344,129.5938 565.0813,129.5938 L570.2219,129.5938 Q570.7688,129.5938 571.05,129.7813 Q571.3313,129.9531 571.3313,130.4375 Q571.3313,131.2813 570.2219,131.2813 L568.5031,131.2813 L568.5031,137.7969 L570.2219,137.7969 Z " fill="#000000"/><text fill="#000000" font-family="sans-serif" font-size="14" font-style="italic" lengthAdjust="spacing" textLength="58" x="587.45" y="140.1">Message</text><line style="stroke:#181818;stroke-width:0.5;" x1="527" x2="674" y1="150.5" y2="150.5"/><rect fill="none" height="6" style="stroke:#C82930;stroke-width:1.0;" width="6" x="534" y="158.5"/><text fill="#000000" font-family="sans-serif" font-size="14" lengthAdjust="spacing" textLength="97" x="546" y="168.4999">identifier: String</text><rect fill="none" height="6" style="stroke:#C82930;stroke-width:1.0;" width="6" x="534" y="175.2999"/><text fill="#000000" font-family="sans-serif" font-size="14" lengthAdjust="spacing" textLength="123" x="546" y="185.2999">payloadType: Class</text><rect fill="none" height="6" style="stroke:#C82930;stroke-width:1.0;" width="6" x="534" y="192.0999"/><text fill="#000000" font-family="sans-serif" font-size="14" lengthAdjust="spacing" textLength="97" x="546" y="202.0998">payload: Object</text><rect fill="none" height="6" style="stroke:#C82930;stroke-width:1.0;" width="6" x="534" y="208.8998"/><text fill="#000000" font-family="sans-serif" font-size="14" lengthAdjust="spacing" textLength="123" x="546" y="218.8997">metdata:  MetaData</text><line style="stroke:#181818;stroke-width:0.5;" x1="527" x2="674" y1="225.6997" y2="225.6997"/></g><!--MD5=[323a98366024ad6e4b4b358bd0099e7a]
class ResultMessage--><g id="elem_ResultMessage"><rect codeLine="13" fill="#F1F1F1" height="81.5999" id="ResultMessage" rx="2.5" ry="2.5" style="stroke:#181818;stroke-width:0.5;" width="199" x="267" y="93"/><ellipse cx="307.2" cy="109" fill="#B4A7E5" rx="11" ry="11" style="stroke:#181818;stroke-width:1.0;"/><path d="M309.8719,112.2969 Q310.4188,112.2969 310.7,112.4844 Q310.9813,112.6563 310.9813,113.1563 Q310.9813,114 309.8719,114 L304.7313,114 Q303.6063,114 303.6063,113.1563 Q303.6063,112.6563 303.8875,112.4844 Q304.1844,112.2969 304.7313,112.2969 L306.45,112.2969 L306.45,105.7813 L304.7313,105.7813 Q303.6063,105.7813 303.6063,104.9375 Q303.6063,104.4531 303.8875,104.2813 Q304.1844,104.0938 304.7313,104.0938 L309.8719,104.0938 Q310.4188,104.0938 310.7,104.2813 Q310.9813,104.4531 310.9813,104.9375 Q310.9813,105.7813 309.8719,105.7813 L308.1531,105.7813 L308.1531,112.2969 L309.8719,112.2969 Z " fill="#000000"/><text fill="#000000" font-family="sans-serif" font-size="14" font-style="italic" lengthAdjust="spacing" textLength="98" x="326.8" y="114.6">ResultMessage</text><rect fill="#FFFFFF" height="16.4001" style="stroke:#000000;stroke-width:1.0;stroke-dasharray:2.0,2.0;" width="11" x="458" y="90"/><text fill="#000000" font-family="sans-serif" font-size="12" font-style="italic" lengthAdjust="spacing" textLength="9" x="459" y="103.0001">R</text><line style="stroke:#181818;stroke-width:0.5;" x1="268" x2="465" y1="125" y2="125"/><rect fill="none" height="6" style="stroke:#C82930;stroke-width:1.0;" width="6" x="275" y="133"/><text fill="#000000" font-family="sans-serif" font-size="14" lengthAdjust="spacing" textLength="125" x="287" y="142.9999">exceptional: boolean</text><rect fill="none" height="6" style="stroke:#C82930;stroke-width:1.0;" width="6" x="275" y="149.7999"/><text fill="#000000" font-family="sans-serif" font-size="14" lengthAdjust="spacing" textLength="173" x="287" y="159.7999">exceptionDetails: Throwable</text><line style="stroke:#181818;stroke-width:0.5;" x1="268" x2="465" y1="166.5999" y2="166.5999"/></g><!--MD5=[fc553d02c147fb34d8aff23066369596]
class AbstractMessage--><g id="elem_AbstractMessage"><rect codeLine="18" fill="#F1F1F1" height="48" id="AbstractMessage" rx="2.5" ry="2.5" style="stroke:#181818;stroke-width:0.5;" width="153" x="290" y="10"/><ellipse cx="305" cy="26" fill="#A9DCDF" rx="11" ry="11" style="stroke:#181818;stroke-width:1.0;"/><path d="M305.9531,29.6563 Q305.9531,29.1563 306.2344,28.9844 Q306.5313,28.7969 307.0781,28.7969 L307.4688,28.7969 L307.0781,27.8125 L303.0313,27.8125 L302.6406,28.7969 L303.0313,28.7969 Q304.1406,28.7969 304.1406,29.6563 Q304.1406,30.5 303.0313,30.5 L300.7656,30.5 Q299.6406,30.5 299.6406,29.6563 Q299.6406,29.1406 299.9375,28.9688 Q300.2344,28.7969 300.7813,28.7969 L303.4219,22.2813 L302.3438,22.2813 Q301.2031,22.2813 301.2031,21.4375 Q301.2031,20.9219 301.5,20.7656 Q301.7969,20.5938 302.3438,20.5938 L306.0156,20.5938 L309.4063,28.7969 Q310.5625,28.7969 310.5625,29.6563 Q310.5625,30.5 309.4375,30.5 L307.0781,30.5 Q305.9531,30.5 305.9531,29.6563 Z M306.375,26.1094 L305.0469,22.8438 L303.7031,26.1094 L306.375,26.1094 Z " fill="#000000"/><text fill="#000000" font-family="sans-serif" font-size="14" font-style="italic" lengthAdjust="spacing" textLength="110" x="319" y="31.6">AbstractMessage</text><rect fill="#FFFFFF" height="16.4001" style="stroke:#000000;stroke-width:1.0;stroke-dasharray:2.0,2.0;" width="9" x="437" y="7"/><text fill="#000000" font-family="sans-serif" font-size="12" font-style="italic" lengthAdjust="spacing" textLength="7" x="438" y="20.0001">T</text><line style="stroke:#181818;stroke-width:0.5;" x1="291" x2="442" y1="42" y2="42"/><line style="stroke:#181818;stroke-width:0.5;" x1="291" x2="442" y1="50" y2="50"/></g><!--MD5=[fadd0f832754c5c424dc290238afd56d]
class GenericMessage--><g id="elem_GenericMessage"><rect codeLine="19" fill="#F1F1F1" height="48" id="GenericMessage" rx="2.5" ry="2.5" style="stroke:#181818;stroke-width:0.5;" width="147" x="40.5" y="10"/><ellipse cx="55.5" cy="26" fill="#ADD1B2" rx="11" ry="11" style="stroke:#181818;stroke-width:1.0;"/><path d="M54.8594,29.7813 Q55.6563,29.7813 56.2188,29.5938 Q56.7969,29.3906 57.0313,29.1719 Q57.2813,28.9375 57.5156,28.75 Q57.7656,28.5469 57.9844,28.5469 Q58.3281,28.5469 58.5781,28.8125 Q58.8438,29.0625 58.8438,29.3906 Q58.8438,30.125 57.6719,30.8125 Q56.5156,31.4844 54.8125,31.4844 Q52.6563,31.4844 51.2344,30.2188 Q49.8125,28.9531 49.8125,27.0156 L49.8125,25.8906 Q49.8125,23.8594 51.1406,22.4844 Q52.4688,21.0938 54.4375,21.0938 Q55.625,21.0938 56.8438,21.6719 L57.0156,21.75 Q57.3125,21.3438 57.7344,21.3438 Q58.2188,21.3438 58.3906,21.6406 Q58.5781,21.9219 58.5781,22.4688 L58.5781,23.8906 Q58.5781,25.0156 57.7344,25.0156 Q57.4219,25.0156 57.2188,24.8438 Q57.0313,24.6719 56.9844,24.5313 Q56.9531,24.375 56.9063,24.1094 Q56.7969,23.5938 56.2813,23.2813 Q55.7656,22.9688 55.3125,22.8906 Q54.875,22.7969 54.5,22.7969 Q53.2188,22.7969 52.3594,23.6719 Q51.5156,24.5469 51.5156,25.8906 L51.5156,26.9844 Q51.5156,28.2656 52.4219,29.0313 Q53.3281,29.7813 54.8594,29.7813 Z " fill="#000000"/><text fill="#000000" font-family="sans-serif" font-size="14" lengthAdjust="spacing" textLength="104" x="69.5" y="31.6">GenericMessage</text><rect fill="#FFFFFF" height="16.4001" style="stroke:#000000;stroke-width:1.0;stroke-dasharray:2.0,2.0;" width="9" x="181.5" y="7"/><text fill="#000000" font-family="sans-serif" font-size="12" font-style="italic" lengthAdjust="spacing" textLength="7" x="182.5" y="20.0001">T</text><line style="stroke:#181818;stroke-width:0.5;" x1="41.5" x2="186.5" y1="42" y2="42"/><line style="stroke:#181818;stroke-width:0.5;" x1="41.5" x2="186.5" y1="50" y2="50"/></g><!--MD5=[968b2d173d43a39003603e0aa91254bc]
class GenericResultMessage--><g id="elem_GenericResultMessage"><rect codeLine="20" fill="#F1F1F1" height="48" id="GenericResultMessage" rx="2.5" ry="2.5" style="stroke:#181818;stroke-width:0.5;" width="186" x="21" y="110"/><ellipse cx="36" cy="126" fill="#ADD1B2" rx="11" ry="11" style="stroke:#181818;stroke-width:1.0;"/><path d="M35.3594,129.7813 Q36.1563,129.7813 36.7188,129.5938 Q37.2969,129.3906 37.5313,129.1719 Q37.7813,128.9375 38.0156,128.75 Q38.2656,128.5469 38.4844,128.5469 Q38.8281,128.5469 39.0781,128.8125 Q39.3438,129.0625 39.3438,129.3906 Q39.3438,130.125 38.1719,130.8125 Q37.0156,131.4844 35.3125,131.4844 Q33.1563,131.4844 31.7344,130.2188 Q30.3125,128.9531 30.3125,127.0156 L30.3125,125.8906 Q30.3125,123.8594 31.6406,122.4844 Q32.9688,121.0938 34.9375,121.0938 Q36.125,121.0938 37.3438,121.6719 L37.5156,121.75 Q37.8125,121.3438 38.2344,121.3438 Q38.7188,121.3438 38.8906,121.6406 Q39.0781,121.9219 39.0781,122.4688 L39.0781,123.8906 Q39.0781,125.0156 38.2344,125.0156 Q37.9219,125.0156 37.7188,124.8438 Q37.5313,124.6719 37.4844,124.5313 Q37.4531,124.375 37.4063,124.1094 Q37.2969,123.5938 36.7813,123.2813 Q36.2656,122.9688 35.8125,122.8906 Q35.375,122.7969 35,122.7969 Q33.7188,122.7969 32.8594,123.6719 Q32.0156,124.5469 32.0156,125.8906 L32.0156,126.9844 Q32.0156,128.2656 32.9219,129.0313 Q33.8281,129.7813 35.3594,129.7813 Z " fill="#000000"/><text fill="#000000" font-family="sans-serif" font-size="14" lengthAdjust="spacing" textLength="143" x="50" y="131.6">GenericResultMessage</text><rect fill="#FFFFFF" height="16.4001" style="stroke:#000000;stroke-width:1.0;stroke-dasharray:2.0,2.0;" width="9" x="201" y="107"/><text fill="#000000" font-family="sans-serif" font-size="12" font-style="italic" lengthAdjust="spacing" textLength="7" x="202" y="120.0001">T</text><line style="stroke:#181818;stroke-width:0.5;" x1="22" x2="206" y1="142" y2="142"/><line style="stroke:#181818;stroke-width:0.5;" x1="22" x2="206" y1="150" y2="150"/></g><!--MD5=[d827f8e687d7c88150fefea8cd54028a]
class MessageDecorator--><g id="elem_MessageDecorator"><rect codeLine="22" fill="#F1F1F1" height="64.7999" id="MessageDecorator" rx="2.5" ry="2.5" style="stroke:#181818;stroke-width:0.5;" width="164" x="284.5" y="210.5"/><ellipse cx="299.5" cy="226.5" fill="#A9DCDF" rx="11" ry="11" style="stroke:#181818;stroke-width:1.0;"/><path d="M300.4531,230.1563 Q300.4531,229.6563 300.7344,229.4844 Q301.0313,229.2969 301.5781,229.2969 L301.9688,229.2969 L301.5781,228.3125 L297.5313,228.3125 L297.1406,229.2969 L297.5313,229.2969 Q298.6406,229.2969 298.6406,230.1563 Q298.6406,231 297.5313,231 L295.2656,231 Q294.1406,231 294.1406,230.1563 Q294.1406,229.6406 294.4375,229.4688 Q294.7344,229.2969 295.2813,229.2969 L297.9219,222.7813 L296.8438,222.7813 Q295.7031,222.7813 295.7031,221.9375 Q295.7031,221.4219 296,221.2656 Q296.2969,221.0938 296.8438,221.0938 L300.5156,221.0938 L303.9063,229.2969 Q305.0625,229.2969 305.0625,230.1563 Q305.0625,231 303.9375,231 L301.5781,231 Q300.4531,231 300.4531,230.1563 Z M300.875,226.6094 L299.5469,223.3438 L298.2031,226.6094 L300.875,226.6094 Z " fill="#000000"/><text fill="#000000" font-family="sans-serif" font-size="14" font-style="italic" lengthAdjust="spacing" textLength="121" x="313.5" y="232.1">MessageDecorator</text><rect fill="#FFFFFF" height="16.4001" style="stroke:#000000;stroke-width:1.0;stroke-dasharray:2.0,2.0;" width="9" x="442.5" y="207.5"/><text fill="#000000" font-family="sans-serif" font-size="12" font-style="italic" lengthAdjust="spacing" textLength="7" x="443.5" y="220.5001">T</text><line style="stroke:#181818;stroke-width:0.5;" x1="285.5" x2="447.5" y1="242.5" y2="242.5"/><rect fill="none" height="6" style="stroke:#C82930;stroke-width:1.0;" width="6" x="292.5" y="250.5"/><text fill="#000000" font-family="sans-serif" font-size="14" lengthAdjust="spacing" textLength="116" x="304.5" y="260.4999">delegate: Message</text><line style="stroke:#181818;stroke-width:0.5;" x1="285.5" x2="447.5" y1="267.2999" y2="267.2999"/></g><!--MD5=[104f2f094cc2f2154ee4b6fda04512df]
class EventMessage--><g id="elem_EventMessage"><rect codeLine="39" fill="#F1F1F1" height="64.7999" id="EventMessage" rx="2.5" ry="2.5" style="stroke:#181818;stroke-width:0.5;" width="140" x="296.5" y="351.5"/><ellipse cx="312.85" cy="367.5" fill="#B4A7E5" rx="11" ry="11" style="stroke:#181818;stroke-width:1.0;"/><path d="M315.5219,370.7969 Q316.0688,370.7969 316.35,370.9844 Q316.6313,371.1563 316.6313,371.6563 Q316.6313,372.5 315.5219,372.5 L310.3813,372.5 Q309.2563,372.5 309.2563,371.6563 Q309.2563,371.1563 309.5375,370.9844 Q309.8344,370.7969 310.3813,370.7969 L312.1,370.7969 L312.1,364.2813 L310.3813,364.2813 Q309.2563,364.2813 309.2563,363.4375 Q309.2563,362.9531 309.5375,362.7813 Q309.8344,362.5938 310.3813,362.5938 L315.5219,362.5938 Q316.0688,362.5938 316.35,362.7813 Q316.6313,362.9531 316.6313,363.4375 Q316.6313,364.2813 315.5219,364.2813 L313.8031,364.2813 L313.8031,370.7969 L315.5219,370.7969 Z " fill="#000000"/><text fill="#000000" font-family="sans-serif" font-size="14" font-style="italic" lengthAdjust="spacing" textLength="94" x="327.15" y="373.1">EventMessage</text><rect fill="#FFFFFF" height="16.4001" style="stroke:#000000;stroke-width:1.0;stroke-dasharray:2.0,2.0;" width="9" x="430.5" y="348.5"/><text fill="#000000" font-family="sans-serif" font-size="12" font-style="italic" lengthAdjust="spacing" textLength="7" x="431.5" y="361.5001">T</text><line style="stroke:#181818;stroke-width:0.5;" x1="297.5" x2="435.5" y1="383.5" y2="383.5"/><rect fill="none" height="6" style="stroke:#C82930;stroke-width:1.0;" width="6" x="304.5" y="391.5"/><text fill="#000000" font-family="sans-serif" font-size="14" lengthAdjust="spacing" textLength="114" x="316.5" y="401.4999">timestamp: Instant</text><line style="stroke:#181818;stroke-width:0.5;" x1="297.5" x2="435.5" y1="408.2999" y2="408.2999"/></g><!--MD5=[2813c1b7b230612ebc8459cb0360d2d3]
class GenericEventMessage--><g id="elem_GenericEventMessage"><rect codeLine="43" fill="#F1F1F1" height="48" id="GenericEventMessage" rx="2.5" ry="2.5" style="stroke:#181818;stroke-width:0.5;" width="182" x="23" y="356"/><ellipse cx="38" cy="372" fill="#ADD1B2" rx="11" ry="11" style="stroke:#181818;stroke-width:1.0;"/><path d="M37.3594,375.7813 Q38.1563,375.7813 38.7188,375.5938 Q39.2969,375.3906 39.5313,375.1719 Q39.7813,374.9375 40.0156,374.75 Q40.2656,374.5469 40.4844,374.5469 Q40.8281,374.5469 41.0781,374.8125 Q41.3438,375.0625 41.3438,375.3906 Q41.3438,376.125 40.1719,376.8125 Q39.0156,377.4844 37.3125,377.4844 Q35.1563,377.4844 33.7344,376.2188 Q32.3125,374.9531 32.3125,373.0156 L32.3125,371.8906 Q32.3125,369.8594 33.6406,368.4844 Q34.9688,367.0938 36.9375,367.0938 Q38.125,367.0938 39.3438,367.6719 L39.5156,367.75 Q39.8125,367.3438 40.2344,367.3438 Q40.7188,367.3438 40.8906,367.6406 Q41.0781,367.9219 41.0781,368.4688 L41.0781,369.8906 Q41.0781,371.0156 40.2344,371.0156 Q39.9219,371.0156 39.7188,370.8438 Q39.5313,370.6719 39.4844,370.5313 Q39.4531,370.375 39.4063,370.1094 Q39.2969,369.5938 38.7813,369.2813 Q38.2656,368.9688 37.8125,368.8906 Q37.375,368.7969 37,368.7969 Q35.7188,368.7969 34.8594,369.6719 Q34.0156,370.5469 34.0156,371.8906 L34.0156,372.9844 Q34.0156,374.2656 34.9219,375.0313 Q35.8281,375.7813 37.3594,375.7813 Z " fill="#000000"/><text fill="#000000" font-family="sans-serif" font-size="14" lengthAdjust="spacing" textLength="139" x="52" y="377.6">GenericEventMessage</text><rect fill="#FFFFFF" height="16.4001" style="stroke:#000000;stroke-width:1.0;stroke-dasharray:2.0,2.0;" width="9" x="199" y="353"/><text fill="#000000" font-family="sans-serif" font-size="12" font-style="italic" lengthAdjust="spacing" textLength="7" x="200" y="366.0001">T</text><line style="stroke:#181818;stroke-width:0.5;" x1="24" x2="204" y1="388" y2="388"/><line style="stroke:#181818;stroke-width:0.5;" x1="24" x2="204" y1="396" y2="396"/></g><!--MD5=[148f36b1e3a5da5da1a825f30cedd68c]
link AbstractMessage to Message--><g id="link_AbstractMessage_Message"><path codeLine="28" d="M443.28,34 C511.67,34 601,34 601,34 C601,34 601,98.24 601,98.24 " fill="none" id="AbstractMessage-to-Message" style="stroke:#181818;stroke-width:1.0;stroke-dasharray:7.0,7.0;"/><polygon fill="none" points="608,98.24,601,118.24,594,98.24,608,98.24" style="stroke:#181818;stroke-width:1.0;"/></g><!--MD5=[ab8081204e433a4199b6f3aa5410cdab]
link MessageDecorator to Message--><g id="link_MessageDecorator_Message"><path codeLine="29" d="M448.67,222 C448.67,222 505.95,222 505.95,222 " fill="none" id="MessageDecorator-to-Message" style="stroke:#181818;stroke-width:1.0;stroke-dasharray:7.0,7.0;"/><polygon fill="none" points="505.95,215,525.95,222,505.95,229,505.95,215" style="stroke:#181818;stroke-width:1.0;"/></g><!--MD5=[a7ef1d70d087ca7624077f2a392b9422]
link ResultMessage to Message--><g id="link_ResultMessage_Message"><path codeLine="30" d="M466.08,146.75 C466.08,146.75 505.83,146.75 505.83,146.75 " fill="none" id="ResultMessage-to-Message" style="stroke:#181818;stroke-width:1.0;"/><polygon fill="none" points="505.83,139.75,525.83,146.75,505.83,153.75,505.83,139.75" style="stroke:#181818;stroke-width:1.0;"/></g><!--MD5=[8084e1e7fa83c586545729d93e06d069]
link GenericMessage to AbstractMessage--><g id="link_GenericMessage_AbstractMessage"><path codeLine="31" d="M187.71,34 C187.71,34 269.62,34 269.62,34 " fill="none" id="GenericMessage-to-AbstractMessage" style="stroke:#181818;stroke-width:1.0;"/><polygon fill="none" points="269.62,27,289.62,34,269.62,41,269.62,27" style="stroke:#181818;stroke-width:1.0;"/></g><!--MD5=[f0cfd282eaebdac430a27fa24c2e7e17]
link GenericResultMessage to ResultMessage--><g id="link_GenericResultMessage_ResultMessage"><path codeLine="32" d="M207.3,134 C207.3,134 246.8,134 246.8,134 " fill="none" id="GenericResultMessage-to-ResultMessage" style="stroke:#181818;stroke-width:1.0;stroke-dasharray:7.0,7.0;"/><polygon fill="none" points="246.8,127,266.8,134,246.8,141,246.8,127" style="stroke:#181818;stroke-width:1.0;"/></g><!--MD5=[134abe5bde006e05272d3117b8fd557f]
link EventMessage to Message--><g id="link_EventMessage_Message"><path codeLine="47" d="M436.54,384 C505.64,384 601,384 601,384 C601,384 601,253.66 601,253.66 " fill="none" id="EventMessage-to-Message" style="stroke:#181818;stroke-width:1.0;"/><polygon fill="none" points="594,253.66,601,233.66,608,253.66,594,253.66" style="stroke:#181818;stroke-width:1.0;"/></g><!--MD5=[b9e80fada70aa11723e4d94a60b81bf5]
link GenericEventMessage to EventMessage--><g id="link_GenericEventMessage_EventMessage"><path codeLine="48" d="M205.16,388 C205.16,388 276.48,388 276.48,388 " fill="none" id="GenericEventMessage-to-EventMessage" style="stroke:#181818;stroke-width:1.0;stroke-dasharray:7.0,7.0;"/><polygon fill="none" points="276.48,381,296.48,388,276.48,395,276.48,381" style="stroke:#181818;stroke-width:1.0;"/></g><!--MD5=[656ee3e2e6e24669eca73f57f076b81d]
link GenericEventMessage to MessageDecorator--><g id="link_GenericEventMessage_MessageDecorator"><path codeLine="49" d="M205.09,372 C248.46,372 291,372 291,372 C291,372 291,295.55 291,295.55 " fill="none" id="GenericEventMessage-to-MessageDecorator" style="stroke:#181818;stroke-width:1.0;"/><polygon fill="none" points="284,295.55,291,275.55,298,295.55,284,295.55" style="stroke:#181818;stroke-width:1.0;"/></g><!--MD5=[53c99818a0a04702dafed86155842ce8]
@startuml
skinparam linetype ortho
left to right direction

together {

  interface Message{
    -identifier: String
    -payloadType: Class
    -payload: Object
    -metdata:  MetaData
  }

  interface ResultMessage<R> {
    -exceptional: boolean
    -exceptionDetails: Throwable
  }

  abstract AbstractMessage<T> {}
  class GenericMessage<T> {}
  class GenericResultMessage<T>

  abstract MessageDecorator<T> {
    -delegate: Message
  }
}


AbstractMessage ..|> Message
MessageDecorator ..|> Message
ResultMessage - -|> Message
GenericMessage - -|> AbstractMessage
GenericResultMessage ..|> ResultMessage

' This is a fragment of a diagram
' It is meant to be used together with generic_messaging_classes.puml

package "event messages" <<Rectangle>> {

  interface EventMessage<T> {
    -timestamp: Instant
  }

  class GenericEventMessage<T> {}

}

EventMessage - -|> Message
GenericEventMessage ..|> EventMessage
GenericEventMessage - -|> MessageDecorator
@enduml

@startuml
skinparam linetype ortho
left to right direction

together {

  interface Message{
    -identifier: String
    -payloadType: Class
    -payload: Object
    -metdata:  MetaData
  }

  interface ResultMessage<R> {
    -exceptional: boolean
    -exceptionDetails: Throwable
  }

  abstract AbstractMessage<T> {}
  class GenericMessage<T> {}
  class GenericResultMessage<T>

  abstract MessageDecorator<T> {
    -delegate: Message
  }
}


AbstractMessage ..|> Message
MessageDecorator ..|> Message
ResultMessage - -|> Message
GenericMessage - -|> AbstractMessage
GenericResultMessage ..|> ResultMessage


package "event messages" <<Rectangle>> {

  interface EventMessage<T> {
    -timestamp: Instant
  }

  class GenericEventMessage<T> {}

}

EventMessage - -|> Message
GenericEventMessage ..|> EventMessage
GenericEventMessage - -|> MessageDecorator
@enduml

PlantUML version 1.2022.5(Sat Apr 30 10:55:52 GMT 2022)
(GPL source distribution)
Java Runtime: OpenJDK Runtime Environment
JVM: OpenJDK 64-Bit Server VM
Default Encoding: UTF-8
Language: en
Country: US
--></g></svg>