<?xml version="1.0" encoding="UTF-8" standalone="no"?><svg xmlns="http://www.w3.org/2000/svg" xmlns:xlink="http://www.w3.org/1999/xlink" contentStyleType="text/css" height="435px" preserveAspectRatio="none" style="width:735px;height:435px;background:#FFFFFF;" version="1.1" viewBox="0 0 735 435" width="735px" zoomAndPan="magnify"><defs/><g><!--MD5=[77eef1ee20c3140000349aa66956edb5]
cluster event messages--><g id="cluster_event messages"><rect fill="none" height="115" rx="2.5" ry="2.5" style="stroke:#181818;stroke-width:1.0;" width="482" x="7" y="314"/><text fill="#000000" font-family="sans-serif" font-size="14" font-weight="bold" lengthAdjust="spacing" textLength="130" x="183" y="328.9951">event messages</text></g><!--MD5=[bea5b0d46523efab5ea1c1d339f396f0]
class Message--><g id="elem_Message"><rect codeLine="6" fill="#F1F1F1" height="113.1875" id="Message" rx="2.5" ry="2.5" style="stroke:#181818;stroke-width:0.5;" width="162" x="566.5" y="119.5"/><ellipse cx="612.75" cy="135.5" fill="#B4A7E5" rx="11" ry="11" style="stroke:#181818;stroke-width:1.0;"/><path d="M608.6719,131.2656 L608.6719,129.1094 L616.0625,129.1094 L616.0625,131.2656 L613.5938,131.2656 L613.5938,139.3438 L616.0625,139.3438 L616.0625,141.5 L608.6719,141.5 L608.6719,139.3438 L611.1406,139.3438 L611.1406,131.2656 L608.6719,131.2656 Z " fill="#000000"/><text fill="#000000" font-family="sans-serif" font-size="14" font-style="italic" lengthAdjust="spacing" textLength="61" x="633.25" y="140.3467">Message</text><line style="stroke:#181818;stroke-width:0.5;" x1="567.5" x2="727.5" y1="151.5" y2="151.5"/><rect fill="none" height="6" style="stroke:#C82930;stroke-width:1.0;" width="6" x="574.5" y="162.1484"/><text fill="#000000" font-family="sans-serif" font-size="14" lengthAdjust="spacing" textLength="108" x="586.5" y="168.4951">identifier: String</text><rect fill="none" height="6" style="stroke:#C82930;stroke-width:1.0;" width="6" x="574.5" y="178.4453"/><text fill="#000000" font-family="sans-serif" font-size="14" lengthAdjust="spacing" textLength="133" x="586.5" y="184.792">payloadType: Class</text><rect fill="none" height="6" style="stroke:#C82930;stroke-width:1.0;" width="6" x="574.5" y="194.7422"/><text fill="#000000" font-family="sans-serif" font-size="14" lengthAdjust="spacing" textLength="107" x="586.5" y="201.0889">payload: Object</text><rect fill="none" height="6" style="stroke:#C82930;stroke-width:1.0;" width="6" x="574.5" y="211.0391"/><text fill="#000000" font-family="sans-serif" font-size="14" lengthAdjust="spacing" textLength="136" x="586.5" y="217.3857">metdata:  MetaData</text><line style="stroke:#181818;stroke-width:0.5;" x1="567.5" x2="727.5" y1="224.6875" y2="224.6875"/></g><!--MD5=[323a98366024ad6e4b4b358bd0099e7a]
class ResultMessage--><g id="elem_ResultMessage"><rect codeLine="13" fill="#F1F1F1" height="80.5938" id="ResultMessage" rx="2.5" ry="2.5" style="stroke:#181818;stroke-width:0.5;" width="222" x="284.5" y="93.5"/><ellipse cx="333.25" cy="109.5" fill="#B4A7E5" rx="11" ry="11" style="stroke:#181818;stroke-width:1.0;"/><path d="M329.1719,105.2656 L329.1719,103.1094 L336.5625,103.1094 L336.5625,105.2656 L334.0938,105.2656 L334.0938,113.3438 L336.5625,113.3438 L336.5625,115.5 L329.1719,115.5 L329.1719,113.3438 L331.6406,113.3438 L331.6406,105.2656 L329.1719,105.2656 Z " fill="#000000"/><text fill="#000000" font-family="sans-serif" font-size="14" font-style="italic" lengthAdjust="spacing" textLength="104" x="353.75" y="114.3467">ResultMessage</text><rect fill="#FFFFFF" height="15.9688" style="stroke:#181818;stroke-width:1.0;stroke-dasharray:2.0,2.0;" width="10" x="499.5" y="90.5"/><text fill="#000000" font-family="sans-serif" font-size="12" font-style="italic" lengthAdjust="spacing" textLength="8" x="500.5" y="102.6387">R</text><line style="stroke:#181818;stroke-width:0.5;" x1="285.5" x2="505.5" y1="125.5" y2="125.5"/><rect fill="none" height="6" style="stroke:#C82930;stroke-width:1.0;" width="6" x="292.5" y="136.1484"/><text fill="#000000" font-family="sans-serif" font-size="14" lengthAdjust="spacing" textLength="144" x="304.5" y="142.4951">exceptional: boolean</text><rect fill="none" height="6" style="stroke:#C82930;stroke-width:1.0;" width="6" x="292.5" y="152.4453"/><text fill="#000000" font-family="sans-serif" font-size="14" lengthAdjust="spacing" textLength="196" x="304.5" y="158.792">exceptionDetails: Throwable</text><line style="stroke:#181818;stroke-width:0.5;" x1="285.5" x2="505.5" y1="166.0938" y2="166.0938"/></g><!--MD5=[fc553d02c147fb34d8aff23066369596]
class AbstractMessage--><g id="elem_AbstractMessage"><rect codeLine="18" fill="#F1F1F1" height="48" id="AbstractMessage" rx="2.5" ry="2.5" style="stroke:#181818;stroke-width:0.5;" width="161" x="315" y="10"/><ellipse cx="330" cy="26" fill="#A9DCDF" rx="11" ry="11" style="stroke:#181818;stroke-width:1.0;"/><path d="M330.1094,21.3438 L328.9531,26.4219 L331.2813,26.4219 L330.1094,21.3438 Z M328.625,19.1094 L331.6094,19.1094 L334.9688,31.5 L332.5156,31.5 L331.75,28.4375 L328.4688,28.4375 L327.7188,31.5 L325.2813,31.5 L328.625,19.1094 Z " fill="#000000"/><text fill="#000000" font-family="sans-serif" font-size="14" font-style="italic" lengthAdjust="spacing" textLength="118" x="344" y="30.8467">AbstractMessage</text><rect fill="#FFFFFF" height="15.9688" style="stroke:#181818;stroke-width:1.0;stroke-dasharray:2.0,2.0;" width="9" x="470" y="7"/><text fill="#000000" font-family="sans-serif" font-size="12" font-style="italic" lengthAdjust="spacing" textLength="7" x="471" y="19.1387">T</text><line style="stroke:#181818;stroke-width:0.5;" x1="316" x2="475" y1="42" y2="42"/><line style="stroke:#181818;stroke-width:0.5;" x1="316" x2="475" y1="50" y2="50"/></g><!--MD5=[fadd0f832754c5c424dc290238afd56d]
class GenericMessage--><g id="elem_GenericMessage"><rect codeLine="19" fill="#F1F1F1" height="48" id="GenericMessage" rx="2.5" ry="2.5" style="stroke:#181818;stroke-width:0.5;" width="160" x="42.5" y="10"/><ellipse cx="57.5" cy="26" fill="#ADD1B2" rx="11" ry="11" style="stroke:#181818;stroke-width:1.0;"/><path d="M60.4688,31.6406 Q59.8906,31.9375 59.25,32.0781 Q58.6094,32.2344 57.9063,32.2344 Q55.4063,32.2344 54.0781,30.5938 Q52.7656,28.9375 52.7656,25.8125 Q52.7656,22.6875 54.0781,21.0313 Q55.4063,19.375 57.9063,19.375 Q58.6094,19.375 59.25,19.5313 Q59.9063,19.6875 60.4688,19.9844 L60.4688,22.7031 Q59.8438,22.125 59.25,21.8594 Q58.6563,21.5781 58.0313,21.5781 Q56.6875,21.5781 56,22.6563 Q55.3125,23.7188 55.3125,25.8125 Q55.3125,27.9063 56,28.9844 Q56.6875,30.0469 58.0313,30.0469 Q58.6563,30.0469 59.25,29.7813 Q59.8438,29.5 60.4688,28.9219 L60.4688,31.6406 Z " fill="#000000"/><text fill="#000000" font-family="sans-serif" font-size="14" lengthAdjust="spacing" textLength="117" x="71.5" y="30.8467">GenericMessage</text><rect fill="#FFFFFF" height="15.9688" style="stroke:#181818;stroke-width:1.0;stroke-dasharray:2.0,2.0;" width="9" x="196.5" y="7"/><text fill="#000000" font-family="sans-serif" font-size="12" font-style="italic" lengthAdjust="spacing" textLength="7" x="197.5" y="19.1387">T</text><line style="stroke:#181818;stroke-width:0.5;" x1="43.5" x2="201.5" y1="42" y2="42"/><line style="stroke:#181818;stroke-width:0.5;" x1="43.5" x2="201.5" y1="50" y2="50"/></g><!--MD5=[968b2d173d43a39003603e0aa91254bc]
class GenericResultMessage--><g id="elem_GenericResultMessage"><rect codeLine="20" fill="#F1F1F1" height="48" id="GenericResultMessage" rx="2.5" ry="2.5" style="stroke:#181818;stroke-width:0.5;" width="204" x="20.5" y="110"/><ellipse cx="35.5" cy="126" fill="#ADD1B2" rx="11" ry="11" style="stroke:#181818;stroke-width:1.0;"/><path d="M38.4688,131.6406 Q37.8906,131.9375 37.25,132.0781 Q36.6094,132.2344 35.9063,132.2344 Q33.4063,132.2344 32.0781,130.5938 Q30.7656,128.9375 30.7656,125.8125 Q30.7656,122.6875 32.0781,121.0313 Q33.4063,119.375 35.9063,119.375 Q36.6094,119.375 37.25,119.5313 Q37.9063,119.6875 38.4688,119.9844 L38.4688,122.7031 Q37.8438,122.125 37.25,121.8594 Q36.6563,121.5781 36.0313,121.5781 Q34.6875,121.5781 34,122.6563 Q33.3125,123.7188 33.3125,125.8125 Q33.3125,127.9063 34,128.9844 Q34.6875,130.0469 36.0313,130.0469 Q36.6563,130.0469 37.25,129.7813 Q37.8438,129.5 38.4688,128.9219 L38.4688,131.6406 Z " fill="#000000"/><text fill="#000000" font-family="sans-serif" font-size="14" lengthAdjust="spacing" textLength="161" x="49.5" y="130.8467">GenericResultMessage</text><rect fill="#FFFFFF" height="15.9688" style="stroke:#181818;stroke-width:1.0;stroke-dasharray:2.0,2.0;" width="9" x="218.5" y="107"/><text fill="#000000" font-family="sans-serif" font-size="12" font-style="italic" lengthAdjust="spacing" textLength="7" x="219.5" y="119.1387">T</text><line style="stroke:#181818;stroke-width:0.5;" x1="21.5" x2="223.5" y1="142" y2="142"/><line style="stroke:#181818;stroke-width:0.5;" x1="21.5" x2="223.5" y1="150" y2="150"/></g><!--MD5=[d827f8e687d7c88150fefea8cd54028a]
class MessageDecorator--><g id="elem_MessageDecorator"><rect codeLine="22" fill="#F1F1F1" height="64.2969" id="MessageDecorator" rx="2.5" ry="2.5" style="stroke:#181818;stroke-width:0.5;" width="173" x="309" y="210"/><ellipse cx="324" cy="226" fill="#A9DCDF" rx="11" ry="11" style="stroke:#181818;stroke-width:1.0;"/><path d="M324.1094,221.3438 L322.9531,226.4219 L325.2813,226.4219 L324.1094,221.3438 Z M322.625,219.1094 L325.6094,219.1094 L328.9688,231.5 L326.5156,231.5 L325.75,228.4375 L322.4688,228.4375 L321.7188,231.5 L319.2813,231.5 L322.625,219.1094 Z " fill="#000000"/><text fill="#000000" font-family="sans-serif" font-size="14" font-style="italic" lengthAdjust="spacing" textLength="130" x="338" y="230.8467">MessageDecorator</text><rect fill="#FFFFFF" height="15.9688" style="stroke:#181818;stroke-width:1.0;stroke-dasharray:2.0,2.0;" width="9" x="476" y="207"/><text fill="#000000" font-family="sans-serif" font-size="12" font-style="italic" lengthAdjust="spacing" textLength="7" x="477" y="219.1387">T</text><line style="stroke:#181818;stroke-width:0.5;" x1="310" x2="481" y1="242" y2="242"/><rect fill="none" height="6" style="stroke:#C82930;stroke-width:1.0;" width="6" x="317" y="252.6484"/><text fill="#000000" font-family="sans-serif" font-size="14" lengthAdjust="spacing" textLength="133" x="329" y="258.9951">delegate: Message</text><line style="stroke:#181818;stroke-width:0.5;" x1="310" x2="481" y1="266.2969" y2="266.2969"/></g><!--MD5=[104f2f094cc2f2154ee4b6fda04512df]
class EventMessage--><g id="elem_EventMessage"><rect codeLine="39" fill="#F1F1F1" height="64.2969" id="EventMessage" rx="2.5" ry="2.5" style="stroke:#181818;stroke-width:0.5;" width="155" x="318" y="349"/><ellipse cx="337.95" cy="365" fill="#B4A7E5" rx="11" ry="11" style="stroke:#181818;stroke-width:1.0;"/><path d="M333.8719,360.7656 L333.8719,358.6094 L341.2625,358.6094 L341.2625,360.7656 L338.7938,360.7656 L338.7938,368.8438 L341.2625,368.8438 L341.2625,371 L333.8719,371 L333.8719,368.8438 L336.3406,368.8438 L336.3406,360.7656 L333.8719,360.7656 Z " fill="#000000"/><text fill="#000000" font-family="sans-serif" font-size="14" font-style="italic" lengthAdjust="spacing" textLength="101" x="353.05" y="369.8467">EventMessage</text><rect fill="#FFFFFF" height="15.9688" style="stroke:#181818;stroke-width:1.0;stroke-dasharray:2.0,2.0;" width="9" x="467" y="346"/><text fill="#000000" font-family="sans-serif" font-size="12" font-style="italic" lengthAdjust="spacing" textLength="7" x="468" y="358.1387">T</text><line style="stroke:#181818;stroke-width:0.5;" x1="319" x2="472" y1="381" y2="381"/><rect fill="none" height="6" style="stroke:#C82930;stroke-width:1.0;" width="6" x="326" y="391.6484"/><text fill="#000000" font-family="sans-serif" font-size="14" lengthAdjust="spacing" textLength="129" x="338" y="397.9951">timestamp: Instant</text><line style="stroke:#181818;stroke-width:0.5;" x1="319" x2="472" y1="405.2969" y2="405.2969"/></g><!--MD5=[2813c1b7b230612ebc8459cb0360d2d3]
class GenericEventMessage--><g id="elem_GenericEventMessage"><rect codeLine="43" fill="#F1F1F1" height="48" id="GenericEventMessage" rx="2.5" ry="2.5" style="stroke:#181818;stroke-width:0.5;" width="199" x="23" y="353"/><ellipse cx="38" cy="369" fill="#ADD1B2" rx="11" ry="11" style="stroke:#181818;stroke-width:1.0;"/><path d="M40.9688,374.6406 Q40.3906,374.9375 39.75,375.0781 Q39.1094,375.2344 38.4063,375.2344 Q35.9063,375.2344 34.5781,373.5938 Q33.2656,371.9375 33.2656,368.8125 Q33.2656,365.6875 34.5781,364.0313 Q35.9063,362.375 38.4063,362.375 Q39.1094,362.375 39.75,362.5313 Q40.4063,362.6875 40.9688,362.9844 L40.9688,365.7031 Q40.3438,365.125 39.75,364.8594 Q39.1563,364.5781 38.5313,364.5781 Q37.1875,364.5781 36.5,365.6563 Q35.8125,366.7188 35.8125,368.8125 Q35.8125,370.9063 36.5,371.9844 Q37.1875,373.0469 38.5313,373.0469 Q39.1563,373.0469 39.75,372.7813 Q40.3438,372.5 40.9688,371.9219 L40.9688,374.6406 Z " fill="#000000"/><text fill="#000000" font-family="sans-serif" font-size="14" lengthAdjust="spacing" textLength="156" x="52" y="373.8467">GenericEventMessage</text><rect fill="#FFFFFF" height="15.9688" style="stroke:#181818;stroke-width:1.0;stroke-dasharray:2.0,2.0;" width="9" x="216" y="350"/><text fill="#000000" font-family="sans-serif" font-size="12" font-style="italic" lengthAdjust="spacing" textLength="7" x="217" y="362.1387">T</text><line style="stroke:#181818;stroke-width:0.5;" x1="24" x2="221" y1="385" y2="385"/><line style="stroke:#181818;stroke-width:0.5;" x1="24" x2="221" y1="393" y2="393"/></g><!--MD5=[148f36b1e3a5da5da1a825f30cedd68c]
link AbstractMessage to Message--><g id="link_AbstractMessage_Message"><path codeLine="28" d="M476.27,34 C549.98,34 647.5,34 647.5,34 C647.5,34 647.5,99.47 647.5,99.47 " fill="none" id="AbstractMessage-to-Message" style="stroke:#181818;stroke-width:1.0;stroke-dasharray:7.0,7.0;"/><polygon fill="none" points="654.5,99.47,647.5,119.47,640.5,99.47,654.5,99.47" style="stroke:#181818;stroke-width:1.0;"/></g><!--MD5=[ab8081204e433a4199b6f3aa5410cdab]
link MessageDecorator to Message--><g id="link_MessageDecorator_Message"><path codeLine="29" d="M482.22,221.25 C482.22,221.25 546.13,221.25 546.13,221.25 " fill="none" id="MessageDecorator-to-Message" style="stroke:#181818;stroke-width:1.0;stroke-dasharray:7.0,7.0;"/><polygon fill="none" points="546.13,214.25,566.13,221.25,546.13,228.25,546.13,214.25" style="stroke:#181818;stroke-width:1.0;"/></g><!--MD5=[a7ef1d70d087ca7624077f2a392b9422]
link ResultMessage to Message--><g id="link_ResultMessage_Message"><path codeLine="30" d="M506.76,147 C506.76,147 546.34,147 546.34,147 " fill="none" id="ResultMessage-to-Message" style="stroke:#181818;stroke-width:1.0;"/><polygon fill="none" points="546.34,140,566.34,147,546.34,154,546.34,140" style="stroke:#181818;stroke-width:1.0;"/></g><!--MD5=[8084e1e7fa83c586545729d93e06d069]
link GenericMessage to AbstractMessage--><g id="link_GenericMessage_AbstractMessage"><path codeLine="31" d="M202.56,34 C202.56,34 294.96,34 294.96,34 " fill="none" id="GenericMessage-to-AbstractMessage" style="stroke:#181818;stroke-width:1.0;"/><polygon fill="none" points="294.96,27,314.96,34,294.96,41,294.96,27" style="stroke:#181818;stroke-width:1.0;"/></g><!--MD5=[f0cfd282eaebdac430a27fa24c2e7e17]
link GenericResultMessage to ResultMessage--><g id="link_GenericResultMessage_ResultMessage"><path codeLine="32" d="M224.54,134 C224.54,134 264.43,134 264.43,134 " fill="none" id="GenericResultMessage-to-ResultMessage" style="stroke:#181818;stroke-width:1.0;stroke-dasharray:7.0,7.0;"/><polygon fill="none" points="264.43,127,284.43,134,264.43,141,264.43,127" style="stroke:#181818;stroke-width:1.0;"/></g><!--MD5=[134abe5bde006e05272d3117b8fd557f]
link EventMessage to Message--><g id="link_EventMessage_Message"><path codeLine="47" d="M473.16,381 C547.21,381 647.5,381 647.5,381 C647.5,381 647.5,252.56 647.5,252.56 " fill="none" id="EventMessage-to-Message" style="stroke:#181818;stroke-width:1.0;"/><polygon fill="none" points="640.5,252.56,647.5,232.56,654.5,252.56,640.5,252.56" style="stroke:#181818;stroke-width:1.0;"/></g><!--MD5=[b9e80fada70aa11723e4d94a60b81bf5]
link GenericEventMessage to EventMessage--><g id="link_GenericEventMessage_EventMessage"><path codeLine="48" d="M222.22,385 C222.22,385 297.85,385 297.85,385 " fill="none" id="GenericEventMessage-to-EventMessage" style="stroke:#181818;stroke-width:1.0;stroke-dasharray:7.0,7.0;"/><polygon fill="none" points="297.85,378,317.85,385,297.85,392,297.85,378" style="stroke:#181818;stroke-width:1.0;"/></g><!--MD5=[656ee3e2e6e24669eca73f57f076b81d]
link GenericEventMessage to MessageDecorator--><g id="link_GenericEventMessage_MessageDecorator"><path codeLine="49" d="M222.2,369 C268.51,369 313.5,369 313.5,369 C313.5,369 313.5,294.05 313.5,294.05 " fill="none" id="GenericEventMessage-to-MessageDecorator" style="stroke:#181818;stroke-width:1.0;"/><polygon fill="none" points="306.5,294.05,313.5,274.05,320.5,294.05,306.5,294.05" style="stroke:#181818;stroke-width:1.0;"/></g><!--MD5=[671f2c7bb2aa768aa77b2ecef1310139]
@startuml
skinparam linetype ortho
left to right direction

together {

  interface Message{
    -identifier: String
    -payloadType: Class
    -payload: Object
    -metdata:  MetaData
  }

  interface ResultMessage<R> {
    -exceptional: boolean
    -exceptionDetails: Throwable
  }

  abstract AbstractMessage<T> {}
  class GenericMessage<T> {}
  class GenericResultMessage<T>

  abstract MessageDecorator<T> {
    -delegate: Message
  }
}


AbstractMessage ..|> Message
MessageDecorator ..|> Message
ResultMessage - -|> Message
GenericMessage - -|> AbstractMessage
GenericResultMessage ..|> ResultMessage

' This is a fragment of a diagram
' It is meant to be used together with generic_messaging_classes.puml

package "event messages" <<Rectangle>> {

  interface EventMessage<T> {
    -timestamp: Instant
  }

  class GenericEventMessage<T> {}

}

EventMessage - -|> Message
GenericEventMessage ..|> EventMessage
GenericEventMessage - -|> MessageDecorator
@enduml

@startuml
skinparam linetype ortho
left to right direction

together {

  interface Message{
    -identifier: String
    -payloadType: Class
    -payload: Object
    -metdata:  MetaData
  }

  interface ResultMessage<R> {
    -exceptional: boolean
    -exceptionDetails: Throwable
  }

  abstract AbstractMessage<T> {}
  class GenericMessage<T> {}
  class GenericResultMessage<T>

  abstract MessageDecorator<T> {
    -delegate: Message
  }
}


AbstractMessage ..|> Message
MessageDecorator ..|> Message
ResultMessage - -|> Message
GenericMessage - -|> AbstractMessage
GenericResultMessage ..|> ResultMessage


package "event messages" <<Rectangle>> {

  interface EventMessage<T> {
    -timestamp: Instant
  }

  class GenericEventMessage<T> {}

}

EventMessage - -|> Message
GenericEventMessage ..|> EventMessage
GenericEventMessage - -|> MessageDecorator
@enduml

PlantUML version 1.2022.12(Sun Oct 23 18:12:26 GMT 2022)
(GPL source distribution)
Java Runtime: OpenJDK Runtime Environment
JVM: OpenJDK 64-Bit Server VM
Default Encoding: UTF-8
Language: en
Country: US
--></g></svg>