<?xml version="1.0" encoding="UTF-8" standalone="no"?><svg xmlns="http://www.w3.org/2000/svg" xmlns:xlink="http://www.w3.org/1999/xlink" contentStyleType="text/css" height="515px" preserveAspectRatio="none" style="width:1086px;height:515px;background:#FFFFFF;" version="1.1" viewBox="0 0 1086 515" width="1086px" zoomAndPan="magnify"><defs/><g><!--MD5=[cb63666ad9f87a4d6374b317643e926b]
cluster command messages--><g id="cluster_command messages"><path d="M8.5,6 L170.5,6 A3.75,3.75 0 0 1 173,8.5 L180,28.2969 L588.5,28.2969 A2.5,2.5 0 0 1 591,30.7969 L591,201.5 A2.5,2.5 0 0 1 588.5,204 L8.5,204 A2.5,2.5 0 0 1 6,201.5 L6,8.5 A2.5,2.5 0 0 1 8.5,6 " fill="none" style="stroke:#000000;stroke-width:1.5;"/><line style="stroke:#000000;stroke-width:1.5;" x1="6" x2="180" y1="28.2969" y2="28.2969"/><text fill="#000000" font-family="sans-serif" font-size="14" font-weight="bold" lengthAdjust="spacing" textLength="161" x="10" y="20.9951">command messages</text></g><!--MD5=[bea5b0d46523efab5ea1c1d339f396f0]
class Message--><g id="elem_Message"><rect codeLine="6" fill="#F1F1F1" height="113.1875" id="Message" rx="2.5" ry="2.5" style="stroke:#181818;stroke-width:0.5;" width="162" x="917" y="290.5"/><ellipse cx="963.25" cy="306.5" fill="#B4A7E5" rx="11" ry="11" style="stroke:#181818;stroke-width:1.0;"/><path d="M959.1719,302.2656 L959.1719,300.1094 L966.5625,300.1094 L966.5625,302.2656 L964.0938,302.2656 L964.0938,310.3438 L966.5625,310.3438 L966.5625,312.5 L959.1719,312.5 L959.1719,310.3438 L961.6406,310.3438 L961.6406,302.2656 L959.1719,302.2656 Z " fill="#000000"/><text fill="#000000" font-family="sans-serif" font-size="14" font-style="italic" lengthAdjust="spacing" textLength="61" x="983.75" y="311.3467">Message</text><line style="stroke:#181818;stroke-width:0.5;" x1="918" x2="1078" y1="322.5" y2="322.5"/><rect fill="none" height="6" style="stroke:#C82930;stroke-width:1.0;" width="6" x="925" y="333.1484"/><text fill="#000000" font-family="sans-serif" font-size="14" lengthAdjust="spacing" textLength="108" x="937" y="339.4951">identifier: String</text><rect fill="none" height="6" style="stroke:#C82930;stroke-width:1.0;" width="6" x="925" y="349.4453"/><text fill="#000000" font-family="sans-serif" font-size="14" lengthAdjust="spacing" textLength="133" x="937" y="355.792">payloadType: Class</text><rect fill="none" height="6" style="stroke:#C82930;stroke-width:1.0;" width="6" x="925" y="365.7422"/><text fill="#000000" font-family="sans-serif" font-size="14" lengthAdjust="spacing" textLength="107" x="937" y="372.0889">payload: Object</text><rect fill="none" height="6" style="stroke:#C82930;stroke-width:1.0;" width="6" x="925" y="382.0391"/><text fill="#000000" font-family="sans-serif" font-size="14" lengthAdjust="spacing" textLength="136" x="937" y="388.3857">metdata:  MetaData</text><line style="stroke:#181818;stroke-width:0.5;" x1="918" x2="1078" y1="395.6875" y2="395.6875"/></g><!--MD5=[323a98366024ad6e4b4b358bd0099e7a]
class ResultMessage--><g id="elem_ResultMessage"><rect codeLine="13" fill="#F1F1F1" height="80.5938" id="ResultMessage" rx="2.5" ry="2.5" style="stroke:#181818;stroke-width:0.5;" width="222" x="635" y="244.5"/><ellipse cx="683.75" cy="260.5" fill="#B4A7E5" rx="11" ry="11" style="stroke:#181818;stroke-width:1.0;"/><path d="M679.6719,256.2656 L679.6719,254.1094 L687.0625,254.1094 L687.0625,256.2656 L684.5938,256.2656 L684.5938,264.3438 L687.0625,264.3438 L687.0625,266.5 L679.6719,266.5 L679.6719,264.3438 L682.1406,264.3438 L682.1406,256.2656 L679.6719,256.2656 Z " fill="#000000"/><text fill="#000000" font-family="sans-serif" font-size="14" font-style="italic" lengthAdjust="spacing" textLength="104" x="704.25" y="265.3467">ResultMessage</text><rect fill="#FFFFFF" height="15.9688" style="stroke:#181818;stroke-width:1.0;stroke-dasharray:2.0,2.0;" width="10" x="850" y="241.5"/><text fill="#000000" font-family="sans-serif" font-size="12" font-style="italic" lengthAdjust="spacing" textLength="8" x="851" y="253.6387">R</text><line style="stroke:#181818;stroke-width:0.5;" x1="636" x2="856" y1="276.5" y2="276.5"/><rect fill="none" height="6" style="stroke:#C82930;stroke-width:1.0;" width="6" x="643" y="287.1484"/><text fill="#000000" font-family="sans-serif" font-size="14" lengthAdjust="spacing" textLength="144" x="655" y="293.4951">exceptional: boolean</text><rect fill="none" height="6" style="stroke:#C82930;stroke-width:1.0;" width="6" x="643" y="303.4453"/><text fill="#000000" font-family="sans-serif" font-size="14" lengthAdjust="spacing" textLength="196" x="655" y="309.792">exceptionDetails: Throwable</text><line style="stroke:#181818;stroke-width:0.5;" x1="636" x2="856" y1="317.0938" y2="317.0938"/></g><!--MD5=[fc553d02c147fb34d8aff23066369596]
class AbstractMessage--><g id="elem_AbstractMessage"><rect codeLine="18" fill="#F1F1F1" height="48" id="AbstractMessage" rx="2.5" ry="2.5" style="stroke:#181818;stroke-width:0.5;" width="161" x="665.5" y="460"/><ellipse cx="680.5" cy="476" fill="#A9DCDF" rx="11" ry="11" style="stroke:#181818;stroke-width:1.0;"/><path d="M680.6094,471.3438 L679.4531,476.4219 L681.7813,476.4219 L680.6094,471.3438 Z M679.125,469.1094 L682.1094,469.1094 L685.4688,481.5 L683.0156,481.5 L682.25,478.4375 L678.9688,478.4375 L678.2188,481.5 L675.7813,481.5 L679.125,469.1094 Z " fill="#000000"/><text fill="#000000" font-family="sans-serif" font-size="14" font-style="italic" lengthAdjust="spacing" textLength="118" x="694.5" y="480.8467">AbstractMessage</text><rect fill="#FFFFFF" height="15.9688" style="stroke:#181818;stroke-width:1.0;stroke-dasharray:2.0,2.0;" width="9" x="820.5" y="457"/><text fill="#000000" font-family="sans-serif" font-size="12" font-style="italic" lengthAdjust="spacing" textLength="7" x="821.5" y="469.1387">T</text><line style="stroke:#181818;stroke-width:0.5;" x1="666.5" x2="825.5" y1="492" y2="492"/><line style="stroke:#181818;stroke-width:0.5;" x1="666.5" x2="825.5" y1="500" y2="500"/></g><!--MD5=[fadd0f832754c5c424dc290238afd56d]
class GenericMessage--><g id="elem_GenericMessage"><rect codeLine="19" fill="#F1F1F1" height="48" id="GenericMessage" rx="2.5" ry="2.5" style="stroke:#181818;stroke-width:0.5;" width="160" x="386" y="460"/><ellipse cx="401" cy="476" fill="#ADD1B2" rx="11" ry="11" style="stroke:#181818;stroke-width:1.0;"/><path d="M403.9688,481.6406 Q403.3906,481.9375 402.75,482.0781 Q402.1094,482.2344 401.4063,482.2344 Q398.9063,482.2344 397.5781,480.5938 Q396.2656,478.9375 396.2656,475.8125 Q396.2656,472.6875 397.5781,471.0313 Q398.9063,469.375 401.4063,469.375 Q402.1094,469.375 402.75,469.5313 Q403.4063,469.6875 403.9688,469.9844 L403.9688,472.7031 Q403.3438,472.125 402.75,471.8594 Q402.1563,471.5781 401.5313,471.5781 Q400.1875,471.5781 399.5,472.6563 Q398.8125,473.7188 398.8125,475.8125 Q398.8125,477.9063 399.5,478.9844 Q400.1875,480.0469 401.5313,480.0469 Q402.1563,480.0469 402.75,479.7813 Q403.3438,479.5 403.9688,478.9219 L403.9688,481.6406 Z " fill="#000000"/><text fill="#000000" font-family="sans-serif" font-size="14" lengthAdjust="spacing" textLength="117" x="415" y="480.8467">GenericMessage</text><rect fill="#FFFFFF" height="15.9688" style="stroke:#181818;stroke-width:1.0;stroke-dasharray:2.0,2.0;" width="9" x="540" y="457"/><text fill="#000000" font-family="sans-serif" font-size="12" font-style="italic" lengthAdjust="spacing" textLength="7" x="541" y="469.1387">T</text><line style="stroke:#181818;stroke-width:0.5;" x1="387" x2="545" y1="492" y2="492"/><line style="stroke:#181818;stroke-width:0.5;" x1="387" x2="545" y1="500" y2="500"/></g><!--MD5=[968b2d173d43a39003603e0aa91254bc]
class GenericResultMessage--><g id="elem_GenericResultMessage"><rect codeLine="20" fill="#F1F1F1" height="48" id="GenericResultMessage" rx="2.5" ry="2.5" style="stroke:#181818;stroke-width:0.5;" width="204" x="364" y="294"/><ellipse cx="379" cy="310" fill="#ADD1B2" rx="11" ry="11" style="stroke:#181818;stroke-width:1.0;"/><path d="M381.9688,315.6406 Q381.3906,315.9375 380.75,316.0781 Q380.1094,316.2344 379.4063,316.2344 Q376.9063,316.2344 375.5781,314.5938 Q374.2656,312.9375 374.2656,309.8125 Q374.2656,306.6875 375.5781,305.0313 Q376.9063,303.375 379.4063,303.375 Q380.1094,303.375 380.75,303.5313 Q381.4063,303.6875 381.9688,303.9844 L381.9688,306.7031 Q381.3438,306.125 380.75,305.8594 Q380.1563,305.5781 379.5313,305.5781 Q378.1875,305.5781 377.5,306.6563 Q376.8125,307.7188 376.8125,309.8125 Q376.8125,311.9063 377.5,312.9844 Q378.1875,314.0469 379.5313,314.0469 Q380.1563,314.0469 380.75,313.7813 Q381.3438,313.5 381.9688,312.9219 L381.9688,315.6406 Z " fill="#000000"/><text fill="#000000" font-family="sans-serif" font-size="14" lengthAdjust="spacing" textLength="161" x="393" y="314.8467">GenericResultMessage</text><rect fill="#FFFFFF" height="15.9688" style="stroke:#181818;stroke-width:1.0;stroke-dasharray:2.0,2.0;" width="9" x="562" y="291"/><text fill="#000000" font-family="sans-serif" font-size="12" font-style="italic" lengthAdjust="spacing" textLength="7" x="563" y="303.1387">T</text><line style="stroke:#181818;stroke-width:0.5;" x1="365" x2="567" y1="326" y2="326"/><line style="stroke:#181818;stroke-width:0.5;" x1="365" x2="567" y1="334" y2="334"/></g><!--MD5=[d827f8e687d7c88150fefea8cd54028a]
class MessageDecorator--><g id="elem_MessageDecorator"><rect codeLine="22" fill="#F1F1F1" height="64.2969" id="MessageDecorator" rx="2.5" ry="2.5" style="stroke:#181818;stroke-width:0.5;" width="173" x="659.5" y="361"/><ellipse cx="674.5" cy="377" fill="#A9DCDF" rx="11" ry="11" style="stroke:#181818;stroke-width:1.0;"/><path d="M674.6094,372.3438 L673.4531,377.4219 L675.7813,377.4219 L674.6094,372.3438 Z M673.125,370.1094 L676.1094,370.1094 L679.4688,382.5 L677.0156,382.5 L676.25,379.4375 L672.9688,379.4375 L672.2188,382.5 L669.7813,382.5 L673.125,370.1094 Z " fill="#000000"/><text fill="#000000" font-family="sans-serif" font-size="14" font-style="italic" lengthAdjust="spacing" textLength="130" x="688.5" y="381.8467">MessageDecorator</text><rect fill="#FFFFFF" height="15.9688" style="stroke:#181818;stroke-width:1.0;stroke-dasharray:2.0,2.0;" width="9" x="826.5" y="358"/><text fill="#000000" font-family="sans-serif" font-size="12" font-style="italic" lengthAdjust="spacing" textLength="7" x="827.5" y="370.1387">T</text><line style="stroke:#181818;stroke-width:0.5;" x1="660.5" x2="831.5" y1="393" y2="393"/><rect fill="none" height="6" style="stroke:#C82930;stroke-width:1.0;" width="6" x="667.5" y="403.6484"/><text fill="#000000" font-family="sans-serif" font-size="14" lengthAdjust="spacing" textLength="133" x="679.5" y="409.9951">delegate: Message</text><line style="stroke:#181818;stroke-width:0.5;" x1="660.5" x2="831.5" y1="417.2969" y2="417.2969"/></g><!--MD5=[0edbe07294d8c1adcf20fe852faaf7c7]
class CommandMessage--><g id="elem_CommandMessage"><rect codeLine="38" fill="#F1F1F1" height="64.2969" id="CommandMessage" rx="2.5" ry="2.5" style="stroke:#181818;stroke-width:0.5;" width="184" x="374" y="41"/><ellipse cx="393.05" cy="57" fill="#B4A7E5" rx="11" ry="11" style="stroke:#181818;stroke-width:1.0;"/><path d="M388.9719,52.7656 L388.9719,50.6094 L396.3625,50.6094 L396.3625,52.7656 L393.8938,52.7656 L393.8938,60.8438 L396.3625,60.8438 L396.3625,63 L388.9719,63 L388.9719,60.8438 L391.4406,60.8438 L391.4406,52.7656 L388.9719,52.7656 Z " fill="#000000"/><text fill="#000000" font-family="sans-serif" font-size="14" font-style="italic" lengthAdjust="spacing" textLength="132" x="407.95" y="61.8467">CommandMessage</text><rect fill="#FFFFFF" height="15.9688" style="stroke:#181818;stroke-width:1.0;stroke-dasharray:2.0,2.0;" width="9" x="552" y="38"/><text fill="#000000" font-family="sans-serif" font-size="12" font-style="italic" lengthAdjust="spacing" textLength="7" x="553" y="50.1387">T</text><line style="stroke:#181818;stroke-width:0.5;" x1="375" x2="557" y1="73" y2="73"/><rect fill="none" height="6" style="stroke:#C82930;stroke-width:1.0;" width="6" x="382" y="83.6484"/><text fill="#000000" font-family="sans-serif" font-size="14" lengthAdjust="spacing" textLength="158" x="394" y="89.9951">commandName: String</text><line style="stroke:#181818;stroke-width:0.5;" x1="375" x2="557" y1="97.2969" y2="97.2969"/></g><!--MD5=[5b54f99e8779eb742e61590e37f23f31]
class GenericCommandMessage--><g id="elem_GenericCommandMessage"><rect codeLine="42" fill="#F1F1F1" height="48" id="GenericCommandMessage" rx="2.5" ry="2.5" style="stroke:#181818;stroke-width:0.5;" width="231" x="44" y="53"/><ellipse cx="59" cy="69" fill="#ADD1B2" rx="11" ry="11" style="stroke:#181818;stroke-width:1.0;"/><path d="M61.9688,74.6406 Q61.3906,74.9375 60.75,75.0781 Q60.1094,75.2344 59.4063,75.2344 Q56.9063,75.2344 55.5781,73.5938 Q54.2656,71.9375 54.2656,68.8125 Q54.2656,65.6875 55.5781,64.0313 Q56.9063,62.375 59.4063,62.375 Q60.1094,62.375 60.75,62.5313 Q61.4063,62.6875 61.9688,62.9844 L61.9688,65.7031 Q61.3438,65.125 60.75,64.8594 Q60.1563,64.5781 59.5313,64.5781 Q58.1875,64.5781 57.5,65.6563 Q56.8125,66.7188 56.8125,68.8125 Q56.8125,70.9063 57.5,71.9844 Q58.1875,73.0469 59.5313,73.0469 Q60.1563,73.0469 60.75,72.7813 Q61.3438,72.5 61.9688,71.9219 L61.9688,74.6406 Z " fill="#000000"/><text fill="#000000" font-family="sans-serif" font-size="14" lengthAdjust="spacing" textLength="188" x="73" y="73.8467">GenericCommandMessage</text><rect fill="#FFFFFF" height="15.9688" style="stroke:#181818;stroke-width:1.0;stroke-dasharray:2.0,2.0;" width="9" x="269" y="50"/><text fill="#000000" font-family="sans-serif" font-size="12" font-style="italic" lengthAdjust="spacing" textLength="7" x="270" y="62.1387">T</text><line style="stroke:#181818;stroke-width:0.5;" x1="45" x2="274" y1="85" y2="85"/><line style="stroke:#181818;stroke-width:0.5;" x1="45" x2="274" y1="93" y2="93"/></g><!--MD5=[afef4dc25526350edcada1bedc2abbc3]
class GenericCommandResultMessage--><g id="elem_GenericCommandResultMessage"><rect codeLine="44" fill="#F1F1F1" height="48" id="GenericCommandResultMessage" rx="2.5" ry="2.5" style="stroke:#181818;stroke-width:0.5;" width="275" x="22" y="140"/><ellipse cx="37" cy="156" fill="#ADD1B2" rx="11" ry="11" style="stroke:#181818;stroke-width:1.0;"/><path d="M39.9688,161.6406 Q39.3906,161.9375 38.75,162.0781 Q38.1094,162.2344 37.4063,162.2344 Q34.9063,162.2344 33.5781,160.5938 Q32.2656,158.9375 32.2656,155.8125 Q32.2656,152.6875 33.5781,151.0313 Q34.9063,149.375 37.4063,149.375 Q38.1094,149.375 38.75,149.5313 Q39.4063,149.6875 39.9688,149.9844 L39.9688,152.7031 Q39.3438,152.125 38.75,151.8594 Q38.1563,151.5781 37.5313,151.5781 Q36.1875,151.5781 35.5,152.6563 Q34.8125,153.7188 34.8125,155.8125 Q34.8125,157.9063 35.5,158.9844 Q36.1875,160.0469 37.5313,160.0469 Q38.1563,160.0469 38.75,159.7813 Q39.3438,159.5 39.9688,158.9219 L39.9688,161.6406 Z " fill="#000000"/><text fill="#000000" font-family="sans-serif" font-size="14" lengthAdjust="spacing" textLength="232" x="51" y="160.8467">GenericCommandResultMessage</text><rect fill="#FFFFFF" height="15.9688" style="stroke:#181818;stroke-width:1.0;stroke-dasharray:2.0,2.0;" width="9" x="291" y="137"/><text fill="#000000" font-family="sans-serif" font-size="12" font-style="italic" lengthAdjust="spacing" textLength="7" x="292" y="149.1387">T</text><line style="stroke:#181818;stroke-width:0.5;" x1="23" x2="296" y1="172" y2="172"/><line style="stroke:#181818;stroke-width:0.5;" x1="23" x2="296" y1="180" y2="180"/></g><!--MD5=[7bbe468f8b7d2c5941e8f41736a69073]
class CommandResultMessage--><g id="elem_CommandResultMessage"><rect codeLine="46" fill="#F1F1F1" height="48" id="CommandResultMessage" rx="2.5" ry="2.5" style="stroke:#181818;stroke-width:0.5;" width="218" x="357" y="140"/><ellipse cx="372" cy="156" fill="#B4A7E5" rx="11" ry="11" style="stroke:#181818;stroke-width:1.0;"/><path d="M367.9219,151.7656 L367.9219,149.6094 L375.3125,149.6094 L375.3125,151.7656 L372.8438,151.7656 L372.8438,159.8438 L375.3125,159.8438 L375.3125,162 L367.9219,162 L367.9219,159.8438 L370.3906,159.8438 L370.3906,151.7656 L367.9219,151.7656 Z " fill="#000000"/><text fill="#000000" font-family="sans-serif" font-size="14" font-style="italic" lengthAdjust="spacing" textLength="175" x="386" y="160.8467">CommandResultMessage</text><rect fill="#FFFFFF" height="15.9688" style="stroke:#181818;stroke-width:1.0;stroke-dasharray:2.0,2.0;" width="9" x="569" y="137"/><text fill="#000000" font-family="sans-serif" font-size="12" font-style="italic" lengthAdjust="spacing" textLength="7" x="570" y="149.1387">T</text><line style="stroke:#181818;stroke-width:0.5;" x1="358" x2="574" y1="172" y2="172"/><line style="stroke:#181818;stroke-width:0.5;" x1="358" x2="574" y1="180" y2="180"/></g><!--MD5=[148f36b1e3a5da5da1a825f30cedd68c]
link AbstractMessage to Message--><g id="link_AbstractMessage_Message"><path codeLine="28" d="M826.77,484 C900.48,484 998,484 998,484 C998,484 998,423.51 998,423.51 " fill="none" id="AbstractMessage-to-Message" style="stroke:#181818;stroke-width:1.0;stroke-dasharray:7.0,7.0;"/><polygon fill="none" points="991,423.51,998,403.51,1005,423.51,991,423.51" style="stroke:#181818;stroke-width:1.0;"/></g><!--MD5=[ab8081204e433a4199b6f3aa5410cdab]
link MessageDecorator to Message--><g id="link_MessageDecorator_Message"><path codeLine="29" d="M832.72,382.25 C832.72,382.25 896.63,382.25 896.63,382.25 " fill="none" id="MessageDecorator-to-Message" style="stroke:#181818;stroke-width:1.0;stroke-dasharray:7.0,7.0;"/><polygon fill="none" points="896.63,375.25,916.63,382.25,896.63,389.25,896.63,375.25" style="stroke:#181818;stroke-width:1.0;"/></g><!--MD5=[a7ef1d70d087ca7624077f2a392b9422]
link ResultMessage to Message--><g id="link_ResultMessage_Message"><path codeLine="30" d="M857.26,308 C857.26,308 896.84,308 896.84,308 " fill="none" id="ResultMessage-to-Message" style="stroke:#181818;stroke-width:1.0;"/><polygon fill="none" points="896.84,301,916.84,308,896.84,315,896.84,301" style="stroke:#181818;stroke-width:1.0;"/></g><!--MD5=[8084e1e7fa83c586545729d93e06d069]
link GenericMessage to AbstractMessage--><g id="link_GenericMessage_AbstractMessage"><path codeLine="31" d="M546.24,484 C546.24,484 645.27,484 645.27,484 " fill="none" id="GenericMessage-to-AbstractMessage" style="stroke:#181818;stroke-width:1.0;"/><polygon fill="none" points="645.27,477,665.27,484,645.27,491,645.27,477" style="stroke:#181818;stroke-width:1.0;"/></g><!--MD5=[f0cfd282eaebdac430a27fa24c2e7e17]
link GenericResultMessage to ResultMessage--><g id="link_GenericResultMessage_ResultMessage"><path codeLine="32" d="M568.27,309.75 C568.27,309.75 614.56,309.75 614.56,309.75 " fill="none" id="GenericResultMessage-to-ResultMessage" style="stroke:#181818;stroke-width:1.0;stroke-dasharray:7.0,7.0;"/><polygon fill="none" points="614.56,302.75,634.56,309.75,614.56,316.75,614.56,302.75" style="stroke:#181818;stroke-width:1.0;"/></g><!--MD5=[06dee38b7b093211c9ad40e167e2c334]
link CommandMessage to Message--><g id="link_CommandMessage_Message"><path codeLine="50" d="M558.06,73 C710.33,73 998,73 998,73 C998,73 998,270.23 998,270.23 " fill="none" id="CommandMessage-to-Message" style="stroke:#181818;stroke-width:1.0;"/><polygon fill="none" points="1005,270.23,998,290.23,991,270.23,1005,270.23" style="stroke:#181818;stroke-width:1.0;"/></g><!--MD5=[b1568c97afd41367ad53c1c93329be8c]
link GenericCommandMessage to CommandMessage--><g id="link_GenericCommandMessage_CommandMessage"><path codeLine="51" d="M275.37,69 C275.37,69 353.83,69 353.83,69 " fill="none" id="GenericCommandMessage-to-CommandMessage" style="stroke:#181818;stroke-width:1.0;stroke-dasharray:7.0,7.0;"/><polygon fill="none" points="353.83,62,373.83,69,353.83,76,353.83,62" style="stroke:#181818;stroke-width:1.0;"/></g><!--MD5=[e3f4d1bfca8afccd1328b37e13ddcd1b]
link GenericCommandMessage to MessageDecorator--><g id="link_GenericCommandMessage_MessageDecorator"><path codeLine="52" d="M275.38,85 C304.18,85 327,85 327,85 C327,85 327,393 327,393 C327,393 639.44,393 639.44,393 " fill="none" id="GenericCommandMessage-to-MessageDecorator" style="stroke:#181818;stroke-width:1.0;"/><polygon fill="none" points="639.44,386,659.44,393,639.44,400,639.44,386" style="stroke:#181818;stroke-width:1.0;"/></g><!--MD5=[cbc20df6201c3de5dd358e3868573972]
link CommandResultMessage to ResultMessage--><g id="link_CommandResultMessage_ResultMessage"><path codeLine="53" d="M572,188.15 C572,219.22 572,269.25 572,269.25 C572,269.25 614.82,269.25 614.82,269.25 " fill="none" id="CommandResultMessage-to-ResultMessage" style="stroke:#181818;stroke-width:1.0;"/><polygon fill="none" points="614.82,262.25,634.82,269.25,614.82,276.25,614.82,262.25" style="stroke:#181818;stroke-width:1.0;"/></g><!--MD5=[166c61fe41d1aac9b6e5e481345c21b3]
link GenericCommandResultMessage to CommandResultMessage--><g id="link_GenericCommandResultMessage_CommandResultMessage"><path codeLine="54" d="M297.06,164 C297.06,164 336.91,164 336.91,164 " fill="none" id="GenericCommandResultMessage-to-CommandResultMessage" style="stroke:#181818;stroke-width:1.0;stroke-dasharray:7.0,7.0;"/><polygon fill="none" points="336.91,157,356.91,164,336.91,171,336.91,157" style="stroke:#181818;stroke-width:1.0;"/></g><!--MD5=[fb81a6538d7c02b7fc558198c266ae53]
link GenericCommandResultMessage to GenericResultMessage--><g id="link_GenericCommandResultMessage_GenericResultMessage"><path codeLine="55" d="M160,188.06 C160,231.38 160,318 160,318 C160,318 343.68,318 343.68,318 " fill="none" id="GenericCommandResultMessage-to-GenericResultMessage" style="stroke:#181818;stroke-width:1.0;"/><polygon fill="none" points="343.68,311,363.68,318,343.68,325,343.68,311" style="stroke:#181818;stroke-width:1.0;"/></g><!--MD5=[1da592f9e71d9c9cda24530264bdf85e]
@startuml
skinparam linetype ortho
left to right direction

together {

  interface Message{
    -identifier: String
    -payloadType: Class
    -payload: Object
    -metdata:  MetaData
  }

  interface ResultMessage<R> {
    -exceptional: boolean
    -exceptionDetails: Throwable
  }

  abstract AbstractMessage<T> {}
  class GenericMessage<T> {}
  class GenericResultMessage<T>

  abstract MessageDecorator<T> {
    -delegate: Message
  }
}


AbstractMessage ..|> Message
MessageDecorator ..|> Message
ResultMessage - -|> Message
GenericMessage - -|> AbstractMessage
GenericResultMessage ..|> ResultMessage

' This is a fragment of a diagram
' It is meant to be used together with generic_messaging_classes.puml

package "command messages" <<Folder>> {
  interface CommandMessage<T> {
    -commandName: String
  }

  class GenericCommandMessage<T> {}

  class GenericCommandResultMessage<T>{}

  interface CommandResultMessage<T> {}

}

CommandMessage - -|> Message
GenericCommandMessage ..|> CommandMessage
GenericCommandMessage - -|> MessageDecorator
CommandResultMessage - -|> ResultMessage
GenericCommandResultMessage ..|> CommandResultMessage
GenericCommandResultMessage - -|> GenericResultMessage
@enduml

@startuml
skinparam linetype ortho
left to right direction

together {

  interface Message{
    -identifier: String
    -payloadType: Class
    -payload: Object
    -metdata:  MetaData
  }

  interface ResultMessage<R> {
    -exceptional: boolean
    -exceptionDetails: Throwable
  }

  abstract AbstractMessage<T> {}
  class GenericMessage<T> {}
  class GenericResultMessage<T>

  abstract MessageDecorator<T> {
    -delegate: Message
  }
}


AbstractMessage ..|> Message
MessageDecorator ..|> Message
ResultMessage - -|> Message
GenericMessage - -|> AbstractMessage
GenericResultMessage ..|> ResultMessage


package "command messages" <<Folder>> {
  interface CommandMessage<T> {
    -commandName: String
  }

  class GenericCommandMessage<T> {}

  class GenericCommandResultMessage<T>{}

  interface CommandResultMessage<T> {}

}

CommandMessage - -|> Message
GenericCommandMessage ..|> CommandMessage
GenericCommandMessage - -|> MessageDecorator
CommandResultMessage - -|> ResultMessage
GenericCommandResultMessage ..|> CommandResultMessage
GenericCommandResultMessage - -|> GenericResultMessage
@enduml

PlantUML version 1.2022.12(Sun Oct 23 18:12:26 GMT 2022)
(GPL source distribution)
Java Runtime: OpenJDK Runtime Environment
JVM: OpenJDK 64-Bit Server VM
Default Encoding: UTF-8
Language: en
Country: US
--></g></svg>