<?xml version="1.0" encoding="UTF-8" standalone="no"?><svg xmlns="http://www.w3.org/2000/svg" xmlns:xlink="http://www.w3.org/1999/xlink" contentStyleType="text/css" height="519px" preserveAspectRatio="none" style="width:1011px;height:519px;background:#FFFFFF;" version="1.1" viewBox="0 0 1011 519" width="1011px" zoomAndPan="magnify"><defs/><g><!--MD5=[cb63666ad9f87a4d6374b317643e926b]
cluster command messages--><g id="cluster_command messages"><path d="M8.5,6 L152.5,6 A3.75,3.75 0 0 1 155,8.5 L162,28.7999 L549.5,28.7999 A2.5,2.5 0 0 1 552,31.2999 L552,203.5 A2.5,2.5 0 0 1 549.5,206 L8.5,206 A2.5,2.5 0 0 1 6,203.5 L6,8.5 A2.5,2.5 0 0 1 8.5,6 " style="stroke:#000000;stroke-width:1.5;fill:none;"/><line style="stroke:#000000;stroke-width:1.5;fill:none;" x1="6" x2="162" y1="28.7999" y2="28.7999"/><text fill="#000000" font-family="sans-serif" font-size="14" font-weight="bold" lengthAdjust="spacing" textLength="143" x="10" y="21.9999">command messages</text></g><!--MD5=[bea5b0d46523efab5ea1c1d339f396f0]
class Message--><g id="elem_Message"><rect codeLine="6" fill="#F1F1F1" height="115.1997" id="Message" rx="2.5" ry="2.5" style="stroke:#181818;stroke-width:0.5;" width="149" x="855" y="292.5"/><ellipse cx="896.55" cy="308.5" fill="#B4A7E5" rx="11" ry="11" style="stroke:#181818;stroke-width:1.0;"/><path d="M899.2219,311.7969 Q899.7688,311.7969 900.05,311.9844 Q900.3313,312.1563 900.3313,312.6563 Q900.3313,313.5 899.2219,313.5 L894.0813,313.5 Q892.9563,313.5 892.9563,312.6563 Q892.9563,312.1563 893.2375,311.9844 Q893.5344,311.7969 894.0813,311.7969 L895.8,311.7969 L895.8,305.2813 L894.0813,305.2813 Q892.9563,305.2813 892.9563,304.4375 Q892.9563,303.9531 893.2375,303.7813 Q893.5344,303.5938 894.0813,303.5938 L899.2219,303.5938 Q899.7688,303.5938 900.05,303.7813 Q900.3313,303.9531 900.3313,304.4375 Q900.3313,305.2813 899.2219,305.2813 L897.5031,305.2813 L897.5031,311.7969 L899.2219,311.7969 Z " fill="#000000"/><text fill="#000000" font-family="sans-serif" font-size="14" font-style="italic" lengthAdjust="spacing" textLength="58" x="916.45" y="314.1">Message</text><line style="stroke:#181818;stroke-width:0.5;" x1="856" x2="1003" y1="324.5" y2="324.5"/><rect fill="none" height="6" style="stroke:#C82930;stroke-width:1.0;" width="6" x="863" y="332.5"/><text fill="#000000" font-family="sans-serif" font-size="14" lengthAdjust="spacing" textLength="97" x="875" y="342.4999">identifier: String</text><rect fill="none" height="6" style="stroke:#C82930;stroke-width:1.0;" width="6" x="863" y="349.2999"/><text fill="#000000" font-family="sans-serif" font-size="14" lengthAdjust="spacing" textLength="123" x="875" y="359.2999">payloadType: Class</text><rect fill="none" height="6" style="stroke:#C82930;stroke-width:1.0;" width="6" x="863" y="366.0999"/><text fill="#000000" font-family="sans-serif" font-size="14" lengthAdjust="spacing" textLength="97" x="875" y="376.0998">payload: Object</text><rect fill="none" height="6" style="stroke:#C82930;stroke-width:1.0;" width="6" x="863" y="382.8998"/><text fill="#000000" font-family="sans-serif" font-size="14" lengthAdjust="spacing" textLength="123" x="875" y="392.8997">metdata:  MetaData</text><line style="stroke:#181818;stroke-width:0.5;" x1="856" x2="1003" y1="399.6997" y2="399.6997"/></g><!--MD5=[323a98366024ad6e4b4b358bd0099e7a]
class ResultMessage--><g id="elem_ResultMessage"><rect codeLine="13" fill="#F1F1F1" height="81.5999" id="ResultMessage" rx="2.5" ry="2.5" style="stroke:#181818;stroke-width:0.5;" width="199" x="596" y="246"/><ellipse cx="636.2" cy="262" fill="#B4A7E5" rx="11" ry="11" style="stroke:#181818;stroke-width:1.0;"/><path d="M638.8719,265.2969 Q639.4188,265.2969 639.7,265.4844 Q639.9813,265.6563 639.9813,266.1563 Q639.9813,267 638.8719,267 L633.7313,267 Q632.6063,267 632.6063,266.1563 Q632.6063,265.6563 632.8875,265.4844 Q633.1844,265.2969 633.7313,265.2969 L635.45,265.2969 L635.45,258.7813 L633.7313,258.7813 Q632.6063,258.7813 632.6063,257.9375 Q632.6063,257.4531 632.8875,257.2813 Q633.1844,257.0938 633.7313,257.0938 L638.8719,257.0938 Q639.4188,257.0938 639.7,257.2813 Q639.9813,257.4531 639.9813,257.9375 Q639.9813,258.7813 638.8719,258.7813 L637.1531,258.7813 L637.1531,265.2969 L638.8719,265.2969 Z " fill="#000000"/><text fill="#000000" font-family="sans-serif" font-size="14" font-style="italic" lengthAdjust="spacing" textLength="98" x="655.8" y="267.6">ResultMessage</text><rect fill="#FFFFFF" height="16.4001" style="stroke:#000000;stroke-width:1.0;stroke-dasharray:2.0,2.0;" width="11" x="787" y="243"/><text fill="#000000" font-family="sans-serif" font-size="12" font-style="italic" lengthAdjust="spacing" textLength="9" x="788" y="256.0001">R</text><line style="stroke:#181818;stroke-width:0.5;" x1="597" x2="794" y1="278" y2="278"/><rect fill="none" height="6" style="stroke:#C82930;stroke-width:1.0;" width="6" x="604" y="286"/><text fill="#000000" font-family="sans-serif" font-size="14" lengthAdjust="spacing" textLength="125" x="616" y="295.9999">exceptional: boolean</text><rect fill="none" height="6" style="stroke:#C82930;stroke-width:1.0;" width="6" x="604" y="302.7999"/><text fill="#000000" font-family="sans-serif" font-size="14" lengthAdjust="spacing" textLength="173" x="616" y="312.7999">exceptionDetails: Throwable</text><line style="stroke:#181818;stroke-width:0.5;" x1="597" x2="794" y1="319.5999" y2="319.5999"/></g><!--MD5=[fc553d02c147fb34d8aff23066369596]
class AbstractMessage--><g id="elem_AbstractMessage"><rect codeLine="18" fill="#F1F1F1" height="48" id="AbstractMessage" rx="2.5" ry="2.5" style="stroke:#181818;stroke-width:0.5;" width="153" x="619" y="464"/><ellipse cx="634" cy="480" fill="#A9DCDF" rx="11" ry="11" style="stroke:#181818;stroke-width:1.0;"/><path d="M634.9531,483.6563 Q634.9531,483.1563 635.2344,482.9844 Q635.5313,482.7969 636.0781,482.7969 L636.4688,482.7969 L636.0781,481.8125 L632.0313,481.8125 L631.6406,482.7969 L632.0313,482.7969 Q633.1406,482.7969 633.1406,483.6563 Q633.1406,484.5 632.0313,484.5 L629.7656,484.5 Q628.6406,484.5 628.6406,483.6563 Q628.6406,483.1406 628.9375,482.9688 Q629.2344,482.7969 629.7813,482.7969 L632.4219,476.2813 L631.3438,476.2813 Q630.2031,476.2813 630.2031,475.4375 Q630.2031,474.9219 630.5,474.7656 Q630.7969,474.5938 631.3438,474.5938 L635.0156,474.5938 L638.4063,482.7969 Q639.5625,482.7969 639.5625,483.6563 Q639.5625,484.5 638.4375,484.5 L636.0781,484.5 Q634.9531,484.5 634.9531,483.6563 Z M635.375,480.1094 L634.0469,476.8438 L632.7031,480.1094 L635.375,480.1094 Z " fill="#000000"/><text fill="#000000" font-family="sans-serif" font-size="14" font-style="italic" lengthAdjust="spacing" textLength="110" x="648" y="485.6">AbstractMessage</text><rect fill="#FFFFFF" height="16.4001" style="stroke:#000000;stroke-width:1.0;stroke-dasharray:2.0,2.0;" width="9" x="766" y="461"/><text fill="#000000" font-family="sans-serif" font-size="12" font-style="italic" lengthAdjust="spacing" textLength="7" x="767" y="474.0001">T</text><line style="stroke:#181818;stroke-width:0.5;" x1="620" x2="771" y1="496" y2="496"/><line style="stroke:#181818;stroke-width:0.5;" x1="620" x2="771" y1="504" y2="504"/></g><!--MD5=[fadd0f832754c5c424dc290238afd56d]
class GenericMessage--><g id="elem_GenericMessage"><rect codeLine="19" fill="#F1F1F1" height="48" id="GenericMessage" rx="2.5" ry="2.5" style="stroke:#181818;stroke-width:0.5;" width="147" x="360" y="464"/><ellipse cx="375" cy="480" fill="#ADD1B2" rx="11" ry="11" style="stroke:#181818;stroke-width:1.0;"/><path d="M374.3594,483.7813 Q375.1563,483.7813 375.7188,483.5938 Q376.2969,483.3906 376.5313,483.1719 Q376.7813,482.9375 377.0156,482.75 Q377.2656,482.5469 377.4844,482.5469 Q377.8281,482.5469 378.0781,482.8125 Q378.3438,483.0625 378.3438,483.3906 Q378.3438,484.125 377.1719,484.8125 Q376.0156,485.4844 374.3125,485.4844 Q372.1563,485.4844 370.7344,484.2188 Q369.3125,482.9531 369.3125,481.0156 L369.3125,479.8906 Q369.3125,477.8594 370.6406,476.4844 Q371.9688,475.0938 373.9375,475.0938 Q375.125,475.0938 376.3438,475.6719 L376.5156,475.75 Q376.8125,475.3438 377.2344,475.3438 Q377.7188,475.3438 377.8906,475.6406 Q378.0781,475.9219 378.0781,476.4688 L378.0781,477.8906 Q378.0781,479.0156 377.2344,479.0156 Q376.9219,479.0156 376.7188,478.8438 Q376.5313,478.6719 376.4844,478.5313 Q376.4531,478.375 376.4063,478.1094 Q376.2969,477.5938 375.7813,477.2813 Q375.2656,476.9688 374.8125,476.8906 Q374.375,476.7969 374,476.7969 Q372.7188,476.7969 371.8594,477.6719 Q371.0156,478.5469 371.0156,479.8906 L371.0156,480.9844 Q371.0156,482.2656 371.9219,483.0313 Q372.8281,483.7813 374.3594,483.7813 Z " fill="#000000"/><text fill="#000000" font-family="sans-serif" font-size="14" lengthAdjust="spacing" textLength="104" x="389" y="485.6">GenericMessage</text><rect fill="#FFFFFF" height="16.4001" style="stroke:#000000;stroke-width:1.0;stroke-dasharray:2.0,2.0;" width="9" x="501" y="461"/><text fill="#000000" font-family="sans-serif" font-size="12" font-style="italic" lengthAdjust="spacing" textLength="7" x="502" y="474.0001">T</text><line style="stroke:#181818;stroke-width:0.5;" x1="361" x2="506" y1="496" y2="496"/><line style="stroke:#181818;stroke-width:0.5;" x1="361" x2="506" y1="504" y2="504"/></g><!--MD5=[968b2d173d43a39003603e0aa91254bc]
class GenericResultMessage--><g id="elem_GenericResultMessage"><rect codeLine="20" fill="#F1F1F1" height="48" id="GenericResultMessage" rx="2.5" ry="2.5" style="stroke:#181818;stroke-width:0.5;" width="186" x="340.5" y="296"/><ellipse cx="355.5" cy="312" fill="#ADD1B2" rx="11" ry="11" style="stroke:#181818;stroke-width:1.0;"/><path d="M354.8594,315.7813 Q355.6563,315.7813 356.2188,315.5938 Q356.7969,315.3906 357.0313,315.1719 Q357.2813,314.9375 357.5156,314.75 Q357.7656,314.5469 357.9844,314.5469 Q358.3281,314.5469 358.5781,314.8125 Q358.8438,315.0625 358.8438,315.3906 Q358.8438,316.125 357.6719,316.8125 Q356.5156,317.4844 354.8125,317.4844 Q352.6563,317.4844 351.2344,316.2188 Q349.8125,314.9531 349.8125,313.0156 L349.8125,311.8906 Q349.8125,309.8594 351.1406,308.4844 Q352.4688,307.0938 354.4375,307.0938 Q355.625,307.0938 356.8438,307.6719 L357.0156,307.75 Q357.3125,307.3438 357.7344,307.3438 Q358.2188,307.3438 358.3906,307.6406 Q358.5781,307.9219 358.5781,308.4688 L358.5781,309.8906 Q358.5781,311.0156 357.7344,311.0156 Q357.4219,311.0156 357.2188,310.8438 Q357.0313,310.6719 356.9844,310.5313 Q356.9531,310.375 356.9063,310.1094 Q356.7969,309.5938 356.2813,309.2813 Q355.7656,308.9688 355.3125,308.8906 Q354.875,308.7969 354.5,308.7969 Q353.2188,308.7969 352.3594,309.6719 Q351.5156,310.5469 351.5156,311.8906 L351.5156,312.9844 Q351.5156,314.2656 352.4219,315.0313 Q353.3281,315.7813 354.8594,315.7813 Z " fill="#000000"/><text fill="#000000" font-family="sans-serif" font-size="14" lengthAdjust="spacing" textLength="143" x="369.5" y="317.6">GenericResultMessage</text><rect fill="#FFFFFF" height="16.4001" style="stroke:#000000;stroke-width:1.0;stroke-dasharray:2.0,2.0;" width="9" x="520.5" y="293"/><text fill="#000000" font-family="sans-serif" font-size="12" font-style="italic" lengthAdjust="spacing" textLength="7" x="521.5" y="306.0001">T</text><line style="stroke:#181818;stroke-width:0.5;" x1="341.5" x2="525.5" y1="328" y2="328"/><line style="stroke:#181818;stroke-width:0.5;" x1="341.5" x2="525.5" y1="336" y2="336"/></g><!--MD5=[d827f8e687d7c88150fefea8cd54028a]
class MessageDecorator--><g id="elem_MessageDecorator"><rect codeLine="22" fill="#F1F1F1" height="64.7999" id="MessageDecorator" rx="2.5" ry="2.5" style="stroke:#181818;stroke-width:0.5;" width="164" x="613.5" y="363.5"/><ellipse cx="628.5" cy="379.5" fill="#A9DCDF" rx="11" ry="11" style="stroke:#181818;stroke-width:1.0;"/><path d="M629.4531,383.1563 Q629.4531,382.6563 629.7344,382.4844 Q630.0313,382.2969 630.5781,382.2969 L630.9688,382.2969 L630.5781,381.3125 L626.5313,381.3125 L626.1406,382.2969 L626.5313,382.2969 Q627.6406,382.2969 627.6406,383.1563 Q627.6406,384 626.5313,384 L624.2656,384 Q623.1406,384 623.1406,383.1563 Q623.1406,382.6406 623.4375,382.4688 Q623.7344,382.2969 624.2813,382.2969 L626.9219,375.7813 L625.8438,375.7813 Q624.7031,375.7813 624.7031,374.9375 Q624.7031,374.4219 625,374.2656 Q625.2969,374.0938 625.8438,374.0938 L629.5156,374.0938 L632.9063,382.2969 Q634.0625,382.2969 634.0625,383.1563 Q634.0625,384 632.9375,384 L630.5781,384 Q629.4531,384 629.4531,383.1563 Z M629.875,379.6094 L628.5469,376.3438 L627.2031,379.6094 L629.875,379.6094 Z " fill="#000000"/><text fill="#000000" font-family="sans-serif" font-size="14" font-style="italic" lengthAdjust="spacing" textLength="121" x="642.5" y="385.1">MessageDecorator</text><rect fill="#FFFFFF" height="16.4001" style="stroke:#000000;stroke-width:1.0;stroke-dasharray:2.0,2.0;" width="9" x="771.5" y="360.5"/><text fill="#000000" font-family="sans-serif" font-size="12" font-style="italic" lengthAdjust="spacing" textLength="7" x="772.5" y="373.5001">T</text><line style="stroke:#181818;stroke-width:0.5;" x1="614.5" x2="776.5" y1="395.5" y2="395.5"/><rect fill="none" height="6" style="stroke:#C82930;stroke-width:1.0;" width="6" x="621.5" y="403.5"/><text fill="#000000" font-family="sans-serif" font-size="14" lengthAdjust="spacing" textLength="116" x="633.5" y="413.4999">delegate: Message</text><line style="stroke:#181818;stroke-width:0.5;" x1="614.5" x2="776.5" y1="420.2999" y2="420.2999"/></g><!--MD5=[0edbe07294d8c1adcf20fe852faaf7c7]
class CommandMessage--><g id="elem_CommandMessage"><rect codeLine="38" fill="#F1F1F1" height="64.7999" id="CommandMessage" rx="2.5" ry="2.5" style="stroke:#181818;stroke-width:0.5;" width="167" x="350" y="41.5"/><ellipse cx="365.9" cy="57.5" fill="#B4A7E5" rx="11" ry="11" style="stroke:#181818;stroke-width:1.0;"/><path d="M368.5719,60.7969 Q369.1188,60.7969 369.4,60.9844 Q369.6813,61.1563 369.6813,61.6563 Q369.6813,62.5 368.5719,62.5 L363.4313,62.5 Q362.3063,62.5 362.3063,61.6563 Q362.3063,61.1563 362.5875,60.9844 Q362.8844,60.7969 363.4313,60.7969 L365.15,60.7969 L365.15,54.2813 L363.4313,54.2813 Q362.3063,54.2813 362.3063,53.4375 Q362.3063,52.9531 362.5875,52.7813 Q362.8844,52.5938 363.4313,52.5938 L368.5719,52.5938 Q369.1188,52.5938 369.4,52.7813 Q369.6813,52.9531 369.6813,53.4375 Q369.6813,54.2813 368.5719,54.2813 L366.8531,54.2813 L366.8531,60.7969 L368.5719,60.7969 Z " fill="#000000"/><text fill="#000000" font-family="sans-serif" font-size="14" font-style="italic" lengthAdjust="spacing" textLength="122" x="380.1" y="63.1">CommandMessage</text><rect fill="#FFFFFF" height="16.4001" style="stroke:#000000;stroke-width:1.0;stroke-dasharray:2.0,2.0;" width="9" x="511" y="38.5"/><text fill="#000000" font-family="sans-serif" font-size="12" font-style="italic" lengthAdjust="spacing" textLength="7" x="512" y="51.5001">T</text><line style="stroke:#181818;stroke-width:0.5;" x1="351" x2="516" y1="73.5" y2="73.5"/><rect fill="none" height="6" style="stroke:#C82930;stroke-width:1.0;" width="6" x="358" y="81.5"/><text fill="#000000" font-family="sans-serif" font-size="14" lengthAdjust="spacing" textLength="141" x="370" y="91.4999">commandName: String</text><line style="stroke:#181818;stroke-width:0.5;" x1="351" x2="516" y1="98.2999" y2="98.2999"/></g><!--MD5=[5b54f99e8779eb742e61590e37f23f31]
class GenericCommandMessage--><g id="elem_GenericCommandMessage"><rect codeLine="42" fill="#F1F1F1" height="48" id="GenericCommandMessage" rx="2.5" ry="2.5" style="stroke:#181818;stroke-width:0.5;" width="210" x="41.5" y="55"/><ellipse cx="56.5" cy="71" fill="#ADD1B2" rx="11" ry="11" style="stroke:#181818;stroke-width:1.0;"/><path d="M55.8594,74.7813 Q56.6563,74.7813 57.2188,74.5938 Q57.7969,74.3906 58.0313,74.1719 Q58.2813,73.9375 58.5156,73.75 Q58.7656,73.5469 58.9844,73.5469 Q59.3281,73.5469 59.5781,73.8125 Q59.8438,74.0625 59.8438,74.3906 Q59.8438,75.125 58.6719,75.8125 Q57.5156,76.4844 55.8125,76.4844 Q53.6563,76.4844 52.2344,75.2188 Q50.8125,73.9531 50.8125,72.0156 L50.8125,70.8906 Q50.8125,68.8594 52.1406,67.4844 Q53.4688,66.0938 55.4375,66.0938 Q56.625,66.0938 57.8438,66.6719 L58.0156,66.75 Q58.3125,66.3438 58.7344,66.3438 Q59.2188,66.3438 59.3906,66.6406 Q59.5781,66.9219 59.5781,67.4688 L59.5781,68.8906 Q59.5781,70.0156 58.7344,70.0156 Q58.4219,70.0156 58.2188,69.8438 Q58.0313,69.6719 57.9844,69.5313 Q57.9531,69.375 57.9063,69.1094 Q57.7969,68.5938 57.2813,68.2813 Q56.7656,67.9688 56.3125,67.8906 Q55.875,67.7969 55.5,67.7969 Q54.2188,67.7969 53.3594,68.6719 Q52.5156,69.5469 52.5156,70.8906 L52.5156,71.9844 Q52.5156,73.2656 53.4219,74.0313 Q54.3281,74.7813 55.8594,74.7813 Z " fill="#000000"/><text fill="#000000" font-family="sans-serif" font-size="14" lengthAdjust="spacing" textLength="167" x="70.5" y="76.6">GenericCommandMessage</text><rect fill="#FFFFFF" height="16.4001" style="stroke:#000000;stroke-width:1.0;stroke-dasharray:2.0,2.0;" width="9" x="245.5" y="52"/><text fill="#000000" font-family="sans-serif" font-size="12" font-style="italic" lengthAdjust="spacing" textLength="7" x="246.5" y="65.0001">T</text><line style="stroke:#181818;stroke-width:0.5;" x1="42.5" x2="250.5" y1="87" y2="87"/><line style="stroke:#181818;stroke-width:0.5;" x1="42.5" x2="250.5" y1="95" y2="95"/></g><!--MD5=[afef4dc25526350edcada1bedc2abbc3]
class GenericCommandResultMessage--><g id="elem_GenericCommandResultMessage"><rect codeLine="44" fill="#F1F1F1" height="48" id="GenericCommandResultMessage" rx="2.5" ry="2.5" style="stroke:#181818;stroke-width:0.5;" width="249" x="22" y="142"/><ellipse cx="37" cy="158" fill="#ADD1B2" rx="11" ry="11" style="stroke:#181818;stroke-width:1.0;"/><path d="M36.3594,161.7813 Q37.1563,161.7813 37.7188,161.5938 Q38.2969,161.3906 38.5313,161.1719 Q38.7813,160.9375 39.0156,160.75 Q39.2656,160.5469 39.4844,160.5469 Q39.8281,160.5469 40.0781,160.8125 Q40.3438,161.0625 40.3438,161.3906 Q40.3438,162.125 39.1719,162.8125 Q38.0156,163.4844 36.3125,163.4844 Q34.1563,163.4844 32.7344,162.2188 Q31.3125,160.9531 31.3125,159.0156 L31.3125,157.8906 Q31.3125,155.8594 32.6406,154.4844 Q33.9688,153.0938 35.9375,153.0938 Q37.125,153.0938 38.3438,153.6719 L38.5156,153.75 Q38.8125,153.3438 39.2344,153.3438 Q39.7188,153.3438 39.8906,153.6406 Q40.0781,153.9219 40.0781,154.4688 L40.0781,155.8906 Q40.0781,157.0156 39.2344,157.0156 Q38.9219,157.0156 38.7188,156.8438 Q38.5313,156.6719 38.4844,156.5313 Q38.4531,156.375 38.4063,156.1094 Q38.2969,155.5938 37.7813,155.2813 Q37.2656,154.9688 36.8125,154.8906 Q36.375,154.7969 36,154.7969 Q34.7188,154.7969 33.8594,155.6719 Q33.0156,156.5469 33.0156,157.8906 L33.0156,158.9844 Q33.0156,160.2656 33.9219,161.0313 Q34.8281,161.7813 36.3594,161.7813 Z " fill="#000000"/><text fill="#000000" font-family="sans-serif" font-size="14" lengthAdjust="spacing" textLength="206" x="51" y="163.6">GenericCommandResultMessage</text><rect fill="#FFFFFF" height="16.4001" style="stroke:#000000;stroke-width:1.0;stroke-dasharray:2.0,2.0;" width="9" x="265" y="139"/><text fill="#000000" font-family="sans-serif" font-size="12" font-style="italic" lengthAdjust="spacing" textLength="7" x="266" y="152.0001">T</text><line style="stroke:#181818;stroke-width:0.5;" x1="23" x2="270" y1="174" y2="174"/><line style="stroke:#181818;stroke-width:0.5;" x1="23" x2="270" y1="182" y2="182"/></g><!--MD5=[7bbe468f8b7d2c5941e8f41736a69073]
class CommandResultMessage--><g id="elem_CommandResultMessage"><rect codeLine="46" fill="#F1F1F1" height="48" id="CommandResultMessage" rx="2.5" ry="2.5" style="stroke:#181818;stroke-width:0.5;" width="205" x="331" y="142"/><ellipse cx="346" cy="158" fill="#B4A7E5" rx="11" ry="11" style="stroke:#181818;stroke-width:1.0;"/><path d="M348.6719,161.2969 Q349.2188,161.2969 349.5,161.4844 Q349.7813,161.6563 349.7813,162.1563 Q349.7813,163 348.6719,163 L343.5313,163 Q342.4063,163 342.4063,162.1563 Q342.4063,161.6563 342.6875,161.4844 Q342.9844,161.2969 343.5313,161.2969 L345.25,161.2969 L345.25,154.7813 L343.5313,154.7813 Q342.4063,154.7813 342.4063,153.9375 Q342.4063,153.4531 342.6875,153.2813 Q342.9844,153.0938 343.5313,153.0938 L348.6719,153.0938 Q349.2188,153.0938 349.5,153.2813 Q349.7813,153.4531 349.7813,153.9375 Q349.7813,154.7813 348.6719,154.7813 L346.9531,154.7813 L346.9531,161.2969 L348.6719,161.2969 Z " fill="#000000"/><text fill="#000000" font-family="sans-serif" font-size="14" font-style="italic" lengthAdjust="spacing" textLength="162" x="360" y="163.6">CommandResultMessage</text><rect fill="#FFFFFF" height="16.4001" style="stroke:#000000;stroke-width:1.0;stroke-dasharray:2.0,2.0;" width="9" x="530" y="139"/><text fill="#000000" font-family="sans-serif" font-size="12" font-style="italic" lengthAdjust="spacing" textLength="7" x="531" y="152.0001">T</text><line style="stroke:#181818;stroke-width:0.5;" x1="332" x2="535" y1="174" y2="174"/><line style="stroke:#181818;stroke-width:0.5;" x1="332" x2="535" y1="182" y2="182"/></g><!--MD5=[148f36b1e3a5da5da1a825f30cedd68c]
link AbstractMessage to Message--><g id="link_AbstractMessage_Message"><path codeLine="28" d="M772.28,488 C840.67,488 930,488 930,488 C930,488 930,427.72 930,427.72 " fill="none" id="AbstractMessage-to-Message" style="stroke:#181818;stroke-width:1.0;stroke-dasharray:7.0,7.0;"/><polygon fill="none" points="923,427.72,930,407.72,937,427.72,923,427.72" style="stroke:#181818;stroke-width:1.0;"/></g><!--MD5=[ab8081204e433a4199b6f3aa5410cdab]
link MessageDecorator to Message--><g id="link_MessageDecorator_Message"><path codeLine="29" d="M777.67,385.5 C777.67,385.5 834.95,385.5 834.95,385.5 " fill="none" id="MessageDecorator-to-Message" style="stroke:#181818;stroke-width:1.0;stroke-dasharray:7.0,7.0;"/><polygon fill="none" points="834.95,378.5,854.95,385.5,834.95,392.5,834.95,378.5" style="stroke:#181818;stroke-width:1.0;"/></g><!--MD5=[a7ef1d70d087ca7624077f2a392b9422]
link ResultMessage to Message--><g id="link_ResultMessage_Message"><path codeLine="30" d="M795.08,310.25 C795.08,310.25 834.83,310.25 834.83,310.25 " fill="none" id="ResultMessage-to-Message" style="stroke:#181818;stroke-width:1.0;"/><polygon fill="none" points="834.83,303.25,854.83,310.25,834.83,317.25,834.83,303.25" style="stroke:#181818;stroke-width:1.0;"/></g><!--MD5=[8084e1e7fa83c586545729d93e06d069]
link GenericMessage to AbstractMessage--><g id="link_GenericMessage_AbstractMessage"><path codeLine="31" d="M507.18,488 C507.18,488 598.73,488 598.73,488 " fill="none" id="GenericMessage-to-AbstractMessage" style="stroke:#181818;stroke-width:1.0;"/><polygon fill="none" points="598.73,481,618.73,488,598.73,495,598.73,481" style="stroke:#181818;stroke-width:1.0;"/></g><!--MD5=[f0cfd282eaebdac430a27fa24c2e7e17]
link GenericResultMessage to ResultMessage--><g id="link_GenericResultMessage_ResultMessage"><path codeLine="32" d="M526.61,312 C526.61,312 575.58,312 575.58,312 " fill="none" id="GenericResultMessage-to-ResultMessage" style="stroke:#181818;stroke-width:1.0;stroke-dasharray:7.0,7.0;"/><polygon fill="none" points="575.58,305,595.58,312,575.58,319,575.58,305" style="stroke:#181818;stroke-width:1.0;"/></g><!--MD5=[06dee38b7b093211c9ad40e167e2c334]
link CommandMessage to Message--><g id="link_CommandMessage_Message"><path codeLine="50" d="M517.16,74 C658.66,74 930,74 930,74 C930,74 930,272.48 930,272.48 " fill="none" id="CommandMessage-to-Message" style="stroke:#181818;stroke-width:1.0;"/><polygon fill="none" points="937,272.48,930,292.48,923,272.48,937,272.48" style="stroke:#181818;stroke-width:1.0;"/></g><!--MD5=[b1568c97afd41367ad53c1c93329be8c]
link GenericCommandMessage to CommandMessage--><g id="link_GenericCommandMessage_CommandMessage"><path codeLine="51" d="M251.74,71 C251.74,71 329.83,71 329.83,71 " fill="none" id="GenericCommandMessage-to-CommandMessage" style="stroke:#181818;stroke-width:1.0;stroke-dasharray:7.0,7.0;"/><polygon fill="none" points="329.83,64,349.83,71,329.83,78,329.83,64" style="stroke:#181818;stroke-width:1.0;"/></g><!--MD5=[e3f4d1bfca8afccd1328b37e13ddcd1b]
link GenericCommandMessage to MessageDecorator--><g id="link_GenericCommandMessage_MessageDecorator"><path codeLine="52" d="M251.69,87 C279.05,87 301,87 301,87 C301,87 301,396 301,396 C301,396 593.28,396 593.28,396 " fill="none" id="GenericCommandMessage-to-MessageDecorator" style="stroke:#181818;stroke-width:1.0;"/><polygon fill="none" points="593.28,389,613.28,396,593.28,403,593.28,389" style="stroke:#181818;stroke-width:1.0;"/></g><!--MD5=[cbc20df6201c3de5dd358e3868573972]
link CommandResultMessage to ResultMessage--><g id="link_CommandResultMessage_ResultMessage"><path codeLine="53" d="M532,190.09 C532,221.09 532,271 532,271 C532,271 575.68,271 575.68,271 " fill="none" id="CommandResultMessage-to-ResultMessage" style="stroke:#181818;stroke-width:1.0;"/><polygon fill="none" points="575.68,264,595.68,271,575.68,278,575.68,264" style="stroke:#181818;stroke-width:1.0;"/></g><!--MD5=[166c61fe41d1aac9b6e5e481345c21b3]
link GenericCommandResultMessage to CommandResultMessage--><g id="link_GenericCommandResultMessage_CommandResultMessage"><path codeLine="54" d="M271.13,166 C271.13,166 310.94,166 310.94,166 " fill="none" id="GenericCommandResultMessage-to-CommandResultMessage" style="stroke:#181818;stroke-width:1.0;stroke-dasharray:7.0,7.0;"/><polygon fill="none" points="310.94,159,330.94,166,310.94,173,310.94,159" style="stroke:#181818;stroke-width:1.0;"/></g><!--MD5=[fb81a6538d7c02b7fc558198c266ae53]
link GenericCommandResultMessage to GenericResultMessage--><g id="link_GenericCommandResultMessage_GenericResultMessage"><path codeLine="55" d="M147,190.06 C147,233.38 147,320 147,320 C147,320 320.48,320 320.48,320 " fill="none" id="GenericCommandResultMessage-to-GenericResultMessage" style="stroke:#181818;stroke-width:1.0;"/><polygon fill="none" points="320.48,313,340.48,320,320.48,327,320.48,313" style="stroke:#181818;stroke-width:1.0;"/></g><!--MD5=[e74cd630c0ef2e3ee5b71bf525569aa1]
@startuml
skinparam linetype ortho
left to right direction

together {

  interface Message{
    -identifier: String
    -payloadType: Class
    -payload: Object
    -metdata:  MetaData
  }

  interface ResultMessage<R> {
    -exceptional: boolean
    -exceptionDetails: Throwable
  }

  abstract AbstractMessage<T> {}
  class GenericMessage<T> {}
  class GenericResultMessage<T>

  abstract MessageDecorator<T> {
    -delegate: Message
  }
}


AbstractMessage ..|> Message
MessageDecorator ..|> Message
ResultMessage - -|> Message
GenericMessage - -|> AbstractMessage
GenericResultMessage ..|> ResultMessage

' This is a fragment of a diagram
' It is meant to be used together with generic_messaging_classes.puml

package "command messages" <<Folder>> {
  interface CommandMessage<T> {
    -commandName: String
  }

  class GenericCommandMessage<T> {}

  class GenericCommandResultMessage<T>{}

  interface CommandResultMessage<T> {}

}

CommandMessage - -|> Message
GenericCommandMessage ..|> CommandMessage
GenericCommandMessage - -|> MessageDecorator
CommandResultMessage - -|> ResultMessage
GenericCommandResultMessage ..|> CommandResultMessage
GenericCommandResultMessage - -|> GenericResultMessage
@enduml

@startuml
skinparam linetype ortho
left to right direction

together {

  interface Message{
    -identifier: String
    -payloadType: Class
    -payload: Object
    -metdata:  MetaData
  }

  interface ResultMessage<R> {
    -exceptional: boolean
    -exceptionDetails: Throwable
  }

  abstract AbstractMessage<T> {}
  class GenericMessage<T> {}
  class GenericResultMessage<T>

  abstract MessageDecorator<T> {
    -delegate: Message
  }
}


AbstractMessage ..|> Message
MessageDecorator ..|> Message
ResultMessage - -|> Message
GenericMessage - -|> AbstractMessage
GenericResultMessage ..|> ResultMessage


package "command messages" <<Folder>> {
  interface CommandMessage<T> {
    -commandName: String
  }

  class GenericCommandMessage<T> {}

  class GenericCommandResultMessage<T>{}

  interface CommandResultMessage<T> {}

}

CommandMessage - -|> Message
GenericCommandMessage ..|> CommandMessage
GenericCommandMessage - -|> MessageDecorator
CommandResultMessage - -|> ResultMessage
GenericCommandResultMessage ..|> CommandResultMessage
GenericCommandResultMessage - -|> GenericResultMessage
@enduml

PlantUML version 1.2022.5(Sat Apr 30 10:55:52 GMT 2022)
(GPL source distribution)
Java Runtime: OpenJDK Runtime Environment
JVM: OpenJDK 64-Bit Server VM
Default Encoding: UTF-8
Language: en
Country: US
--></g></svg>